<svg width="800" height="416" xmlns="http://www.w3.org/2000/svg"><defs><linearGradient x1="-7.65%" y1="50.982%" x2="93.399%" y2="49.261%" id="a"><stop stop-color="#355461" offset="0%"/><stop stop-color="#365664" offset="32.76%"/><stop stop-color="#3A5E6D" offset="54.51%"/><stop stop-color="#406A7C" offset="73.06%"/><stop stop-color="#497C91" offset="89.72%"/><stop stop-color="#508AA2" offset="100%"/></linearGradient></defs><g fill="none" fill-rule="evenodd"><path fill="#000" fill-rule="nonzero" opacity=".05" d="M421.284 10.092h106.055v84.771H421.284zm-135.779 0H391.56v84.771H285.505zm271.559 0h106.055v84.771H557.064zm135.964 0h106.055v84.771H693.028zM421.284 111.009h106.055v84.771H421.284zm-135.779 0H391.56v84.771H285.505zm271.559 0h106.055v84.771H557.064zm135.964 0h106.055v84.771H693.028z"/><path d="M249.541 139.633H61.468V.183H249.54v139.45zm-179.633-8.44h171.193V8.623H69.908v122.57z" fill="#BE3043" fill-rule="nonzero"/><path fill="#EFEFEF" fill-rule="nonzero" d="M443.853 277.982h160.734V415.23H443.853zm-189.174 0h160.734V415.23H254.679zm-188.991 0h160.734V415.23H65.688zm567.156 0h160.734V415.23H632.844z"/><g fill-rule="nonzero"><path fill="#FFF" d="M279.816 4.404h106.055v84.954H279.816z"/><path d="M386.972 90.275h-4.036v-2.018h2.018v-2.018h2.018zm-9.908 0h-5.871v-2.018h5.871v2.018zm-11.743 0h-5.871v-2.018h5.871v2.018zm-11.927 0h-5.871v-2.018h5.871v2.018zm-11.743 0h-5.871v-2.018h5.871v2.018zm-11.743 0h-5.871v-2.018h5.871v2.018zm-11.743 0h-5.871v-2.018h5.871v2.018zm-11.743 0h-5.872v-2.018h5.872v2.018zm-11.743 0h-5.872v-2.018h5.872v2.018zm-11.743 0h-4.22V86.24h2.201v2.018h2.019zm-2.019-10.092H278.9v-6.055h2.018v6.055zm0-12.11H278.9v-6.055h2.018v6.055zm0-12.11H278.9v-6.055h2.018v6.055zm0-12.11H278.9v-6.055h2.018v6.055zm0-12.293H278.9v-6.055h2.018v6.055zm0-12.11H278.9v-6.056h2.018v6.056zm0-12.11h-2.201V3.302h4.22V5.32h-2.019zm96.147-2.019h-5.871V3.303h5.871V5.32zm-11.743 0h-5.871V3.303h5.871V5.32zm-11.927 0h-5.871V3.303h5.871V5.32zm-11.743 0h-5.871V3.303h5.871V5.32zm-11.743 0h-5.871V3.303h5.871V5.32zm-11.743 0h-5.871V3.303h5.871V5.32zm-11.743 0h-5.872V3.303h5.872V5.32zm-11.743 0h-5.872V3.303h5.872V5.32zm92.293 2.019h-2.018V5.32h-2.018V3.303h4.036zm0 72.843h-2.018v-6.055h2.018v6.055zm0-12.11h-2.018v-6.055h2.018v6.055zm0-12.11h-2.018v-6.055h2.018v6.055zm0-12.11h-2.018v-6.055h2.018v6.055zm0-12.293h-2.018v-6.055h2.018v6.055zm0-12.11h-2.018v-6.056h2.018v6.056z" fill="#B2B2B2"/></g><g fill-rule="nonzero"><path fill="#FFF" d="M415.78 4.404h106.055v84.954H415.78z"/><path d="M522.936 90.275h-4.22v-2.018h2.201v-2.018h2.019zm-10.092 0h-5.872v-2.018h5.872v2.018zm-11.743 0h-5.872v-2.018h5.872v2.018zm-11.743 0h-5.872v-2.018h5.872v2.018zm-11.743 0h-5.872v-2.018h5.872v2.018zm-11.743 0H460v-2.018h5.872v2.018zm-11.744 0h-5.871v-2.018h5.871v2.018zm-11.743 0h-5.871v-2.018h5.871v2.018zm-11.926 0h-5.872v-2.018h5.872v2.018zm-11.743 0h-4.037V86.24h2.018v2.018h2.019zm-2.019-10.092h-2.018v-6.055h2.018v6.055zm0-12.11h-2.018v-6.055h2.018v6.055zm0-12.11h-2.018v-6.055h2.018v6.055zm0-12.11h-2.018v-6.055h2.018v6.055zm0-12.293h-2.018v-6.055h2.018v6.055zm0-12.11h-2.018v-6.056h2.018v6.056zm0-12.11h-2.018V3.302h4.037V5.32h-2.019zm96.147-2.019h-5.872V3.303h5.872V5.32zm-11.743 0h-5.872V3.303h5.872V5.32zm-11.743 0h-5.872V3.303h5.872V5.32zm-11.743 0h-5.872V3.303h5.872V5.32zm-11.743 0H460V3.303h5.872V5.32zm-11.744 0h-5.871V3.303h5.871V5.32zm-11.743 0h-5.871V3.303h5.871V5.32zm-11.926 0h-5.872V3.303h5.872V5.32zm92.477 2.019h-2.019V5.32h-2.201V3.303h4.22zm0 72.843h-2.019v-6.055h2.019v6.055zm0-12.11h-2.019v-6.055h2.019v6.055zm0-12.11h-2.019v-6.055h2.019v6.055zm0-12.11h-2.019v-6.055h2.019v6.055zm0-12.293h-2.019v-6.055h2.019v6.055zm0-12.11h-2.019v-6.056h2.019v6.056z" fill="#B2B2B2"/></g><g fill-rule="nonzero"><path fill="#FFF" d="M551.56 4.404h106.055v84.954H551.56z"/><path d="M658.716 90.275h-4.037v-2.018h2.018v-2.018h2.019zm-9.909 0h-5.871v-2.018h5.871v2.018zm-11.743 0h-5.871v-2.018h5.871v2.018zm-11.743 0h-5.871v-2.018h5.871v2.018zm-11.927 0h-5.871v-2.018h5.871v2.018zm-11.743 0h-5.871v-2.018h5.871v2.018zm-11.743 0h-5.871v-2.018h5.871v2.018zm-11.743 0h-5.871v-2.018h5.871v2.018zm-11.743 0h-5.872v-2.018h5.872v2.018zm-11.743 0h-4.037V86.24h2.019v2.018h2.018zm-2.019-10.092h-2.018v-6.055h2.019v6.055zm0-12.11h-2.018v-6.055h2.019v6.055zm0-12.11h-2.018v-6.055h2.019v6.055zm0-12.11h-2.018v-6.055h2.019v6.055zm0-12.293h-2.018v-6.055h2.019v6.055zm0-12.11h-2.018v-6.056h2.019v6.056zm0-12.11h-2.018V3.302h4.037V5.32h-2.018zm96.147-2.019h-5.871V3.303h5.871V5.32zm-11.743 0h-5.871V3.303h5.871V5.32zm-11.743 0h-5.871V3.303h5.871V5.32zm-11.927 0h-5.871V3.303h5.871V5.32zm-11.743 0h-5.871V3.303h5.871V5.32zm-11.743 0h-5.871V3.303h5.871V5.32zm-11.743 0h-5.871V3.303h5.871V5.32zm-11.743 0h-5.872V3.303h5.872V5.32zm92.294 2.019h-2.019V5.32h-2.018V3.303h4.037zm0 72.843h-2.019v-6.055h2.019v6.055zm0-12.11h-2.019v-6.055h2.019v6.055zm0-12.11h-2.019v-6.055h2.019v6.055zm0-12.11h-2.019v-6.055h2.019v6.055zm0-12.293h-2.019v-6.055h2.019v6.055zm0-12.11h-2.019v-6.056h2.019v6.056z" fill="#B2B2B2"/></g><g fill-rule="nonzero"><path fill="#FFF" d="M687.523 4.404h106.055v84.954H687.523z"/><path d="M794.679 90.275h-4.037v-2.018h2.019v-2.018h2.018zm-10.092 0h-5.871v-2.018h5.871v2.018zm-11.743 0h-5.872v-2.018h5.872v2.018zm-11.743 0h-5.872v-2.018h5.872v2.018zm-11.743 0h-5.872v-2.018h5.872v2.018zm-11.743 0h-5.872v-2.018h5.872v2.018zm-11.743 0H720v-2.018h5.872v2.018zm-11.744 0h-5.871v-2.018h5.871v2.018zm-11.743 0h-5.871v-2.018h5.871v2.018zm-11.926 0h-4.037V86.24h2.018v2.018h2.019zm-2.019-10.092h-2.018v-6.055h2.018v6.055zm0-12.11h-2.018v-6.055h2.018v6.055zm0-12.11h-2.018v-6.055h2.018v6.055zm0-12.11h-2.018v-6.055h2.018v6.055zm0-12.293h-2.018v-6.055h2.018v6.055zm0-12.11h-2.018v-6.056h2.018v6.056zm0-12.11h-2.018V3.302h4.037V5.32h-2.019zm96.147-2.019h-5.871V3.303h5.871V5.32zm-11.743 0h-5.872V3.303h5.872V5.32zm-11.743 0h-5.872V3.303h5.872V5.32zm-11.743 0h-5.872V3.303h5.872V5.32zm-11.743 0h-5.872V3.303h5.872V5.32zm-11.743 0H720V3.303h5.872V5.32zm-11.744 0h-5.871V3.303h5.871V5.32zm-11.743 0h-5.871V3.303h5.871V5.32zm92.294 2.019h-2.018V5.32h-2.019V3.303h4.037zm0 72.843h-2.018v-6.055h2.018v6.055zm0-12.11h-2.018v-6.055h2.018v6.055zm0-12.11h-2.018v-6.055h2.018v6.055zm0-12.11h-2.018v-6.055h2.018v6.055zm0-12.293h-2.018v-6.055h2.018v6.055zm0-12.11h-2.018v-6.056h2.018v6.056z" fill="#B2B2B2"/></g><g fill-rule="nonzero"><path fill="#FFF" d="M687.523 106.055h106.055v84.954H687.523z"/><path d="M794.679 192.11h-4.037v-2.018h2.019v-2.019h2.018zm-10.092 0h-5.871v-2.018h5.871v2.018zm-11.743 0h-5.872v-2.018h5.872v2.018zm-11.743 0h-5.872v-2.018h5.872v2.018zm-11.743 0h-5.872v-2.018h5.872v2.018zm-11.743 0h-5.872v-2.018h5.872v2.018zm-11.743 0H720v-2.018h5.872v2.018zm-11.744 0h-5.871v-2.018h5.871v2.018zm-11.743 0h-5.871v-2.018h5.871v2.018zm-11.926 0h-4.037v-4.037h2.018v2.019h2.019zm-2.019-10.092h-2.018v-6.055h2.018v6.055zm0-12.11h-2.018v-6.055h2.018v6.055zm0-12.293h-2.018v-6.055h2.018v6.055zm0-12.11h-2.018v-6.055h2.018v6.055zm0-12.11h-2.018v-6.056h2.018v6.055zm0-12.11h-2.018v-6.056h2.018v6.055zm0-12.111h-2.018v-4.036h4.037v2.018h-2.019zm96.147-2.018h-5.871v-2.018h5.871v2.018zm-11.743 0h-5.872v-2.018h5.872v2.018zm-11.743 0h-5.872v-2.018h5.872v2.018zm-11.743 0h-5.872v-2.018h5.872v2.018zm-11.743 0h-5.872v-2.018h5.872v2.018zm-11.743 0H720v-2.018h5.872v2.018zm-11.744 0h-5.871v-2.018h5.871v2.018zm-11.743 0h-5.871v-2.018h5.871v2.018zm92.294 2.018h-2.018v-2.018h-2.019v-2.018h4.037zm0 72.844h-2.018v-6.055h2.018v6.055zm0-12.11h-2.018v-6.055h2.018v6.055zm0-12.293h-2.018v-6.055h2.018v6.055zm0-12.11h-2.018v-6.055h2.018v6.055zm0-12.11h-2.018v-6.056h2.018v6.055zm0-12.11h-2.018v-6.056h2.018v6.055z" fill="#B2B2B2"/></g><g fill-rule="nonzero"><path fill="#FFF" d="M551.56 106.055h106.055v84.954H551.56z"/><path d="M658.716 192.11h-4.037v-2.018h2.018v-2.019h2.019zm-9.909 0h-5.871v-2.018h5.871v2.018zm-11.743 0h-5.871v-2.018h5.871v2.018zm-11.743 0h-5.871v-2.018h5.871v2.018zm-11.927 0h-5.871v-2.018h5.871v2.018zm-11.743 0h-5.871v-2.018h5.871v2.018zm-11.743 0h-5.871v-2.018h5.871v2.018zm-11.743 0h-5.871v-2.018h5.871v2.018zm-11.743 0h-5.872v-2.018h5.872v2.018zm-11.743 0h-4.037v-4.037h2.019v2.019h2.018zm-2.019-10.092h-2.018v-6.055h2.019v6.055zm0-12.11h-2.018v-6.055h2.019v6.055zm0-12.293h-2.018v-6.055h2.019v6.055zm0-12.11h-2.018v-6.055h2.019v6.055zm0-12.11h-2.018v-6.056h2.019v6.055zm0-12.11h-2.018v-6.056h2.019v6.055zm0-12.111h-2.018v-4.036h4.037v2.018h-2.018zm96.147-2.018h-5.871v-2.018h5.871v2.018zm-11.743 0h-5.871v-2.018h5.871v2.018zm-11.743 0h-5.871v-2.018h5.871v2.018zm-11.927 0h-5.871v-2.018h5.871v2.018zm-11.743 0h-5.871v-2.018h5.871v2.018zm-11.743 0h-5.871v-2.018h5.871v2.018zm-11.743 0h-5.871v-2.018h5.871v2.018zm-11.743 0h-5.872v-2.018h5.872v2.018zm92.294 2.018h-2.019v-2.018h-2.018v-2.018h4.037zm0 72.844h-2.019v-6.055h2.019v6.055zm0-12.11h-2.019v-6.055h2.019v6.055zm0-12.293h-2.019v-6.055h2.019v6.055zm0-12.11h-2.019v-6.055h2.019v6.055zm0-12.11h-2.019v-6.056h2.019v6.055zm0-12.11h-2.019v-6.056h2.019v6.055z" fill="#B2B2B2"/></g><g fill-rule="nonzero"><path fill="#FFF" d="M415.78 106.055h106.055v84.954H415.78z"/><path d="M522.936 192.11h-4.22v-2.018h2.201v-2.019h2.019zm-10.092 0h-5.872v-2.018h5.872v2.018zm-11.743 0h-5.872v-2.018h5.872v2.018zm-11.743 0h-5.872v-2.018h5.872v2.018zm-11.743 0h-5.872v-2.018h5.872v2.018zm-11.743 0H460v-2.018h5.872v2.018zm-11.744 0h-5.871v-2.018h5.871v2.018zm-11.743 0h-5.871v-2.018h5.871v2.018zm-11.926 0h-5.872v-2.018h5.872v2.018zm-11.743 0h-4.037v-4.037h2.018v2.019h2.019zm-2.019-10.092h-2.018v-6.055h2.018v6.055zm0-12.11h-2.018v-6.055h2.018v6.055zm0-12.293h-2.018v-6.055h2.018v6.055zm0-12.11h-2.018v-6.055h2.018v6.055zm0-12.11h-2.018v-6.056h2.018v6.055zm0-12.11h-2.018v-6.056h2.018v6.055zm0-12.111h-2.018v-4.036h4.037v2.018h-2.019zm96.147-2.018h-5.872v-2.018h5.872v2.018zm-11.743 0h-5.872v-2.018h5.872v2.018zm-11.743 0h-5.872v-2.018h5.872v2.018zm-11.743 0h-5.872v-2.018h5.872v2.018zm-11.743 0H460v-2.018h5.872v2.018zm-11.744 0h-5.871v-2.018h5.871v2.018zm-11.743 0h-5.871v-2.018h5.871v2.018zm-11.926 0h-5.872v-2.018h5.872v2.018zm92.477 2.018h-2.019v-2.018h-2.201v-2.018h4.22zm0 72.844h-2.019v-6.055h2.019v6.055zm0-12.11h-2.019v-6.055h2.019v6.055zm0-12.293h-2.019v-6.055h2.019v6.055zm0-12.11h-2.019v-6.055h2.019v6.055zm0-12.11h-2.019v-6.056h2.019v6.055zm0-12.11h-2.019v-6.056h2.019v6.055z" fill="#B2B2B2"/></g><g fill-rule="nonzero"><path fill="#FFF" d="M279.816 106.055h106.055v84.954H279.816z"/><path d="M386.972 192.11h-4.036v-2.018h2.018v-2.019h2.018zm-9.908 0h-5.871v-2.018h5.871v2.018zm-11.743 0h-5.871v-2.018h5.871v2.018zm-11.927 0h-5.871v-2.018h5.871v2.018zm-11.743 0h-5.871v-2.018h5.871v2.018zm-11.743 0h-5.871v-2.018h5.871v2.018zm-11.743 0h-5.871v-2.018h5.871v2.018zm-11.743 0h-5.872v-2.018h5.872v2.018zm-11.743 0h-5.872v-2.018h5.872v2.018zm-11.743 0h-4.22v-4.037h2.201v2.019h2.019zm-2.019-10.092H278.9v-6.055h2.018v6.055zm0-12.11H278.9v-6.055h2.018v6.055zm0-12.293H278.9v-6.055h2.018v6.055zm0-12.11H278.9v-6.055h2.018v6.055zm0-12.11H278.9v-6.056h2.018v6.055zm0-12.11H278.9v-6.056h2.018v6.055zm0-12.111h-2.201v-4.036h4.22v2.018h-2.019zm96.147-2.018h-5.871v-2.018h5.871v2.018zm-11.743 0h-5.871v-2.018h5.871v2.018zm-11.927 0h-5.871v-2.018h5.871v2.018zm-11.743 0h-5.871v-2.018h5.871v2.018zm-11.743 0h-5.871v-2.018h5.871v2.018zm-11.743 0h-5.871v-2.018h5.871v2.018zm-11.743 0h-5.872v-2.018h5.872v2.018zm-11.743 0h-5.872v-2.018h5.872v2.018zm92.293 2.018h-2.018v-2.018h-2.018v-2.018h4.036zm0 72.844h-2.018v-6.055h2.018v6.055zm0-12.11h-2.018v-6.055h2.018v6.055zm0-12.293h-2.018v-6.055h2.018v6.055zm0-12.11h-2.018v-6.055h2.018v6.055zm0-12.11h-2.018v-6.056h2.018v6.055zm0-12.11h-2.018v-6.056h2.018v6.055z" fill="#B2B2B2"/></g><path fill="url(#a)" fill-rule="nonzero" d="M65.688 207.89h727.89v53.211H65.688z"/><path stroke="#000" stroke-width=".72" d="M53.945 69.908h-2.569"/><path d="M46.606 70.459h-4.588v-1.285h4.588v1.285zm-9.175 0h-4.587v-1.285h4.587v1.285zm-11.192 2.018H24.77v-3.303h3.302v1.285H26.24zm0 167.706h-1.285v-5.32h1.285v5.32zm0-10.458h-1.285v-5.321h1.285v5.32zm0-10.459h-1.285v-5.321h1.285v5.321zm0-10.459h-1.285v-5.32h1.285v5.32zm0-10.458h-1.285v-5.321h1.285v5.32zm0-10.46h-1.285v-5.32h1.285v5.32zm0-10.641h-1.285v-5.321h1.285v5.32zm0-10.459h-1.285v-5.321h1.285v5.321zm0-10.459h-1.285v-5.32h1.285v5.32zm0-10.458h-1.285v-5.322h1.285v5.322zm0-10.46h-1.285v-5.32h1.285v5.32zm0-10.458h-1.285v-5.321h1.285v5.321zm0-10.459h-1.285v-5.32h1.285v5.32zm0-10.642h-1.285v-5.32h1.285v5.32zm0-10.459h-1.285v-5.32h1.285v5.32zm0-10.458h-1.285v-5.321h1.285v5.32zm1.834 165.871h-3.302v-3.302h1.468v2.018h1.834zm18.533 0h-4.588v-1.284h4.588v1.284zm-9.175 0h-4.587v-1.284h4.587v1.284z" fill="#000" fill-rule="nonzero"/><path stroke="#000" stroke-width=".72" d="M51.376 248.073h2.57"/><path fill="#000" fill-rule="nonzero" d="M51.376 66.055l14.312 3.853-14.312 3.853zm0 185.872l14.312-3.854-14.312-3.853z"/><path d="M160.55 88.257h-6.972v-26.79l-8.807 23.304h-7.523l-8.808-23.12v26.606h-6.972V52.844h10.275l9.174 23.853 9.175-23.853h10.275c.183 0 .183 35.413.183 35.413zm30.092-25.872c0 3.67-2.018 6.422-5.32 8.074 3.669 1.468 6.054 4.22 6.054 8.073 0 6.973-6.422 10.275-13.027 10.275-5.321 0-9.725-1.835-12.294-5.137l4.037-4.404c2.018 2.202 4.954 3.303 8.073 3.303 3.486 0 6.239-1.468 6.239-4.587 0-3.12-3.12-4.588-6.973-4.588h-4.037V67.34h4.22c3.487 0 6.24-1.467 6.24-4.587 0-2.935-2.57-4.403-5.872-4.403-3.303 0-5.688 1.651-7.156 3.67l-4.22-4.404c2.385-3.12 6.238-5.505 11.743-5.505 7.156.184 12.293 4.22 12.293 10.275z" fill="#C62D48" fill-rule="nonzero"/><path d="M370.459 235.046h-1.468v6.789h-3.303V225.32h3.303v6.606h1.468l5.504-6.606H380l-6.972 8.073 7.522 8.44h-4.22zm21.651 1.834c0 3.67-2.569 5.138-5.321 5.138-2.936 0-5.321-1.468-5.321-5.137v-6.606h3.12v6.239c0 1.835.917 2.569 2.384 2.569 1.285 0 2.386-.734 2.386-2.57v-6.238h3.12v6.606h-.368zm15.046-.733c0 3.486-2.385 6.055-5.505 6.055-1.651 0-2.752-.55-3.486-1.468v1.284h-2.936v-17.064h3.12v6.79c.734-.918 1.834-1.469 3.302-1.469 3.12-.183 5.505 2.386 5.505 5.872zm-8.99 0c0 1.835 1.1 3.12 2.935 3.12s2.936-1.469 2.936-3.12c0-1.652-1.101-3.12-2.936-3.12-1.835-.183-2.936 1.285-2.936 3.12zm22.201 0v1.1h-8.073c.367 1.652 1.467 2.386 2.935 2.386.918 0 2.019-.367 2.936-1.1L420 240.55c-1.284 1.101-2.936 1.652-4.954 1.652-3.486 0-5.872-2.385-5.872-6.055s2.386-6.055 5.688-6.055c3.12 0 5.505 2.385 5.505 6.055zm-8.257-1.101h5.138c-.367-1.468-1.101-2.202-2.57-2.202-1.467-.183-2.2.734-2.568 2.202zm18.532-4.771l-.55 3.12c-.55-.184-1.285-.367-1.835-.367-1.468 0-2.385.917-2.385 2.568v6.239h-3.12v-11.376h2.936v1.284c.734-1.1 1.835-1.468 3.303-1.468.734-.183 1.284-.183 1.651 0zm12.844 4.22v7.34h-3.119v-6.239c0-1.651-.734-2.568-2.202-2.568-1.284 0-2.385.917-2.385 2.568v6.239h-3.12v-11.376h2.936v1.284c.734-1.284 2.019-1.651 3.303-1.651 2.752 0 4.587 1.835 4.587 4.403zm13.762 1.652v1.1h-8.074c.367 1.652 1.468 2.386 2.936 2.386.918 0 2.018-.367 2.936-1.1l1.835 2.017c-1.285 1.101-2.936 1.652-4.954 1.652-3.487 0-5.872-2.385-5.872-6.055s2.385-6.055 5.688-6.055 5.505 2.385 5.505 6.055zm-8.074-1.101h5.138c-.367-1.468-1.101-2.202-2.569-2.202-1.468-.183-2.385.734-2.569 2.202zm18.716-2.018h-4.22v4.22c0 1.468.734 2.018 1.651 2.018.734 0 1.468-.367 2.202-.734l1.1 2.385c-.917.734-2.201 1.285-3.852 1.285-2.753 0-4.22-1.652-4.22-4.587v-4.587h-2.202v-2.753h2.201v-3.486h3.12v3.486h4.22v2.753zm13.21 3.119v1.1h-8.072c.366 1.652 1.467 2.386 2.935 2.386.918 0 2.019-.367 2.936-1.1l1.835 2.017c-1.284 1.101-2.936 1.652-4.954 1.652-3.486 0-5.872-2.385-5.872-6.055s2.386-6.055 5.688-6.055c3.303 0 5.505 2.385 5.505 6.055zm-8.072-1.101h5.137c-.367-1.468-1.1-2.202-2.569-2.202-1.468-.183-2.385.734-2.568 2.202zm18.715-1.468c-.917-.367-2.385-.917-3.67-.917-1.1 0-1.834.367-1.834 1.1 0 .734.733.734 1.834.918l1.101.183c2.386.367 3.854 1.468 3.854 3.487 0 2.385-2.019 3.853-5.322 3.853-1.467 0-3.67-.367-5.137-1.285l1.284-2.385c.918.734 2.202 1.101 3.853 1.101 1.468 0 2.019-.367 2.019-1.1 0-.551-.55-.918-1.835-1.102l-.918-.183c-2.568-.367-4.036-1.468-4.036-3.487 0-2.385 1.835-3.67 4.77-3.67 1.835 0 3.303.368 4.771 1.102l-.734 2.385z" fill="#FFF" fill-rule="nonzero"/><path d="M320.917 40.55h-2.201V29.541l-3.854 9.725h-2.201l-3.854-9.541V40.55h-2.201V27.34h3.302l3.853 9.357 3.854-9.541h3.302zm5.689-12.293c0 .734-.551 1.468-1.468 1.468-.734 0-1.468-.55-1.468-1.468 0-.734.55-1.468 1.468-1.468.917 0 1.468.734 1.468 1.468zm-.367 12.293h-2.019v-9.174h2.019v9.174zm11.559-5.871v5.688h-2.018v-5.138c0-1.468-.734-2.385-2.202-2.385-1.284 0-2.385.917-2.385 2.385v4.954h-2.019V31.01h2.019v1.101c.734-1.1 1.835-1.284 2.752-1.284 2.202.367 3.853 1.835 3.853 3.853zm5.322 5.871h-2.203V27.34h2.202zM360 33.761c0 4.037-2.936 6.973-6.972 6.973-4.037 0-6.973-2.936-6.973-6.973 0-4.036 2.936-6.972 6.973-6.972 4.036.183 6.972 3.12 6.972 6.972zm-11.743 0c0 2.936 2.018 4.771 4.77 4.771 2.753 0 4.771-2.018 4.771-4.77 0-2.936-2.018-4.771-4.77-4.771-2.753 0-4.771 2.018-4.771 4.77zM318.9 58.716v5.137h-2.203v-13.21h5.138c3.12 0 4.77 1.467 4.77 4.036 0 2.569-1.65 4.037-4.77 4.037h-2.936zm0-6.055v4.036h2.935c1.651 0 2.569-.734 2.569-2.018 0-1.285-.734-2.018-2.57-2.018H318.9zm19.082 6.605c0 2.752-2.019 4.77-4.954 4.77-2.936 0-4.955-2.018-4.955-4.77s2.019-4.77 4.955-4.77c2.935 0 4.954 2.018 4.954 4.77zm-7.707 0a2.898 2.898 0 0 0 2.936 2.936 2.898 2.898 0 0 0 2.936-2.936 2.898 2.898 0 0 0-2.936-2.936 2.898 2.898 0 0 0-2.936 2.936zm16.881-3.303v-5.688h2.018v13.578h-2.018v-1.1c-.55.733-1.651 1.284-2.936 1.284-2.569 0-4.587-2.019-4.587-4.77 0-2.753 2.018-4.772 4.587-4.772 1.468 0 2.386.55 2.936 1.468zm-5.321 3.303c0 1.651 1.1 2.936 2.752 2.936 1.652 0 2.752-1.285 2.752-2.936s-1.1-2.936-2.752-2.936c-1.651 0-2.752 1.468-2.752 2.936zM592.66 40.55h-2.201V29.541l-3.853 9.725h-2.202l-3.854-9.541V40.55h-2.201V27.34h3.302l3.854 9.54 3.853-9.54h3.303zm5.689-12.293c0 .734-.55 1.468-1.468 1.468-.734 0-1.468-.55-1.468-1.468 0-.734.55-1.468 1.468-1.468.917 0 1.468.734 1.468 1.468zm-.367 12.293h-2.019v-9.174h2.019v9.174zm11.559-5.871v5.688h-2.018v-5.138c0-1.468-.734-2.385-2.202-2.385-1.284 0-2.385.917-2.385 2.385v4.954h-2.019V31.01h2.019v1.101c.734-1.1 1.835-1.284 2.752-1.284 2.385.367 3.853 1.835 3.853 3.853zm5.321 5.871h-2.018V27.34h2.202v13.21zm16.881-6.789c0 4.037-2.936 6.973-6.972 6.973-4.037 0-6.973-2.936-6.973-6.973 0-4.036 2.936-6.972 6.973-6.972 4.036.183 6.972 3.12 6.972 6.972zm-11.743 0c0 2.936 2.018 4.771 4.77 4.771 2.753 0 4.771-2.018 4.771-4.77 0-2.936-2.018-4.771-4.77-4.771-2.753 0-4.771 2.018-4.771 4.77zm-29.174 24.955v5.137h-2.202v-13.21h5.137c3.12 0 4.771 1.467 4.771 4.036 0 2.569-1.651 4.037-4.77 4.037h-2.936zm0-6.055v4.036h2.935c1.652 0 2.57-.734 2.57-2.018 0-1.285-.735-2.018-2.57-2.018h-2.935zm18.899 6.605c0 2.752-2.019 4.77-4.954 4.77-2.936 0-4.954-2.018-4.954-4.77s2.018-4.77 4.954-4.77c2.935 0 4.954 2.018 4.954 4.77zm-7.707 0a2.898 2.898 0 0 0 2.936 2.936 2.898 2.898 0 0 0 2.936-2.936 2.898 2.898 0 0 0-2.936-2.936 2.898 2.898 0 0 0-2.936 2.936zm16.882-3.303v-5.688h2.017v13.578H618.9v-1.1c-.55.733-1.651 1.284-2.936 1.284-2.569 0-4.587-2.019-4.587-4.77 0-2.753 2.018-4.772 4.587-4.772 1.468 0 2.386.55 2.936 1.468zm-5.322 3.303c0 1.651 1.1 2.936 2.752 2.936 1.652 0 2.753-1.285 2.753-2.936s-1.101-2.936-2.753-2.936c-1.651 0-2.752 1.468-2.752 2.936zM456.697 40.55h-2.202V29.541l-3.853 9.725h-2.202l-3.853-9.541V40.55h-2.202V27.34h3.303l3.853 9.357 3.853-9.541h3.303V40.55zm5.688-12.293c0 .734-.55 1.468-1.468 1.468-.734 0-1.467-.55-1.467-1.468 0-.734.55-1.468 1.467-1.468.918 0 1.468.734 1.468 1.468zm-.367 12.293H460v-9.174h2.018v9.174zm11.56-5.871v5.688h-2.018v-5.138c0-1.468-.734-2.385-2.202-2.385-1.285 0-2.386.917-2.386 2.385v4.954h-2.018V31.01h2.018v1.101c.734-1.1 1.835-1.284 2.753-1.284 2.385.367 3.853 1.835 3.853 3.853zm5.505 5.871h-2.202V27.34h2.202zm16.697-6.789c0 4.037-2.936 6.973-6.973 6.973-4.036 0-6.972-2.936-6.972-6.973 0-4.036 2.936-6.972 6.972-6.972 4.22.183 6.973 3.12 6.973 6.972zm-11.56 0c0 2.936 2.019 4.771 4.77 4.771 2.753 0 4.771-2.018 4.771-4.77 0-2.936-2.018-4.771-4.77-4.771s-4.77 2.018-4.77 4.77zm-29.358 24.955v5.137h-2.201v-13.21h5.137c3.12 0 4.77 1.467 4.77 4.036 0 2.569-1.65 4.037-4.77 4.037h-2.936zm0-6.055v4.036h2.936c1.652 0 2.569-.734 2.569-2.018 0-1.285-.734-2.018-2.569-2.018h-2.936zm19.083 6.605c0 2.752-2.018 4.77-4.954 4.77s-4.954-2.018-4.954-4.77 2.018-4.77 4.954-4.77 4.954 2.018 4.954 4.77zm-7.89 0a2.898 2.898 0 0 0 2.936 2.936 2.898 2.898 0 0 0 2.936-2.936 2.898 2.898 0 0 0-2.936-2.936 2.898 2.898 0 0 0-2.936 2.936zm17.065-3.303v-5.688h2.018v13.578h-2.019v-1.1c-.55.733-1.651 1.284-2.936 1.284-2.568 0-4.587-2.019-4.587-4.77 0-2.753 2.019-4.772 4.587-4.772 1.285 0 2.202.55 2.936 1.468zm-5.322 3.303c0 1.651 1.101 2.936 2.752 2.936 1.652 0 2.753-1.285 2.753-2.936s-1.101-2.936-2.753-2.936c-1.834 0-2.752 1.468-2.752 2.936zm250.642 82.936h-2.201v-11.01l-3.854 9.725h-2.202l-3.853-9.54v10.825h-2.202V128.99h3.303l3.853 9.541 3.854-9.541h3.302zm5.872-12.11c0 .734-.55 1.468-1.468 1.468-.734 0-1.468-.55-1.468-1.468 0-.734.55-1.468 1.468-1.468.734 0 1.468.55 1.468 1.468zm-.55 12.11h-2.019v-9.174h2.018v9.174zm11.743-5.688v5.688h-2.019v-5.138c0-1.468-.734-2.385-2.202-2.385-1.284 0-2.385.917-2.385 2.385v4.954h-2.018v-9.174h2.018v1.101c.734-1.101 1.835-1.284 2.752-1.284 2.202.367 3.854 1.834 3.854 3.853zm5.321 5.688h-2.202V128.99h2.202zm16.88-6.606c0 4.037-2.935 6.973-6.972 6.973-4.037 0-6.973-2.936-6.973-6.973 0-4.036 2.936-6.972 6.973-6.972 4.037.183 6.972 3.12 6.972 6.972zm-11.743 0c0 2.936 2.019 4.771 4.77 4.771 2.753 0 4.772-2.018 4.772-4.77 0-2.936-2.019-4.771-4.771-4.771s-4.77 2.018-4.77 4.77zm-29.357 24.771v5.138h-2.202v-13.211h5.137c3.12 0 4.77 1.467 4.77 4.036 0 2.57-1.65 4.037-4.77 4.037h-2.935zm0-5.872v4.037h2.935c1.652 0 2.57-.734 2.57-2.018 0-1.285-.735-2.019-2.57-2.019h-2.935zm19.082 6.605c0 2.753-2.018 4.772-4.954 4.772s-4.954-2.019-4.954-4.771 2.018-4.77 4.954-4.77 4.954 2.018 4.954 4.77zm-7.706 0a2.898 2.898 0 0 0 2.935 2.937 2.898 2.898 0 0 0 2.936-2.936 2.898 2.898 0 0 0-2.936-2.936 2.898 2.898 0 0 0-2.935 2.936zm16.88-3.485v-5.688h2.019v13.578h-2.019v-1.101c-.55.734-1.651 1.284-2.935 1.284-2.57 0-4.588-2.018-4.588-4.77 0-2.753 2.019-4.771 4.588-4.771 1.284.183 2.385.734 2.935 1.468zm-5.32 3.486c0 1.651 1.1 2.936 2.752 2.936 1.651 0 2.752-1.285 2.752-2.936s-1.101-2.936-2.752-2.936c-1.835 0-2.753 1.285-2.753 2.936zM592.66 142.202h-2.201v-11.01l-3.853 9.725h-2.202l-3.854-9.54v10.825h-2.201V128.99h3.302l3.854 9.541 3.853-9.541h3.303zm5.689-12.11c0 .734-.55 1.468-1.468 1.468-.734 0-1.468-.55-1.468-1.468 0-.734.55-1.468 1.468-1.468.917 0 1.468.55 1.468 1.468zm-.367 12.11h-2.019v-9.174h2.019v9.174zm11.559-5.688v5.688h-2.018v-5.138c0-1.468-.734-2.385-2.202-2.385-1.284 0-2.385.917-2.385 2.385v4.954h-2.019v-9.174h2.019v1.101c.734-1.101 1.835-1.284 2.752-1.284 2.385.367 3.853 1.834 3.853 3.853zm5.321 5.688h-2.018V128.99h2.202v13.21zm16.881-6.606c0 4.037-2.936 6.973-6.972 6.973-4.037 0-6.973-2.936-6.973-6.973 0-4.036 2.936-6.972 6.973-6.972 4.036.183 6.972 3.12 6.972 6.972zm-11.743 0c0 2.936 2.018 4.771 4.77 4.771 2.753 0 4.771-2.018 4.771-4.77 0-2.936-2.018-4.771-4.77-4.771-2.753 0-4.771 2.018-4.771 4.77zm-29.174 24.771v5.138h-2.202v-13.211h5.137c3.12 0 4.771 1.467 4.771 4.036 0 2.57-1.651 4.037-4.77 4.037h-2.936zm0-5.872v4.037h2.935c1.652 0 2.57-.734 2.57-2.018 0-1.285-.735-2.019-2.57-2.019h-2.935zm18.899 6.605c0 2.753-2.019 4.772-4.954 4.772-2.936 0-4.954-2.019-4.954-4.771s2.018-4.77 4.954-4.77c2.935 0 4.954 2.018 4.954 4.77zm-7.707 0a2.898 2.898 0 0 0 2.936 2.937 2.898 2.898 0 0 0 2.936-2.936 2.898 2.898 0 0 0-2.936-2.936 2.898 2.898 0 0 0-2.936 2.936zm16.882-3.485v-5.688h2.017v13.578H618.9v-1.101c-.55.734-1.651 1.284-2.936 1.284-2.569 0-4.587-2.018-4.587-4.77 0-2.753 2.018-4.771 4.587-4.771 1.468.183 2.386.734 2.936 1.468zm-5.322 3.486c0 1.651 1.1 2.936 2.752 2.936 1.652 0 2.753-1.285 2.753-2.936s-1.101-2.936-2.753-2.936c-1.651 0-2.752 1.285-2.752 2.936zm-156.881-18.899h-2.202v-11.01l-3.853 9.725h-2.202l-3.853-9.54v10.825h-2.202V128.99h3.303l3.853 9.541 3.853-9.541h3.303zm5.688-12.11c0 .734-.55 1.468-1.468 1.468-.734 0-1.467-.55-1.467-1.468 0-.734.55-1.468 1.467-1.468.918 0 1.468.55 1.468 1.468zm-.367 12.11H460v-9.174h2.018v9.174zm11.56-5.688v5.688h-2.018v-5.138c0-1.468-.734-2.385-2.202-2.385-1.285 0-2.386.917-2.386 2.385v4.954h-2.018v-9.174h2.018v1.101c.734-1.101 1.835-1.284 2.753-1.284 2.385.367 3.853 1.834 3.853 3.853zm5.505 5.688h-2.202V128.99h2.202zm16.697-6.606c0 4.037-2.936 6.973-6.973 6.973-4.036 0-6.972-2.936-6.972-6.973 0-4.036 2.936-6.972 6.972-6.972 4.22.183 6.973 3.12 6.973 6.972zm-11.56 0c0 2.936 2.019 4.771 4.77 4.771 2.753 0 4.771-2.018 4.771-4.77 0-2.936-2.018-4.771-4.77-4.771s-4.77 2.018-4.77 4.77zm-29.358 24.771v5.138h-2.201v-13.211h5.137c3.12 0 4.77 1.467 4.77 4.036 0 2.57-1.65 4.037-4.77 4.037h-2.936zm0-5.872v4.037h2.936c1.652 0 2.569-.734 2.569-2.018 0-1.285-.734-2.019-2.569-2.019h-2.936zm19.083 6.605c0 2.753-2.018 4.772-4.954 4.772s-4.954-2.019-4.954-4.771 2.018-4.77 4.954-4.77 4.954 2.018 4.954 4.77zm-7.89 0a2.898 2.898 0 0 0 2.936 2.937 2.898 2.898 0 0 0 2.936-2.936 2.898 2.898 0 0 0-2.936-2.936 2.898 2.898 0 0 0-2.936 2.936zm17.065-3.485v-5.688h2.018v13.578h-2.019v-1.101c-.55.734-1.651 1.284-2.936 1.284-2.568 0-4.587-2.018-4.587-4.77 0-2.753 2.019-4.771 4.587-4.771a4.987 4.987 0 0 1 2.936 1.468zm-5.322 3.486c0 1.651 1.101 2.936 2.752 2.936 1.652 0 2.753-1.285 2.753-2.936s-1.101-2.936-2.753-2.936c-1.834 0-2.752 1.285-2.752 2.936zm-156.881-18.899h-2.201v-11.01l-3.854 9.725h-2.201l-3.854-9.54v10.825h-2.201V128.99h3.302l3.853 9.541 3.854-9.541h3.302zm5.689-12.11c0 .734-.551 1.468-1.468 1.468-.734 0-1.468-.55-1.468-1.468 0-.734.55-1.468 1.468-1.468.917 0 1.468.55 1.468 1.468zm-.367 12.11h-2.019v-9.174h2.019v9.174zm11.559-5.688v5.688h-2.018v-5.138c0-1.468-.734-2.385-2.202-2.385-1.284 0-2.385.917-2.385 2.385v4.954h-2.019v-9.174h2.019v1.101c.734-1.101 1.835-1.284 2.752-1.284 2.202.367 3.853 1.834 3.853 3.853zm5.322 5.688h-2.203V128.99h2.202zm16.88-6.606c0 4.037-2.936 6.973-6.972 6.973-4.037 0-6.973-2.936-6.973-6.973 0-4.036 2.936-6.972 6.973-6.972 4.036.183 6.972 3.12 6.972 6.972zm-11.743 0c0 2.936 2.018 4.771 4.77 4.771 2.753 0 4.771-2.018 4.771-4.77 0-2.936-2.018-4.771-4.77-4.771-2.753 0-4.771 2.018-4.771 4.77zM318.9 160.367v5.138h-2.203v-13.211h5.138c3.12 0 4.77 1.467 4.77 4.036 0 2.57-1.65 4.037-4.77 4.037h-2.936zm0-5.872v4.037h2.935c1.651 0 2.569-.734 2.569-2.018 0-1.285-.734-2.019-2.57-2.019H318.9zm19.082 6.605c0 2.753-2.019 4.772-4.954 4.772-2.936 0-4.955-2.019-4.955-4.771s2.019-4.77 4.955-4.77c2.935 0 4.954 2.018 4.954 4.77zm-7.707 0a2.898 2.898 0 0 0 2.936 2.937 2.898 2.898 0 0 0 2.936-2.936 2.898 2.898 0 0 0-2.936-2.936 2.898 2.898 0 0 0-2.936 2.936zm16.881-3.485v-5.688h2.018v13.578h-2.018v-1.101c-.55.734-1.651 1.284-2.936 1.284-2.569 0-4.587-2.018-4.587-4.77 0-2.753 2.018-4.771 4.587-4.771 1.468.183 2.386.734 2.936 1.468zm-5.321 3.486c0 1.651 1.1 2.936 2.752 2.936 1.652 0 2.752-1.285 2.752-2.936s-1.1-2.936-2.752-2.936c-1.651 0-2.752 1.285-2.752 2.936zM728.44 40.55h-2.201V29.541l-3.854 9.725h-2.202l-3.853-9.541V40.55h-2.202V27.34h3.303l3.853 9.54 3.854-9.54h3.302zm5.872-12.293c0 .734-.55 1.468-1.468 1.468-.734 0-1.468-.55-1.468-1.468 0-.734.55-1.468 1.468-1.468.734 0 1.468.734 1.468 1.468zm-.55 12.293h-2.019v-9.174h2.018v9.174zm11.743-5.871v5.688h-2.019v-5.138c0-1.468-.734-2.385-2.202-2.385-1.284 0-2.385.917-2.385 2.385v4.954h-2.018V31.01h2.018v1.101c.734-1.1 1.835-1.284 2.752-1.284 2.202.367 3.854 1.835 3.854 3.853zm5.321 5.871h-2.202V27.34h2.202zm16.88-6.789c0 4.037-2.935 6.973-6.972 6.973-4.037 0-6.973-2.936-6.973-6.973 0-4.036 2.936-6.972 6.973-6.972 4.037.183 6.972 3.12 6.972 6.972zm-11.743 0c0 2.936 2.019 4.771 4.77 4.771 2.753 0 4.772-2.018 4.772-4.77 0-2.936-2.019-4.771-4.771-4.771s-4.77 2.018-4.77 4.77zm-29.357 24.955v5.137h-2.202v-13.21h5.137c3.12 0 4.77 1.467 4.77 4.036 0 2.569-1.65 4.037-4.77 4.037h-2.935zm0-6.055v4.036h2.935c1.652 0 2.57-.734 2.57-2.018 0-1.285-.735-2.018-2.57-2.018h-2.935zm19.082 6.605c0 2.752-2.018 4.77-4.954 4.77s-4.954-2.018-4.954-4.77 2.018-4.77 4.954-4.77 4.954 2.018 4.954 4.77zm-7.706 0a2.898 2.898 0 0 0 2.935 2.936 2.898 2.898 0 0 0 2.936-2.936 2.898 2.898 0 0 0-2.936-2.936 2.898 2.898 0 0 0-2.935 2.936zm16.88-3.303v-5.688h2.019v13.578h-2.019v-1.1c-.55.733-1.651 1.284-2.935 1.284-2.57 0-4.588-2.019-4.588-4.77 0-2.753 2.019-4.772 4.588-4.772 1.284 0 2.385.55 2.935 1.468zm-5.32 3.303c0 1.651 1.1 2.936 2.752 2.936 1.651 0 2.752-1.285 2.752-2.936s-1.101-2.936-2.752-2.936c-1.835 0-2.753 1.468-2.753 2.936zM86.055 315.046v4.77h-2.569v-13.21h5.505c3.12 0 4.77 1.65 4.77 4.22 0 2.568-1.65 4.22-4.77 4.22h-2.936zm0-6.055v3.486h2.752c1.468 0 2.202-.55 2.202-1.835 0-1.1-.734-1.835-2.202-1.835h-2.752v.184zm12.294 2.752c.734-.917 1.651-1.284 2.568-1.284 2.019 0 3.67 1.468 3.67 3.67V320h-2.569v-5.138c0-1.284-.734-2.018-1.835-2.018-1.1 0-2.018.734-2.018 2.018v4.955H95.78v-13.762h2.385l.184 5.688zm10.641 11.927h-2.751l3.302-5.872-4.036-7.156h2.752l2.569 4.77 2.385-4.77h2.752zm14.68-10.459c-.734-.367-1.835-.734-2.936-.734-.917 0-1.468.367-1.468.917 0 .551.734.734 1.468.734l.734.184c2.018.367 3.12 1.284 3.12 2.752 0 1.835-1.469 3.12-4.221 3.12-1.284 0-2.936-.184-4.037-1.101l.918-1.835c.734.55 1.835.917 3.119.917 1.1 0 1.651-.367 1.651-.917 0-.367-.55-.734-1.468-.918l-.733-.183c-2.202-.367-3.12-1.285-3.12-2.753 0-1.834 1.468-2.935 3.853-2.935 1.468 0 2.57.183 3.854.917l-.734 1.835zm5.871-5.505c0 .918-.734 1.652-1.651 1.652a1.645 1.645 0 0 1-1.651-1.652c0-.917.733-1.651 1.65-1.651.918 0 1.652.734 1.652 1.651zM129.174 320h-2.385v-9.174h2.385V320zm10.643-7.706l-1.835 1.467c-.55-.55-1.101-.917-2.019-.917-1.284 0-2.385.917-2.385 2.569 0 1.468 1.1 2.569 2.385 2.569.734 0 1.468-.367 2.019-.918l1.835 1.468c-.918 1.101-2.202 1.651-3.67 1.651-2.936 0-4.954-2.018-4.954-4.77s2.018-4.77 4.954-4.77c1.651-.184 2.936.55 3.67 1.65zM150.459 320h-2.386v-1.1c-.55.733-1.467 1.283-2.752 1.283-2.569 0-4.404-2.018-4.404-4.77s1.835-4.77 4.404-4.77c1.285 0 2.202.55 2.752 1.284v-1.101h2.386V320zm-6.973-4.77c0 1.467.918 2.568 2.386 2.568 1.467 0 2.385-1.1 2.385-2.569 0-1.468-.918-2.568-2.385-2.568-1.468.183-2.386 1.284-2.386 2.568zm12.11 4.77h-2.385v-13.578h2.385zm19.45 0h-2.569l-6.789-8.807V320h-2.569v-13.211h2.386l6.789 8.807v-8.807h2.568zm12.11-4.77c0 2.752-2.202 4.77-4.954 4.77-2.936 0-4.954-2.018-4.954-4.77 0-2.753 2.018-4.771 4.954-4.771s4.954 2.018 4.954 4.77zm-7.34 0c0 1.467 1.101 2.568 2.386 2.568 1.284 0 2.385-1.1 2.385-2.569 0-1.468-1.1-2.568-2.385-2.568-1.285 0-2.385 1.1-2.385 2.568zm15.964-3.487v-5.504h2.385v13.578h-2.385v-1.101c-.55.734-1.468 1.284-2.752 1.284-2.57 0-4.404-2.018-4.404-4.77 0-2.753 1.835-4.771 4.404-4.771 1.284 0 2.201.55 2.752 1.284zm-4.587 3.486c0 1.468.917 2.57 2.385 2.57 1.468 0 2.385-1.102 2.385-2.57 0-1.468-.917-2.568-2.385-2.568-1.468.183-2.385 1.284-2.385 2.568zm18.165.001v.917h-6.606c.184 1.284 1.285 1.835 2.386 1.835.734 0 1.651-.367 2.385-.918l1.468 1.652c-1.101.917-2.385 1.467-3.853 1.467-2.753 0-4.771-1.834-4.771-4.77 0-2.936 1.835-4.954 4.587-4.954s4.404 2.018 4.404 4.77zm-6.422-.735h4.036c-.183-1.1-.917-1.834-2.018-1.834-1.1 0-1.835.733-2.018 1.834zm71.743.551v4.77h-2.569v-13.21h5.505c3.119 0 4.77 1.65 4.77 4.22 0 2.568-1.651 4.22-4.77 4.22h-2.936zm0-6.055v3.486h2.752c1.468 0 2.202-.55 2.202-1.835 0-1.1-.734-1.835-2.202-1.835h-2.752v.184zm12.11 2.752c.734-.917 1.651-1.284 2.569-1.284 2.018 0 3.67 1.468 3.67 3.67V320h-2.57v-5.138c0-1.284-.733-2.018-1.834-2.018s-2.018.734-2.018 2.018v4.955h-2.202v-13.762h2.385v5.688zm10.642 11.927h-2.752l3.303-5.872-4.037-7.156h2.752l2.57 4.77 2.384-4.77h2.753zm14.863-10.459c-.734-.367-1.835-.734-2.936-.734-.918 0-1.468.367-1.468.917 0 .551.734.734 1.468.734l.734.184c2.018.367 3.119 1.284 3.119 2.752 0 1.835-1.468 3.12-4.22 3.12-1.285 0-2.936-.184-4.037-1.101l.918-1.835c.734.55 1.834.917 3.119.917 1.1 0 1.651-.367 1.651-.917 0-.367-.55-.734-1.468-.918l-.734-.183c-2.201-.367-3.119-1.285-3.119-2.753 0-1.834 1.468-2.935 3.853-2.935 1.468 0 2.57.183 3.854.917l-.734 1.835zm5.871-5.505c0 .918-.734 1.652-1.651 1.652a1.645 1.645 0 0 1-1.652-1.652c0-.917.734-1.651 1.652-1.651.917 0 1.651.734 1.651 1.651zM317.798 320h-2.385v-9.174h2.385V320zm10.642-7.706l-1.834 1.467c-.551-.55-1.101-.917-2.019-.917-1.284 0-2.385.917-2.385 2.569 0 1.468 1.1 2.569 2.385 2.569.734 0 1.468-.367 2.019-.918l1.834 1.468c-.917 1.101-2.201 1.651-3.67 1.651-2.935 0-4.953-2.018-4.953-4.77s2.018-4.77 4.954-4.77c1.468-.184 2.752.55 3.67 1.65zM339.083 320h-2.386v-1.1c-.55.733-1.468 1.283-2.752 1.283-2.569 0-4.404-2.018-4.404-4.77s1.835-4.77 4.404-4.77c1.284 0 2.202.55 2.752 1.284v-1.101h2.386V320zm-7.156-4.77c0 1.467.917 2.568 2.385 2.568 1.468 0 2.385-1.1 2.385-2.569 0-1.468-.917-2.568-2.385-2.568-1.468.183-2.385 1.284-2.385 2.568zM344.22 320h-2.385v-13.578h2.385zm19.266 0h-2.569l-6.789-8.807V320h-2.568v-13.211h2.385l6.789 8.807v-8.807h2.569zm12.294-4.77c0 2.752-2.202 4.77-4.954 4.77-2.936 0-4.954-2.018-4.954-4.77 0-2.753 2.018-4.771 4.954-4.771 2.752 0 4.954 2.018 4.954 4.77zm-7.523 0c0 1.467 1.1 2.568 2.385 2.568 1.285 0 2.386-1.1 2.386-2.569 0-1.468-1.101-2.568-2.386-2.568-1.284 0-2.385 1.1-2.385 2.568zm16.147-3.487v-5.504h2.385v13.578h-2.385v-1.101c-.55.734-1.468 1.284-2.753 1.284-2.568 0-4.403-2.018-4.403-4.77 0-2.753 1.835-4.771 4.403-4.771 1.285 0 2.019.55 2.753 1.284zm-4.771 3.486c0 1.468.917 2.57 2.385 2.57 1.468 0 2.386-1.102 2.386-2.57 0-1.468-.918-2.568-2.386-2.568-1.284.183-2.385 1.284-2.385 2.568zm18.349.001v.917h-6.606c.184 1.284 1.285 1.835 2.385 1.835.734 0 1.652-.367 2.386-.918l1.468 1.652c-1.101.917-2.386 1.467-3.854 1.467-2.752 0-4.77-1.834-4.77-4.77 0-2.936 1.835-4.954 4.587-4.954 2.569 0 4.404 2.018 4.404 4.77zm-6.606-.735h4.037c-.184-1.1-.918-1.834-2.019-1.834-1.1 0-1.834.733-2.018 1.834zm71.744.551v4.77h-2.57v-13.21h5.505c3.12 0 4.77 1.65 4.77 4.22 0 2.568-1.65 4.22-4.77 4.22h-2.936zm0-6.055v3.486h2.752c1.467 0 2.201-.55 2.201-1.835 0-1.1-.734-1.835-2.201-1.835h-2.753v.184zm12.293 2.752c.734-.917 1.651-1.284 2.569-1.284 2.018 0 3.67 1.468 3.67 3.67V320h-2.57v-5.138c0-1.284-.733-2.018-1.834-2.018s-2.019.734-2.019 2.018v4.955h-2.385v-13.762h2.385v5.688h.184zm10.642 11.927h-2.752l3.303-5.872-4.037-7.156h2.752l2.569 4.77 2.385-4.77h2.753zm14.679-10.459c-.734-.367-1.835-.734-2.936-.734-.917 0-1.468.367-1.468.917 0 .551.734.734 1.468.734l.734.184c2.018.367 3.12 1.284 3.12 2.752 0 1.835-1.469 3.12-4.22 3.12-1.285 0-2.937-.184-4.038-1.101l.918-1.835c.734.55 1.835.917 3.12.917 1.1 0 1.65-.367 1.65-.917 0-.367-.55-.734-1.467-.918l-.734-.183c-2.202-.367-3.12-1.285-3.12-2.753 0-1.834 1.468-2.935 3.854-2.935 1.468 0 2.568.183 3.853.917l-.734 1.835zm5.872-5.505c0 .918-.734 1.652-1.652 1.652a1.645 1.645 0 0 1-1.651-1.652c0-.917.734-1.651 1.651-1.651.918 0 1.652.734 1.652 1.651zM506.239 320h-2.386v-9.174h2.386V320zm10.641-7.706l-1.834 1.467c-.55-.55-1.101-.917-2.018-.917-1.285 0-2.386.917-2.386 2.569 0 1.468 1.101 2.569 2.386 2.569.733 0 1.467-.367 2.018-.918l1.835 1.468c-.918 1.101-2.202 1.651-3.67 1.651-2.936 0-4.954-2.018-4.954-4.77s2.018-4.77 4.954-4.77c1.651-.184 2.936.55 3.67 1.65zM527.523 320h-2.385v-1.1c-.55.733-1.468 1.283-2.753 1.283-2.568 0-4.403-2.018-4.403-4.77s1.835-4.77 4.403-4.77c1.285 0 2.202.55 2.753 1.284v-1.101h2.385V320zm-6.973-4.77c0 1.467.918 2.568 2.386 2.568s2.385-1.1 2.385-2.569c0-1.468-.917-2.568-2.385-2.568-1.468.183-2.386 1.284-2.386 2.568zm12.11 4.77h-2.385v-13.578h2.386zm19.45 0h-2.569l-6.789-8.807V320h-2.569v-13.211h2.386l6.789 8.807v-8.807h2.569V320zm12.11-4.77c0 2.752-2.202 4.77-4.954 4.77-2.936 0-4.954-2.018-4.954-4.77 0-2.753 2.018-4.771 4.954-4.771s4.954 2.018 4.954 4.77zm-7.34 0c0 1.467 1.102 2.568 2.386 2.568s2.385-1.1 2.385-2.569c0-1.468-1.1-2.568-2.385-2.568-1.284 0-2.385 1.1-2.385 2.568zm15.964-3.487v-5.504h2.385v13.578h-2.385v-1.101c-.55.734-1.468 1.284-2.752 1.284-2.57 0-4.404-2.018-4.404-4.77 0-2.753 1.835-4.771 4.404-4.771 1.284 0 2.202.55 2.752 1.284zm-4.587 3.486c0 1.468.917 2.57 2.385 2.57 1.468 0 2.386-1.102 2.386-2.57 0-1.468-.918-2.568-2.386-2.568-1.468.183-2.385 1.284-2.385 2.568zm18.165.001v.917h-6.605c.183 1.284 1.284 1.835 2.385 1.835.734 0 1.651-.367 2.385-.918l1.468 1.652c-1.1.917-2.385 1.467-3.853 1.467-2.752 0-4.77-1.834-4.77-4.77 0-2.936 1.834-4.954 4.586-4.954 2.57 0 4.404 2.018 4.404 4.77zm-6.422-.735h4.037c-.184-1.1-.918-1.834-2.019-1.834-1.1 0-1.835.733-2.018 1.834zm71.743.551v4.77h-2.569v-13.21h5.505c3.12 0 4.77 1.65 4.77 4.22 0 2.568-1.65 4.22-4.77 4.22h-2.936zm0-6.055v3.486h2.752c1.468 0 2.202-.55 2.202-1.835 0-1.1-.734-1.835-2.202-1.835h-2.752v.184zm12.11 2.752c.734-.917 1.652-1.284 2.569-1.284 2.018 0 3.67 1.468 3.67 3.67V320h-2.386v-5.138c0-1.284-.734-2.018-1.834-2.018-1.101 0-2.019.734-2.019 2.018v4.955h-2.569v-13.762h2.57v5.688zm10.642 11.927h-2.752l3.303-5.872-4.037-7.156h2.752l2.57 4.77 2.385-4.77h2.752zm14.863-10.459c-.734-.367-1.835-.734-2.936-.734-.917 0-1.468.367-1.468.917 0 .551.734.734 1.468.734l.734.184c2.018.367 3.12 1.284 3.12 2.752 0 1.835-1.469 3.12-4.221 3.12-1.284 0-2.936-.184-4.037-1.101l.918-1.835c.734.55 1.835.917 3.119.917 1.101 0 1.651-.367 1.651-.917 0-.367-.55-.734-1.467-.918l-.734-.183c-2.202-.367-3.12-1.285-3.12-2.753 0-1.834 1.468-2.935 3.854-2.935 1.467 0 2.568.183 3.853.917l-.734 1.835zm5.872-5.505c0 .918-.735 1.652-1.652 1.652a1.645 1.645 0 0 1-1.651-1.652c0-.917.734-1.651 1.651-1.651s1.651.734 1.651 1.651zM694.861 320h-2.568v-9.174h2.568V320zm10.644-7.706l-1.835 1.467c-.55-.55-1.101-.917-2.019-.917-1.284 0-2.385.917-2.385 2.569 0 1.468 1.101 2.569 2.385 2.569.734 0 1.468-.367 2.019-.918l1.835 1.468c-.918 1.101-2.202 1.651-3.67 1.651-2.936 0-4.954-2.018-4.954-4.77s2.018-4.77 4.954-4.77c1.468-.184 2.752.55 3.67 1.65zM716.147 320h-2.386v-1.1c-.55.733-1.467 1.283-2.752 1.283-2.569 0-4.403-2.018-4.403-4.77s1.834-4.77 4.403-4.77c1.285 0 2.202.55 2.752 1.284v-1.101h2.386V320zm-7.156-4.77c0 1.467.917 2.568 2.385 2.568 1.468 0 2.385-1.1 2.385-2.569 0-1.468-.917-2.568-2.385-2.568-1.468.183-2.385 1.284-2.385 2.568zM721.1 320h-2.568v-13.578h2.569zm19.45 0h-2.568l-6.79-8.807V320h-2.568v-13.211h2.569l6.789 8.807v-8.807h2.568zm12.294-4.77c0 2.752-2.202 4.77-4.954 4.77-2.936 0-4.954-2.018-4.954-4.77 0-2.753 2.018-4.771 4.954-4.771 2.752 0 4.954 2.018 4.954 4.77zm-7.523 0c0 1.467 1.101 2.568 2.385 2.568 1.468 0 2.386-1.1 2.386-2.569 0-1.468-1.101-2.568-2.386-2.568-1.284.183-2.385 1.1-2.385 2.568zm16.147-3.487v-5.504h2.385v13.578h-2.385v-1.101c-.55.734-1.468 1.284-2.752 1.284-2.57 0-4.404-2.018-4.404-4.77 0-2.753 1.835-4.771 4.404-4.771 1.284 0 2.018.55 2.752 1.284zm-4.77 3.486c0 1.468.917 2.57 2.385 2.57 1.467 0 2.385-1.102 2.385-2.57 0-1.468-.918-2.568-2.385-2.568-1.468.183-2.386 1.284-2.386 2.568zm18.348.001v.917h-6.606c.184 1.284 1.285 1.835 2.386 1.835.734 0 1.651-.367 2.385-.918l1.468 1.652c-1.101.917-2.385 1.467-3.853 1.467-2.753 0-4.771-1.834-4.771-4.77 0-2.936 1.835-4.954 4.587-4.954 2.569 0 4.404 2.018 4.404 4.77zm-6.606-.735h4.037c-.183-1.1-.917-1.834-2.018-1.834-1.101 0-1.835.733-2.019 1.834zM82.936 164.77h-2.753v-13.76l-4.954 12.11h-2.752l-4.954-11.927v13.578H64.77v-16.698h4.22L73.76 160l4.771-11.927h4.22c.184 0 .184 16.698.184 16.698zm7.156-15.412c0 .917-.734 1.651-1.835 1.651a1.645 1.645 0 0 1-1.651-1.651c0-.918.733-1.835 1.65-1.835 1.102 0 1.836.917 1.836 1.835zm-.55 15.413h-2.57v-11.377h2.57v11.377zm14.678-7.156v7.156h-2.569v-6.422c0-1.835-.917-2.936-2.568-2.936-1.652 0-2.936 1.1-2.936 2.936v6.422h-2.569v-11.377h2.569v1.468c.917-1.284 2.385-1.651 3.486-1.651 2.569-.183 4.587 1.651 4.587 4.404zm6.79 7.155h-2.753v-16.697h2.752zm21.1-8.44c0 4.954-3.67 8.624-8.807 8.624-5.138 0-8.808-3.67-8.808-8.624 0-4.954 3.67-8.624 8.808-8.624 5.137 0 8.807 3.67 8.807 8.624zm-14.679 0c0 3.67 2.569 6.055 5.872 6.055s5.871-2.385 5.871-6.055-2.568-6.055-5.871-6.055c-3.303 0-5.872 2.569-5.872 6.055zm41.285 0c0 4.954-3.67 8.624-8.808 8.624-5.137 0-8.807-3.67-8.807-8.624 0-4.954 3.67-8.624 8.807-8.624 5.138 0 8.808 3.67 8.808 8.624zm-14.68 0c0 3.67 2.57 6.055 5.872 6.055 3.486 0 5.872-2.385 5.872-6.055s-2.569-6.055-5.872-6.055c-3.302 0-5.871 2.569-5.871 6.055zm29.725 2.753c0 3.486-2.568 6.055-5.688 6.055-1.651 0-2.752-.734-3.486-1.652v6.055h-2.569v-16.147h2.57v1.285c.733-.918 2.018-1.651 3.485-1.651 3.12 0 5.688 2.568 5.688 6.055zm-9.357 0c0 2.018 1.468 3.67 3.486 3.67 2.202 0 3.486-1.652 3.486-3.67 0-2.019-1.284-3.67-3.486-3.67s-3.486 1.468-3.486 3.67zm22.752 0V160h-8.44c.367 2.018 1.834 2.936 3.486 2.936 1.1 0 2.385-.367 3.303-1.285l1.284 1.835c-1.468 1.101-2.936 1.652-4.77 1.652-3.487 0-5.872-2.386-5.872-6.055 0-3.487 2.385-6.055 5.688-6.055 3.12 0 5.321 2.385 5.321 6.055zm-8.44-1.101h5.871c-.183-1.835-1.284-2.753-2.936-2.753-1.651 0-2.752 1.101-2.935 2.753zm19.266-4.588l-.55 2.386c-.551-.184-1.285-.367-1.836-.367-1.651 0-2.752 1.1-2.752 3.12v6.238h-2.569v-11.377h2.386v1.285c.733-1.101 1.834-1.651 3.302-1.651.734 0 1.468 0 2.019.366zm13.028 11.376h-2.57v-1.467c-.734 1.1-2.018 1.651-3.67 1.651-3.119 0-5.687-2.569-5.687-6.055 0-3.486 2.568-6.055 5.688-6.055 1.651 0 2.752.734 3.67 1.651v-1.467h2.568v11.743zm-9.175-5.687c0 2.018 1.284 3.67 3.486 3.67 2.018 0 3.486-1.652 3.486-3.67 0-2.019-1.468-3.67-3.486-3.67-2.202 0-3.486 1.651-3.486 3.67zm20.917-3.487h-4.403v4.954c0 1.468.734 2.202 1.834 2.202.734 0 1.652-.367 2.386-.734l.917 2.019c-.917.55-2.018 1.1-3.486 1.1-2.569 0-4.037-1.467-4.037-4.403v-4.954h-2.202v-2.202h2.202v-3.486h2.57v3.486h4.403v2.018h-.184zm14.496 3.487c0 3.486-2.57 6.055-6.239 6.055-3.67 0-6.055-2.57-6.055-6.055 0-3.487 2.569-6.055 6.055-6.055 3.486 0 6.239 2.568 6.239 6.055zm-9.725 0c0 2.201 1.468 3.67 3.67 3.67 2.201 0 3.67-1.469 3.67-3.67 0-2.202-1.469-3.67-3.67-3.67-2.202 0-3.67 1.468-3.67 3.67zm20.55-5.689l-.55 2.386c-.55-.184-1.284-.367-1.835-.367-1.651 0-2.752 1.1-2.752 3.12v6.238h-2.569v-11.377h2.385v1.285c.734-1.101 1.835-1.651 3.303-1.651.734 0 1.284 0 2.018.366zM7.706 220.183v-.917l-3.119-2.752v-2.386l4.037 3.487 4.404-3.487v2.386l-3.487 2.752v.917h3.303v1.835H.184v-1.835zm1.652-15.229c2.752 0 3.853 2.018 3.853 3.853 0 2.019-1.1 3.854-3.853 3.854h-4.77v-1.835h4.586c1.652 0 2.202-.918 2.202-2.019 0-1.1-.55-2.018-2.202-2.018H4.587v-1.835h4.77zm-.734-11.376c2.569 0 4.404 1.835 4.404 4.22 0 1.101-.55 2.019-1.285 2.569h1.101v1.835H.184v-1.835h5.32a3.21 3.21 0 0 1-1.284-2.569c0-2.385 1.835-4.22 4.404-4.22zm0 6.789c1.468 0 2.752-1.1 2.752-2.569 0-1.651-1.284-2.569-2.752-2.569-1.468 0-2.752.918-2.752 2.57.183 1.65 1.284 2.568 2.752 2.568zm0-16.697h.734v6.238c1.468-.183 2.202-1.284 2.202-2.569 0-.917-.367-1.65-.918-2.385l1.285-.917c.917 1.1 1.1 2.202 1.1 3.486 0 2.569-1.834 4.22-4.403 4.22-2.569 0-4.404-1.651-4.404-4.22 0-2.202 1.835-3.853 4.404-3.853zm-.734 6.238v-4.403c-1.284.183-2.018.917-2.018 2.201 0 1.285.917 2.019 2.018 2.202zM4.587 175.78l1.835.367c-.183.367-.367.917-.367 1.468 0 1.1.734 2.018 2.202 2.018h4.587v1.835h-8.44v-1.835h1.1c-.733-.55-1.1-1.468-1.1-2.385-.184-.55 0-1.101.183-1.468zm3.119-9.725h5.138v1.835H8.257c-1.468 0-2.202.734-2.202 2.018 0 1.101.734 2.202 2.202 2.202h4.587v1.835h-8.44v-1.835h1.1c-.917-.734-1.284-1.651-1.284-2.569 0-2.018 1.468-3.486 3.486-3.486zm.918-10.275h.734v6.238c1.468-.183 2.202-1.284 2.202-2.568 0-.918-.367-1.652-.918-2.386l1.285-.917c.917 1.1 1.1 2.202 1.1 3.486 0 2.569-1.834 4.22-4.403 4.22-2.569 0-4.404-1.651-4.404-4.22 0-2.202 1.835-3.853 4.404-3.853zm-.734 6.238v-4.403c-1.284.183-2.018.917-2.018 2.202 0 1.284.917 2.018 2.018 2.201zM6.239 147.89v3.303h3.67c1.1 0 1.65-.55 1.65-1.285 0-.55-.183-1.1-.55-1.651l1.468-.734c.367.734.917 1.468.917 2.569 0 1.835-1.1 2.936-3.302 2.936h-3.67v1.65H4.771v-1.65H2.2v-1.835h2.57v-3.303h1.468zm2.385-9.725h.734v6.239c1.468-.184 2.202-1.285 2.202-2.57 0-.917-.367-1.65-.918-2.384l1.285-.918c.917 1.101 1.1 2.202 1.1 3.486 0 2.57-1.834 4.22-4.403 4.22-2.569 0-4.404-1.65-4.404-4.22 0-2.201 1.835-3.853 4.404-3.853zm-.734 6.239V140c-1.284.183-2.018.917-2.018 2.202 0 1.284.917 2.018 2.018 2.202zm-1.284-14.312c-.367.55-.734 1.468-.734 2.569 0 .917.367 1.65.917 1.65s.734-.55.917-1.467l.184-.917c.183-1.835 1.1-2.936 2.569-2.936 1.651 0 2.752 1.468 2.752 3.853 0 .917-.183 2.385-1.1 3.67l-1.469-.734c.55-.55.918-1.468.918-2.752 0-1.285-.367-1.835-1.101-1.835-.55 0-.734.367-.918 1.468l-.183.917c-.184 1.835-1.101 2.936-2.386 2.936-1.65 0-2.752-1.285-2.752-3.486 0-1.285.367-2.57.918-3.487l1.468.55zm6.238-18.532v2.201l-3.12 1.285v5.504l3.12 1.285v2.018L.55 119.083v-2.386l12.294-5.137zm-4.954 8.257v-4.22l-5.321 2.018 5.32 2.202zm.183-12.111h4.771v2.019H.55v-4.77c0-2.753 1.468-4.405 3.67-4.405 2.386 0 3.67 1.468 3.67 4.404v2.752h.183zm-5.504 0h3.67v-2.752c0-1.651-.55-2.385-1.835-2.385s-1.835.734-1.835 2.385v2.752zm10.275-11.559v2.018H.55v-2.018z" fill="#000" fill-rule="nonzero"/><path d="M532.66 382.202v10.459h54.496V382.2h-54.495zm9.725 7.34c-1.1 0-2.202-.918-2.202-2.203 0-1.1.918-2.201 2.202-2.201 1.101 0 2.202.917 2.202 2.201-.183 1.285-1.1 2.202-2.202 2.202zm22.386-1.102h-14.863v-2.018h14.863v2.018zm18.165 0h-14.863v-2.018h14.863v2.018zm-50.276-24.77v10.458h54.496V363.67h-54.495zm9.725 7.523c-1.1 0-2.202-.918-2.202-2.202 0-1.285.918-2.202 2.202-2.202 1.101 0 2.202.917 2.202 2.202 0 1.284-1.1 2.202-2.202 2.202zm22.386-1.101h-14.863v-2.019h14.863v2.019zm18.165 0h-14.863v-2.019h14.863v2.019zm-50.276-24.771v10.459h54.496v-10.46h-54.495zm9.725 7.34c-1.1 0-2.202-.918-2.202-2.202 0-1.101.918-2.202 2.202-2.202 1.101 0 2.202.917 2.202 2.202-.183 1.284-1.1 2.202-2.202 2.202zm22.386-1.101h-14.863v-2.019h14.863v2.019zm18.165 0h-14.863v-2.019h14.863v2.019zm-123.853 30.642v10.459h54.495V382.2h-54.495zm9.54 7.34c-1.1 0-2.201-.918-2.201-2.203 0-1.1.917-2.201 2.202-2.201 1.1 0 2.202.917 2.202 2.201 0 1.285-.918 2.202-2.202 2.202zm22.57-1.102H476.33v-2.018h14.863v2.018zm17.981 0h-14.862v-2.018h14.862v2.018zm-50.091-24.77v10.458h54.495V363.67h-54.495zm9.54 7.523c-1.1 0-2.201-.918-2.201-2.202 0-1.285.917-2.202 2.202-2.202 1.1 0 2.202.917 2.202 2.202 0 1.284-.918 2.202-2.202 2.202zm22.57-1.101H476.33v-2.019h14.863v2.019zm17.981 0h-14.862v-2.019h14.862v2.019zm-50.091-24.771v10.459h54.495v-10.46h-54.495zm9.54 7.34c-1.1 0-2.201-.918-2.201-2.202 0-1.101.917-2.202 2.202-2.202 1.1 0 2.202.917 2.202 2.202 0 1.284-.918 2.202-2.202 2.202zm22.57-1.101H476.33v-2.019h14.863v2.019zm17.981 0h-14.862v-2.019h14.862v2.019zM344.22 382.202v10.459h54.496V382.2H344.22zm9.541 7.34c-1.1 0-2.201-.918-2.201-2.203 0-1.1.917-2.201 2.201-2.201 1.101 0 2.202.917 2.202 2.201 0 1.285-.917 2.202-2.202 2.202zm22.57-1.102h-14.863v-2.018h14.862v2.018zm17.98 0H379.45v-2.018h14.862v2.018zm-50.091-24.77v10.458h54.496V363.67H344.22zm9.541 7.523c-1.1 0-2.201-.918-2.201-2.202 0-1.285.917-2.202 2.201-2.202 1.101 0 2.202.917 2.202 2.202 0 1.284-.917 2.202-2.202 2.202zm22.57-1.101h-14.863v-2.019h14.862v2.019zm17.98 0H379.45v-2.019h14.862v2.019zm-50.091-24.771v10.459h54.496v-10.46H344.22zm9.541 7.34c-1.1 0-2.201-.918-2.201-2.202 0-1.101.917-2.202 2.201-2.202 1.101 0 2.202.917 2.202 2.202 0 1.284-.917 2.202-2.202 2.202zm22.57-1.101h-14.863v-2.019h14.862v2.019zm17.98 0H379.45v-2.019h14.862v2.019zm-123.852 30.642v10.459h54.495V382.2H270.46zm9.724 7.34c-1.1 0-2.201-.918-2.201-2.203 0-1.1.917-2.201 2.201-2.201 1.101 0 2.202.917 2.202 2.201-.183 1.285-1.1 2.202-2.202 2.202zm22.386-1.102h-14.863v-2.018h14.863v2.018zm18.165 0h-14.862v-2.018h14.862v2.018zm-50.275-24.77v10.458h54.495V363.67H270.46zm9.724 7.523c-1.1 0-2.201-.918-2.201-2.202 0-1.285.917-2.202 2.201-2.202 1.101 0 2.202.917 2.202 2.202 0 1.284-1.1 2.202-2.202 2.202zm22.386-1.101h-14.863v-2.019h14.863v2.019zm18.165 0h-14.862v-2.019h14.862v2.019zm-50.275-24.771v10.459h54.495v-10.46H270.46zm9.724 7.34c-1.1 0-2.201-.918-2.201-2.202 0-1.101.917-2.202 2.201-2.202 1.101 0 2.202.917 2.202 2.202-.183 1.284-1.1 2.202-2.202 2.202zm22.386-1.101h-14.863v-2.019h14.863v2.019zm18.165 0h-14.862v-2.019h14.862v2.019zm-165.138 30.642v10.459h54.496V382.2h-54.496zm9.725 7.34c-1.1 0-2.202-.918-2.202-2.203 0-1.1.918-2.201 2.202-2.201 1.101 0 2.202.917 2.202 2.201-.184 1.285-1.101 2.202-2.202 2.202zm22.385-1.102h-14.862v-2.018h14.862v2.018zm18.166 0h-14.863v-2.018h14.863v2.018zm-50.276-24.77v10.458h54.496V363.67h-54.496zm9.725 7.523c-1.1 0-2.202-.918-2.202-2.202 0-1.285.918-2.202 2.202-2.202 1.101 0 2.202.917 2.202 2.202 0 1.284-1.101 2.202-2.202 2.202zm22.385-1.101h-14.862v-2.019h14.862v2.019zm18.166 0h-14.863v-2.019h14.863v2.019zm-50.276-24.771v10.459h54.496v-10.46h-54.496zm9.725 7.34c-1.1 0-2.202-.918-2.202-2.202 0-1.101.918-2.202 2.202-2.202 1.101 0 2.202.917 2.202 2.202-.184 1.284-1.101 2.202-2.202 2.202zm22.385-1.101h-14.862v-2.019h14.862v2.019zm18.166 0h-14.863v-2.019h14.863v2.019zM82.018 382.202v10.459h54.496V382.2H82.018zm9.542 7.34c-1.101 0-2.202-.918-2.202-2.203 0-1.1.917-2.201 2.202-2.201 1.1 0 2.201.917 2.201 2.201 0 1.285-.917 2.202-2.201 2.202zm22.568-1.102H99.266v-2.018h14.862v2.018zm17.982 0h-14.862v-2.018h14.862v2.018zm-50.092-24.77v10.458h54.496V363.67H82.018zm9.542 7.523c-1.101 0-2.202-.918-2.202-2.202 0-1.285.917-2.202 2.202-2.202 1.1 0 2.201.917 2.201 2.202 0 1.284-.917 2.202-2.201 2.202zm22.568-1.101H99.266v-2.019h14.862v2.019zm17.982 0h-14.862v-2.019h14.862v2.019zm-50.092-24.771v10.459h54.496v-10.46H82.018zm9.542 7.34c-1.101 0-2.202-.918-2.202-2.202 0-1.101.917-2.202 2.202-2.202 1.1 0 2.201.917 2.201 2.202 0 1.284-.917 2.202-2.201 2.202zm22.568-1.101H99.266v-2.019h14.862v2.019zm17.982 0h-14.862v-2.019h14.862v2.019zm589.174 30.642v10.459h54.496V382.2h-54.496zm9.542 7.34c-1.101 0-2.202-.918-2.202-2.203 0-1.1.917-2.201 2.202-2.201 1.1 0 2.202.917 2.202 2.201 0 1.285-.918 2.202-2.202 2.202zm22.568-1.102h-14.862v-2.018h14.862v2.018zm17.982 0h-14.862v-2.018h14.862v2.018zm-50.092-24.77v10.458h54.496V363.67h-54.496zm9.542 7.523c-1.101 0-2.202-.918-2.202-2.202 0-1.285.917-2.202 2.202-2.202 1.1 0 2.202.917 2.202 2.202 0 1.284-.918 2.202-2.202 2.202zm22.568-1.101h-14.862v-2.019h14.862v2.019zm17.982 0h-14.862v-2.019h14.862v2.019zm-50.092-24.771v10.459h54.496v-10.46h-54.496zm9.542 7.34c-1.101 0-2.202-.918-2.202-2.202 0-1.101.917-2.202 2.202-2.202 1.1 0 2.202.917 2.202 2.202 0 1.284-.918 2.202-2.202 2.202zm22.568-1.101h-14.862v-2.019h14.862v2.019zm17.982 0h-14.862v-2.019h14.862v2.019zm-123.853 30.642v10.459h54.495V382.2h-54.495zm9.725 7.34c-1.101 0-2.202-.918-2.202-2.203 0-1.1.917-2.201 2.202-2.201 1.1 0 2.202.917 2.202 2.201-.184 1.285-1.101 2.202-2.202 2.202zm22.385-1.102h-14.862v-2.018h14.862v2.018zm18.165 0h-14.862v-2.018h14.862v2.018zm-50.275-24.77v10.458h54.495V363.67h-54.495zm9.725 7.523c-1.101 0-2.202-.918-2.202-2.202 0-1.285.917-2.202 2.202-2.202 1.1 0 2.202.917 2.202 2.202 0 1.284-1.101 2.202-2.202 2.202zm22.385-1.101h-14.862v-2.019h14.862v2.019zm18.165 0h-14.862v-2.019h14.862v2.019zm-50.275-24.771v10.459h54.495v-10.46h-54.495zm9.725 7.34c-1.101 0-2.202-.918-2.202-2.202 0-1.101.917-2.202 2.202-2.202 1.1 0 2.202.917 2.202 2.202-.184 1.284-1.101 2.202-2.202 2.202zm22.385-1.101h-14.862v-2.019h14.862v2.019zm18.165 0h-14.862v-2.019h14.862v2.019z" fill="#B2B2B2" fill-rule="nonzero"/></g></svg>