<svg width="798" height="612" xmlns="http://www.w3.org/2000/svg"><defs><linearGradient x1="50%" y1="0%" x2="50%" y2="100%" id="a"><stop stop-color="#C52E48" offset="2%"/><stop stop-color="#D14F59" offset="86%"/></linearGradient><linearGradient x1="50%" y1="0%" x2="50%" y2="100%" id="b"><stop stop-color="#C52E48" offset="2%"/><stop stop-color="#D14F59" offset="86%"/></linearGradient><linearGradient x1="50%" y1="0%" x2="50%" y2="100%" id="c"><stop stop-color="#C52E48" offset="2%"/><stop stop-color="#D14F59" offset="86%"/></linearGradient><linearGradient x1="50%" y1="99.634%" x2="50%" y2=".611%" id="d"><stop stop-color="#C62D48" offset="2%"/><stop stop-color="#C72F49" offset="33.13%"/><stop stop-color="#CA384E" offset="51.28%"/><stop stop-color="#D04655" offset="66.1%"/><stop stop-color="#D85A5F" offset="79.04%"/><stop stop-color="#E1706B" offset="89.48%"/><stop stop-color="#FBC094" offset="100%"/></linearGradient><linearGradient x1="16.777%" y1="83.218%" x2="86.123%" y2="13.882%" id="e"><stop stop-color="#355461" offset="0%"/><stop stop-color="#385B69" offset="5.704%"/><stop stop-color="#436F82" offset="27.06%"/><stop stop-color="#4A7E94" offset="49.33%"/><stop stop-color="#4F879F" offset="72.9%"/><stop stop-color="#508AA2" offset="100%"/></linearGradient><linearGradient x1="14.232%" y1="85.768%" x2="83.568%" y2="16.427%" id="f"><stop stop-color="#355461" offset="0%"/><stop stop-color="#385B69" offset="5.704%"/><stop stop-color="#436F82" offset="27.06%"/><stop stop-color="#4A7E94" offset="49.33%"/><stop stop-color="#4F879F" offset="72.9%"/><stop stop-color="#508AA2" offset="100%"/></linearGradient><linearGradient x1="50%" y1="98.995%" x2="50%" y2="-1.174%" id="g"><stop stop-color="#C62D48" offset="2%"/><stop stop-color="#D24F59" offset="86%"/></linearGradient><linearGradient x1="50%" y1="97.841%" x2="50%" y2="-.218%" id="h"><stop stop-color="#C62D48" offset="2%"/><stop stop-color="#D24F59" offset="86%"/></linearGradient><linearGradient x1="50%" y1="98.218%" x2="50%" y2=".155%" id="i"><stop stop-color="#C62D48" offset="2%"/><stop stop-color="#D24F59" offset="86%"/></linearGradient><linearGradient x1="50%" y1="100.655%" x2="50%" y2="2.591%" id="j"><stop stop-color="#C62D48" offset="2%"/><stop stop-color="#D24F59" offset="86%"/></linearGradient><linearGradient x1="50%" y1="99.641%" x2="50%" y2="1.582%" id="k"><stop stop-color="#C62D48" offset="2%"/><stop stop-color="#D24F59" offset="86%"/></linearGradient><linearGradient x1="50%" y1="98.882%" x2="50%" y2=".823%" id="l"><stop stop-color="#C62D48" offset="2%"/><stop stop-color="#D24F59" offset="86%"/></linearGradient><linearGradient x1="50%" y1="98.109%" x2="50%" y2=".045%" id="m"><stop stop-color="#C62D48" offset="2%"/><stop stop-color="#D24F59" offset="86%"/></linearGradient><linearGradient x1="50%" y1="100.382%" x2="50%" y2="2.323%" id="n"><stop stop-color="#C62D48" offset="2%"/><stop stop-color="#D24F59" offset="86%"/></linearGradient><linearGradient x1="50%" y1="98.964%" x2="50%" y2=".9%" id="o"><stop stop-color="#C62D48" offset="2%"/><stop stop-color="#D24F59" offset="86%"/></linearGradient><linearGradient x1="50%" y1="100.168%" x2="50%" y2="2.109%" id="p"><stop stop-color="#C62D48" offset="2%"/><stop stop-color="#D24F59" offset="86%"/></linearGradient><linearGradient x1="50%" y1="96.809%" x2="50%" y2="-1.25%" id="q"><stop stop-color="#C62D48" offset="2%"/><stop stop-color="#D24F59" offset="86%"/></linearGradient><linearGradient x1="50%" y1="98.077%" x2="50%" y2=".014%" id="r"><stop stop-color="#C62D48" offset="2%"/><stop stop-color="#D24F59" offset="86%"/></linearGradient><linearGradient x1="50%" y1="99.055%" x2="50%" y2=".995%" id="s"><stop stop-color="#C62D48" offset="2%"/><stop stop-color="#D24F59" offset="86%"/></linearGradient><linearGradient x1="50%" y1="97.509%" x2="50%" y2="-.55%" id="t"><stop stop-color="#C62D48" offset="2%"/><stop stop-color="#D24F59" offset="86%"/></linearGradient><linearGradient x1="50%" y1="98.086%" x2="50%" y2=".023%" id="u"><stop stop-color="#C62D48" offset="2%"/><stop stop-color="#D24F59" offset="86%"/></linearGradient><linearGradient x1="50%" y1="100.473%" x2="50%" y2="2.409%" id="v"><stop stop-color="#C62D48" offset="2%"/><stop stop-color="#D24F59" offset="86%"/></linearGradient><linearGradient x1="50%" y1="100.35%" x2="50%" y2="2.286%" id="w"><stop stop-color="#C62D48" offset="2%"/><stop stop-color="#D24F59" offset="86%"/></linearGradient><linearGradient x1="50%" y1="98.532%" x2="50%" y2=".473%" id="x"><stop stop-color="#C62D48" offset="2%"/><stop stop-color="#D24F59" offset="86%"/></linearGradient><linearGradient x1="50%" y1="99.845%" x2="50%" y2="1.786%" id="y"><stop stop-color="#C62D48" offset="2%"/><stop stop-color="#D24F59" offset="86%"/></linearGradient><linearGradient x1="50%" y1="99.314%" x2="50%" y2="1.255%" id="z"><stop stop-color="#C62D48" offset="2%"/><stop stop-color="#D24F59" offset="86%"/></linearGradient><linearGradient x1="50%" y1="98.914%" x2="50%" y2=".855%" id="A"><stop stop-color="#C62D48" offset="2%"/><stop stop-color="#D24F59" offset="86%"/></linearGradient><linearGradient x1="50%" y1="100%" x2="50%" y2="1.941%" id="B"><stop stop-color="#C62D48" offset="2%"/><stop stop-color="#D24F59" offset="86%"/></linearGradient><linearGradient x1="50%" y1="98.442%" x2="50%" y2="-.584%" id="C"><stop stop-color="#C62D48" offset="2%"/><stop stop-color="#C72F49" offset="33.13%"/><stop stop-color="#CA384E" offset="51.28%"/><stop stop-color="#D04655" offset="66.1%"/><stop stop-color="#D85A5F" offset="79.04%"/><stop stop-color="#E1706B" offset="89.48%"/><stop stop-color="#FBC094" offset="100%"/></linearGradient></defs><g fill="none"><path fill="#000" opacity=".05" d="M193.155 210.411h604.749v401.096H193.155z"/><path fill="#FFF" d="M187.676 204.932h603.47v401.096h-603.47z"/><path d="M792.425 605.845H188.406V204.2h604.019v401.644zm-603.47-.548h602.922v-400.73H188.954v400.73z" fill="#D7D7D7"/><path d="M384.753 273.79h-1.643v-8.767l-3.105 7.671h-1.827l-3.105-7.671v8.584h-1.644v-10.593h2.557l3.105 7.488 3.105-7.488h2.557zm4.567-9.68c0 .548-.548 1.095-1.096 1.095s-1.096-.547-1.096-1.095c0-.548.548-1.096 1.096-1.096s1.096.548 1.096 1.096zm-.366 9.68h-1.643v-7.306h1.643v7.306zm9.133-4.566v4.566h-1.644v-4.018c0-1.279-.548-1.827-1.644-1.827-1.096 0-1.826.73-1.826 1.827v4.018h-1.644v-7.306h1.644v.913c.548-.913 1.46-1.096 2.191-1.096 1.827.183 2.923 1.279 2.923 2.923zm4.383 4.566h-1.644v-10.594h1.644zm13.334-5.297c0 3.105-2.375 5.48-5.48 5.48-3.105 0-5.48-2.375-5.48-5.48 0-3.105 2.375-5.48 5.48-5.48 3.105 0 5.48 2.375 5.48 5.48zm-9.315 0c0 2.192 1.643 3.836 3.835 3.836s3.836-1.644 3.836-3.836-1.644-3.835-3.836-3.835-3.835 1.643-3.835 3.835zm19.178 5.297h-1.827l-2.922-7.306h1.644l2.191 5.662 2.192-5.662h1.644zm9.133-5.297c-.366-.182-1.28-.548-2.193-.548s-1.278.366-1.278.913c0 .548.548.731 1.278.731l.73.183c1.645.182 2.558.913 2.558 2.191 0 1.462-1.279 2.375-3.288 2.375-.73 0-2.009-.183-3.105-.913l.73-1.096c.549.365 1.28.73 2.375.73 1.096 0 1.644-.365 1.644-.913 0-.365-.365-.73-1.278-.73l-.731-.183c-1.644-.183-2.374-.913-2.374-2.192 0-1.461 1.095-2.374 2.922-2.374 1.096 0 2.192.365 2.922.73l-.913 1.096zm8.766-.73h5.662v-4.384h1.644v10.594h-1.644v-4.567h-5.662v4.567h-1.644v-10.594h1.644zm14.429-4.567c3.288 0 5.48 2.01 5.48 5.297 0 3.288-2.192 5.297-5.48 5.297h-4.2v-10.594h4.2zm-2.374 1.644v7.306h2.557c2.557 0 3.653-1.461 3.653-3.653s-1.278-3.653-3.653-3.653h-2.557zm17.534 4.566h-5.48v4.567h-1.643v-10.594h7.489v1.644h-5.845v2.74h5.48v1.643zm9.498-3.836c-.913-.547-1.827-.912-2.922-.912-1.462 0-2.375.547-2.375 1.643 0 .914.913 1.279 2.192 1.462l.73.182c1.644.183 3.47.913 3.47 2.923 0 2.191-2.008 3.287-4.2 3.287-1.461 0-3.105-.548-4.201-1.46l.913-1.28c.73.731 2.01 1.096 3.288 1.096 1.461 0 2.557-.548 2.557-1.643 0-.914-.913-1.279-2.374-1.462l-.914-.182c-1.643-.183-3.105-.913-3.105-2.923 0-2.191 1.827-3.287 4.201-3.287 1.461 0 2.74.365 3.836 1.096l-1.096 1.46zm11.689 2.558h-2.557v5.845h-1.46v-5.845h-1.462v-1.461h1.461v-1.279c0-1.461.73-2.557 2.375-2.557.913 0 1.46.183 2.009.548l-.548 1.279c-.365-.183-.913-.366-1.279-.366-.548 0-.913.366-.913 1.096v1.279h2.557l-.183 1.46zm8.768 2.192c0 2.191-1.644 3.835-3.836 3.835s-3.836-1.644-3.836-3.835c0-2.192 1.644-3.836 3.836-3.836s3.836 1.644 3.836 3.836zm-6.028 0c0 1.278.913 2.374 2.192 2.374 1.279 0 2.192-.913 2.192-2.374 0-1.279-.913-2.375-2.192-2.375-1.279 0-2.192.913-2.192 2.375zm12.968-3.653l-.365 1.644c-.365-.183-.73-.183-1.279-.183-1.095 0-1.643.73-1.643 2.009v4.018h-1.644v-7.306h1.644v.73c.548-.73 1.278-1.095 2.009-1.095.548 0 .913 0 1.278.183zm9.133 7.123h-1.644v-8.402l-2.74 1.096v-1.644l4.384-1.826zm14.064-8.95h-3.47v8.95h-1.645v-8.95h-3.47v-1.644h8.585zm5.844-1.644c2.192 0 4.019.73 4.019 2.923 0 1.096-.731 2.009-1.644 2.192.913.365 1.826 1.278 1.826 2.374 0 2.192-1.461 3.105-4.018 3.105h-4.384v-10.594h4.201zm-2.374 1.644v2.923h2.374c1.096 0 2.192-.183 2.192-1.462 0-1.278-1.096-1.46-2.192-1.46h-2.374zm0 4.566v2.923h2.557c1.279 0 2.192-.183 2.192-1.461 0-1.279-.913-1.462-2.192-1.462h-2.557zm17.169-6.21c3.288 0 5.48 2.01 5.48 5.297 0 3.288-2.192 5.297-5.48 5.297h-4.201v-10.594h4.2zm-2.557 1.644v7.306h2.557c2.557 0 3.653-1.461 3.653-3.653s-1.279-3.653-3.653-3.653h-2.557zm17.169 8.95h-1.644v-.913c-.548.73-1.279 1.096-2.192 1.096-2.009 0-3.653-1.644-3.653-3.836s1.644-3.836 3.653-3.836c1.096 0 1.827.366 2.192 1.096v-.73h1.644v7.123zm-5.845-3.47c0 1.278.913 2.374 2.192 2.374 1.278 0 2.192-.913 2.192-2.374 0-1.279-.914-2.375-2.192-2.375-1.461 0-2.192 1.096-2.192 2.375zm13.151-2.192h-2.74v3.105c0 .913.548 1.278 1.096 1.278s1.096-.182 1.461-.548l.548 1.279c-.548.365-1.279.73-2.192.73-1.644 0-2.557-.913-2.557-2.74v-3.104h-1.461v-1.461h1.461v-2.192h1.644v2.192h2.74v1.46zm8.949 5.662h-1.643v-.913c-.548.73-1.279 1.096-2.192 1.096-2.01 0-3.653-1.644-3.653-3.836s1.644-3.836 3.653-3.836c1.096 0 1.826.366 2.192 1.096v-.73h1.643v7.123zm-5.844-3.47c0 1.278.913 2.374 2.191 2.374 1.279 0 2.192-.913 2.192-2.374 0-1.279-.913-2.375-2.192-2.375-1.46 0-2.191 1.096-2.191 2.375zm13.333-1.827c-.365-.182-1.279-.548-2.192-.548-.913 0-1.278.366-1.278.913 0 .548.548.731 1.278.731l.73.183c1.645.182 2.558.913 2.558 2.191 0 1.462-1.279 2.375-3.288 2.375-.73 0-2.009-.183-3.105-.913l.73-1.096c.549.365 1.28.73 2.375.73 1.096 0 1.644-.365 1.644-.913 0-.365-.365-.73-1.278-.73l-.731-.183c-1.644-.183-2.374-.913-2.374-2.192 0-1.461 1.095-2.374 2.922-2.374 1.096 0 2.192.365 2.922.73l-.913 1.096zm9.132 1.827v.548h-5.296c.182 1.278 1.096 1.826 2.191 1.826.731 0 1.462-.365 2.01-.73l.73 1.095c-.913.731-1.826 1.096-2.922 1.096-2.192 0-3.653-1.46-3.653-3.835 0-2.192 1.461-3.836 3.653-3.836 1.826 0 3.287 1.461 3.287 3.836zm-5.296-.731h3.835c-.182-1.096-.913-1.826-1.826-1.826-1.279 0-1.827.73-2.01 1.826zm12.054-1.461h-2.74v3.105c0 .913.549 1.278 1.097 1.278.548 0 1.095-.182 1.46-.548l.549 1.279c-.548.365-1.279.73-2.192.73-1.644 0-2.557-.913-2.557-2.74v-3.104h-1.461v-1.461h1.46v-2.192h1.645v2.192h2.74v1.46z" fill="#3F4040"/><path fill="#D7D7D7" d="M268.224 310.685H745.85v1H268.224zm0 157.078H745.85v1H268.224zm0-52.42H745.85v1H268.224zm0-52.238H745.85v1H268.224z"/><path d="M683.384 405.297h32.328c1.462 0 2.557 1.096 2.557 2.557v112.511h-37.443V407.854c0-1.461 1.096-2.557 2.558-2.557z" fill="#BBB"/><path d="M448.402 235.251h32.329c1.46 0 2.557 1.096 2.557 2.557v79.818h-37.443v-79.818c0-1.461 1.278-2.557 2.557-2.557z" fill="url(#a)" transform="translate(187.128 202.74)"/><path d="M524.48 359.635h32.328c1.461 0 2.557 1.096 2.557 2.557v158.173h-37.443V362.192c0-1.279 1.096-2.557 2.557-2.557z" fill="#BBB"/><path d="M289.68 234.52h32.33c1.46 0 2.556 1.096 2.556 2.558v80.548h-37.443v-80.548c0-1.462 1.096-2.557 2.557-2.557z" fill="url(#b)" transform="translate(187.128 202.74)"/><path d="M365.575 415.16h32.33c1.46 0 2.556 1.096 2.556 2.557v102.648h-37.443V417.717c0-1.461 1.279-2.557 2.557-2.557z" fill="#BBB"/><path d="M130.776 231.598h32.329c1.461 0 2.557 1.096 2.557 2.557v83.47H128.22v-83.47c0-1.46 1.279-2.557 2.557-2.557z" fill="url(#c)" transform="translate(187.128 202.74)"/><path d="M330.142 450.594c0 .913-.548 1.278-1.096 1.643.73.366 1.278.731 1.278 1.644 0 1.279-1.278 2.01-2.74 2.01-1.46 0-2.74-.731-2.74-2.01 0-.913.549-1.46 1.28-1.644-.549-.365-1.097-.73-1.097-1.643 0-1.279 1.096-2.01 2.557-2.01 1.279 0 2.558.731 2.558 2.01zm-4.201 3.287c0 .73.73 1.096 1.643 1.096.914 0 1.462-.365 1.462-1.096 0-.73-.73-1.096-1.462-1.096-.913 0-1.643.366-1.643 1.096zm.182-3.287c0 .73.548 1.095 1.461 1.095.731 0 1.462-.365 1.462-1.095 0-.731-.548-1.096-1.462-1.096-.913 0-1.46.365-1.46 1.096zm5.114-.914c.366-.548.914-1.278 2.375-1.278 1.461 0 2.374.913 2.374 2.374 0 .913-.548 1.461-.913 2.01l-1.826 2.009h2.922v1.095h-4.749v-.913l2.557-2.74c.365-.365.73-.913.73-1.278 0-.73-.547-1.279-1.278-1.279-.73 0-1.096.366-1.461.731l-.73-.73zm12.055 2.557c0 2.375-1.278 3.653-3.105 3.653-1.644 0-3.105-1.46-3.105-3.653 0-2.374 1.279-3.653 3.105-3.653 1.644 0 3.105 1.279 3.105 3.653zm-4.931 0c0 1.644.913 2.558 1.826 2.558 1.096 0 1.827-.914 1.827-2.558 0-1.643-.914-2.557-1.827-2.557-.913 0-1.826.914-1.826 2.557zm34.155-15.525h-1.096v-5.662l-1.826.73v-1.095l2.922-1.279zm7.671-3.652c0 2.374-1.278 3.652-3.105 3.652-1.644 0-3.105-1.46-3.105-3.653 0-2.374 1.279-3.653 3.105-3.653 1.827 0 3.105 1.279 3.105 3.653zm-4.749 0c0 1.643.914 2.556 1.827 2.556 1.096 0 1.826-.913 1.826-2.557 0-1.643-.913-2.557-1.826-2.557-1.096 0-1.827.914-1.827 2.557zm12.238 0c0 2.374-1.279 3.652-3.105 3.652-1.644 0-3.105-1.46-3.105-3.653 0-2.374 1.278-3.653 3.105-3.653 1.644 0 3.105 1.279 3.105 3.653zm-4.932 0c0 1.643.914 2.556 1.827 2.556 1.096 0 1.826-.913 1.826-2.557 0-1.643-.913-2.557-1.826-2.557-1.096 0-1.827.914-1.827 2.557zm10.594-2.558h-2.922v1.644h.913c1.644 0 2.374 1.096 2.374 2.192 0 1.644-1.096 2.374-2.557 2.374-1.096 0-1.826-.365-2.557-1.096l.73-.73c.366.548 1.097.73 1.827.73.913 0 1.279-.548 1.279-1.278 0-.548-.366-1.279-1.644-1.279h-1.644v-3.835h4.018l.183 1.278zm96.073 21.918l-3.105 6.393h-1.279l3.105-6.21h-3.653v-1.096h4.932zm3.653 3.653h-.548c-1.279 0-2.374-1.096-2.374-2.374 0-1.279 1.095-2.375 2.557-2.375 1.46 0 2.557 1.096 2.557 2.375 0 .548-.183 1.096-.73 1.826l-2.01 3.105h-1.279l1.827-2.557zm1.096-2.192c0-.73-.548-1.278-1.461-1.278-.914 0-1.462.548-1.462 1.278s.548 1.279 1.462 1.279c.913 0 1.46-.548 1.46-1.279zm6.758-.365c0 .73-.365 1.279-1.096 1.644.73.365 1.278.913 1.278 1.644 0 1.46-1.278 2.009-2.557 2.009-1.096 0-2.009-.366-2.557-1.096l.73-.73c.366.547 1.097.73 1.645.73.73 0 1.46-.365 1.46-1.096 0-.73-.73-1.096-1.643-1.096h-.913v-1.096h.913c.73 0 1.461-.365 1.461-1.096 0-.73-.548-1.096-1.278-1.096s-1.096.366-1.461.731l-.731-.73c.365-.731 1.278-1.096 2.374-1.096 1.462.365 2.375 1.095 2.375 2.374zm31.963-72.329h-1.096v-5.662l-1.826.73v-1.095l2.922-1.279zm6.21-6.027h-3.105v1.644h.914c1.643 0 2.374 1.096 2.374 2.191 0 1.644-1.096 2.375-2.557 2.375-1.096 0-1.827-.365-2.557-1.096l.73-.73c.366.547 1.096.73 1.827.73.913 0 1.278-.548 1.278-1.279 0-.548-.365-1.278-1.643-1.278h-1.644v-3.836h4.018v1.279h.365zm6.21-.183l-3.105 6.393h-1.278l3.105-6.21h-3.653v-1.096h4.931zm5.479 1.096c0 .73-.364 1.279-1.095 1.644.73.365 1.278.913 1.278 1.644 0 1.46-1.278 2.009-2.557 2.009-1.095 0-2.009-.365-2.557-1.096l.73-.73c.366.547 1.097.73 1.645.73.73 0 1.46-.365 1.46-1.096 0-.73-.73-1.096-1.643-1.096h-.913v-1.096h.913c.73 0 1.461-.365 1.461-1.096 0-.73-.548-1.095-1.278-1.095s-1.096.365-1.461.73l-.731-.73c.365-.731 1.279-1.096 2.374-1.096 1.462.182 2.375 1.096 2.375 2.374zm97.352 77.077l-3.105 6.393h-1.278l3.105-6.21H643.2v-1.096h4.931zm6.21 1.097c0 .913-.547 1.278-1.095 1.643.73.366 1.278.731 1.278 1.644 0 1.279-1.278 2.01-2.74 2.01-1.46 0-2.74-.731-2.74-2.01 0-.913.549-1.46 1.28-1.644-.549-.365-1.097-.73-1.097-1.643 0-1.279 1.096-2.01 2.557-2.01 1.279 0 2.557.731 2.557 2.01zm-4.2 3.287c0 .73.73 1.096 1.643 1.096.914 0 1.462-.365 1.462-1.096 0-.73-.731-1.096-1.462-1.096-.913 0-1.643.366-1.643 1.096zm.182-3.287c0 .73.548 1.095 1.461 1.095.731 0 1.462-.365 1.462-1.095 0-.731-.548-1.096-1.462-1.096-.913 0-1.46.365-1.46 1.096zm10.046-1.097l-3.105 6.393h-1.279l3.105-6.21h-3.653v-1.096h4.932zm30.685-26.3h-1.096v-5.663l-1.827.73v-1.095l2.923-1.279zm4.201 0h-1.096v-5.663l-1.827.73v-1.095l2.923-1.279zm7.854-3.654c0 2.375-1.279 3.653-3.105 3.653-1.644 0-3.105-1.46-3.105-3.653 0-2.374 1.278-3.653 3.105-3.653 1.643 0 3.105 1.462 3.105 3.653zm-4.932 0c0 1.644.913 2.557 1.827 2.557 1.095 0 1.826-.913 1.826-2.557 0-1.643-.913-2.557-1.826-2.557-.914 0-1.827.914-1.827 2.557zm12.238 0c0 2.375-1.279 3.653-3.105 3.653-1.644 0-3.106-1.46-3.106-3.653 0-2.374 1.279-3.653 3.106-3.653 1.643 0 3.105 1.462 3.105 3.653zm-4.932 0c0 1.644.913 2.557 1.827 2.557 1.095 0 1.826-.913 1.826-2.557 0-1.643-.913-2.557-1.826-2.557-.914 0-1.827.914-1.827 2.557z" fill="#FFF"/><path d="M238.27 314.886h2.74v.73h-3.654v-.73c.548-.548.913-.913 1.279-1.461.365-.548.548-.73.73-.914a2.53 2.53 0 0 1 .548-.73c.183-.183.183-.365.183-.548 0-.365-.183-.548-.365-.73-.183-.183-.548-.366-.731-.366-.183 0-.548 0-.73.183-.183 0-.549.182-.914.365v-.913c.365-.183.548-.183.73-.366.183 0 .549-.182.731-.182.548 0 1.096.182 1.462.548.365.365.547.73.547 1.278 0 .183 0 .548-.182.73-.183.183-.365.549-.548.914l-.73.73c0 .366-.366.731-1.097 1.462zm6.027-5.48c.73 0 1.096.183 1.461.731s.548 1.279.548 2.374c0 1.096-.183 1.827-.548 2.375-.365.548-.73.73-1.461.73-.73 0-1.096-.182-1.461-.73-.366-.548-.548-1.279-.548-2.375 0-1.095.182-1.826.548-2.374.365-.548.73-.73 1.46-.73zm0 .548c-.365 0-.73.183-.913.548-.183.366-.366 1.096-.366 1.827v1.096l1.827-2.923c0-.365-.183-.548-.548-.548zm0 4.932c.365 0 .73-.183.913-.548.183-.365.365-1.096.365-1.827v-1.278l-1.826 2.922c-.183.548.183.73.548.73zm4.931-5.48c.73 0 1.096.183 1.461.731.366.548.548 1.279.548 2.374 0 1.096-.182 1.827-.548 2.375-.365.548-.73.73-1.46.73-.731 0-1.097-.182-1.462-.73s-.548-1.279-.548-2.375c0-1.095.183-1.826.548-2.374.365-.548.913-.73 1.461-.73zm0 .548c-.365 0-.73.183-.913.548-.183.366-.365 1.096-.365 1.827v1.096l1.826-2.923c0-.365-.182-.548-.548-.548zm0 4.932c.366 0 .73-.183.914-.548.182-.365.365-1.096.365-1.827v-1.278l-1.827 2.922c-.182.548.183.73.548.73zm4.932-5.48c.73 0 1.096.183 1.461.731s.548 1.279.548 2.374c0 1.096-.183 1.827-.548 2.375-.365.548-.73.73-1.461.73-.73 0-1.096-.182-1.461-.73-.366-.548-.548-1.279-.548-2.375 0-1.095.182-1.826.548-2.374.365-.548.913-.73 1.46-.73zm0 .548c-.365 0-.73.183-.913.548-.183.366-.366 1.096-.366 1.827v1.096l1.827-2.923c.182-.365-.183-.548-.548-.548zm0 4.932c.365 0 .73-.183.913-.548.183-.365.365-1.096.365-1.827v-1.278l-1.826 2.922c0 .548.183.73.548.73zm-16.256 52.237h1.279v-4.566l-1.462.73v-.73l1.462-.73h.73v5.296h1.279v.73h-3.288zm4.749-5.297h3.105v.731h-2.374v1.461c.182 0 .182 0 .365-.182h.365c.548 0 1.096.182 1.461.548.366.365.548.913.548 1.46 0 .549-.182 1.097-.548 1.462-.365.365-.913.548-1.643.548h-.914c-.365 0-.548-.183-.73-.183v-.913c.182.183.548.183.73.365.183 0 .548.183.73.183.366 0 .731-.183 1.097-.365.182-.183.365-.548.365-1.096 0-.366-.183-.73-.365-.913-.183-.183-.548-.366-1.096-.366h-.548c-.183 0-.365.183-.548.183v-2.923zm6.575 0c.73 0 1.096.183 1.461.731.366.548.548 1.279.548 2.375 0 1.095-.182 1.826-.548 2.374-.365.548-.73.73-1.46.73-.731 0-1.097-.182-1.462-.73s-.548-1.279-.548-2.374c0-1.096.183-1.827.548-2.375.365-.548.913-.73 1.461-.73zm0 .548c-.365 0-.73.183-.913.548-.183.366-.365 1.096-.365 1.827v1.096l1.826-2.923c0-.365-.182-.548-.548-.548zm0 4.932c.366 0 .73-.183.914-.548.182-.365.365-1.096.365-1.826v-1.279l-1.827 2.922c-.182.548.183.73.548.73zm4.932-5.48c.73 0 1.096.183 1.461.731s.548 1.279.548 2.375c0 1.095-.183 1.826-.548 2.374-.365.548-.73.73-1.461.73-.73 0-1.096-.182-1.461-.73-.366-.548-.548-1.279-.548-2.374 0-1.096.182-1.827.548-2.375.365-.548.913-.73 1.46-.73zm0 .548c-.365 0-.73.183-.913.548-.183.366-.366 1.096-.366 1.827v1.096l1.827-2.923c.182-.365-.183-.548-.548-.548zm0 4.932c.365 0 .73-.183.913-.548.183-.365.365-1.096.365-1.826v-1.279l-1.826 2.922c0 .548.183.73.548.73zm-16.256 52.237h1.279v-4.566l-1.462.73v-.73l1.462-.73h.73v5.296h1.279v.731h-3.288zm6.393-5.479c.73 0 1.096.183 1.461.73.365.548.548 1.28.548 2.375 0 1.096-.183 1.826-.548 2.374-.365.548-.73.731-1.461.731-.73 0-1.096-.183-1.461-.73-.366-.549-.548-1.28-.548-2.375 0-1.096.182-1.827.548-2.374.365-.366.73-.731 1.46-.731zm0 .73c-.365 0-.73.183-.913.548-.183.366-.366 1.096-.366 1.827v1.096l1.827-2.923c0-.365-.183-.547-.548-.547zm0 4.932c.365 0 .73-.183.913-.548.183-.365.365-1.096.365-1.826v-1.279l-1.826 2.922c-.183.548.183.731.548.731zm4.931-5.662c.73 0 1.096.183 1.461.73.366.548.548 1.28.548 2.375 0 1.096-.182 1.826-.548 2.374-.365.548-.73.731-1.46.731-.731 0-1.097-.183-1.462-.73-.365-.549-.548-1.28-.548-2.375 0-1.096.183-1.827.548-2.374.365-.366.913-.731 1.461-.731zm0 .73c-.365 0-.73.183-.913.548-.183.366-.365 1.096-.365 1.827v1.096l1.826-2.923c0-.365-.182-.547-.548-.547zm0 4.932c.366 0 .73-.183.914-.548.182-.365.365-1.096.365-1.826v-1.279l-1.827 2.922c-.182.548.183.731.548.731zm4.932-5.662c.73 0 1.096.183 1.461.73.365.548.548 1.28.548 2.375 0 1.096-.183 1.826-.548 2.374-.365.548-.73.731-1.461.731-.73 0-1.096-.183-1.461-.73-.366-.549-.548-1.28-.548-2.375 0-1.096.182-1.827.548-2.374.365-.366.913-.731 1.46-.731zm0 .73c-.365 0-.73.183-.913.548-.183.366-.366 1.096-.366 1.827v1.096l1.827-2.923c.182-.365-.183-.547-.548-.547zm0 4.932c.365 0 .73-.183.913-.548.183-.365.365-1.096.365-1.826v-1.279l-1.826 2.922c0 .548.183.731.548.731zm-11.507 46.941h3.105v.73h-2.374v1.461c.182 0 .182 0 .365-.182h.365c.548 0 1.096.182 1.461.548.366.365.548.913.548 1.46 0 .549-.182 1.097-.548 1.462-.365.365-.913.548-1.643.548h-.914c-.182 0-.548-.183-.73-.183v-.913c.182.183.548.183.73.365.183 0 .548.183.73.183.366 0 .731-.183 1.097-.365.365-.183.365-.548.365-1.096 0-.365-.183-.73-.365-.913-.183-.183-.548-.366-1.096-.366h-.548c-.183 0-.365.183-.548.183v-2.922zm6.575-.183c.73 0 1.096.183 1.461.73.366.549.548 1.28.548 2.375 0 1.096-.182 1.827-.548 2.374-.365.548-.73.731-1.46.731-.731 0-1.097-.183-1.462-.73-.365-.548-.548-1.28-.548-2.375 0-1.096.183-1.826.548-2.374.365-.548.913-.731 1.461-.731zm0 .73c-.365 0-.73.183-.913.549-.183.365-.365 1.095-.365 1.826v1.096l1.826-2.922c0-.366-.182-.548-.548-.548zm0 4.932c.366 0 .73-.183.914-.548.182-.365.365-1.096.365-1.826v-1.279l-1.827 2.923c-.182.365.183.73.548.73zm4.932-5.662c.73 0 1.096.183 1.461.73.365.549.548 1.28.548 2.375 0 1.096-.183 1.827-.548 2.374-.365.548-.73.731-1.461.731-.73 0-1.096-.183-1.461-.73-.366-.548-.548-1.28-.548-2.375 0-1.096.182-1.826.548-2.374.365-.548.913-.731 1.46-.731zm0 .73c-.365 0-.73.183-.913.549-.183.365-.366 1.095-.366 1.826v1.096l1.827-2.922c.182-.366-.183-.548-.548-.548zm0 4.932c.365 0 .73-.183.913-.548.183-.365.365-1.096.365-1.826v-1.279l-1.826 2.923c0 .365.183.73.548.73zm0 46.758c.73 0 1.096.183 1.461.73.365.549.548 1.28.548 2.375 0 1.096-.183 1.827-.548 2.375-.365.548-.73.73-1.461.73-.73 0-1.096-.182-1.461-.73-.366-.548-.548-1.279-.548-2.375s.182-1.826.548-2.374c.365-.548.913-.73 1.46-.73zm0 .548c-.365 0-.73.183-.913.548-.183.365-.366 1.096-.366 1.826v1.096l1.827-2.922c.182-.365-.183-.548-.548-.548zm0 4.932c.365 0 .73-.183.913-.548.183-.366.365-1.096.365-1.827v-1.278l-1.826 2.922c0 .548.183.73.548.73zm-39.087-63.197c0-.182.183-.182.183-.365s.365-.183.548-.365l2.557-1.279v1.461l-1.827.914s-.182 0-.182.182c-.548.183-.731.548-.731.913v.366h2.74v1.46h-6.94v-2.008c0-.913.182-1.461.547-2.01.365-.547.913-.547 1.644-.547.548 0 .913.182 1.096.365.182.183.365.365.365.913zm-2.557 1.827h1.826v-.73c0-.366 0-.731-.182-.731-.183-.183-.365-.183-.73-.183-.366 0-.549 0-.731.183-.183.182-.183.365-.183.73v.73zm4.018-4.567h-3.47v-1.46h3.288c.365 0 .73 0 .73-.183.183-.183.183-.366.183-.548 0-.183-.183-.366-.365-.548-.183-.183-.548-.183-.914-.183h-3.105v-1.461h5.297v1.461h-.73c.365.183.547.183.73.548.183.183.183.548.183.913 0 .548-.183.914-.548 1.096-.366.183-.548.365-1.279.365zm-1.644-10.045h3.47v1.278h-3.287c-.365 0-.73 0-.73.183-.183.183-.183.365-.183.548 0 .183.182.365.365.548.183.183.548.183.913.183h2.923v1.278h-5.297v-1.278h.73c-.365-.183-.547-.183-.73-.548-.183-.183-.183-.548-.183-.914 0-.548.183-.913.548-1.096.366-.182.913-.182 1.461-.182zm-3.287-4.018h1.46v-1.827h1.097v1.827h2.557c.183 0 .365 0 .548-.183.182-.183.182-.365.182-.548v-1.096h1.096v1.096c0 .73-.182 1.279-.365 1.644s-.73.365-1.461.365h-2.375v1.279h-1.095v-1.279h-1.462v-1.278h-.182zm-1.096-4.932v-1.461h1.644v1.461h-1.644zm2.557 1.279v-2.74h4.2v-1.644h1.097v4.749h-1.096v-1.644h-3.105v1.279h-1.096zm.548-8.037c-.183-.183-.365-.183-.548-.365-.183-.183-.183-.366-.183-.548 0-.365.183-.73.548-.913.366-.183.913-.183 2.01-.183h2.922v1.096h-4.018s-.183.182-.183.365 0 .183.182.365c.183 0 .366.183.731.183h3.288v1.096h-3.288c-.365 0-.73 0-.73.183-.183 0-.183.182-.183.365s0 .183.182.365h4.019v1.096h-5.297v-.913h.548c-.183 0-.365-.183-.548-.365-.183-.183-.183-.366-.183-.548 0-.183 0-.366.183-.548.183-.548.365-.73.548-.73zm4.566-7.671c.183.365.183.73.365.913 0 .365.183.73.183 1.096 0 .913-.183 1.644-.73 2.01-.549.547-1.096.73-2.01.73-.913 0-1.46-.183-2.009-.73-.548-.366-.73-1.097-.73-1.827 0-.731.182-1.462.73-1.827s1.096-.73 2.01-.73h.547v3.653c.366 0 .73-.183.913-.366.183-.182.366-.548.366-1.096 0-.365 0-.548-.183-.913 0-.365-.183-.548-.365-.913h.913zm-3.105 1.096c-.365 0-.548.182-.913.365-.183.183-.365.365-.365.73 0 .366.182.549.365.731.182.183.548.366.73.366l.183-2.192zm-4.018-11.872c.73.365 1.461.73 2.192.913.73.182 1.46.365 2.191.365.73 0 1.462-.183 2.192-.365.73-.183 1.461-.548 2.192-.913v1.095c-.73.548-1.461.914-2.192 1.096-.73.183-1.461.366-2.192.366-.73 0-1.46-.183-2.191-.366-.731-.182-1.462-.548-2.192-1.096v-1.095zm2.192-6.027h1.278c-.183.182-.365.547-.365.73 0 .182-.183.548-.183.913s0 .548.183.73c0 .183.182.183.365.183s.365-.365.548-1.096l.183-.365c.182-.548.365-.913.548-1.096.182-.182.548-.365 1.096-.365.547 0 .913.183 1.278.548.365.365.365.913.365 1.644v.913c0 .365-.182.73-.182 1.096h-1.279c.183-.366.365-.548.365-.913 0-.366.183-.548.183-.914 0-.365 0-.548-.183-.73-.182-.183-.182-.183-.365-.183-.182 0-.365 0-.365.183-.183.182-.183.365-.365.913v.365c-.183.548-.366.913-.548 1.096-.183.183-.548.365-1.096.365s-.913-.182-1.096-.548c-.365-.365-.365-.913-.365-1.46v-.914c-.183-.548 0-.913 0-1.096zm4.931-6.394c.183.366.183.731.365.914 0 .365.183.73.183 1.096 0 .913-.183 1.643-.73 2.009-.549.548-1.096.73-2.01.73-.913 0-1.46-.182-2.009-.73-.548-.366-.73-1.096-.73-1.827 0-.73.182-1.46.73-1.826.548-.366 1.096-.73 2.01-.73h.547v3.652c.366 0 .73-.182.913-.365.183-.183.366-.548.366-1.096 0-.365 0-.548-.183-.913 0-.366-.183-.548-.365-.914h.913zm-3.105 1.096c-.365 0-.548.183-.913.366-.183.182-.365.365-.365.73 0 .366.182.548.365.73.182.184.548.366.73.366l.183-2.192zm3.105-6.758c.183.183.183.548.365.731 0 .183.183.548.183.913 0 .73-.183 1.461-.73 1.827-.549.365-1.096.73-2.01.73-.913 0-1.46-.182-2.009-.73-.548-.548-.73-1.096-.73-1.827 0-.365 0-.548.182-.73 0-.183.183-.548.366-.731h1.278c-.183.183-.365.365-.365.73-.183.183-.183.549-.183.731 0 .366.183.73.365 1.096.366.183.731.365 1.279.365.548 0 .913-.182 1.278-.365.366-.183.366-.548.366-1.096 0-.182 0-.548-.183-.73-.183-.183-.183-.366-.365-.731h.913v-.183zm-2.374-1.278c-.914 0-1.462-.183-2.01-.73-.547-.366-.73-1.097-.73-1.827s.183-1.279.73-1.827c.548-.365 1.096-.73 2.01-.73.913 0 1.46.182 2.009.73.548.366.73 1.096.73 1.827 0 .73-.182 1.278-.73 1.826s-1.279.73-2.01.73zm-1.644-2.375c0 .366.182.548.365.731.183.183.73.365 1.279.365.548 0 .913-.182 1.278-.365s.365-.365.365-.73c0-.366-.182-.549-.365-.731-.365-.183-.73-.365-1.278-.365s-.914.182-1.279.365c-.365.182-.365.365-.365.73zm.73-7.853h3.47v1.278h-3.287c-.365 0-.73 0-.73.183-.183.182-.183.365-.183.548 0 .182.182.365.365.548.183.182.548.182.913.182h2.923v1.279h-5.297v-1.279h.73c-.365-.182-.547-.182-.73-.548-.183-.182-.183-.548-.183-.913 0-.548.183-.913.548-1.096.366-.182.913-.182 1.461-.182zm-1.095-4.567h-2.74v-1.46h7.306v1.46h-.73c.364.183.547.366.73.548.182.183.182.548.182.914 0 .547-.182 1.095-.73 1.46-.548.366-1.096.549-2.01.549-.913 0-1.643-.183-2.008-.548-.548-.366-.731-.73-.731-1.461 0-.366 0-.548.183-.731.182-.183.365-.548.548-.73zm2.009 2.01c.548 0 .913 0 1.278-.183s.365-.365.365-.73c0-.366-.182-.549-.365-.731-.365-.183-.73-.183-1.278-.183s-.914 0-1.279.183c-.365.182-.365.365-.365.73 0 .366.182.548.365.73.365 0 .73.183 1.279.183zm-2.557-8.768h1.278c-.183.183-.365.548-.365.73 0 .184-.183.549-.183.914s0 .548.183.73c0 .183.182.183.365.183s.365-.365.548-1.095l.183-.366c.182-.548.365-.913.548-1.096.182-.182.548-.365 1.096-.365.547 0 .913.183 1.278.548.365.365.365.913.365 1.644v.913c0 .365-.182.73-.182 1.096h-1.279c.183-.365.365-.548.365-.913 0-.366.183-.548.183-.914 0-.365 0-.547-.183-.73-.182-.183-.182-.183-.365-.183-.182 0-.365 0-.365.183-.183.183-.183.365-.365.913v.365c-.183.548-.366.914-.548 1.096-.183.183-.548.366-1.096.366s-.913-.183-1.096-.548c-.365-.366-.365-.914-.365-1.462v-.913c-.183-.548 0-.73 0-1.096zm-2.192-2.557v-1.096c.73-.548 1.461-.913 2.192-1.096.73-.182 1.46-.365 2.191-.365.73 0 1.462.183 2.192.365.73.183 1.461.548 2.192 1.096v1.096c-.73-.365-1.461-.73-2.192-.913-.73-.183-1.461-.365-2.192-.365-.73 0-1.46.182-2.191.365-.731.183-1.462.548-2.192.913z" fill="#231F20"/><path fill="#D7D7D7" d="M268.224 520.183H745.85v1H268.224z"/><g transform="translate(422.744 562.557)"><path d="M21.553 9.863h-.914V2.374L17.534 8.95h-1.096l-2.922-6.576v7.489h-.913V1.279h1.46l3.106 6.575 3.105-6.575h1.461zm3.47-7.853c0 .364-.365.73-.73.73-.366 0-.731-.366-.731-.73 0-.366.365-.731.73-.731.548 0 .73.365.73.73zm-.183 7.853h-.913V4.018h.913v5.845zm7.489-3.653v3.653h-.913V6.575c0-1.096-.548-1.826-1.644-1.826-.914 0-1.827.73-1.827 1.826v3.288h-.913V4.018h.913v.914c.548-.731 1.279-.914 2.01-.914 1.46 0 2.374.914 2.374 2.192zm3.287 3.653h-.913V1.279h.913zm10.959-4.201c0 2.557-1.826 4.384-4.383 4.384s-4.384-1.827-4.384-4.384c0-2.557 1.827-4.383 4.384-4.383 2.557-.183 4.383 1.643 4.383 4.383zm-7.854 0c0 2.01 1.462 3.47 3.47 3.47 2.01 0 3.471-1.46 3.471-3.47 0-2.009-1.461-3.47-3.47-3.47-2.01 0-3.47 1.278-3.47 3.47zm61.553-.548h5.297V1.28h.913v8.584h-.913V6.027h-5.297v3.836h-.913V1.279h.913zm11.872-3.835c2.74 0 4.566 1.643 4.566 4.383 0 2.557-1.826 4.384-4.566 4.384h-3.288V1.46l3.288-.182zm-2.192.913V8.95h2.192c2.375 0 3.653-1.279 3.653-3.47 0-2.01-1.278-3.47-3.653-3.47l-2.192.182zm14.612 3.835h-4.749v3.836h-1.096V1.279h6.028v.913h-4.932v2.922h4.75zm7.854-3.105c-.73-.548-1.644-.73-2.557-.73-1.279 0-2.192.548-2.192 1.644 0 .73.73 1.278 2.01 1.46l.913.183c1.46.183 2.74.731 2.74 2.192 0 1.644-1.645 2.557-3.471 2.557-1.279 0-2.557-.365-3.47-1.096l.548-.73c.548.548 1.643.913 2.922.913 1.279 0 2.374-.548 2.374-1.644 0-.913-.73-1.278-2.009-1.461l-.913-.183c-1.461-.182-2.557-.913-2.557-2.374 0-1.644 1.461-2.557 3.288-2.557 1.278 0 2.374.365 3.105.913l-.73.913z" fill="#231F20"/><circle fill="url(#d)" cx="4.749" cy="5.297" r="3.47"/><circle fill="#BBB" cx="91.507" cy="5.297" r="3.47"/></g><path d="M338.726 533.15h4.566v.731h-1.826v5.297h-.913v-5.297h-1.827zm8.95 3.288v.366h-3.105c0 .548.182 1.096.365 1.278.183.183.548.365 1.096.365.183 0 .548 0 .73-.182.183 0 .549-.183.731-.365v.73c-.365.183-.548.183-.73.183h-.731c-.73 0-1.279-.183-1.644-.548-.365-.365-.548-.913-.548-1.644 0-.73.183-1.279.548-1.644.365-.365.913-.548 1.461-.548s1.096.183 1.279.548c.365.365.548.913.548 1.461zm-.73-.182c0-.366-.183-.548-.366-.73a1.395 1.395 0 0 0-.913-.366c-.366 0-.548.182-.914.365-.182.183-.365.548-.365.73h2.557zm5.844-.731c-.183-.183-.365-.183-.548-.183h-.548c-.365 0-.73.183-1.096.366-.182.365-.365.73-.365 1.278v2.192h-.548v-4.383h.73v.913c.183-.366.366-.548.548-.73.183-.183.548-.183.914-.183h.548c.182 0 .365.182.365.182v.548zm4.384.913v2.557h-.731v-.73l-.548.548c-.183.182-.548.182-.913.182-.366 0-.73-.182-1.096-.365-.183-.183-.365-.548-.365-1.096s.182-.913.547-1.096c.366-.182.731-.365 1.462-.365h.913v-.183c0-.365-.183-.548-.183-.73-.182-.183-.548-.183-.913-.183-.183 0-.548 0-.73.183-.183 0-.549.182-.731.365v-.73c.182-.183.548-.183.73-.183h.731c.365 0 .73 0 .913.183.183.182.548.182.548.547.183.183.183.366.183.548.183-.182.183.183.183.548zm-1.279.366h-.183c-.365 0-.73 0-.913.182-.183.183-.365.366-.365.73 0 .184 0 .549.182.549.183.182.366.182.731.182s.73-.182.913-.365c.183-.365.366-.73.366-1.096v-.182h-.731zm5.845-2.192v.73c-.183-.182-.366-.182-.548-.182h-.73c-.366 0-.549 0-.731.182-.183.183-.183.183-.183.548 0 .183 0 .366.183.366.182.182.365.182.913.365h.365c.365 0 .548.183.73.365.183.183.366.548.366.73 0 .366-.183.731-.548 1.097-.365.182-.73.365-1.278.365h-.731c-.183 0-.548-.183-.73-.183v-.73c.182.182.547.182.73.365.183.183.548.183.73.183.366 0 .548 0 .731-.183.183-.183.183-.365.183-.548 0-.365-.366-.548-.913-.73h-.183c-.365 0-.73-.183-.913-.366-.183-.182-.366-.365-.366-.73 0-.366.183-.73.366-.914.365-.182.73-.365 1.278-.365h.73c.183-.365.366-.365.549-.365zm3.47-.182c.548 0 1.096.182 1.461.547.366.365.548.913.548 1.644 0 .73-.182 1.279-.548 1.644-.365.365-.73.548-1.461.548-.548 0-1.096-.183-1.461-.548-.365-.365-.548-.913-.548-1.644 0-.73.183-1.279.548-1.644.365-.365.913-.548 1.461-.548zm0 .547c-.365 0-.73.183-.913.365-.183.366-.365.731-.365 1.279 0 .548.182.913.365 1.279.182.365.548.365.913.365s.73-.183.913-.365c.183-.183.366-.731.366-1.279 0-.548-.183-.913-.366-1.279a1.395 1.395 0 0 0-.913-.365zm6.94.548c-.182-.183-.365-.183-.547-.183h-.548c-.366 0-.73.183-1.096.366-.183.365-.365.73-.365 1.278v2.192h-.731v-4.383h.73v.913a2.5 2.5 0 0 1 .549-.73c.182-.183.547-.183.913-.183h.548c.182 0 .365.182.365.182v.548h.183zm2.74-2.192v1.279h1.644v.548h-1.644v2.374c0 .366 0 .548.183.73.183.183.365.183.73.183h.731v.548h-.913c-.548 0-.913-.182-1.096-.365-.183-.183-.365-.548-.365-1.096v-2.374h-1.096v-.548h1.096v-1.279h.73zm136.073 0v.73c-.182-.182-.547-.182-.73-.364-.183-.183-.548-.183-.73-.183-.366 0-.731 0-.914.183-.183.182-.365.365-.365.73 0 .183 0 .548.182.548.183.183.366.183.731.365l.365.183c.548.183.914.365 1.279.548.182.365.365.73.365 1.096 0 .548-.183.913-.548 1.278-.365.366-.913.366-1.461.366h-.913c-.366 0-.548-.183-.913-.183v-.913c.365.183.547.365.913.365.182 0 .548.183.73.183.366 0 .73 0 .914-.183.182-.182.365-.365.365-.73 0-.366 0-.548-.183-.731-.182-.183-.365-.365-.73-.365l-.366-.183a8.905 8.905 0 0 1-1.278-.548c-.365-.183-.365-.548-.365-1.096s.182-.913.547-1.278c.366-.366.914-.548 1.462-.548h.73c.183 0 .548.548.913.73zm3.288 1.097c.548 0 1.096.182 1.461.547.366.365.548.913.548 1.644 0 .73-.182 1.279-.548 1.644-.365.365-.73.548-1.46.548-.549 0-1.097-.183-1.462-.548-.365-.365-.548-.913-.548-1.644 0-.73.183-1.279.548-1.644.365-.365.73-.548 1.461-.548zm0 .73c-.365 0-.73.182-.913.365-.183.365-.365.73-.365 1.279 0 .548.182.913.365 1.278s.548.365.913.365.73-.182.913-.365c.183-.182.366-.73.366-1.278s-.183-.914-.366-1.279c-.365-.365-.548-.365-.913-.365zm6.941.365c-.183-.183-.366-.183-.548-.183h-.548c-.365 0-.73.183-1.096.366-.183.365-.365.73-.365 1.278v2.192h-.73v-4.383h.73v.913c.182-.366.365-.548.548-.73.182-.183.548-.183.913-.183h.548c.182 0 .365.182.365.182v.548h.183zm2.74-2.192v1.279h1.643v.548h-1.643v2.374c0 .366 0 .548.182.73.183.183.365.183.73.183h.731v.548h-.913c-.548 0-.913-.182-1.096-.365-.182-.183-.365-.548-.365-1.096v-2.374h-1.096v-.548h1.096v-1.279h.73zm129.863-.183h.73l.548 4.75.73-3.105h.914l.73 3.105.548-4.75h.731l-.913 5.845h-.73l-.731-3.47-.731 3.47h-.913zm7.305 1.462c.548 0 1.096.183 1.462.548.365.365.548.913.548 1.644 0 .73-.183 1.278-.548 1.643-.366.366-.73.548-1.462.548-.547 0-1.095-.182-1.46-.548-.366-.365-.549-.913-.549-1.643s.183-1.279.548-1.644c.366-.365.73-.548 1.461-.548zm0 .548c-.365 0-.73.182-.913.365-.182.365-.365.73-.365 1.279 0 .548.183.913.365 1.278.183.365.548.365.913.365.366 0 .731-.182.914-.365.182-.182.365-.73.365-1.278s-.183-.914-.365-1.279c-.366-.183-.548-.365-.914-.365zm6.941.365c-.183-.183-.365-.183-.548-.183h-.548c-.365 0-.73.183-1.096.366-.182.365-.365.73-.365 1.278v2.192h-.73v-4.383h.73v.913c.183-.366.365-.548.548-.73.183-.183.548-.183.913-.183h.548c.183 0 .365.182.365.182v.548h.183zm3.653-.365v-2.375h.73v6.21h-.73v-.548l-.548.548c-.183.183-.365.183-.73.183-.548 0-.914-.183-1.279-.548-.365-.365-.548-.913-.548-1.644 0-.73.183-1.278.548-1.644.365-.365.73-.547 1.279-.547.182 0 .547 0 .73.182.365-.182.548 0 .548.183zm-2.01 1.644c0 .548 0 .913.184 1.278.182.365.365.365.73.365s.548-.182.73-.365c.183-.365.366-.73.366-1.278s0-.914-.365-1.279c-.183-.365-.366-.365-.73-.365-.366 0-.549.182-.731.365-.183.365-.183.73-.183 1.279zm7.672 2.009c-.182.182-.365.182-.548.182h-.548c-.73 0-1.278-.182-1.644-.548-.365-.365-.548-.913-.548-1.643s.183-1.279.548-1.644c.366-.365.914-.548 1.644-.548h.548c.183 0 .366.183.548.183v.73c-.182-.183-.365-.365-.548-.365-.182 0-.365-.183-.73-.183-.366 0-.731.183-1.096.365-.183.366-.366.731-.366 1.279 0 .548.183.913.366 1.279.182.365.548.365 1.096.365.182 0 .548 0 .73-.183.183 0 .366-.182.548-.365v1.096zm3.105-4.201c.548 0 1.096.183 1.461.548.366.365.548.913.548 1.644 0 .73-.182 1.278-.548 1.643-.365.366-.73.548-1.46.548-.549 0-1.097-.182-1.462-.548-.365-.365-.548-.913-.548-1.643s.183-1.279.548-1.644c.365-.365.913-.548 1.461-.548zm0 .548c-.365 0-.73.182-.913.365-.183.365-.365.73-.365 1.279 0 .548.182.913.365 1.278s.548.365.913.365.73-.182.913-.365c.183-.182.366-.73.366-1.278s-.183-.914-.366-1.279a1.395 1.395 0 0 0-.913-.365zm3.288 2.192v-2.74h.73v2.74c0 .365 0 .73.183.913.183.182.365.365.73.365.366 0 .549-.183.731-.365.183-.183.183-.548.183-1.096v-2.557h.73v4.383h-.73v-.73l-.548.548c-.183.182-.548.182-.73.182-.366 0-.731-.182-1.096-.365-.183-.183-.183-.548-.183-1.278zm8.219-1.096v2.74h-.73v-2.74c0-.366 0-.73-.183-.914-.183-.182-.366-.365-.73-.365-.366 0-.549.183-.731.365-.183.183-.366.548-.366 1.096v2.557h-.73v-4.383h.73v.73l.548-.547c.183-.183.548-.183.73-.183.366 0 .731.183 1.097.365.182.365.365.73.365 1.279zm3.105-2.923v1.279h1.644v.548h-1.644v2.374c0 .366 0 .548.183.73.182.183.365.183.73.183h.73v.548h-.912c-.548 0-.914-.182-1.096-.365-.183-.183-.366-.548-.366-1.096v-2.374h-1.095v-.548h1.095v-1.279h.731z" fill="#000"/><path fill="#000" opacity=".05" d="M5.758 6.21h643.105v400.548H5.758z"/><path fill="#FFF" d="M.279.731h643.288v400.548H.279z"/><path d="M643.566 401.461H.096V.548h643.47V401.46zM.461 401.28h642.923V.913H.46V401.28z" fill="#A9A9A8"/><g transform="translate(39.183 32.877)"><circle fill="url(#e)" opacity=".9" cx="475.982" cy="201.461" r="2.009"/><circle fill="url(#f)" opacity=".9" cx="451.689" cy="189.406" r="2.009"/><path fill="#B2B2B2" d="M47.123 257.717h518.356v1H47.123zm0-54.429h518.356v1H47.123zm0-54.247h518.356v1H47.123zm0-54.246h518.356v1H47.123zm0-54.247h518.356v1H47.123z"/><path d="M131.142 12.42h-1.827l-1.096-2.74h-4.749l-1.096 2.74h-1.826l4.2-10.594h2.193l4.2 10.594zm-7.124-4.2h3.47l-1.826-4.567-1.644 4.566zm16.073.547c0 2.192-1.644 3.836-3.653 3.836-1.096 0-1.826-.366-2.191-1.096v3.835h-1.644V5.114h1.644v.913c.548-.548 1.278-1.095 2.191-1.095 2.01.182 3.653 1.643 3.653 3.835zm-6.027 0c0 1.279.913 2.375 2.192 2.375 1.278 0 2.191-1.096 2.191-2.375 0-1.278-.913-2.374-2.191-2.374-1.279.182-2.192 1.096-2.192 2.374zm14.977 3.653h-1.644v-.913c-.548.73-1.278 1.096-2.192 1.096-2.009 0-3.652-1.644-3.652-3.836s1.643-3.835 3.652-3.835c1.096 0 1.827.365 2.192 1.095v-.913h1.644v7.306zm-5.845-3.653c0 1.279.914 2.375 2.192 2.375 1.279 0 2.192-.914 2.192-2.375 0-1.278-.913-2.374-2.192-2.374-1.461.182-2.192 1.096-2.192 2.374zm14.247-2.557l-1.096 1.096c-.548-.548-1.096-.73-1.826-.73-1.279 0-2.192.913-2.192 2.374 0 1.278.913 2.374 2.192 2.374.73 0 1.278-.365 1.826-.73l.913 1.095c-.73.731-1.644 1.096-2.74 1.096-2.374 0-3.835-1.643-3.835-3.835s1.461-3.836 3.836-3.836c1.278 0 2.374.365 2.922 1.096zm3.287-.183c.549-.913 1.462-1.095 2.192-1.095 1.644 0 2.923 1.095 2.923 2.922v4.566h-1.461V8.402c0-1.279-.548-1.827-1.644-1.827-1.096 0-1.827.73-1.827 1.827v4.018h-1.644V1.461h1.644v4.566h-.182zm14.065 2.74v.548h-5.297c.182 1.279 1.096 1.827 2.191 1.827.731 0 1.462-.366 2.01-.731l.73 1.096c-.913.73-1.826 1.096-2.922 1.096-2.192 0-3.653-1.461-3.653-3.836 0-2.192 1.461-3.835 3.653-3.835 2.009.182 3.288 1.643 3.288 3.835zm-5.297-.548h3.835c-.182-1.096-.913-1.826-1.826-1.826-1.279 0-1.827.73-2.01 1.826zM187.945 4.2c-.913-.547-1.826-.912-2.922-.912-1.461 0-2.375.548-2.375 1.644 0 .913.914 1.278 2.192 1.46l.73.183c1.645.183 3.471.914 3.471 2.923 0 2.191-2.009 3.287-4.2 3.287-1.462 0-3.106-.548-4.202-1.46l.914-1.28c.73.731 2.009 1.097 3.287 1.097 1.461 0 2.557-.548 2.557-1.644 0-.914-.913-1.279-2.374-1.461l-.913-.183c-1.644-.183-3.105-.913-3.105-2.922 0-2.192 1.826-3.288 4.2-3.288 1.462 0 2.74.365 3.836 1.096l-1.096 1.46zm10.594 4.567c0 2.192-1.644 3.836-3.653 3.836-1.096 0-1.827-.366-2.192-1.096v3.835h-1.644V5.114h1.644v.913c.548-.548 1.279-1.095 2.192-1.095 2.192.182 3.653 1.643 3.653 3.835zm-5.845 0c0 1.279.913 2.375 2.192 2.375 1.278 0 2.192-1.096 2.192-2.375 0-1.278-.914-2.374-2.192-2.374-1.461.182-2.192 1.096-2.192 2.374zm14.795 3.653h-1.644v-.913c-.548.73-1.279 1.096-2.192 1.096-2.01 0-3.653-1.644-3.653-3.836s1.644-3.835 3.653-3.835c1.096 0 1.826.365 2.192 1.095v-.913h1.644v7.306zm-5.845-3.653c0 1.279.913 2.375 2.192 2.375 1.278 0 2.191-.914 2.191-2.375 0-1.278-.913-2.374-2.191-2.374-1.279.182-2.192 1.096-2.192 2.374zm13.151-3.47l-.366 1.644c-.365-.183-.73-.183-1.278-.183-1.096 0-1.644.73-1.644 2.01v4.017h-1.461V5.48h1.643v.731c.548-.73 1.279-1.096 2.01-1.096.365 0 .73 0 1.096.183zm3.287 2.74h.73l2.375-2.74h2.01l-3.106 3.47 3.105 3.836h-2.009l-2.374-3.105h-.73v3.105h-1.645V1.643h1.644zm18.265 2.739l1.644-5.48h1.644l-2.375 7.307h-1.826l-1.827-5.48-1.826 5.48h-1.827l-2.374-7.306h1.644l1.644 5.48 1.826-5.48h1.827zm6.758-8.036c0 .548-.548 1.096-1.096 1.096s-1.096-.548-1.096-1.096.548-1.096 1.096-1.096 1.096.365 1.096 1.096zm-.365 9.68h-1.644V5.114h1.644v7.306zm7.488-5.845h-2.74V9.68c0 .914.549 1.279 1.096 1.279.548 0 1.096-.183 1.462-.548l.548 1.278c-.548.366-1.279.731-2.192.731-1.644 0-2.557-.913-2.557-2.74V6.575h-1.461v-1.46h1.46V2.921h1.645v2.192h2.74v1.461zm3.471-.548c.548-.913 1.46-1.095 2.191-1.095 1.644 0 2.923 1.095 2.923 2.922v4.566h-1.644V8.402c0-1.279-.548-1.827-1.644-1.827-1.096 0-1.826.73-1.826 1.827v4.018h-1.644V1.461h1.644v4.566zm23.196 6.393h-1.644V3.653l-3.105 7.671h-1.826l-3.105-7.671v8.584h-1.644V1.827h2.557l3.105 7.488 3.105-7.489h2.557zm4.566-9.68c0 .548-.548 1.096-1.096 1.096s-1.096-.548-1.096-1.096.548-1.096 1.096-1.096c.73 0 1.096.365 1.096 1.096zm-.182 9.68h-1.644V5.114h1.644v7.306zm9.132-4.566v4.566h-1.644V8.402c0-1.279-.548-1.827-1.644-1.827-1.096 0-1.826.73-1.826 1.827v4.018h-1.644V5.114h1.644v.913c.548-.913 1.461-1.095 2.192-1.095 1.643.182 2.922 1.278 2.922 2.922zm4.384 4.566h-1.644V1.826h1.644zm13.333-5.297c0 3.105-2.375 5.48-5.48 5.48-3.105 0-5.48-2.375-5.48-5.48 0-3.105 2.375-5.48 5.48-5.48 3.105 0 5.48 2.375 5.48 5.48zm-9.315 0c0 2.192 1.644 3.836 3.835 3.836 2.192 0 3.836-1.644 3.836-3.836 0-2.191-1.644-3.835-3.836-3.835-2.191 0-3.835 1.644-3.835 3.835zm26.119 0c0 3.105-2.375 5.48-5.48 5.48-3.105 0-5.48-2.375-5.48-5.48 0-3.105 2.375-5.48 5.48-5.48 3.105 0 5.48 2.375 5.48 5.48zm-9.133 0c0 2.192 1.644 3.836 3.836 3.836 2.191 0 3.835-1.644 3.835-3.836 0-2.191-1.644-3.835-3.835-3.835-2.192 0-3.836 1.644-3.836 3.835zm18.813 1.644c0 2.192-1.644 3.836-3.653 3.836-1.096 0-1.827-.366-2.192-1.096v.913h-1.644V1.461h1.644v4.566c.548-.548 1.279-1.095 2.192-1.095 2.009.182 3.653 1.643 3.653 3.835zm-6.028 0c0 1.279.914 2.375 2.192 2.375 1.279 0 2.192-1.096 2.192-2.375 0-1.278-.913-2.374-2.192-2.374-1.278.182-2.192 1.096-2.192 2.374zm9.681 4.566c0 1.462-.913 2.192-2.192 2.192-.365 0-.73 0-1.096-.183l.365-1.46c.183 0 .366.182.548.182.366 0 .731-.183.731-.913V5.114h1.644v8.22zm.182-10.593c0 .548-.547 1.096-1.095 1.096-.548 0-1.096-.548-1.096-1.096s.548-1.096 1.096-1.096c.73 0 1.095.365 1.095 1.096zm8.768 6.027v.548h-5.297c.182 1.279 1.096 1.827 2.192 1.827.73 0 1.46-.366 2.009-.731l.73 1.096c-.913.73-1.826 1.096-2.922 1.096-2.192 0-3.653-1.461-3.653-3.836 0-2.192 1.461-3.835 3.653-3.835 1.826.182 3.288 1.643 3.288 3.835zm-5.48-.548h3.836c-.183-1.096-.913-1.826-1.827-1.826-1.096 0-1.826.73-2.009 1.826zm13.333-2.009l-1.095 1.096c-.548-.548-1.096-.73-1.827-.73-1.278 0-2.192.913-2.192 2.374 0 1.278.914 2.374 2.192 2.374.73 0 1.279-.365 1.827-.73l.913 1.095c-.73.731-1.644 1.096-2.74 1.096-2.374 0-3.835-1.643-3.835-3.835s1.46-3.836 3.835-3.836c1.279 0 2.375.365 2.922 1.096zm6.758.365h-2.74V9.68c0 .914.549 1.279 1.097 1.279.548 0 1.096-.183 1.46-.548l.549 1.278c-.548.366-1.279.731-2.192.731-1.644 0-2.557-.913-2.557-2.74V6.575h-1.279v-1.46h1.462V2.921h1.643v2.192h2.74l-.183 1.461zM374.977 4.2c-.913-.547-1.826-.912-2.922-.912-1.461 0-2.375.548-2.375 1.644 0 .913.914 1.278 2.192 1.46l.73.183c1.645.183 3.471.914 3.471 2.923 0 2.191-2.01 3.287-4.2 3.287-1.462 0-3.106-.548-4.202-1.46l.913-1.28c.731.731 2.01 1.097 3.288 1.097 1.461 0 2.557-.548 2.557-1.644 0-.914-.913-1.279-2.374-1.461l-.913-.183c-1.644-.183-3.105-.913-3.105-2.922 0-2.192 1.826-3.288 4.2-3.288 1.462 0 2.74.365 3.836 1.096l-1.096 1.46zm8.037 2.375h-2.74V9.68c0 .914.548 1.279 1.096 1.279s1.096-.183 1.461-.548l.548 1.278c-.548.366-1.279.731-2.192.731-1.644 0-2.557-.913-2.557-2.74V6.575h-1.461v-1.46h1.461V2.921h1.644v2.192h2.74v1.461zm9.132 2.192c0 2.192-1.644 3.836-3.835 3.836-2.192 0-3.836-1.644-3.836-3.836s1.644-3.835 3.836-3.835c2.191.182 3.835 1.826 3.835 3.835zm-6.21 0c0 1.279.913 2.375 2.192 2.375 1.278 0 2.192-.914 2.192-2.375 0-1.278-.914-2.374-2.192-2.374-1.279 0-2.192 1.096-2.192 2.374zm12.968-3.47l-.365 1.644c-.365-.183-.73-.183-1.279-.183-1.096 0-1.644.73-1.644 2.01v4.017h-1.643V5.48h1.643v.731c.548-.73 1.279-1.096 2.01-1.096.548 0 .913 0 1.278.183zm8.402 7.123h-1.644v-.913c-.548.73-1.278 1.096-2.192 1.096-2.009 0-3.653-1.644-3.653-3.836s1.644-3.835 3.653-3.835c1.096 0 1.827.365 2.192 1.095v-.913h1.644v7.306zm-5.845-3.653c0 1.279.913 2.375 2.192 2.375 1.279 0 2.192-.914 2.192-2.375 0-1.278-.913-2.374-2.192-2.374-1.461.182-2.192 1.096-2.192 2.374zm13.516-2.74v-.913h1.644v6.758c0 2.192-1.461 3.653-3.836 3.653-1.096 0-2.191-.365-3.105-.913l.548-1.279c.73.366 1.644.73 2.375.73 1.46 0 2.374-.73 2.374-2.19v-.549c-.548.73-1.278 1.096-2.374 1.096-1.644 0-3.288-1.461-3.288-3.653 0-2.374 1.644-3.653 3.288-3.653 1.096 0 1.826.365 2.374.913zm-4.2 2.74c0 1.279.73 2.192 2.191 2.192 1.279 0 2.192-.913 2.192-2.192 0-1.278-.913-2.192-2.192-2.192-1.279 0-2.192.914-2.192 2.192zm14.793 0v.548h-5.479c.183 1.279 1.096 1.827 2.192 1.827.73 0 1.461-.366 2.01-.731l.73 1.096c-.913.73-1.827 1.096-2.923 1.096-2.191 0-3.653-1.461-3.653-3.836 0-2.192 1.462-3.835 3.653-3.835 2.01.182 3.47 1.643 3.47 3.835zm-5.296-.548h3.836c-.183-1.096-.914-1.826-1.827-1.826-1.278 0-2.009.73-2.009 1.826z" fill="#3F4040"/><path d="M289.315 296.438s0 .183 0 0h-.183c-.73 0-1.46-.365-1.826-.913-.365-.548-.548-1.461-.548-2.74 0-1.278.183-2.009.548-2.74.365-.547 1.096-.913 1.826-.913.731 0 1.462.366 1.827.914s.548 1.46.548 2.74c0 .73-.183 1.46-.365 2.009-.183.547-.548.913-.914 1.095l.914.914-.731.913-1.096-1.279zm-.183-5.844c-.365 0-.548.182-.73.548-.183.365-.183.913-.183 1.826s0 1.461.183 1.827c.182.365.365.547.73.547.366 0 .548-.182.731-.547.183-.366.183-.914.183-1.827 0-.913 0-1.461-.183-1.826 0-.366-.365-.548-.73-.548zm3.653 4.018v-3.47h1.279v3.105c0 .365 0 .73.183.73.182.183.365.183.548.183.182 0 .365-.183.547-.365.183-.183.183-.548.183-.914v-2.922h1.279v5.297h-1.279v-.73c-.183.364-.183.547-.548.73-.182.182-.548.182-.913.182-.548 0-.913-.182-1.096-.548 0-.182-.183-.73-.183-1.278zm10.046 1.461c-.365.183-.73.183-.913.365-.365 0-.73.183-1.096.183-.913 0-1.461-.183-2.01-.73-.547-.549-.73-1.096-.73-2.01 0-.913.183-1.46.73-2.009.366-.548 1.097-.73 1.827-.73s1.461.182 1.827.73c.365.548.73 1.096.73 2.01v.547h-3.653c0 .366.183.73.366.913.182.183.548.366 1.096.366.365 0 .548 0 .913-.183.365 0 .548-.183.913-.365v.913zm-1.096-2.922c0-.366-.182-.548-.365-.73-.183-.184-.365-.366-.73-.366-.366 0-.549.182-.731.365-.183.183-.366.548-.366.73h2.192zm7.123-.548c-.182-.183-.365-.183-.547-.366-.183 0-.366-.182-.731-.182s-.548 0-.73.182c-.183.183-.366.183-.549.366 0 .182-.182.182-.182.365v3.105h-1.279v-5.297h1.279v.73c.182-.364.365-.547.548-.73.182-.182.548-.182.913-.182h.548c.183 0 .365.182.548.182v1.827h.182zm3.653 4.383c-.182.548-.365.914-.73 1.096-.365.183-.548.365-.913.365h-1.096v-1.095h.548c.365 0 .548 0 .548-.183s.182-.365.365-.73l.183-.366-2.01-5.114h1.462l1.278 3.47 1.096-3.47h1.461l-2.192 6.027zm11.507-7.488l-.365 1.826h.913l.366-1.826h1.095l-.365 1.826h.913v.913h-1.096l-.365 1.279h.913v.913h-1.278l-.365 1.644h-1.096l.365-1.644h-.913l-.366 1.644h-1.095l.365-1.644h-.913v-.913h1.278l.365-1.279h-1.095v-.913h1.278l.365-1.826h1.096zm.183 2.74h-.913l-.366 1.278h.914l.365-1.279z" fill="#000"/><path d="M8.584 186.484c0 .183 0 .183 0 0v.183c0 .73-.365 1.46-.913 1.826-.548.365-1.461.548-2.74.548-1.278 0-2.191-.183-2.74-.548-.547-.365-.912-1.096-.912-1.826s.365-1.462.913-1.827 1.461-.548 2.74-.548c.913 0 1.46.183 2.009.366.548.182.913.547 1.278.913l.913-1.096.731.913-1.279 1.096zm-5.844.183c0 .365.182.548.548.73.365.183.913.183 1.826.183s1.461 0 1.827-.183c.365-.182.548-.365.548-.73 0-.366-.183-.548-.548-.73-.366-.184-.914-.184-1.827-.184-.913 0-1.461 0-1.826.183-.366.183-.548.365-.548.73zm4.018-3.653h-3.47v-1.461h3.287c.366 0 .73 0 .73-.183.184-.183.184-.365.184-.548 0-.183-.183-.365-.366-.548-.182-.183-.548-.183-.913-.183H3.105v-1.46h5.297v1.46h-.73c.365.183.547.183.73.548.182.183.182.548.182.914 0 .547-.182.913-.547 1.095-.183.366-.731.366-1.279.366zm1.462-10.229c.182.366.182.731.364.914 0 .365.183.73.183 1.096 0 .913-.183 1.643-.73 2.009-.548.548-1.096.73-2.01.73-.913 0-1.46-.182-2.009-.73-.548-.548-.73-1.096-.73-1.827 0-.73.182-1.461.73-1.826.548-.366 1.096-.73 2.01-.73h.547v3.652c.366 0 .73-.183.914-.365.182-.183.365-.548.365-1.096 0-.365 0-.548-.183-.913 0-.366-.182-.548-.365-.914h.913zm-2.923 1.279c-.365 0-.548.183-.913.365-.183.183-.366.366-.366.73 0 .366.183.549.366.731.182.183.548.366.73.366l.183-2.192zm-.548-7.306c-.183.183-.183.365-.365.548 0 .183-.183.365-.183.73 0 .366 0 .548.183.731.182.183.182.365.365.548.183 0 .183.183.365.183H8.22v1.46H2.922v-1.46h.731a2.521 2.521 0 0 1-.73-.548c-.183-.183-.183-.548-.183-.913v-.548c0-.183.182-.366.182-.548l1.827-.183zm4.383-3.653c.548.183.914.365 1.096.73.183.366.366.549.366.914v1.096H9.498v-.548c0-.365 0-.548-.183-.548-.183-.183-.365-.183-.73-.365l-.366-.183-5.114 2.009v-1.461l3.47-1.279-3.47-1.096v-1.46l6.027 2.191zm-.548-11.872v1.461H2.74v1.827H1.46v-4.932h1.28v1.827c0-.183 5.844-.183 5.844-.183zM.73 146.667v-1.462h1.644v1.462H.731zm2.558 1.278v-2.74h4.2v-1.643h1.096v4.749H7.49v-1.644H4.384v1.278H3.288zm.548-7.854c-.183-.182-.366-.182-.548-.365-.183-.183-.183-.365-.183-.548 0-.365.183-.73.548-.913.365-.183.913-.183 2.01-.183h2.921v1.096H4.567c-.183 0-.183.183-.183.365 0 .183 0 .183.182.366.183 0 .366.182.73.182h3.288v1.096H5.297c-.365 0-.73 0-.73.183-.183 0-.183.183-.183.365 0 .183 0 .183.182.365h4.018v1.096H3.288v-.913h.548c-.183 0-.366-.183-.548-.365-.183-.183-.183-.365-.183-.548 0-.183 0-.365.183-.548.182-.73.365-.73.548-.73zm4.384-7.854c.182.366.182.731.364.914 0 .365.183.73.183 1.096 0 .913-.183 1.643-.73 2.009-.548.548-1.096.73-2.01.73-.913 0-1.46-.182-2.009-.73-.548-.548-.73-1.096-.73-1.827 0-.73.182-1.461.73-1.826.548-.366 1.096-.73 2.01-.73h.547v3.652c.366 0 .73-.183.914-.365.182-.183.365-.548.365-1.096 0-.365 0-.548-.183-.913 0-.366-.182-.548-.365-.914h.913zm-2.923 1.279c-.365 0-.548.183-.913.365-.183.183-.366.366-.366.73 0 .366.183.549.366.731.182.183.548.366.73.366l.183-2.192zm-4.018-12.055c.73.365 1.46.73 2.191.913.73.183 1.462.366 2.192.366.73 0 1.461-.183 2.192-.366.73-.182 1.461-.548 2.192-.913v1.096c-.73.548-1.462.913-2.192 1.096-.73.183-1.461.365-2.192.365-.73 0-1.461-.182-2.192-.365-.73-.183-1.46-.548-2.191-1.096v-1.096zm2.191-6.027h1.28c-.183.182-.365.548-.365.73 0 .183-.183.548-.183.914 0 .365 0 .548.183.73 0 .183.182.183.365.183s.365-.365.548-1.096l.182-.365c.183-.548.366-.914.548-1.096.183-.183.548-.366 1.096-.366s.914.183 1.279.548c.365.366.365.914.365 1.644v.914c0 .365-.183.73-.183 1.095H7.306c.183-.365.365-.548.365-.913s.183-.548.183-.913 0-.548-.183-.73c-.182-.183-.182-.183-.365-.183s-.365 0-.365.182c-.183.183-.183.366-.366.914v.365c-.182.548-.365.913-.548 1.096-.182.182-.548.365-1.095.365-.548 0-.914-.183-1.096-.548-.366-.365-.366-.913-.366-1.461v-.913c0-.366-.182-.73 0-1.096zm4.75-6.393c.182.365.182.73.364.913 0 .366.183.73.183 1.096 0 .913-.183 1.644-.73 2.01-.548.547-1.096.73-2.01.73-.913 0-1.46-.183-2.009-.73-.548-.549-.73-1.097-.73-1.827s.182-1.461.73-1.827c.548-.365 1.096-.73 2.01-.73h.547v3.653c.366 0 .73-.183.914-.366.182-.182.365-.547.365-1.095 0-.366 0-.548-.183-.914 0-.365-.182-.548-.365-.913h.913zm-2.923 1.279c-.365 0-.548.182-.913.365-.183.183-.366.365-.366.73 0 .366.183.548.366.731.182.183.548.365.73.365l.183-2.191zm2.923-6.758c.182.182.182.548.364.73 0 .183.183.548.183.913 0 .731-.183 1.462-.73 1.827-.548.365-1.279.73-2.192.73-.913 0-1.461-.182-2.01-.73-.547-.548-.73-1.096-.73-1.827 0-.365 0-.547.183-.73 0-.183.182-.548.365-.73h1.279c-.183.182-.366.365-.366.73-.182.183-.182.548-.182.73 0 .366.182.731.365 1.096.365.183.73.366 1.278.366s.914-.183 1.279-.366c.365-.182.365-.548.365-1.096 0-.182 0-.547-.182-.73-.183-.183-.183-.365-.366-.73-.182-.183 1.096-.183 1.096-.183zm-2.375-1.279c-.913 0-1.461-.183-2.01-.73-.547-.366-.73-1.096-.73-1.827 0-.73.183-1.279.73-1.826.549-.366 1.097-.731 2.01-.731.913 0 1.46.183 2.009.73.548.366.73 1.096.73 1.827 0 .73-.182 1.279-.73 1.827-.365.547-1.096.73-2.01.73zM4.2 99.91c0 .365.183.548.365.73.366.183.73.366 1.279.366.548 0 .913-.183 1.278-.366.366-.182.366-.365.366-.73 0-.366-.183-.548-.366-.73-.365-.184-.73-.366-1.278-.366s-.913.182-1.279.365c-.182 0-.365.365-.365.73zm.914-8.038h3.47v1.279H5.297c-.365 0-.73 0-.73.182-.183.183-.183.366-.183.548 0 .183.182.366.365.548.183.183.548.183.913.183h2.922v1.278H3.288v-1.278h.73c-.365-.183-.548-.183-.73-.548-.183-.183-.183-.548-.183-.913 0-.548.183-.914.548-1.096.365 0 .913-.183 1.461-.183zm-1.096-4.383h-2.74v-1.462h7.306v1.462h-.73c.365.182.548.365.73.548.183.182.183.547.183.913 0 .548-.183 1.096-.73 1.461-.548.365-1.096.548-2.01.548-.913 0-1.643-.183-2.009-.548-.548-.365-.73-.73-.73-1.461 0-.366 0-.548.182-.73 0-.366.366-.549.548-.731zm1.827 1.826c.548 0 .913 0 1.278-.183.366-.182.366-.365.366-.73s-.183-.548-.366-.73c-.365-.183-.73-.183-1.278-.183s-.913 0-1.279.182c-.365.183-.365.366-.365.73 0 .366.183.549.365.731.548.183.913.183 1.279.183zM3.47 80.73h1.28c-.183.183-.365.549-.365.731 0 .183-.183.548-.183.913 0 .366 0 .548.183.731 0 .183.182.183.365.183s.365-.366.548-1.096l.182-.366c.183-.547.366-.913.548-1.095.183-.183.548-.366 1.096-.366s.914.183 1.279.548c.365.366.365.913.365 1.644v.913c0 .366-.183.73-.183 1.096H7.306c.183-.365.365-.548.365-.913s.183-.548.183-.913c0-.366 0-.548-.183-.73-.182-.184-.182-.184-.365-.184s-.365 0-.365.183c-.183.183-.183.365-.366.913v.366c-.182.548-.365.913-.548 1.096-.182.182-.548.365-1.095.365-.548 0-.914-.183-1.096-.548-.366-.365-.366-.913-.366-1.461v-.914c0-.365-.182-.913 0-1.095zm-2.191-2.556v-1.096c.73-.548 1.46-.914 2.191-1.096.73-.183 1.462-.366 2.192-.366.73 0 1.461.183 2.192.366.73.182 1.461.548 2.192 1.096v1.096c-.73-.366-1.462-.731-2.192-.914-.73-.182-1.461-.365-2.192-.365-.73 0-1.461.183-2.192.365-.73.183-1.46.366-2.191.914zm519.634 191.05h2.74v.73H520v-.73c.548-.548.913-.913 1.279-1.461.365-.366.547-.731.73-.914.183-.365.365-.548.548-.73.183-.183.183-.366.183-.548 0-.366-.183-.548-.366-.73-.182-.183-.548-.366-.73-.366-.183 0-.548 0-.73.183-.183 0-.549.182-.914.365v-.913c.365-.183.548-.183.73-.366.183 0 .549-.182.731-.182.548 0 1.096.182 1.461.548.366.365.548.73.548 1.278 0 .183 0 .548-.182.73-.183.183-.366.549-.548.914l-.73.73c-.366.366-.549.731-1.097 1.462zm4.567 0h1.278v-4.566l-1.461.73v-.73l1.461-.731h.73v5.297h1.28v.73h-3.289zm-28.859 0h2.74v.73h-3.653v-.73c.548-.548.913-.913 1.278-1.461.366-.548.548-.731.73-.914a2.53 2.53 0 0 1 .549-.73c.182-.183.182-.366.182-.548 0-.366-.182-.548-.365-.73-.182-.183-.548-.366-.73-.366-.183 0-.548 0-.731.183-.183 0-.548.182-.913.365v-.913c.365-.183.548-.183.73-.366.183 0 .548-.182.73-.182.549 0 1.097.182 1.462.548.365.365.548.73.548 1.278 0 .183 0 .548-.183.73-.182.183-.365.549-.548.914l-.73.73c0 .366-.548.731-1.096 1.462zm6.027-5.48c.731 0 1.096.183 1.462.73.365.549.548 1.28.548 2.375 0 1.096-.183 1.827-.548 2.375-.366.548-.731.73-1.462.73-.73 0-1.095-.182-1.46-.73-.366-.548-.549-1.279-.549-2.375s.183-1.826.548-2.374c.366-.548.73-.73 1.461-.73zm0 .73c-.365 0-.73.184-.913.549-.182.365-.365 1.096-.365 1.826v1.096l1.826-2.922c0-.548-.182-.548-.548-.548zm0 4.932c.366 0 .731-.182.914-.548.182-.365.365-1.095.365-1.826v-1.279l-1.827 2.923c-.182.365.183.73.548.73zm-30.685-.182h1.279v-4.566l-1.461.73v-.73l1.461-.731h.73v5.297h1.28v.73h-3.289zm4.932.548v-.73c.183.182.365.182.548.182h.548c.548 0 .913-.183 1.096-.548.182-.365.365-.913.365-1.644-.183.183-.365.548-.548.548-.183.183-.548.183-.73.183-.548 0-1.096-.183-1.279-.548-.365-.366-.548-.914-.548-1.462 0-.73.183-1.095.548-1.46.365-.366.73-.549 1.461-.549.73 0 1.279.183 1.461.73.366.549.548 1.28.548 2.375 0 1.096-.182 1.827-.548 2.375-.365.548-.913.73-1.643.73h-.548c-.366-.182-.548-.182-.731-.182zm1.461-2.557c.365 0 .548-.183.73-.366.183-.182.366-.548.366-1.096 0-.365-.183-.73-.365-1.095-.183-.183-.548-.366-.73-.366-.366 0-.549.183-.731.366-.183.182-.183.547-.183 1.095 0 .548 0 .731.183 1.096 0 .183.365.366.73.366zm-30.685 2.009h1.279v-4.566l-1.461.73v-.73l1.46-.731h.731v5.297h1.279v.73h-3.288zm5.662-2.557c-.365 0-.548-.183-.73-.548-.183-.366-.366-.548-.366-.914 0-.547.183-.913.548-1.095.366-.366.731-.366 1.279-.366.548 0 .913.183 1.278.366.366.365.548.73.548 1.095 0 .366-.182.548-.365.914-.183.365-.548.365-.73.548.365 0 .73.182.913.548.182.182.365.548.365 1.096 0 .547-.183.913-.548 1.278-.365.365-.913.548-1.461.548s-1.096-.183-1.461-.548c-.366-.365-.548-.73-.548-1.278 0-.366.182-.731.365-1.096.183-.366.548-.548.913-.548zm.73.365c-.364 0-.73.183-.912.365a1.395 1.395 0 0 0-.366.914c0 .365.183.73.366.913.182.182.548.365.913.365s.73-.183.913-.365c.183-.183.365-.548.365-.913 0-.366-.182-.731-.365-.914-.182-.365-.548-.365-.913-.365zm-.912-1.644c0 .365 0 .548.182.73.183.183.366.183.73.183.366 0 .549 0 .732-.182.182-.183.182-.366.182-.73 0-.366 0-.549-.182-.731-.183-.183-.366-.183-.731-.183s-.548 0-.73.183c-.183.182-.183.365-.183.73zm-29.589 3.836h1.278v-4.566l-1.461.73v-.73l1.461-.731h.73v5.297h1.28v.73h-3.288zm4.383-5.48h3.836v.366l-2.192 5.662h-.913l2.009-5.297h-2.922v-.73h.182zm-28.675 5.48h1.278v-4.566l-1.461.73v-.73l1.46-.731h.732v5.297h1.278v.73h-3.288zm7.853-5.297v.73c-.182-.182-.365-.182-.548-.182h-.548c-.548 0-.913.183-1.095.548a3.647 3.647 0 0 0-.366 1.644c.183-.183.366-.548.548-.548.183 0 .548-.183.73-.183.549 0 1.097.183 1.28.548.365.365.547.913.547 1.461 0 .73-.182 1.096-.548 1.461-.365.366-.73.548-1.46.548-.731 0-1.28-.182-1.462-.73-.365-.548-.548-1.279-.548-2.375s.183-1.826.548-2.374c.365-.548.913-.73 1.644-.73h.548c.365 0 .548.182.73.182zm-1.46 2.557c-.366 0-.549.183-.731.365-.183.183-.366.548-.366 1.096s.183.73.366 1.096c.182.365.547.365.73.365.365 0 .548-.182.73-.365.183-.183.366-.548.366-1.096s0-.73-.365-1.096c-.183-.182-.366-.365-.73-.365zm-30.686 2.74h1.279v-4.566l-1.461.73v-.73l1.46-.731h.731v5.297h1.279v.73h-3.288zm4.749-5.48h3.105v.73h-2.374v1.462c.182 0 .182 0 .365-.183h.365c.548 0 1.096.183 1.461.548.366.366.548.914.548 1.462 0 .548-.182 1.095-.548 1.46-.365.366-.913.549-1.643.549h-.914c-.365 0-.548-.183-.73-.183v-.913c.182.182.548.182.73.365.183 0 .548.183.73.183.366 0 .732-.183 1.097-.366.182-.182.365-.547.365-1.095a1.4 1.4 0 0 0-.365-.914c-.183-.182-.548-.365-1.096-.365h-.548c-.183 0-.365.183-.548.183v-2.923zm-29.041 5.48h1.278v-4.566l-1.46.73v-.73l1.46-.731h.731v5.297h1.279v.73h-3.288zm6.758-5.48h.913v3.836h.73v.73h-.73v1.462h-.73v-1.279h-2.558v-.73l2.375-4.019zm0 .914l-1.827 3.105h1.827v-3.105zm-31.05 4.566h1.278v-4.566l-1.461.73v-.73l1.461-.731h.73v5.297h1.28v.73h-3.288zm7.123-2.557c.365.182.73.365.913.548.183.182.366.548.366.913 0 .548-.183.913-.548 1.278-.366.366-.914.548-1.462.548h-.913c-.365 0-.548-.182-.913-.182v-.73c.183.182.548.182.73.364.183.183.548.183.731.183.365 0 .73-.183 1.096-.365.183-.183.365-.548.365-.913 0-.366-.182-.548-.365-.914-.183-.365-.548-.365-.913-.365h-.548v-.73h.548c.365 0 .73 0 .913-.183.183-.183.365-.366.365-.73 0-.366-.182-.549-.365-.731-.183-.183-.548-.183-.913-.183h-.73c-.184 0-.549.183-.731.183v-.731c.365 0 .547-.183.913-.183h.73c.548 0 1.096.183 1.462.366.365.365.548.73.548 1.095 0 .366 0 .548-.366.914-.365.365-.73.365-.913.548zm-31.416 2.557h1.279v-4.566l-1.461.73v-.73l1.461-.731h.73v5.297h1.28v.73H302.1zm5.48 0h2.74v.73h-3.653v-.73c.548-.548.913-.913 1.278-1.461.366-.366.548-.731.73-.914.183-.365.366-.548.549-.73.182-.183.182-.366.182-.548 0-.366-.182-.548-.365-.73-.183-.183-.548-.366-.73-.366-.183 0-.548 0-.731.183-.183 0-.548.182-.913.365v-.913c.365-.183.548-.183.73-.366.183 0 .548-.182.73-.182.549 0 1.097.182 1.462.548.365.365.548.73.548 1.278 0 .183 0 .548-.183.73-.182.183-.365.549-.548.914l-.73.73c-.365.366-.548.731-1.096 1.462zm-29.59 0h1.28v-4.566l-1.462.73v-.73l1.461-.731H280v5.297h1.279v.73h-3.288zm4.932 0h1.279v-4.566l-1.461.73v-.73l1.46-.731h.732v5.297h1.278v.73h-3.288zm-29.223 0h1.278v-4.566l-1.461.73v-.73l1.461-.731h.73v5.297h1.28v.73h-3.288zm6.392-5.48c.73 0 1.096.183 1.462.73.365.549.547 1.28.547 2.375 0 1.096-.182 1.827-.547 2.375-.366.548-.731.73-1.462.73-.73 0-1.096-.182-1.46-.73-.366-.548-.549-1.279-.549-2.375s.183-1.826.548-2.374c.183-.548.73-.73 1.461-.73zm0 .73c-.365 0-.73.184-.913.549-.183.365-.365 1.096-.365 1.826v1.096l1.826-2.922c0-.548-.365-.548-.548-.548zm0 4.932c.366 0 .73-.182.914-.548.182-.365.365-1.095.365-1.826v-1.279l-1.827 2.923c-.182.365 0 .73.548.73zm-28.311.366v-.73c.183.182.366.182.549.182h.548c.548 0 .913-.183 1.096-.548.182-.365.365-.913.365-1.644-.183.183-.365.548-.548.548-.183 0-.548.183-.73.183-.549 0-1.097-.183-1.28-.548-.364-.366-.547-.914-.547-1.462 0-.73.183-1.095.548-1.46.365-.366.73-.549 1.461-.549.73 0 1.279.183 1.461.73.183.549.548 1.28.548 2.375 0 1.096-.183 1.827-.548 2.375-.365.548-.913.73-1.644.73h-.548c-.182 0-.548-.182-.73-.182zm1.462-2.557c.365 0 .548-.183.73-.366.183-.182.366-.548.366-1.096 0-.365-.183-.73-.365-1.095-.183-.366-.548-.366-.731-.366-.365 0-.548.183-.73.366-.183.182-.366.547-.366 1.095 0 .548 0 .731.183 1.096.182.183.548.366.913.366zm-25.022-.548c-.366 0-.549-.183-.731-.548-.183-.366-.366-.548-.366-.914 0-.547.183-.913.548-1.095.366-.366.73-.366 1.279-.366.548 0 .913.183 1.278.366.366.365.548.73.548 1.095 0 .366-.182.548-.365.914-.183.365-.548.365-.73.548.365 0 .73.182.913.548.182.182.365.548.365 1.096 0 .547-.183.913-.548 1.278-.365.365-.913.548-1.461.548s-1.096-.183-1.461-.548c-.366-.365-.548-.73-.548-1.278 0-.366.182-.731.365-1.096.183-.366.548-.548.913-.548zm.73.365c-.366 0-.73.183-.913.365a1.395 1.395 0 0 0-.366.914c0 .365.183.73.366.913.182.182.547.365.913.365.365 0 .73-.183.913-.365.183-.183.365-.548.365-.913 0-.366-.182-.731-.365-.914-.183-.365-.548-.365-.913-.365zm-.913-1.644c0 .365 0 .548.182.73.183.183.365.183.73.183.366 0 .549 0 .731-.182.183-.183.183-.366.183-.73 0-.366 0-.549-.183-.731-.182-.183-.365-.183-.73-.183-.366 0-.548 0-.73.183-.183.182-.183.365-.183.73zm-25.206-1.644h3.836v.366l-2.192 5.662h-.913l2.009-5.297h-2.923zm-20.821.183v.73c-.184-.182-.366-.182-.549-.182h-.548c-.548 0-.913.183-1.096.548a3.647 3.647 0 0 0-.365 1.644c.183-.183.365-.548.548-.548.183 0 .548-.183.73-.183.549 0 1.096.183 1.28.548.364.365.547.913.547 1.461 0 .73-.183 1.096-.548 1.461-.365.366-.73.548-1.461.548-.73 0-1.279-.182-1.461-.73-.366-.548-.548-1.279-.548-2.375s.182-1.826.548-2.374c.365-.548.913-.73 1.644-.73h.548c.365 0 .547.182.73.182zm-1.462 2.557c-.365 0-.548.183-.73.365-.183.183-.366.548-.366 1.096s.183.73.365 1.096c.183.365.548.365.73.365.366 0 .549-.182.732-.365.182-.183.365-.548.365-1.096s0-.73-.365-1.096c-.183-.182-.366-.365-.731-.365zm-25.936-2.74h3.105v.73h-2.375v1.462c.183 0 .183 0 .366-.183h.365c.548 0 1.096.183 1.461.548.366.366.548.914.548 1.462 0 .548-.182 1.095-.548 1.46-.365.366-.913.549-1.644.549h-.913c-.365 0-.548-.183-.73-.183v-.913c.182.182.548.182.73.365.183 0 .548.183.73.183.366 0 .731-.183 1.097-.366.182-.182.365-.547.365-1.095a1.4 1.4 0 0 0-.365-.914c-.183-.182-.548-.365-1.096-.365h-.548c-.183 0-.365.183-.548.183v-2.923zm-22.283 0h.913v3.836h.73v.73h-.73v1.462h-.73v-1.279h-2.558v-.73l2.375-4.019zm.182.914l-1.826 3.105h1.826v-3.105zm-24.109 2.009c.365.182.73.365.913.548.183.182.365.548.365.913 0 .548-.182.913-.548 1.278-.365.366-.913.548-1.46.548h-.914c-.365 0-.548-.182-.913-.182v-.73c.182.182.548.182.73.364.183.183.548.183.73.183.366 0 .732-.183 1.097-.365.182-.183.365-.548.365-.913 0-.366-.183-.548-.365-.914-.183-.365-.548-.365-.913-.365h-.548v-.73h.548c.365 0 .73 0 .913-.183.182-.183.365-.366.365-.73 0-.366-.183-.549-.365-.731-.183-.183-.548-.183-.913-.183h-.731c-.183 0-.548.183-.73.183v-.731c.365 0 .547-.183.913-.183h.73c.548 0 1.096.183 1.461.366.366.365.548.73.548 1.095 0 .366 0 .548-.365.914-.365.365-.548.365-.913.548zm-25.936 2.557h2.74v.73h-3.653v-.73c.547-.548.913-.913 1.278-1.461.365-.366.548-.731.73-.914.183-.365.366-.548.549-.73.182-.183.182-.366.182-.548 0-.366-.182-.548-.365-.73-.183-.183-.548-.366-.73-.366-.183 0-.549 0-.731.183-.183 0-.548.182-.913.365v-.913c.365-.183.547-.183.73-.366.183 0 .548-.182.73-.182.549 0 1.097.182 1.462.548.365.365.548.73.548 1.278 0 .183 0 .548-.183.73-.182.183-.365.549-.548.914l-.73.73c-.366.366-.548.731-1.096 1.462zM27.945 36.712h.913v3.836h.731v.73h-.73v1.462h-.731v-1.461H25.57v-.731l2.374-3.836zm.183.73L26.3 40.549h1.827v-3.105zm4.566-.912c.73 0 1.096.182 1.461.73.366.548.548 1.279.548 2.375s-.182 1.826-.548 2.374c-.365.548-.73.73-1.46.73-.732 0-1.097-.182-1.462-.73s-.548-1.278-.548-2.374.183-1.827.548-2.375c.183-.365.73-.73 1.461-.73zm0 .73c-.365 0-.73.183-.913.548-.183.366-.365 1.096-.365 1.827v1.096l1.826-2.923c0-.365-.365-.548-.548-.548zm0 4.932c.365 0 .73-.183.913-.548.183-.365.366-1.096.366-1.827V38.54l-1.827 2.922c-.183.365.183.73.548.73zm4.932-5.662c.73 0 1.095.182 1.46.73.366.548.549 1.279.549 2.375s-.183 1.826-.548 2.374c-.366.548-.73.73-1.461.73-.731 0-1.096-.182-1.462-.73-.365-.548-.548-1.278-.548-2.374s.183-1.827.548-2.375c.366-.365.731-.73 1.462-.73zm0 .73c-.366 0-.731.183-.914.548-.182.366-.365 1.096-.365 1.827v1.096l1.827-2.923c0-.365-.183-.548-.548-.548zm0 4.932c.365 0 .73-.183.913-.548.182-.365.365-1.096.365-1.827V38.54l-1.826 2.922c-.183.365.182.73.548.73zM28.31 93.699c.366.182.731.365.914.548.182.182.365.548.365.913 0 .548-.183.913-.548 1.278-.365.366-.913.548-1.461.548h-.913c-.366 0-.73-.182-.914-.182v-.73c.366.182.548.182.731.364.183.183.548.183.73.183.366 0 .731-.183 1.097-.365a1.4 1.4 0 0 0 .365-.914c0-.365-.183-.547-.365-.913-.183-.365-.548-.365-.914-.365h-.548v-.73h.548c.366 0 .73 0 .914-.183.182-.183.365-.366.365-.73 0-.366-.183-.549-.365-.732-.183-.182-.548-.182-.914-.182h-.73c-.183 0-.548.182-.73.182v-.73c.364 0 .547-.183.912-.183h.73c.549 0 1.097.183 1.462.366.365.365.548.73.548 1.095 0 .366-.183.548-.365.914a1.004 1.004 0 0 1-.913.548zm4.384-2.923c.73 0 1.096.183 1.461.73.366.549.548 1.28.548 2.375 0 1.096-.182 1.827-.548 2.375-.365.548-.73.73-1.46.73-.732 0-1.097-.182-1.462-.73s-.548-1.279-.548-2.375.183-1.826.548-2.374c.183-.365.73-.73 1.461-.73zm0 .73c-.365 0-.73.183-.913.549-.183.365-.365 1.096-.365 1.826v1.096l1.826-2.922c0-.366-.365-.548-.548-.548zm0 4.932c.365 0 .73-.182.913-.548.183-.365.366-1.095.366-1.826v-1.279l-1.827 2.923c-.183.548.183.73.548.73zm4.932-5.662c.73 0 1.095.183 1.46.73.366.549.549 1.28.549 2.375 0 1.096-.183 1.827-.548 2.375-.366.548-.73.73-1.461.73-.731 0-1.096-.182-1.462-.73-.365-.548-.548-1.279-.548-2.375s.183-1.826.548-2.374c.366-.365.731-.73 1.462-.73zm0 .73c-.366 0-.731.183-.914.549-.182.548-.182 1.096-.182 1.826v1.096l1.826-2.922c-.182-.366-.365-.548-.73-.548zm0 4.932c.365 0 .73-.182.913-.548.182-.365.365-1.095.365-1.826v-1.279l-1.826 2.923c-.183.548.182.73.548.73zm-10.959 54.064h2.74v.73h-3.654v-.73c.548-.548.914-.913 1.279-1.46.365-.549.548-.731.73-.914.183-.365.366-.548.549-.73.182-.183.182-.366.182-.549 0-.365-.182-.548-.365-.73-.183-.183-.548-.366-.73-.366-.183 0-.549 0-.731.183-.183 0-.548.183-.914.365v-.913c.366-.183.548-.183.731-.365.183 0 .548-.183.73-.183.549 0 1.097.183 1.462.548.365.365.548.73.548 1.279 0 .182 0 .548-.183.73-.183.183-.365.548-.548.914l-.73.73c0 .365-.548.913-1.096 1.461zm6.027-5.297c.73 0 1.096.183 1.461.731.366.548.548 1.279.548 2.375 0 1.095-.182 1.826-.548 2.374-.365.548-.73.73-1.46.73-.732 0-1.097-.182-1.462-.73s-.548-1.279-.548-2.374c0-1.096.183-1.827.548-2.375.183-.548.73-.73 1.461-.73zm0 .548c-.365 0-.73.183-.913.548-.183.366-.365 1.096-.365 1.827v1.096l1.826-2.923c0-.365-.365-.548-.548-.548zm0 4.932c.365 0 .73-.183.913-.548.183-.365.366-1.096.366-1.826v-1.279l-1.827 2.922c-.183.548.183.73.548.73zm4.932-5.48c.73 0 1.095.183 1.46.731.366.548.549 1.279.549 2.375 0 1.095-.183 1.826-.548 2.374-.366.548-.73.73-1.461.73-.731 0-1.096-.182-1.462-.73-.365-.548-.548-1.279-.548-2.374 0-1.096.183-1.827.548-2.375.366-.548.731-.73 1.462-.73zm0 .548c-.366 0-.731.183-.914.548-.182.366-.365 1.096-.365 1.827v1.096l1.827-2.923c0-.365-.183-.548-.548-.548zm0 4.932c.365 0 .73-.183.913-.548.182-.365.365-1.096.365-1.826v-1.279l-1.826 2.922c-.183.548.182.73.548.73zm-11.325 54.247h1.279v-4.567l-1.461.73v-.73l1.46-.73h.732v5.297h1.278v.73h-3.288v-.73zm6.393-5.48c.73 0 1.096.183 1.461.73.366.549.548 1.28.548 2.375 0 1.096-.182 1.827-.548 2.375-.365.547-.73.73-1.46.73-.732 0-1.097-.183-1.462-.73-.365-.548-.548-1.279-.548-2.375s.183-1.826.548-2.374c.183-.548.73-.73 1.461-.73zm0 .548c-.365 0-.73.183-.913.548-.183.365-.365 1.096-.365 1.826v1.096l1.826-2.922c0-.365-.365-.548-.548-.548zm0 4.932c.365 0 .73-.183.913-.548.183-.366.366-1.096.366-1.827v-1.278l-1.827 2.922c-.183.548.183.73.548.73zm4.932-5.48c.73 0 1.095.183 1.46.73.366.549.549 1.28.549 2.375 0 1.096-.183 1.827-.548 2.375-.366.547-.73.73-1.461.73-.731 0-1.096-.183-1.462-.73-.365-.548-.548-1.279-.548-2.375s.183-1.826.548-2.374c.366-.548.731-.73 1.462-.73zm0 .548c-.366 0-.731.183-.914.548-.182.365-.365 1.096-.365 1.826v1.096l1.827-2.922c0-.365-.183-.548-.548-.548zm0 4.932c.365 0 .73-.183.913-.548.182-.366.365-1.096.365-1.827v-1.278l-1.826 2.922c-.183.548.182.73.548.73zm0 48.767c.73 0 1.095.182 1.46.73.366.548.549 1.279.549 2.375s-.183 1.826-.548 2.374c-.366.548-.73.73-1.461.73-.731 0-1.096-.182-1.462-.73-.365-.548-.548-1.278-.548-2.374s.183-1.827.548-2.375c.366-.365.731-.73 1.462-.73zm0 .73c-.366 0-.731.183-.914.548-.182.365-.365 1.096-.365 1.827v1.096l1.827-2.923c0-.365-.183-.548-.548-.548zm0 4.932c.365 0 .73-.183.913-.548.182-.366.365-1.096.365-1.827v-1.278l-1.826 2.922c-.183.548.182.73.548.73zm507.579 9.863h2.74v.73h-3.653v-.73c.548-.548.913-.913 1.279-1.461.365-.548.548-.731.73-.914a2.53 2.53 0 0 1 .548-.73c.183-.183.183-.366.183-.548 0-.366-.183-.548-.365-.73-.183-.183-.548-.366-.73-.366-.184 0-.549 0-.732.183-.182 0-.547.182-.913.365v-.913c.366-.183.548-.183.73-.366.183 0 .549-.182.731-.182.548 0 1.096.182 1.462.548.365.365.548.73.548 1.278 0 .183 0 .548-.183.73-.183.183-.365.549-.548.914l-.73.73c0 .366-.549.731-1.097 1.462zm4.932 0h2.74v.73h-3.653v-.73c.548-.548.913-.913 1.278-1.461.366-.548.548-.731.73-.914a2.53 2.53 0 0 1 .549-.73c.182-.183.182-.366.182-.548 0-.366-.182-.548-.365-.73-.182-.183-.548-.366-.73-.366-.183 0-.548 0-.731.183-.183 0-.548.182-.913.365v-.913c.365-.183.548-.183.73-.366.183 0 .548-.182.73-.182.549 0 1.097.182 1.462.548.365.365.548.73.548 1.278 0 .183 0 .548-.183.73-.182.183-.365.549-.548.914l-.73.73c0 .366-.548.731-1.096 1.462z" fill="#231F20"/><path d="M499.909 239.087c-.366 0-.914-.183-1.096-.548l-23.927-36.347-23.014-11.324-23.561 26.849c-.366.365-.914.548-1.462.365-.548-.182-.913-.548-.913-1.096L402.557 104.11l-22.648 51.324-24.475 73.972c-.183.548-.73.914-1.279.914l-24.11.548c-.182 0-.365 0-.547-.183l-24.11-9.863-24.475-12.238-.548-.547-23.196-39.087-23.196 14.246c-.366.183-.731.183-1.096.183-.366-.183-.73-.365-.914-.73l-23.196-47.854-23.014 34.52a1.004 1.004 0 0 1-.913.548l-24.11 3.836-23.561 29.406c-.365.365-.73.548-1.279.548-.548 0-.913-.365-1.095-.73l-22.649-44.567-23.196 74.52c-.183.549-.548.914-1.096.914s-1.096-.183-1.279-.548l-24.657-36.164 2.192-1.462 23.013 33.79 23.38-75.068c.182-.548.547-.913 1.278-.913.548 0 1.096.182 1.278.73l23.38 45.662 22.648-28.31c.182-.183.548-.365.913-.548l23.927-3.836 24.11-36.164c.182-.365.73-.73 1.278-.548.548 0 .913.365 1.096.73l23.562 48.768 23.013-14.247c.366-.183.73-.183 1.096-.183.365 0 .73.366.913.548l23.745 40 24.11 12.055 23.744 9.68 22.83-.365 24.11-73.242 24.292-55.16c.183-.548.731-.913 1.462-.73.548 0 1.096.548 1.278 1.096l23.745 114.52 22.465-25.57c.366-.548 1.096-.548 1.644-.366L476.712 200c.183.183.366.183.548.548l22.466 34.155 23.562-81.461 23.927-80.183 2.557.731-24.11 80-24.292 84.384c-.183.547-.548.913-1.096.913h-.365z" fill="#BBB"/><circle fill="#BBB" cx="524.384" cy="153.425" r="2.009"/><circle fill="#BBB" cx="427.397" cy="216.621" r="2.009"/><circle fill="#BBB" cx="354.338" cy="229.224" r="2.009"/><path d="M306.119 233.242c-.183 0-.548 0-.73-.183l-24.293-16.62-.548-.549-23.196-54.064-22.831 39.087c-.183.366-.548.548-.914.73l-23.927 4.202-23.927 22.648c-.365.365-.73.365-1.095.365-.366 0-.731-.365-.914-.547l-23.196-36.348-23.014 27.946c-.365.365-.913.548-1.46.365l-23.563-8.767-23.561 20.091c-.366.183-.73.365-1.096.365l-24.292-3.47c-.73-.182-1.279-.73-1.096-1.461.182-.73.73-1.279 1.46-1.096l23.563 3.47 23.744-20.09c.365-.366.913-.366 1.278-.184l23.38 8.768 23.561-28.494c.365-.365.73-.548 1.096-.548.365 0 .913.183 1.096.548l23.379 36.53 23.014-21.735c.182-.183.365-.365.73-.365l23.744-4.201 23.927-40.73c.183-.366.731-.731 1.279-.731.548 0 .913.365 1.096.913l24.11 56.255 23.378 16.074 23.38-10.411c.182-.183.365-.183.73-.183l24.11 2.374 23.744.183 23.927-23.196c.365-.366.913-.548 1.278-.366l23.562 5.845 23.744-18.995c.366-.183.73-.366 1.096-.366l24.292 3.836c.366 0 .731.365.914.548l23.013 34.886 23.197-34.338 24.11-75.617c.182-.73.913-1.095 1.643-.913.73.183 1.096.913.913 1.644l-24.11 75.8c0 .182-.182.182-.182.364l-24.292 36.347c-.183.366-.73.548-1.096.548-.548 0-.913-.182-1.096-.548l-23.744-35.981-23.014-3.653-23.744 18.995c-.365.183-.73.365-1.096.183l-23.562-5.662-23.744 23.196a1.395 1.395 0 0 1-.913.365l-24.475-.182-23.927-2.192-23.744 10.594c-.731-1.279-.914-1.279-1.096-1.279z" fill="url(#g)"/><circle fill="url(#h)" cx="63.379" cy="226.484" r="2.009"/><circle fill="url(#i)" cx="111.963" cy="209.68" r="2.009"/><circle fill="url(#j)" cx="136.256" cy="218.265" r="2.009"/><circle fill="#BBB" cx="63.379" cy="196.347" r="2.009"/><circle fill="#BBB" cx="87.671" cy="232.329" r="2.009"/><circle fill="url(#k)" cx="87.671" cy="229.772" r="2.009"/><circle fill="#BBB" cx="111.963" cy="154.886" r="2.009"/><circle fill="#BBB" cx="136.256" cy="202.192" r="2.009"/><circle fill="#BBB" cx="160.183" cy="172.603" r="2.009"/><circle fill="url(#l)" cx="160.548" cy="189.406" r="2.009"/><circle fill="#BBB" cx="184.658" cy="168.219" r="2.009"/><circle fill="url(#m)" cx="184.658" cy="227.032" r="2.009"/><circle fill="#BBB" cx="208.95" cy="132.055" r="2.009"/><circle fill="url(#n)" cx="208.95" cy="204.201" r="2.009"/><circle fill="#BBB" cx="233.242" cy="182.1" r="2.009"/><circle fill="url(#o)" cx="233.242" cy="200" r="2.009"/><circle fill="#BBB" cx="257.534" cy="167.123" r="2.009"/><circle fill="url(#p)" cx="257.352" cy="158.904" r="2.009"/><circle fill="#BBB" cx="281.826" cy="207.306" r="2.009"/><circle fill="url(#q)" cx="281.826" cy="215.342" r="2.009"/><circle fill="#BBB" cx="305.936" cy="219.543" r="2.009"/><circle fill="url(#r)" cx="305.936" cy="231.781" r="2.009"/><circle fill="#BBB" cx="330.228" cy="229.224" r="2.009"/><circle fill="url(#s)" cx="330.228" cy="221.187" r="2.009"/><circle fill="url(#t)" cx="354.338" cy="223.744" r="2.009"/><circle fill="#BBB" cx="378.813" cy="154.521" r="2.009"/><circle fill="url(#u)" cx="378.813" cy="223.196" r="2.009"/><circle fill="#BBB" cx="403.105" cy="99.909" r="2.009"/><circle fill="url(#v)" cx="403.105" cy="200.183" r="2.009"/><circle fill="url(#w)" cx="427.397" cy="205.662" r="2.009"/><circle fill="url(#x)" cx="451.689" cy="186.667" r="2.009"/><circle fill="url(#y)" cx="475.799" cy="190.32" r="2.009"/><circle fill="#BBB" cx="499.909" cy="237.808" r="2.009"/><circle fill="url(#z)" cx="499.909" cy="226.667" r="2.009"/><circle fill="url(#A)" cx="524.384" cy="190.502" r="2.009"/><circle fill="#BBB" cx="548.493" cy="73.425" r="2.009"/><circle fill="url(#B)" cx="548.493" cy="114.521" r="2.009"/><g transform="translate(162.557 323.288)"><path d="M18.082 2.557c-.73-.548-1.644-.73-2.557-.73-1.278 0-2.192.547-2.192 1.643 0 .73.73 1.279 2.01 1.462l.913.182c1.46.183 2.74.73 2.74 2.192 0 1.644-1.644 2.557-3.47 2.557-1.28 0-2.558-.365-3.471-1.096l.548-.73c.548.547 1.644.913 2.922.913 1.279 0 2.375-.548 2.375-1.644 0-.913-.731-1.279-2.01-1.461l-.913-.183c-1.461-.183-2.557-.913-2.557-2.374 0-1.644 1.461-2.557 3.288-2.557 1.278 0 2.374.365 3.105.913l-.73.913zm8.585 4.201c0 1.826-1.279 3.105-2.923 3.105a3.025 3.025 0 0 1-2.191-.913v3.287h-.914V3.836h.914v.913c.547-.548 1.095-.913 2.191-.913 1.644-.183 2.923 1.096 2.923 2.922zm-5.114 0c0 1.279.913 2.192 2.009 2.192 1.278 0 2.009-.913 2.009-2.192 0-1.279-.913-2.192-2.01-2.192-1.278 0-2.008.913-2.008 2.192zM33.79 9.68h-.913v-.913c-.548.548-1.096.913-2.192.913-1.644 0-2.922-1.278-2.922-3.105 0-1.826 1.278-3.105 2.922-3.105.913 0 1.644.366 2.192.914V3.47h.913v6.21zm-4.932-2.922c0 1.279.914 2.192 2.01 2.192 1.278 0 2.009-.913 2.009-2.192 0-1.279-.914-2.192-2.01-2.192-1.278 0-2.009.913-2.009 2.192zm10.959-2.922l-.182.913c-.366-.183-.73-.183-1.096-.183-.913 0-1.644.73-1.644 1.827V9.68h-.913V3.836h.913v.913c.365-.548 1.096-.913 1.826-.913a1.163 1.163 0 0 1 1.096 0zM42.01 6.21h.912l2.192-2.374h1.096l-2.74 2.74 2.74 3.104h-1.096L42.74 7.123h-.73V9.68h-.914V.73h.913zm15.342 2.557l1.826-4.931h.913L57.9 9.68h-1.096l-1.827-4.93-1.826 4.93h-1.096l-2.192-5.844h.913l1.827 4.931 1.826-4.931h1.096zm3.47 2.192h-1.096L65.023.183h1.096zM79.635 9.68h-.914V2.192l-3.105 6.575h-1.095l-2.923-6.575V9.68h-.913V1.096h1.461l3.105 6.575 3.105-6.575h1.461zm3.47-8.036c0 .365-.365.73-.73.73-.366 0-.731-.365-.731-.73s.365-.73.73-.73c.548.182.731.365.731.73zm-.183 8.036h-.913V3.836h.913V9.68zm7.489-3.653V9.68h-.913V6.393c0-1.096-.548-1.827-1.644-1.827-.913 0-1.827.73-1.827 1.827V9.68h-.913V3.836h.913v.913c.548-.73 1.279-.913 2.01-.913 1.46-.183 2.374.73 2.374 2.191zm3.288 3.653h-.914V1.096h.914zm10.959-4.383c0 2.557-1.827 4.383-4.384 4.383-2.557 0-4.384-1.826-4.384-4.383S97.717.913 100.274.913c2.374 0 4.384 1.827 4.384 4.384zm-7.854 0c0 2.009 1.46 3.47 3.47 3.47 2.01 0 3.47-1.461 3.47-3.47 0-2.01-1.46-3.47-3.47-3.47-2.01 0-3.47 1.46-3.47 3.47zm71.05-2.74c-.73-.548-1.644-.73-2.557-.73-1.279 0-2.192.547-2.192 1.643 0 .73.73 1.279 2.01 1.462l.912.182c1.462.183 2.74.73 2.74 2.192 0 1.644-1.644 2.557-3.47 2.557-1.279 0-2.557-.365-3.47-1.096l.547-.73c.548.547 1.644.913 2.923.913 1.278 0 2.374-.548 2.374-1.644 0-.913-.73-1.279-2.009-1.461l-.913-.183c-1.461-.183-2.557-.913-2.557-2.374 0-1.644 1.461-2.557 3.287-2.557 1.279 0 2.375.365 3.105.913l-.73.913zm8.402 4.201c0 1.826-1.279 3.105-2.923 3.105a3.025 3.025 0 0 1-2.191-.913v3.287h-.914V3.836h.914v.913c.547-.548 1.095-.913 2.191-.913 1.644-.183 2.923 1.096 2.923 2.922zm-5.114 0c0 1.279.913 2.192 2.009 2.192 1.278 0 2.009-.913 2.009-2.192 0-1.279-.913-2.192-2.01-2.192-1.095 0-2.008.913-2.008 2.192zm12.42 2.922h-.914v-.913c-.548.548-1.095.913-2.191.913-1.644 0-2.923-1.278-2.923-3.105 0-1.826 1.279-3.105 2.923-3.105.913 0 1.643.366 2.191.914V3.47h.914v6.21zm-5.115-2.922c0 1.279.914 2.192 2.01 2.192 1.278 0 2.009-.913 2.009-2.192 0-1.279-.913-2.192-2.01-2.192-1.095 0-2.009.913-2.009 2.192zm10.959-2.922l-.182.913c-.366-.183-.73-.183-1.096-.183-.913 0-1.644.73-1.644 1.827V9.68h-.913V3.836h.913v.913c.365-.548 1.096-.913 1.827-.913.547-.183.913-.183 1.095 0zm2.374 2.374h.914l2.192-2.374h1.096l-2.74 2.74 2.74 3.104h-1.096l-2.375-2.557h-.73V9.68h-.913V.73h.913zm15.16 2.557l1.827-4.931h.913l-2.19 5.844h-1.096l-1.827-4.931-1.826 4.931h-1.096l-2.192-5.844h.913l1.827 4.931 1.826-4.931h1.096zm3.654 2.192h-1.096L214.795.183h1.095zm15.342-8.402c-.73-.548-1.644-.73-2.557-.73-1.279 0-2.192.547-2.192 1.643 0 .73.73 1.279 2.01 1.462l.913.182c1.46.183 2.74.73 2.74 2.192 0 1.644-1.645 2.557-3.471 2.557-1.279 0-2.557-.365-3.47-1.096l.548-.73c.548.547 1.643.913 2.922.913 1.279 0 2.374-.548 2.374-1.644 0-.913-.73-1.279-2.009-1.461l-.913-.183c-1.461-.183-2.557-.913-2.557-2.374 0-1.644 1.461-2.557 3.288-2.557 1.278 0 2.374.365 3.105.913l-.73.913zm7.489.731c0 1.096-.548 1.644-1.279 2.009.913.365 1.461 1.096 1.461 2.009 0 1.644-1.46 2.374-2.922 2.374-1.279 0-2.192-.365-2.74-1.096l.548-.547a3.025 3.025 0 0 0 2.192.913c1.096 0 2.01-.548 2.01-1.644 0-.913-.914-1.644-2.01-1.644h-1.096V4.75h1.096c1.096 0 1.826-.548 1.826-1.461 0-.914-.913-1.462-2.009-1.462-.913 0-1.46.366-1.826.914l-.73-.548c.547-.73 1.46-1.279 2.739-1.279 1.461 0 2.74.913 2.74 2.375z" fill="#231F20"/><circle fill="url(#C)" cx="4.749" cy="5.114" r="3.47"/><circle fill="#BBB" cx="154.521" cy="5.114" r="3.47"/></g></g></g></svg>