<svg width="800" height="472" xmlns="http://www.w3.org/2000/svg"><defs><linearGradient x1="18.794%" y1="42.628%" x2="183.82%" y2="81.613%" id="a"><stop stop-color="#355461" offset="0%"/><stop stop-color="#385B69" offset="5.704%"/><stop stop-color="#436F82" offset="27.06%"/><stop stop-color="#4A7E94" offset="49.33%"/><stop stop-color="#4F879F" offset="72.9%"/><stop stop-color="#508AA2" offset="100%"/></linearGradient><linearGradient x1="-20.667%" y1="33.306%" x2="144.359%" y2="72.291%" id="b"><stop stop-color="#355461" offset="0%"/><stop stop-color="#385B69" offset="5.704%"/><stop stop-color="#436F82" offset="27.06%"/><stop stop-color="#4A7E94" offset="49.33%"/><stop stop-color="#4F879F" offset="72.9%"/><stop stop-color="#508AA2" offset="100%"/></linearGradient><linearGradient x1="-60.029%" y1="24.008%" x2="104.997%" y2="62.992%" id="c"><stop stop-color="#355461" offset="0%"/><stop stop-color="#385B69" offset="5.704%"/><stop stop-color="#436F82" offset="27.06%"/><stop stop-color="#4A7E94" offset="49.33%"/><stop stop-color="#4F879F" offset="72.9%"/><stop stop-color="#508AA2" offset="100%"/></linearGradient></defs><g fill="none"><path fill="#000" opacity=".05" d="M394.508 4.126h405.126v306.636H394.508z"/><path fill="#FFF" d="M393.043 1.38h401.098v303.89H393.043z"/><path d="M794.874 306.185h-3.478v-1.83h1.647v-1.831h1.831zm-8.787 0h-5.309v-1.83h5.309v1.83zm-10.618 0h-5.309v-1.83h5.31v1.83zm-10.435 0h-5.309v-1.83h5.31v1.83zm-10.618 0h-5.308v-1.83h5.308v1.83zm-10.617 0h-5.31v-1.83h5.31v1.83zm-10.435 0h-5.31v-1.83h5.31v1.83zm-10.618 0h-5.309v-1.83h5.309v1.83zm-10.435 0h-5.309v-1.83h5.31v1.83zm-10.618 0h-5.309v-1.83h5.31v1.83zm-10.617 0h-5.31v-1.83h5.31v1.83zm-10.435 0h-5.31v-1.83h5.31v1.83zm-10.618 0h-5.309v-1.83h5.309v1.83zm-10.618 0h-5.309v-1.83h5.309v1.83zm-10.435 0h-5.309v-1.83h5.31v1.83zm-10.618 0h-5.309v-1.83h5.31v1.83zm-10.617 0h-5.31v-1.83h5.31v1.83zm-10.435 0h-5.31v-1.83h5.31v1.83zm-10.618 0h-5.309v-1.83h5.309v1.83zm-10.618 0h-5.309v-1.83h5.31v1.83zm-10.435 0h-5.309v-1.83h5.31v1.83zm-10.618 0h-5.308v-1.83h5.308v1.83zm-10.434 0h-5.31v-1.83h5.31v1.83zm-10.618 0h-5.31v-1.83h5.31v1.83zm-10.618 0h-5.309v-1.83h5.309v1.83zm-10.435 0h-5.309v-1.83h5.31v1.83zm-10.618 0h-5.309v-1.83h5.31v1.83zm-10.618 0h-5.308v-1.83h5.308v1.83zm-10.434 0h-5.31v-1.83h5.31v1.83zm-10.618 0h-5.31v-1.83h5.31v1.83zm-10.618 0h-5.309v-1.83H480v1.83zm-10.435 0h-5.309v-1.83h5.31v1.83zm-10.618 0h-5.309v-1.83h5.31v1.83zm-10.434 0h-5.31v-1.83h5.31v1.83zm-10.618 0h-5.31v-1.83h5.31v1.83zm-10.618 0h-5.309v-1.83h5.309v1.83zm-10.435 0h-5.309v-1.83h5.31v1.83zm-10.618 0h-5.309v-1.83h5.31v1.83zm-10.618 0h-3.478v-3.661h1.83v1.83h1.648zm-1.647-8.787h-1.83v-5.309h1.83v5.31zm0-10.618h-1.83v-5.309h1.83v5.31zm0-10.434h-1.83v-5.31h1.83v5.31zm0-10.435h-1.83v-5.31h1.83v5.31zm0-10.435h-1.83v-5.309h1.83v5.309zm0-10.435h-1.83v-5.309h1.83v5.31zm0-10.618h-1.83v-5.309h1.83v5.31zm0-10.434h-1.83v-5.31h1.83v5.31zm0-10.435h-1.83v-5.31h1.83v5.31zm0-10.435h-1.83v-5.309h1.83v5.309zm0-10.618h-1.83v-5.309h1.83v5.31zm0-10.435h-1.83v-5.309h1.83v5.31zm0-10.434h-1.83v-5.31h1.83v5.31zm0-10.435h-1.83v-5.31h1.83v5.31zm0-10.435h-1.83v-5.309h1.83v5.309zm0-10.618h-1.83v-5.309h1.83v5.31zm0-10.435h-1.83V124.4h1.83v5.31zm0-10.434h-1.83v-5.31h1.83v5.31zm0-10.435h-1.83v-5.31h1.83v5.31zm0-10.435h-1.83v-5.309h1.83v5.309zm0-10.618h-1.83v-5.309h1.83v5.31zm0-10.435h-1.83v-5.309h1.83v5.31zm0-10.434h-1.83v-5.31h1.83v5.31zm0-10.435h-1.83v-5.31h1.83v5.31zm0-10.618h-1.83v-5.309h1.83v5.309zm0-10.435h-1.83v-5.309h1.83v5.31zm0-10.435h-1.83v-5.309h1.83v5.31zm0-10.434h-1.83V9.25h1.83v5.31zm0-10.435h-1.83V.465h3.477v1.83h-1.647zm392.128-1.831h-5.309V.465h5.309v1.83zm-10.618 0h-5.309V.465h5.31v1.83zm-10.435 0h-5.309V.465h5.31v1.83zm-10.618 0h-5.308V.465h5.308v1.83zm-10.617 0h-5.31V.465h5.31v1.83zm-10.435 0h-5.31V.465h5.31v1.83zm-10.618 0h-5.309V.465h5.309v1.83zm-10.435 0h-5.309V.465h5.31v1.83zm-10.618 0h-5.309V.465h5.31v1.83zm-10.617 0h-5.31V.465h5.31v1.83zm-10.435 0h-5.31V.465h5.31v1.83zm-10.618 0h-5.309V.465h5.309v1.83zm-10.618 0h-5.309V.465h5.309v1.83zm-10.435 0h-5.309V.465h5.31v1.83zm-10.618 0h-5.309V.465h5.31v1.83zm-10.617 0h-5.31V.465h5.31v1.83zm-10.435 0h-5.31V.465h5.31v1.83zm-10.618 0h-5.309V.465h5.309v1.83zm-10.618 0h-5.309V.465h5.31v1.83zm-10.435 0h-5.309V.465h5.31v1.83zm-10.618 0h-5.308V.465h5.308v1.83zm-10.434 0h-5.31V.465h5.31v1.83zm-10.618 0h-5.31V.465h5.31v1.83zm-10.618 0h-5.309V.465h5.309v1.83zm-10.435 0h-5.309V.465h5.31v1.83zm-10.618 0h-5.309V.465h5.31v1.83zm-10.618 0h-5.308V.465h5.308v1.83zm-10.434 0h-5.31V.465h5.31v1.83zm-10.618 0h-5.31V.465h5.31v1.83zm-10.618 0h-5.309V.465H480v1.83zm-10.435 0h-5.309V.465h5.31v1.83zm-10.618 0h-5.309V.465h5.31v1.83zm-10.434 0h-5.31V.465h5.31v1.83zm-10.618 0h-5.31V.465h5.31v1.83zm-10.618 0h-5.309V.465h5.309v1.83zm-10.435 0h-5.309V.465h5.31v1.83zm-10.618 0h-5.309V.465h5.31v1.83zm388.65 1.831h-1.83v-1.83h-1.648V.464h3.478zm0 293.272h-1.83v-5.309h1.83v5.31zm0-10.618h-1.83v-5.309h1.83v5.31zm0-10.434h-1.83v-5.31h1.83v5.31zm0-10.435h-1.83v-5.31h1.83v5.31zm0-10.435h-1.83v-5.309h1.83v5.309zm0-10.435h-1.83v-5.309h1.83v5.31zm0-10.618h-1.83v-5.309h1.83v5.31zm0-10.434h-1.83v-5.31h1.83v5.31zm0-10.435h-1.83v-5.31h1.83v5.31zm0-10.435h-1.83v-5.309h1.83v5.309zm0-10.618h-1.83v-5.309h1.83v5.31zm0-10.435h-1.83v-5.309h1.83v5.31zm0-10.434h-1.83v-5.31h1.83v5.31zm0-10.435h-1.83v-5.31h1.83v5.31zm0-10.435h-1.83v-5.309h1.83v5.309zm0-10.618h-1.83v-5.309h1.83v5.31zm0-10.435h-1.83V124.4h1.83v5.31zm0-10.434h-1.83v-5.31h1.83v5.31zm0-10.435h-1.83v-5.31h1.83v5.31zm0-10.435h-1.83v-5.309h1.83v5.309zm0-10.618h-1.83v-5.309h1.83v5.31zm0-10.435h-1.83v-5.309h1.83v5.31zm0-10.434h-1.83v-5.31h1.83v5.31zm0-10.435h-1.83v-5.31h1.83v5.31zm0-10.618h-1.83v-5.309h1.83v5.309zm0-10.435h-1.83v-5.309h1.83v5.31zm0-10.435h-1.83v-5.309h1.83v5.31zm0-10.434h-1.83V9.25h1.83v5.31z" fill="#B2B2B2"/><path d="M679.908 24.812c-1.098-.732-2.38-1.281-3.844-1.281-2.014 0-3.295.915-3.295 2.38 0 1.281.915 1.83 2.929 2.013l1.281.184c2.197.183 4.028 1.098 4.028 3.295 0 2.563-2.38 3.844-5.126 3.844-1.83 0-3.844-.732-5.126-1.647l.732-1.099c.916.732 2.563 1.465 4.21 1.465 2.015 0 3.48-.733 3.48-2.38 0-1.282-1.1-1.83-3.113-2.014l-1.281-.183c-2.197-.183-3.845-1.281-3.845-3.478 0-2.38 2.197-3.845 4.943-3.845 2.014 0 3.478.55 4.577 1.465l-.55 1.281zm12.998-.915h-4.576v11.35h-1.465v-11.35h-4.394v-1.465h10.435zm11.899 11.35h-1.647l-1.465-3.661h-6.407l-1.464 3.661h-1.465l5.309-12.815h1.83l5.31 12.815zm-8.787-4.943h5.31l-2.564-6.407-2.746 6.407zm18.856-6.407h-4.393v11.35h-1.465v-11.35h-4.394v-1.465h10.435v1.465h-.183zm11.35 11.35h-8.97V22.432h8.97v1.465h-7.505v4.21h7.322v1.465h-7.322v4.21h7.505zm12.083 0h-8.97V22.432h1.464v11.35h7.506v1.465zm11.35 0h-8.97V22.432h8.97v1.465h-7.506v4.21h7.323v1.465h-7.323v4.21h7.506zm11.716-10.435c-1.098-.732-2.38-1.281-3.844-1.281-2.014 0-3.296.915-3.296 2.38 0 1.281.916 1.83 2.93 2.013l1.28.184c2.198.183 4.028 1.098 4.028 3.295 0 2.563-2.38 3.844-5.125 3.844-1.831 0-3.845-.732-5.126-1.647l.732-1.099c.915.732 2.563 1.465 4.21 1.465 2.014 0 3.479-.733 3.479-2.38 0-1.282-1.099-1.83-3.112-2.014l-1.282-.183c-2.197-.183-3.844-1.281-3.844-3.478 0-2.38 2.197-3.845 4.943-3.845 2.013 0 3.478.55 4.576 1.465l-.549 1.281zm12.265 0c-1.098-.732-2.38-1.281-3.844-1.281-2.014 0-3.295.915-3.295 2.38 0 1.281.915 1.83 2.929 2.013l1.281.184c2.197.183 4.028 1.098 4.028 3.295 0 2.563-2.38 3.844-5.126 3.844-1.83 0-3.844-.732-5.126-1.647l.732-1.099c.916.732 2.563 1.465 4.21 1.465 2.015 0 3.48-.733 3.48-2.38 0-1.282-1.1-1.83-3.113-2.014l-1.281-.183c-2.197-.183-3.845-1.281-3.845-3.478 0-2.38 2.197-3.845 4.943-3.845 2.014 0 3.478.55 4.577 1.465l-.55 1.281z" fill="#000"/><path d="M456.201 390.03H446.5v-2.197h9.702v2.197zm-14.096 0h-9.702v-2.197h9.702v2.197zm-14.096 0h-9.702v-2.197h9.702v2.197zm-14.096 0h-9.702v-2.197h9.702v2.197zm-14.096 0h-9.703v-2.197h9.703v2.197zm-14.096 0h-9.703v-2.197h9.703v2.197zm-14.096 0h-9.703v-2.197h9.703v2.197zm-14.096 0h-9.703v-2.197h9.703v2.197zm-14.097 0h-9.702v-2.197h9.702v2.197zm-14.096 0h-9.702v-2.197h9.702v2.197zm-14.096 0h-9.702v-2.197h9.702v2.197zm-14.096 0h-9.702v-2.197h9.702v2.197zm-13.913 0h-9.702v-2.197h9.702v2.197zm-14.096 0h-9.703v-2.197h9.703v2.197zm-14.096 0h-9.703v-2.197h9.703v2.197zm-14.096 0h-9.703v-2.197h9.703v2.197zm-14.096 0h-9.703v-2.197h9.703v2.197zm-14.096 0h-9.703v-2.197h9.703v2.197zm-14.097 0h-9.702v-2.197h9.702v2.197zm-14.096 0h-9.702v-2.197h9.702v2.197zm-10.435 7.871h278.078v3.295H178.123zm278.078 13.364H446.5v-2.196h9.702v2.196zm-14.096 0h-9.702v-2.196h9.702v2.196zm-14.096 0h-9.702v-2.196h9.702v2.196zm-14.096 0h-9.702v-2.196h9.702v2.196zm-14.096 0h-9.703v-2.196h9.703v2.196zm-14.096 0h-9.703v-2.196h9.703v2.196zm-14.096 0h-9.703v-2.196h9.703v2.196zm-14.096 0h-9.703v-2.196h9.703v2.196zm-14.097 0h-9.702v-2.196h9.702v2.196zm-14.096 0h-9.702v-2.196h9.702v2.196zm-14.096 0h-9.702v-2.196h9.702v2.196zm-14.096 0h-9.702v-2.196h9.702v2.196zm-13.913 0h-9.702v-2.196h9.702v2.196zm-14.096 0h-9.703v-2.196h9.703v2.196zm-14.096 0h-9.703v-2.196h9.703v2.196zm-14.096 0h-9.703v-2.196h9.703v2.196zm-14.096 0h-9.703v-2.196h9.703v2.196zm-14.096 0h-9.703v-2.196h9.703v2.196zm-14.097 0h-9.702v-2.196h9.702v2.196zm-14.096 0h-9.702v-2.196h9.702v2.196zm267.643-53.089H446.5v-2.197h9.702v2.197zm-14.096 0h-9.702v-2.197h9.702v2.197zm-14.096 0h-9.702v-2.197h9.702v2.197zm-14.096 0h-9.702v-2.197h9.702v2.197zm-14.096 0h-9.703v-2.197h9.703v2.197zm-14.096 0h-9.703v-2.197h9.703v2.197zm-14.096 0h-9.703v-2.197h9.703v2.197zm-14.096 0h-9.703v-2.197h9.703v2.197zm-14.097 0h-9.702v-2.197h9.702v2.197zm-14.096 0h-9.702v-2.197h9.702v2.197zm-14.096 0h-9.702v-2.197h9.702v2.197zm-14.096 0h-9.702v-2.197h9.702v2.197zm-13.913 0h-9.702v-2.197h9.702v2.197zm-14.096 0h-9.703v-2.197h9.703v2.197zm-14.096 0h-9.703v-2.197h9.703v2.197zm-14.096 0h-9.703v-2.197h9.703v2.197zm-14.096 0h-9.703v-2.197h9.703v2.197zm-14.096 0h-9.703v-2.197h9.703v2.197zm-14.097 0h-9.702v-2.197h9.702v2.197zm-14.096 0h-9.702v-2.197h9.702v2.197zm-10.435 7.872h278.078v3.295H178.123zm278.078 13.364H446.5v-2.197h9.702v2.197zm-14.096 0h-9.702v-2.197h9.702v2.197zm-14.096 0h-9.702v-2.197h9.702v2.197zm-14.096 0h-9.702v-2.197h9.702v2.197zm-14.096 0h-9.703v-2.197h9.703v2.197zm-14.096 0h-9.703v-2.197h9.703v2.197zm-14.096 0h-9.703v-2.197h9.703v2.197zm-14.096 0h-9.703v-2.197h9.703v2.197zm-14.097 0h-9.702v-2.197h9.702v2.197zm-14.096 0h-9.702v-2.197h9.702v2.197zm-14.096 0h-9.702v-2.197h9.702v2.197zm-14.096 0h-9.702v-2.197h9.702v2.197zm-13.913 0h-9.702v-2.197h9.702v2.197zm-14.096 0h-9.703v-2.197h9.703v2.197zm-14.096 0h-9.703v-2.197h9.703v2.197zm-14.096 0h-9.703v-2.197h9.703v2.197zm-14.096 0h-9.703v-2.197h9.703v2.197zm-14.096 0h-9.703v-2.197h9.703v2.197zm-14.097 0h-9.702v-2.197h9.702v2.197zm-14.096 0h-9.702v-2.197h9.702v2.197zm267.643 42.471H446.5v-2.197h9.702v2.197zm-14.096 0h-9.702v-2.197h9.702v2.197zm-14.096 0h-9.702v-2.197h9.702v2.197zm-14.096 0h-9.702v-2.197h9.702v2.197zm-14.096 0h-9.703v-2.197h9.703v2.197zm-14.096 0h-9.703v-2.197h9.703v2.197zm-14.096 0h-9.703v-2.197h9.703v2.197zm-14.096 0h-9.703v-2.197h9.703v2.197zm-14.097 0h-9.702v-2.197h9.702v2.197zm-14.096 0h-9.702v-2.197h9.702v2.197zm-14.096 0h-9.702v-2.197h9.702v2.197zm-14.096 0h-9.702v-2.197h9.702v2.197zm-13.913 0h-9.702v-2.197h9.702v2.197zm-14.096 0h-9.703v-2.197h9.703v2.197zm-14.096 0h-9.703v-2.197h9.703v2.197zm-14.096 0h-9.703v-2.197h9.703v2.197zm-14.096 0h-9.703v-2.197h9.703v2.197zm-14.096 0h-9.703v-2.197h9.703v2.197zm-14.097 0h-9.702v-2.197h9.702v2.197zm-14.096 0h-9.702v-2.197h9.702v2.197zm-10.435 7.872h278.078v3.295H178.123zm278.078 13.364H446.5v-2.197h9.702v2.197zm-14.096 0h-9.702v-2.197h9.702v2.197zm-14.096 0h-9.702v-2.197h9.702v2.197zm-14.096 0h-9.702v-2.197h9.702v2.197zm-14.096 0h-9.703v-2.197h9.703v2.197zm-14.096 0h-9.703v-2.197h9.703v2.197zm-14.096 0h-9.703v-2.197h9.703v2.197zm-14.096 0h-9.703v-2.197h9.703v2.197zm-14.097 0h-9.702v-2.197h9.702v2.197zm-14.096 0h-9.702v-2.197h9.702v2.197zm-14.096 0h-9.702v-2.197h9.702v2.197zm-14.096 0h-9.702v-2.197h9.702v2.197zm-13.913 0h-9.702v-2.197h9.702v2.197zm-14.096 0h-9.703v-2.197h9.703v2.197zm-14.096 0h-9.703v-2.197h9.703v2.197zm-14.096 0h-9.703v-2.197h9.703v2.197zm-14.096 0h-9.703v-2.197h9.703v2.197zm-14.096 0h-9.703v-2.197h9.703v2.197zm-14.097 0h-9.702v-2.197h9.702v2.197zm-14.096 0h-9.702v-2.197h9.702v2.197z" fill="#B2B2B2"/><path fill="#EFEFEF" d="M.183 295.75h177.941v172.266H.183z"/><path d="M54.737 436.162h-3.661v9.703h-1.831v-9.703h-3.661v-1.83h9.336zm6.041 2.014l-.366 1.648c-.366-.183-.915-.366-1.282-.366-1.098 0-1.83.732-1.83 2.196v4.394h-1.648v-7.872H57.3v.916c.549-.733 1.281-1.099 2.38-1.099.366-.183.732 0 1.098.183zm9.153 7.872h-1.647v-.915c-.55.732-1.282 1.098-2.563 1.098-2.197 0-4.028-1.647-4.028-4.21 0-2.38 1.648-4.21 4.028-4.21 1.098 0 2.014.548 2.563 1.097v-.915h1.647v8.055zm-6.407-4.027c0 1.464.915 2.563 2.38 2.563 1.464 0 2.38-1.099 2.38-2.563 0-1.465-.916-2.563-2.38-2.563-1.465 0-2.38 1.098-2.38 2.563zm16.293-1.099v4.943h-1.648v-4.394c0-1.281-.732-2.013-1.83-2.013-1.099 0-2.014.732-2.014 2.013v4.394h-1.648v-7.872h1.648v.915c.55-.915 1.648-1.098 2.38-1.098 1.83 0 3.112 1.282 3.112 3.112zm8.055-.915c-.55-.366-1.465-.732-2.38-.732-.915 0-1.465.366-1.465.915 0 .55.55.732 1.282.732l.732.183c1.648.183 2.746.916 2.746 2.38 0 1.465-1.281 2.563-3.661 2.563-.732 0-2.197-.183-3.478-1.098l.732-1.282c.55.366 1.281.732 2.563.732 1.098 0 1.83-.366 1.83-.915 0-.366-.366-.732-1.281-.915l-.915-.183c-1.831-.183-2.746-1.099-2.746-2.38 0-1.648 1.281-2.563 3.295-2.563 1.281 0 2.38.366 3.112.915l-.366 1.648zm10.618 6.041h-1.648v-.915c-.55.732-1.281 1.098-2.563 1.098-2.197 0-4.027-1.647-4.027-4.21 0-2.38 1.83-4.21 4.027-4.21 1.099 0 2.014.548 2.563 1.097v-.915h1.648v8.055zm-6.408-4.027c0 1.464.916 2.563 2.38 2.563 1.465 0 2.38-1.099 2.38-2.563 0-1.465-.915-2.563-2.38-2.563-1.464 0-2.38 1.098-2.38 2.563zm15.561-2.929l-1.098 1.098c-.55-.55-1.099-.732-1.831-.732-1.282 0-2.38 1.098-2.38 2.563 0 1.464.915 2.563 2.38 2.563.732 0 1.464-.367 2.014-.916l1.098 1.099c-.732.915-1.83 1.281-2.929 1.281-2.563 0-4.21-1.83-4.21-4.21s1.647-4.211 4.21-4.211c.915.183 2.014.732 2.746 1.465zm7.323.548h-3.112v3.479c0 1.098.549 1.465 1.281 1.465.55 0 1.098-.184 1.648-.55l.732 1.465c-.55.366-1.465.732-2.38.732-1.83 0-2.746-.915-2.746-3.112v-3.478h-1.648v-1.648h1.648v-2.38h1.648v2.38h3.112c-.183 0-.183 1.648-.183 1.648zm4.21-4.21c0 .732-.549 1.282-1.281 1.282-.733 0-1.282-.55-1.282-1.282s.55-1.281 1.282-1.281 1.281.549 1.281 1.281zm-.366 10.618h-1.648v-7.872h1.648v7.872zm10.618-4.028c0 2.38-1.83 4.211-4.21 4.211s-4.211-1.83-4.211-4.21 1.83-4.21 4.21-4.21 4.21 1.83 4.21 4.21zm-6.59 0c0 1.465 1.098 2.564 2.562 2.564 1.465 0 2.563-1.099 2.563-2.563 0-1.465-1.098-2.563-2.563-2.563-1.464 0-2.562 1.098-2.562 2.563zm16.109-1.098v4.943H137.3v-4.394c0-1.281-.732-2.013-1.83-2.013-1.1 0-2.015.732-2.015 2.013v4.394h-1.647v-7.872h1.647v.915c.55-.915 1.648-1.098 2.38-1.098 1.83 0 3.112 1.282 3.112 3.112zm-88.604-27.094a6.322 6.322 0 0 0-3.295-.915c-1.464 0-2.563.732-2.563 1.648 0 .915.915 1.281 2.38 1.464l.732.183c1.83.183 3.662 1.099 3.662 3.112 0 2.38-2.197 3.662-4.577 3.662-1.648 0-3.478-.55-4.577-1.465l1.099-1.464c.732.732 2.196 1.281 3.661 1.281 1.465 0 2.746-.732 2.746-1.648 0-.915-.915-1.281-2.563-1.647l-.915-.183c-1.648-.183-3.479-1.099-3.479-3.112 0-2.38 2.014-3.662 4.577-3.662 1.648 0 2.93.55 4.21 1.282l-1.098 1.464zm11.35 5.126c0 2.38-1.83 4.21-4.21 4.21s-4.21-1.83-4.21-4.21 1.83-4.21 4.21-4.21 4.21 1.83 4.21 4.21zm-6.773 0c0 1.465 1.098 2.563 2.38 2.563 1.464 0 2.563-1.098 2.563-2.563 0-1.464-1.099-2.563-2.563-2.563-1.282 0-2.38.916-2.38 2.563zm15.377-2.929l-1.098 1.099c-.55-.55-1.098-.733-1.83-.733-1.282 0-2.38 1.099-2.38 2.563 0 1.465.915 2.563 2.38 2.563.732 0 1.464-.366 2.013-.915l1.099 1.098c-.733.916-1.831 1.282-2.93 1.282-2.562 0-4.21-1.831-4.21-4.21 0-2.38 1.648-4.211 4.21-4.211.916.183 2.014.549 2.746 1.464zm4.028-3.845c0 .733-.55 1.282-1.282 1.282s-1.281-.549-1.281-1.281c0-.732.55-1.282 1.281-1.282.733 0 1.282.55 1.282 1.282zm-.366 10.619H72.31v-7.872h1.648v7.872zm10.251 0h-1.647v-.916c-.55.733-1.282 1.099-2.563 1.099-2.197 0-4.027-1.648-4.027-4.21 0-2.38 1.83-4.211 4.027-4.211 1.098 0 2.014.549 2.563 1.098v-.915h1.648v8.055zm-6.407-3.845c0 1.465.916 2.563 2.38 2.563 1.465 0 2.38-1.098 2.38-2.563 0-1.464-.915-2.563-2.38-2.563-1.464 0-2.38 1.099-2.38 2.563zm10.801 3.845h-1.647v-11.9h1.647zm19.771 0h-1.83v-9.52l-3.296 8.421h-2.013l-3.295-8.238v9.337H96.11v-11.534h2.746l3.295 8.238 3.295-8.238h2.93V422.8zm10.069-3.845v.732h-5.858c.183 1.465 1.281 2.014 2.38 2.014.732 0 1.647-.366 2.196-.915l.916 1.281c-.916.916-2.014 1.099-3.295 1.099-2.38 0-4.028-1.648-4.028-4.21 0-2.564 1.648-4.211 3.845-4.211 2.38 0 3.844 1.647 3.844 4.21zm-5.858-.732h4.027c-.183-1.281-.915-2.014-2.013-2.014-1.099 0-1.831.916-2.014 2.014zm13.913-2.38V410.9h1.647v11.9H126.5v-.916c-.55.733-1.282 1.099-2.563 1.099-2.197 0-4.028-1.648-4.028-4.21 0-2.38 1.831-4.211 4.028-4.211 1.098.183 2.014.549 2.563 1.281zm-4.76 3.112c0 1.465.915 2.563 2.38 2.563 1.465 0 2.38-1.098 2.38-2.563 0-1.464-.915-2.563-2.38-2.563-1.465 0-2.38 1.099-2.38 2.563zm11.167-6.774c0 .733-.549 1.282-1.281 1.282a1.251 1.251 0 0 1-1.282-1.281c0-.732.55-1.282 1.282-1.282s1.281.55 1.281 1.282zm-.366 10.619h-1.648v-7.872h1.648v7.872zm10.435 0h-1.648v-.916c-.549.733-1.281 1.099-2.563 1.099-2.196 0-4.027-1.648-4.027-4.21 0-2.38 1.647-4.211 4.027-4.211 1.099 0 2.014.549 2.563 1.098v-.915h1.648v8.055zm-6.407-3.845c0 1.465.915 2.563 2.38 2.563 1.464 0 2.38-1.098 2.38-2.563 0-1.464-.916-2.563-2.38-2.563-1.465 0-2.38 1.099-2.38 2.563zM34.6 390.762a6.322 6.322 0 0 0-3.296-.915c-1.464 0-2.563.732-2.563 1.647 0 .916.916 1.282 2.38 1.465l.733.183c1.83.183 3.66 1.098 3.66 3.112 0 2.38-2.196 3.661-4.576 3.661-1.647 0-3.478-.549-4.576-1.464l1.098-1.465c.732.733 2.197 1.282 3.661 1.282 1.465 0 2.746-.733 2.746-1.648 0-.915-.915-1.281-2.563-1.647l-.915-.184c-1.648-.183-3.478-1.098-3.478-3.112 0-2.38 2.013-3.661 4.576-3.661 1.648 0 2.93.55 4.21 1.281l-1.097 1.465zm10.617 4.943v.732H39.36c.183 1.465 1.282 2.014 2.38 2.014.732 0 1.648-.366 2.197-.916l.915 1.282c-.915.915-2.013 1.098-3.295 1.098-2.38 0-4.027-1.647-4.027-4.21 0-2.563 1.647-4.21 3.844-4.21 2.38 0 3.844 1.83 3.844 4.21zm-5.858-.732h4.028c-.183-1.282-.916-2.014-2.014-2.014-1.098.183-1.83.915-2.014 2.014zm15.378-.183v4.942h-1.648v-4.393c0-1.282-.732-2.014-1.83-2.014-1.099 0-2.014.732-2.014 2.014v4.393h-1.648v-7.872h1.648v.916c.55-.916 1.647-1.099 2.38-1.099 1.647-.183 3.112 1.099 3.112 3.112zm7.872-1.099c-.55-.366-1.465-.732-2.38-.732-.915 0-1.465.366-1.465.915 0 .55.55.732 1.282.732l.732.183c1.648.184 2.746.916 2.746 2.38 0 1.465-1.281 2.563-3.661 2.563-.733 0-2.197-.183-3.479-1.098l.733-1.282c.549.367 1.281.733 2.563.733 1.098 0 1.83-.366 1.83-.916 0-.366-.366-.732-1.281-.915l-.915-.183c-1.831-.183-2.746-1.098-2.746-2.38 0-1.648 1.281-2.563 3.295-2.563 1.281 0 2.38.366 3.112.915l-.366 1.648zm10.984 2.014c0 2.38-1.831 4.21-4.21 4.21-2.38 0-4.211-1.83-4.211-4.21s1.83-4.21 4.21-4.21 4.21 1.83 4.21 4.21zm-6.774 0c0 1.464 1.099 2.563 2.38 2.563 1.465 0 2.563-1.099 2.563-2.563 0-1.465-1.098-2.563-2.563-2.563-1.281 0-2.38 1.098-2.38 2.563zm14.096-3.845l-.366 1.648c-.366-.183-.915-.366-1.281-.366-1.099 0-1.83.732-1.83 2.197v4.393h-1.649v-7.872h1.648v.916c.55-.733 1.282-1.099 2.38-1.099.366-.183.732 0 1.098.183zM91.9 388.2c3.66 0 6.04 2.379 6.04 5.857s-2.38 5.858-6.04 5.858h-4.577v-11.533l4.576-.183zm-2.747 1.647v8.055H91.9c2.746 0 4.028-1.648 4.028-4.028s-1.282-4.027-4.028-4.027h-2.746zm18.49 9.885h-1.648v-.915c-.549.732-1.281 1.098-2.563 1.098-2.196 0-4.027-1.647-4.027-4.21 0-2.38 1.83-4.21 4.027-4.21 1.099 0 2.014.548 2.563 1.098v-.916h1.648v8.055zm-6.407-4.027c0 1.464.915 2.563 2.38 2.563 1.464 0 2.38-1.099 2.38-2.563 0-1.465-.916-2.563-2.38-2.563-1.465 0-2.38 1.281-2.38 2.563zm14.462-2.38h-3.112v3.478c0 1.099.549 1.465 1.281 1.465.55 0 1.099-.183 1.648-.55l.732 1.465c-.55.366-1.464.732-2.38.732-1.83 0-2.746-.915-2.746-3.112v-3.478h-1.647v-1.648h1.647v-2.38h1.648v2.38h3.112c-.183.183-.183 1.648-.183 1.648zm9.702 6.407h-1.647v-.915c-.55.732-1.282 1.098-2.563 1.098-2.197 0-4.028-1.647-4.028-4.21 0-2.38 1.648-4.21 4.028-4.21 1.098 0 2.014.548 2.563 1.098v-.916h1.647v8.055zm-6.407-4.027c0 1.464.915 2.563 2.38 2.563 1.465 0 2.38-1.099 2.38-2.563 0-1.465-.915-2.563-2.38-2.563-1.465 0-2.38 1.281-2.38 2.563zm9.52 5.675h-1.831l6.956-14.28h1.831zm10.068-1.648h-1.83V388.2h1.83zm10.801-4.027c0 2.38-1.83 4.21-4.21 4.21s-4.21-1.83-4.21-4.21 1.83-4.21 4.21-4.21 4.21 1.83 4.21 4.21zm-6.773 0c0 1.464 1.098 2.563 2.563 2.563 1.464 0 2.563-1.099 2.563-2.563 0-1.465-1.099-2.563-2.563-2.563-1.465 0-2.563 1.098-2.563 2.563zm17.208-5.858h-3.661v9.702h-1.831v-9.702h-3.661v-1.831H160zM75.24 376.483h-8.42V364.95h8.237v1.83H68.65v3.112h6.407v1.831h-6.224v3.112h6.59zm6.59 0h-2.013l-3.112-7.872h1.83l2.38 6.041 2.38-6.041h1.83zm11.717-3.845v.733h-5.858c.183 1.464 1.281 2.013 2.38 2.013.732 0 1.647-.366 2.196-.915l.916 1.282c-.916.915-2.014 1.098-3.295 1.098-2.38 0-4.028-1.648-4.028-4.21 0-2.563 1.648-4.211 3.845-4.211 2.38 0 3.844 1.648 3.844 4.21zm-5.858-.732h4.027c-.183-1.281-.915-2.014-2.013-2.014-1.099 0-1.831.916-2.014 2.014zm15.377-.366v4.943h-1.647v-4.394c0-1.281-.733-2.013-1.83-2.013-1.1 0-2.015.732-2.015 2.013v4.394h-1.647v-7.872h1.647v.915c.55-.915 1.648-1.098 2.38-1.098 1.83 0 3.112 1.281 3.112 3.112zm7.872-1.281h-2.929v3.478c0 1.098.55 1.464 1.282 1.464.549 0 1.098-.183 1.647-.549l.732 1.465c-.549.366-1.464.732-2.38.732-1.83 0-2.745-.915-2.745-3.112v-3.478h-1.648v-1.648h1.281v-2.38h1.831v2.38h3.112l-.183 1.648zm7.506.366c-.55-.366-1.465-.733-2.38-.733-.915 0-1.464.367-1.464.916s.549.732 1.281.732l.732.183c1.648.183 2.746.915 2.746 2.38 0 1.465-1.281 2.563-3.661 2.563-.732 0-2.197-.183-3.478-1.098l.732-1.282c.55.366 1.281.732 2.563.732 1.098 0 1.83-.366 1.83-.915 0-.366-.366-.732-1.28-.915l-.916-.183c-1.83-.183-2.746-1.099-2.746-2.38 0-1.648 1.281-2.563 3.295-2.563 1.281 0 2.38.366 3.112.915l-.366 1.648zm-35.332-17.209h-8.238v-11.533h1.83v9.703h6.408zm9.703-4.027c0 2.38-1.831 4.21-4.21 4.21-2.38 0-4.211-1.83-4.211-4.21s1.83-4.21 4.21-4.21 4.21 1.83 4.21 4.21zm-6.774 0c0 1.465 1.099 2.563 2.563 2.563 1.465 0 2.563-1.098 2.563-2.563s-1.098-2.563-2.563-2.563c-1.464 0-2.563 1.098-2.563 2.563zm14.645-2.929v-.915h1.648v7.322c0 2.563-1.648 4.028-4.21 4.028-1.099 0-2.38-.366-3.296-.916l.55-1.464c.732.55 1.647.732 2.746.732 1.647 0 2.562-.915 2.562-2.38v-.549c-.549.732-1.464 1.098-2.562 1.098-1.831 0-3.662-1.464-3.662-4.027s1.83-4.027 3.662-4.027c1.098 0 1.83.366 2.562 1.098zm-4.576 2.929c0 1.281.915 2.38 2.38 2.38 1.464 0 2.38-1.099 2.38-2.38s-.916-2.38-2.38-2.38c-1.465-.183-2.38.915-2.38 2.38zm14.279-2.014c-.55-.366-1.465-.732-2.38-.732-.915 0-1.464.366-1.464.915 0 .55.549.733 1.281.733l.732.183c1.648.183 2.746.915 2.746 2.38 0 1.464-1.281 2.562-3.661 2.562-.732 0-2.197-.183-3.295-1.098l.732-1.281c.55.366 1.282.732 2.563.732 1.098 0 1.83-.366 1.83-.915 0-.367-.365-.733-1.28-.916l-.916-.183c-1.83-.183-2.746-1.098-2.746-2.38 0-1.647 1.281-2.563 3.295-2.563 1.282 0 2.38.366 3.112.916l-.549 1.647zM29.29 312.959c-1.098-.732-2.38-1.099-3.844-1.099s-2.563.55-2.563 1.648c0 .915 1.099 1.281 2.746 1.465l.733.183c2.38.366 4.21 1.464 4.21 3.66 0 2.93-2.563 4.395-5.492 4.395-2.014 0-4.21-.55-5.675-1.648l1.465-2.197c.915.732 2.562 1.465 4.21 1.465 1.465 0 2.563-.55 2.563-1.648 0-.915-.915-1.281-2.746-1.464l-.915-.184c-2.38-.366-4.028-1.464-4.028-3.844 0-2.746 2.38-4.21 5.31-4.21 1.83 0 3.477.366 5.125 1.464l-1.098 2.014zm10.07 2.929h-3.296v3.295c0 1.098.55 1.648 1.465 1.648.549 0 1.281-.366 1.647-.55l.916 2.014c-.733.55-1.648.916-3.113.916-2.196 0-3.478-1.282-3.478-3.662v-3.478h-1.83v-2.197h1.83v-2.746h2.563v2.746h3.295v2.014zm8.42-2.197l-.366 2.38c-.366-.183-.915-.366-1.464-.366-1.099 0-2.014.732-2.014 2.014v4.942h-2.38v-9.153h2.38v.915c.55-.915 1.464-1.281 2.563-1.281.55.366.915.366 1.281.55zm9.886 4.577v.915h-6.59c.183 1.282 1.281 1.83 2.38 1.83.732 0 1.647-.365 2.38-.915l1.464 1.648c-1.099.915-2.38 1.465-3.845 1.465-2.746 0-4.76-1.831-4.76-4.76 0-2.93 1.831-4.943 4.577-4.943 2.563 0 4.394 2.014 4.394 4.76zm-6.59-.733h4.027c-.183-1.098-.915-1.83-2.014-1.83-1.098 0-1.647.549-2.013 1.83zm17.574 5.309h-2.38v-1.098c-.55.732-1.465 1.281-2.746 1.281-2.563 0-4.394-2.013-4.394-4.76 0-2.745 1.831-4.759 4.394-4.759 1.281 0 2.197.55 2.746 1.281v-1.098h2.38v9.153zm-6.957-4.576c0 1.464.916 2.563 2.38 2.563 1.465 0 2.38-1.099 2.38-2.563 0-1.465-.915-2.563-2.38-2.563-1.464.183-2.38 1.281-2.38 2.563zm24.531-1.098v5.857h-2.38v-5.125c0-1.282-.732-2.014-1.83-2.014-1.099 0-2.014.732-2.014 2.014v4.942h-2.38v-5.125c0-1.282-.732-2.014-1.83-2.014-1.099 0-2.014.732-2.014 2.014v4.942h-2.38v-9.153h2.38v1.098c.732-.915 1.647-1.281 2.746-1.281 1.281 0 2.38.55 3.112 1.648.732-1.099 1.83-1.648 3.112-1.648 2.014.183 3.478 1.648 3.478 3.844zm5.309-6.408a1.64 1.64 0 0 1-1.647 1.648 1.64 1.64 0 0 1-1.648-1.648 1.64 1.64 0 0 1 1.648-1.648 1.64 1.64 0 0 1 1.647 1.648zm-.366 12.082h-2.563v-9.153h2.563v9.153zm11.35-5.674v5.857h-2.563v-5.125c0-1.282-.732-2.014-1.83-2.014-1.099 0-2.014.732-2.014 2.014v4.942h-2.38v-9.153h2.38v1.098c.732-.915 1.647-1.281 2.746-1.281 2.197 0 3.661 1.465 3.661 3.661zm8.97-2.38v-1.099h2.38v8.421c0 2.93-1.83 4.76-4.943 4.76-1.464 0-2.929-.366-4.027-1.099l.915-2.013c.916.549 2.014.915 3.112.915 1.465 0 2.563-.915 2.563-2.38v-.732c-.549.732-1.464 1.281-2.746 1.281-2.196 0-4.21-1.83-4.21-4.76 0-2.745 2.014-4.76 4.21-4.76 1.099.184 2.197.733 2.746 1.465zm-4.576 3.478c0 1.281.915 2.38 2.38 2.38 1.464 0 2.38-1.099 2.38-2.38 0-1.465-.916-2.38-2.38-2.38-1.465-.183-2.38.915-2.38 2.38zm19.954-8.604c4.21 0 6.957 2.563 6.957 6.59 0 4.027-2.746 6.59-6.957 6.59h-5.492v-13.18h5.492zm-2.746 2.563v8.238h2.746c2.746 0 4.21-1.831 4.21-4.211 0-2.38-1.28-4.21-4.21-4.21h-2.746v.183zm20.87 10.617h-2.38v-1.098c-.55.732-1.465 1.281-2.746 1.281-2.563 0-4.394-2.013-4.394-4.76 0-2.745 1.83-4.759 4.394-4.759 1.281 0 2.196.55 2.746 1.281v-1.098h2.38v9.153zm-7.14-4.576c0 1.464.915 2.563 2.38 2.563 1.464 0 2.38-1.099 2.38-2.563 0-1.465-.916-2.563-2.38-2.563-1.465.183-2.38 1.281-2.38 2.563zm16.476-2.38h-3.295v3.295c0 1.098.549 1.648 1.464 1.648.55 0 1.282-.366 1.648-.55l.915 2.014c-.732.55-1.647.916-3.112.916-2.197 0-3.478-1.282-3.478-3.662v-3.478h-1.83v-2.197h1.83v-2.746h2.563v2.746h3.295v2.014zm10.984 6.956h-2.38v-1.098c-.55.732-1.464 1.281-2.746 1.281-2.563 0-4.394-2.013-4.394-4.76 0-2.745 1.831-4.759 4.394-4.759 1.282 0 2.197.55 2.746 1.281v-1.098h2.38v9.153zm-6.957-4.576c0 1.464.916 2.563 2.38 2.563 1.465 0 2.38-1.099 2.38-2.563 0-1.465-.915-2.563-2.38-2.563-1.464.183-2.38 1.281-2.38 2.563z" fill="#000"/><path fill="#FFF" d="M246.59 349.022h141.145v101.785H246.59z"/><path d="M391.396 454.286H242.929V345.178h148.467v109.108zm-141.144-7.323h133.821v-94.462H250.252v94.462z" fill="#BBB"/><g fill="#B2B2B2"><path d="M474.325 91.082h3.112v228.833h-3.112z"/><path d="M472.311 317.352l3.662 13.913 3.66-13.913z"/></g><g fill="#B2B2B2"><path d="M554.325 176.209h3.112v142.059h-3.112z"/><path d="M552.128 315.705l3.661 13.913 3.662-13.913z"/></g><g fill="#B2B2B2"><path d="M634.142 176.209h3.112v28.009h-3.112z"/><path d="M632.128 201.654l3.661 13.73 3.662-13.73z"/></g><g fill="#B2B2B2"><path d="M634.142 91.082h3.112v28.01h-3.112z"/><path d="M632.128 116.712l3.661 13.73 3.662-13.73z"/></g><g fill="#B2B2B2"><path d="M634.142 261.15h3.112v57.118h-3.112z"/><path d="M632.128 315.705l3.661 13.913 3.662-13.913z"/></g><g fill="#B2B2B2"><path d="M714.141 261.15h3.112v57.118h-3.112z"/><path d="M711.945 315.705l3.661 13.913 3.662-13.913z"/></g><path d="M290.343 407.055h-11.9v-16.66h2.747v14.097h9.153zm13.913-5.675c0 3.478-2.563 6.041-6.224 6.041s-6.041-2.563-6.041-6.041 2.563-6.041 6.041-6.041 6.224 2.746 6.224 6.04zm-9.702 0c0 2.197 1.464 3.661 3.661 3.661s3.661-1.464 3.661-3.661-1.464-3.661-3.66-3.661c-2.198 0-3.662 1.464-3.662 3.66zm21.052-4.21v-1.282h2.563v10.618c0 3.661-2.38 5.858-6.04 5.858-1.648 0-3.662-.55-4.76-1.282l.915-2.196c1.098.732 2.563 1.098 3.844 1.098 2.38 0 3.661-1.281 3.661-3.478v-.916c-.915 1.099-2.196 1.648-3.844 1.648-2.563 0-5.309-2.197-5.309-5.858 0-3.661 2.746-5.858 5.31-5.858 1.464-.183 2.745.549 3.66 1.647zm-6.59 4.21c0 1.83 1.281 3.478 3.295 3.478 2.014 0 3.295-1.464 3.295-3.478 0-2.014-1.281-3.478-3.295-3.478-2.014-.183-3.295 1.464-3.295 3.478zm21.236-4.21v-1.282h2.563v10.618c0 3.661-2.38 5.858-6.042 5.858-1.647 0-3.66-.55-4.76-1.282l.916-2.196c1.098.732 2.563 1.098 3.844 1.098 2.38 0 3.662-1.281 3.662-3.478v-.916c-.916 1.099-2.197 1.648-3.845 1.648-2.563 0-5.309-2.197-5.309-5.858 0-3.661 2.746-5.858 5.31-5.858 1.464-.183 2.745.549 3.66 1.647zm-6.408 4.21c0 1.83 1.282 3.478 3.296 3.478 2.013 0 3.295-1.464 3.295-3.478 0-2.014-1.282-3.478-3.295-3.478-2.197-.183-3.296 1.464-3.296 3.478zm23.066 0v.915h-8.42c.366 2.014 1.83 2.93 3.478 2.93 1.098 0 2.38-.367 3.295-1.282l1.282 1.83c-1.465 1.099-2.93 1.648-4.76 1.648-3.478 0-5.858-2.38-5.858-6.041 0-3.661 2.38-6.041 5.675-6.041 3.112 0 5.309 2.563 5.309 6.04zm-8.42-.915h5.858c-.183-1.831-1.282-2.746-2.93-2.746-1.647 0-2.745 1.098-2.928 2.746zm19.222-4.76l-.55 2.38c-.549-.183-1.281-.366-1.83-.366-1.648 0-2.746 1.098-2.746 3.112v6.224h-2.563v-11.35h2.38v1.281c.732-1.098 1.83-1.647 3.295-1.647.915 0 1.464.183 2.014.366z" fill="#000"/><path fill="url(#a)" d="M462.975 46.316h185.812v45.767H462.975z" transform="translate(0 -1)"/><path d="M517.895 73.325h-2.38l-.915-2.746h-4.943l-.916 2.746h-2.38l4.577-11.533h2.746l4.21 11.533zm-7.506-4.76h3.295l-1.647-4.393-1.648 4.393zm17.208.732c0 2.38-1.647 4.211-3.844 4.211-1.099 0-1.83-.366-2.38-1.098v4.21h-2.197V65.27h2.014v.915c.55-.732 1.281-1.098 2.38-1.098 2.38 0 4.027 1.83 4.027 4.21zm-6.224 0c0 1.282.915 2.197 2.014 2.197 1.281 0 2.013-.915 2.013-2.197 0-1.281-.732-2.196-2.013-2.196-1.282 0-2.014.915-2.014 2.196zm16.293 0c0 2.38-1.648 4.211-3.844 4.211-1.099 0-1.831-.366-2.38-1.098v4.21h-2.197V65.27h2.014v.915c.549-.732 1.281-1.098 2.38-1.098 2.38 0 4.027 1.83 4.027 4.21zm-6.224 0c0 1.282.915 2.197 2.013 2.197 1.282 0 2.014-.915 2.014-2.197 0-1.281-.732-2.196-2.014-2.196-1.281 0-2.013.915-2.013 2.196zm10.251 4.028h-2.196v-11.9h2.196zm4.577-10.618c0 .732-.55 1.282-1.465 1.282-.732 0-1.281-.55-1.281-1.282s.55-1.464 1.281-1.464c.916.183 1.465.732 1.465 1.464zm-.183 10.618h-2.197V65.27h2.197v8.055zm9.153-6.774l-1.464 1.282c-.55-.55-.916-.732-1.648-.732-1.098 0-2.014.915-2.014 2.196 0 1.282.916 2.197 2.014 2.197.732 0 1.282-.366 1.648-.732l1.464 1.281c-.732.916-1.83 1.465-3.295 1.465-2.563 0-4.21-1.83-4.21-4.21s1.647-4.211 4.21-4.211c1.465 0 2.563.55 3.295 1.464zm9.337 6.774h-2.014v-.915c-.55.732-1.282 1.098-2.38 1.098-2.197 0-3.844-1.83-3.844-4.21s1.647-4.211 3.844-4.211c1.098 0 1.83.366 2.38 1.098v-.915h2.014v8.055zm-6.225-4.028c0 1.282.733 2.197 2.014 2.197 1.282 0 2.014-.915 2.014-2.197 0-1.281-.915-2.196-2.014-2.196-1.281 0-2.014.915-2.014 2.196zm14.097-2.013h-2.93v2.929c0 .915.55 1.281 1.282 1.281.55 0 1.098-.183 1.464-.549l.733 1.648c-.733.549-1.465.915-2.563.915-2.014 0-2.93-1.098-2.93-3.112v-3.112h-1.464v-1.83h1.465v-2.38h2.197v2.38h2.929v1.83h-.183zm4.393-4.577c0 .732-.55 1.282-1.464 1.282-.733 0-1.282-.55-1.282-1.282s.55-1.464 1.282-1.464c.915.183 1.464.732 1.464 1.464zm-.183 10.618h-2.197V65.27h2.197v8.055zm10.251-4.028c0 2.38-1.83 4.211-4.393 4.211-2.563 0-4.393-1.83-4.393-4.21s1.83-4.211 4.393-4.211c2.563 0 4.394 1.83 4.394 4.21zm-6.407 0c0 1.282.916 2.197 2.197 2.197 1.282 0 2.197-.915 2.197-2.197 0-1.281-.915-2.196-2.197-2.196-1.281 0-2.197.915-2.197 2.196zm15.744-1.097v5.125h-2.197V68.93c0-1.098-.549-1.83-1.647-1.83-.916 0-1.648.549-1.648 1.83v4.394h-2.197V65.27h2.014v.915c.55-.915 1.465-1.098 2.38-1.098 2.014 0 3.295 1.281 3.295 3.112zm7.872-.55c-.55-.366-1.648-.732-2.563-.732-.732 0-1.281.366-1.281.732 0 .55.549.55 1.281.732l.732.183c1.648.183 2.746 1.099 2.746 2.38 0 1.648-1.281 2.746-3.661 2.746-1.098 0-2.563-.183-3.478-.915l.915-1.648c.732.366 1.465.732 2.746.732.915 0 1.465-.366 1.465-.732s-.367-.55-1.282-.732h-.732c-1.83-.183-2.746-1.099-2.746-2.38 0-1.648 1.281-2.563 3.295-2.563 1.282 0 2.197.183 3.295.732l-.732 1.465z" fill="#FFF"/><path fill="url(#b)" d="M522.105 131.442h185.812v45.767H522.105z" transform="translate(0 -1)"/><path fill="url(#c)" d="M581.053 216.384h185.812v45.767H581.053z" transform="translate(0 -1)"/><path d="M558.352 158.268h-2.38v-8.787l-2.929 7.688h-2.38l-2.928-7.505v8.604h-2.38v-11.533h3.295l2.929 7.871 2.929-7.871h3.295v11.533zm10.252 0h-2.014v-.916c-.549.733-1.281 1.099-2.38 1.099-2.196 0-3.844-1.83-3.844-4.21s1.648-4.211 3.845-4.211c1.098 0 1.83.366 2.38 1.098v-.915h2.013v8.055zm-6.041-4.028c0 1.282.732 2.197 2.014 2.197 1.281 0 2.013-.915 2.013-2.197 0-1.281-.915-2.197-2.013-2.197-1.282 0-2.014 1.099-2.014 2.197zm15.377-2.563l-1.464 1.282c-.55-.55-.915-.732-1.648-.732-1.098 0-2.013.915-2.013 2.196 0 1.282.915 2.197 2.013 2.197.733 0 1.282-.366 1.648-.732l1.465 1.281c-.733.916-1.831 1.465-3.296 1.465-2.563 0-4.21-1.83-4.21-4.21s1.647-4.211 4.21-4.211c1.282 0 2.563.366 3.296 1.464zm3.662-.549c.549-.732 1.464-1.098 2.38-1.098 1.83 0 3.112 1.281 3.112 3.112v5.126h-2.197v-4.394c0-1.098-.55-1.83-1.648-1.83-.915 0-1.647.549-1.647 1.83v4.394h-2.197v-11.9h2.197v4.76zm10.068-3.478c0 .732-.549 1.281-1.464 1.281a1.252 1.252 0 0 1-1.282-1.281c0-.732.55-1.465 1.282-1.465.732.183 1.464.733 1.464 1.465zm-.366 10.618h-2.196v-8.055h2.196v8.055zm9.886-4.943v4.943h-2.197v-4.394c0-1.098-.55-1.83-1.647-1.83-.916 0-1.648.549-1.648 1.83v4.394H593.5v-8.055h2.014v.915c.55-.915 1.464-1.098 2.38-1.098 2.013.183 3.295 1.281 3.295 3.295zm9.52.915v.733h-5.676c.183 1.098 1.099 1.647 2.014 1.647.732 0 1.465-.366 2.014-.732l1.281 1.464c-.915.916-2.013 1.282-3.478 1.282-2.38 0-4.21-1.648-4.21-4.21 0-2.564 1.647-4.211 4.027-4.211 2.563 0 4.027 1.647 4.027 4.027zm-5.676-.732h3.479c-.183-1.098-.733-1.648-1.831-1.648-.915.183-1.465.733-1.648 1.648zm20.138 4.76h-8.421v-11.533h2.38v9.336h6.04zm8.787-4.028v.733h-5.675c.183 1.098 1.098 1.647 2.013 1.647.733 0 1.465-.366 2.014-.732l1.282 1.464c-.916.916-2.014 1.282-3.479 1.282-2.38 0-4.21-1.648-4.21-4.21 0-2.564 1.647-4.211 4.027-4.211 2.563 0 4.028 1.647 4.028 4.027zm-5.675-.732h3.478c-.183-1.098-.732-1.648-1.648-1.648-1.098.183-1.647.733-1.83 1.648zm15.377 4.76h-2.013v-.916c-.55.733-1.282 1.099-2.38 1.099-2.197 0-3.845-1.83-3.845-4.21s1.648-4.211 3.845-4.211c1.098 0 1.83.366 2.38 1.098v-.915h2.013v8.055zm-6.224-4.028c0 1.282.732 2.197 2.014 2.197 1.281 0 2.014-.915 2.014-2.197 0-1.281-.916-2.197-2.014-2.197-1.282 0-2.014 1.099-2.014 2.197zm13.913-4.027l-.366 2.197c-.366-.183-.915-.183-1.281-.183-.916 0-1.648.549-1.648 1.83v4.21h-2.197v-8.054h2.014v.915c.55-.732 1.281-1.098 2.197-1.098.549.183.915.183 1.281.183zm8.97 3.112v4.943h-2.196v-4.394c0-1.098-.55-1.83-1.648-1.83-.915 0-1.648.549-1.648 1.83v4.394h-2.196v-8.055h2.013v.915c.55-.915 1.465-1.098 2.38-1.098 2.014.183 3.295 1.281 3.295 3.295zm4.577-5.675c0 .732-.55 1.281-1.465 1.281a1.25 1.25 0 0 1-1.281-1.281c0-.732.55-1.465 1.281-1.465.916.183 1.465.733 1.465 1.465zm-.183 10.618h-2.197v-8.055h2.197v8.055zm9.702-4.943v4.943h-2.196v-4.394c0-1.098-.55-1.83-1.648-1.83-.915 0-1.648.549-1.648 1.83v4.394h-2.196v-8.055h2.013v.915c.55-.915 1.465-1.098 2.38-1.098 2.014.183 3.295 1.281 3.295 3.295zm7.872-2.014v-.915h2.197v7.323c0 2.562-1.647 4.027-4.393 4.027-1.282 0-2.563-.366-3.479-.915l.733-1.831c.732.55 1.647.732 2.562.732 1.282 0 2.197-.732 2.197-2.197v-.549c-.549.733-1.281 1.099-2.38 1.099-2.013 0-3.66-1.648-3.66-4.028s1.647-4.027 3.66-4.027c1.282.183 2.014.549 2.563 1.281zm-3.844 2.93c0 1.098.732 2.013 2.014 2.013 1.281 0 2.013-.915 2.013-2.014 0-1.281-.732-2.013-2.013-2.013-1.282-.184-2.014.732-2.014 2.013zM614.92 231.86c3.661 0 6.041 2.38 6.041 5.859 0 3.478-2.38 5.858-6.041 5.858h-4.76v-11.534l4.76-.183zm-2.563 2.014v7.323h2.38c2.38 0 3.661-1.465 3.661-3.662 0-2.196-1.098-3.66-3.661-3.66h-2.38zm18.307 9.52h-2.014v-.916c-.55.733-1.282 1.099-2.38 1.099-2.197 0-3.844-1.831-3.844-4.21 0-2.38 1.647-4.211 3.844-4.211 1.098 0 1.83.366 2.38 1.098v-.915h2.014v8.055zm-6.225-4.028c0 1.282.733 2.197 2.014 2.197 1.282 0 2.014-.915 2.014-2.197 0-1.281-.916-2.197-2.014-2.197-1.098 0-2.014.916-2.014 2.197zm14.28-2.196h-2.93v2.928c0 .916.55 1.282 1.282 1.282.55 0 1.098-.183 1.464-.55l.733 1.648c-.733.55-1.465.916-2.563.916-2.014 0-2.93-1.099-2.93-3.113v-3.112h-1.464v-1.83h1.465v-2.38h2.197v2.38h2.929v1.83h-.183zm9.702 6.224h-2.197v-.916c-.549.733-1.281 1.099-2.38 1.099-2.196 0-3.844-1.831-3.844-4.21 0-2.38 1.648-4.211 3.844-4.211 1.099 0 1.831.366 2.38 1.098v-.915h2.014v8.055h.183zm-6.224-4.028c0 1.282.732 2.197 2.014 2.197 1.281 0 2.013-.915 2.013-2.197 0-1.281-.915-2.197-2.013-2.197-1.282 0-2.014.916-2.014 2.197zm15.011-.183v4.21h-2.38V231.86h4.76c2.746 0 4.21 1.465 4.21 3.662s-1.464 3.661-4.21 3.661h-2.38zm0-5.309v3.112h2.38c1.282 0 1.83-.549 1.83-1.464 0-1.099-.732-1.465-1.83-1.465l-2.38-.183zm13.73 1.465l-.366 2.196c-.366-.183-.915-.183-1.281-.183-.916 0-1.648.55-1.648 1.831v4.394h-2.197v-8.055h2.014v.915c.55-.732 1.281-1.098 2.197-1.098.732-.183 1.098-.183 1.281 0zm9.337 4.027c0 2.38-1.831 4.21-4.394 4.21s-4.394-1.83-4.394-4.21 1.831-4.21 4.394-4.21 4.394 1.83 4.394 4.21zm-6.408 0c0 1.282.916 2.197 2.197 2.197 1.282 0 2.197-.915 2.197-2.197 0-1.281-.915-2.197-2.197-2.197-1.281 0-2.197.916-2.197 2.197zm15.195-2.746l-1.465 1.282c-.549-.55-.915-.733-1.647-.733-1.099 0-2.014.916-2.014 2.197 0 1.282.915 2.197 2.014 2.197.732 0 1.281-.366 1.647-.732l1.465 1.281c-.732.915-1.83 1.465-3.295 1.465-2.563 0-4.21-1.831-4.21-4.21 0-2.38 1.647-4.211 4.21-4.211 1.464 0 2.563.549 3.295 1.464zm8.787 2.746v.732h-5.675c.183 1.099 1.098 1.648 2.014 1.648.732 0 1.464-.366 2.013-.732l1.282 1.464c-.915.916-2.014 1.282-3.478 1.282-2.38 0-4.21-1.648-4.21-4.21 0-2.564 1.647-4.211 4.027-4.211 2.38-.183 4.027 1.464 4.027 4.027zm-5.675-.732h3.478c-.183-1.099-.732-1.648-1.647-1.648-1.099 0-1.648.55-1.831 1.648zm13.181-1.099c-.55-.366-1.648-.732-2.563-.732-.733 0-1.282.366-1.282.732 0 .55.55.55 1.282.733l.732.183c1.648.183 2.746 1.098 2.746 2.38 0 1.647-1.281 2.746-3.661 2.746-1.099 0-2.563-.183-3.479-.916l.916-1.647c.732.366 1.464.732 2.746.732.915 0 1.464-.366 1.464-.732s-.366-.55-1.281-.733h-.732c-1.831-.183-2.746-1.098-2.746-2.38 0-1.647 1.281-2.562 3.295-2.562 1.281 0 2.197.183 3.295.732l-.732 1.464zm8.238 0c-.55-.366-1.648-.732-2.563-.732-.733 0-1.282.366-1.282.732 0 .55.55.55 1.282.733l.732.183c1.648.183 2.746 1.098 2.746 2.38 0 1.647-1.281 2.746-3.661 2.746-1.099 0-2.563-.183-3.479-.916l.916-1.647c.732.366 1.464.732 2.746.732.915 0 1.464-.366 1.464-.732s-.366-.55-1.281-.733h-.732c-1.831-.183-2.746-1.098-2.746-2.38 0-1.647 1.281-2.562 3.295-2.562 1.281 0 2.197.183 3.295.732l-.732 1.464zm5.126-4.759c0 .732-.55 1.281-1.465 1.281a1.25 1.25 0 0 1-1.281-1.281c0-.733.549-1.465 1.281-1.465.732 0 1.465.55 1.465 1.465zm-.367 10.618h-2.196v-8.055h2.196v8.055zm9.886-5.126v5.126h-2.197V239c0-1.098-.549-1.83-1.647-1.83-.916 0-1.648.549-1.648 1.83v4.394h-2.197v-8.055h2.014v.915c.55-.915 1.464-1.098 2.38-1.098 2.014 0 3.295 1.281 3.295 3.112zm7.689-2.014v-.915h2.197v7.322c0 2.563-1.648 4.028-4.394 4.028-1.281 0-2.563-.366-3.478-.916l.732-1.83c.732.549 1.648.732 2.563.732 1.281 0 2.197-.732 2.197-2.197v-.549c-.55.732-1.282 1.098-2.38 1.098-2.014 0-3.661-1.647-3.661-4.027s1.647-4.027 3.66-4.027c1.282.183 2.015.549 2.564 1.281zm-3.845 2.93c0 1.097.733 2.013 2.014 2.013 1.282 0 2.014-.916 2.014-2.014 0-1.281-.732-2.014-2.014-2.014-1.281 0-2.014.916-2.014 2.014zM456.2 331.266h337.758v136.75H456.2z" fill="#FFF"/><path d="M797.62 471.677H452.54V327.604h345.08v144.073zm-337.757-7.322h330.434V334.927H459.863v129.428z" fill="#C62D48"/><path d="M600.641 406.505h7.69v22.7h-7.69zm-9.337.184l-15.743 9.702c-.183.183-.55.183-.733 0l-15.743-9.702c-.366-.183-.733-.366-1.099-.366-1.281 0-2.197.915-2.197 2.196v20.687h7.69v-9.886c0-.549.732-.915 1.098-.732l8.787 5.309a2.81 2.81 0 0 0 2.929 0l9.336-5.492c.55-.366 1.099 0 1.099.732v9.886h7.688v-20.687c0-1.281-.915-2.196-2.196-2.196-.183.366-.55.366-.916.549zm55.836-.183h-7.872v10.435c0 .549-.55.915-1.099.732l-20.32-10.801c-.366-.183-.732-.183-1.098-.183-1.282 0-2.197.915-2.197 2.197v20.32h7.872v-10.252c0-.549.549-.915 1.098-.732l20.503 10.8c.367.184.733.184 1.099.184 1.281 0 2.197-.915 2.197-2.197v-20.503h-.183zm6.407 22.7v-22.7h3.661v22.7zm24.348.549c-9.52 0-16.476-4.577-16.476-11.9 0-7.322 6.773-11.898 16.476-11.898 9.702 0 16.476 4.576 16.476 11.899 0 7.322-6.774 11.9-16.476 11.9zm0-20.686c-7.14 0-12.632 3.112-12.632 8.787 0 5.675 5.492 8.787 12.632 8.787s12.631-3.112 12.631-8.787c0-5.675-5.492-8.787-12.631-8.787z" fill="#C62D48"/><path d="M519.36 364.217c5.125 0 8.603 3.296 8.603 8.421 0 5.126-3.478 8.238-8.604 8.238h-6.59v-16.659h6.59zm-3.845 2.563v11.534h3.844c3.845 0 5.858-2.38 5.858-5.859 0-3.478-1.83-5.858-5.858-5.858l-3.844.183zm26.728 14.096h-2.563v-1.281c-.733 1.098-2.014 1.648-3.662 1.648-3.112 0-5.675-2.563-5.675-6.042 0-3.478 2.563-6.04 5.675-6.04 1.648 0 2.746.731 3.662 1.647v-1.465h2.563v11.533zm-9.154-5.675c0 2.014 1.282 3.662 3.479 3.662 2.013 0 3.478-1.648 3.478-3.662 0-2.013-1.465-3.661-3.478-3.661-2.197 0-3.479 1.648-3.479 3.661zm20.87-3.478h-4.394v4.943c0 1.464.732 2.197 1.83 2.197.733 0 1.648-.366 2.38-.733l.916 2.014c-.915.55-2.014 1.099-3.478 1.099-2.563 0-4.028-1.465-4.028-4.394v-4.943h-2.196v-2.197h2.196v-3.478h2.563v3.478h4.394l-.183 2.014zm13.913 9.153h-2.563v-1.281c-.732 1.098-2.014 1.648-3.661 1.648-3.113 0-5.675-2.563-5.675-6.042 0-3.478 2.562-6.04 5.675-6.04 1.647 0 2.746.731 3.66 1.647v-1.465h2.564v11.533zm-9.153-5.675c0 2.014 1.281 3.662 3.478 3.662 2.014 0 3.478-1.648 3.478-3.662 0-2.013-1.464-3.661-3.478-3.661-2.197 0-3.478 1.648-3.478 3.661zm22.517 5.675h-2.746v-16.659h2.746zm14.828-7.139v7.14h-2.563v-6.408c0-1.83-.915-2.929-2.563-2.929-1.647 0-2.929 1.098-2.929 2.93v6.406h-2.563v-11.35h2.563v1.465c.915-1.282 2.38-1.648 3.478-1.648 2.746-.183 4.577 1.648 4.577 4.394zm10.801-2.014h-3.844v9.153h-2.563v-9.153h-2.197v-2.197h2.197v-2.013c0-2.197 1.098-4.028 3.844-4.028 1.282 0 2.38.366 3.112.915l-.915 2.014c-.55-.366-1.465-.549-2.197-.549-.915 0-1.464.55-1.464 1.83v2.014h3.844l.183 2.014zm10.252-2.197l-.55 2.38c-.549-.183-1.281-.366-1.83-.366-1.648 0-2.746 1.098-2.746 3.112v6.224h-2.563v-11.35h2.38v1.282c.732-1.099 1.83-1.648 3.295-1.648.915 0 1.465 0 2.014.366zm12.997 11.35h-2.563v-1.281c-.732 1.098-2.013 1.648-3.66 1.648-3.113 0-5.676-2.563-5.676-6.042 0-3.478 2.563-6.04 5.675-6.04 1.648 0 2.746.731 3.661 1.647v-1.465h2.563v11.533zm-9.153-5.675c0 2.014 1.282 3.662 3.478 3.662 2.014 0 3.479-1.648 3.479-3.662 0-2.013-1.465-3.661-3.479-3.661-2.196 0-3.478 1.648-3.478 3.661zm20.869-2.929c-.732-.366-2.196-.915-3.478-.915-1.281 0-2.196.55-2.196 1.281 0 .733.915 1.099 1.83 1.099l1.099.183c2.563.366 4.027 1.464 4.027 3.295 0 2.197-1.83 3.661-5.126 3.661-1.098 0-3.295-.183-4.943-1.464l1.099-1.83c.732.548 1.83 1.098 3.844 1.098 1.648 0 2.563-.55 2.563-1.465 0-.732-.549-1.098-2.014-1.281l-1.098-.183c-2.563-.367-3.844-1.465-3.844-3.296 0-2.196 1.83-3.661 4.76-3.661 1.83 0 3.478.366 4.576 1.282l-1.098 2.196zm12.083-.549h-4.394v4.943c0 1.464.733 2.197 1.831 2.197.732 0 1.648-.366 2.38-.733l.915 2.014c-.915.55-2.013 1.099-3.478 1.099-2.563 0-4.027-1.465-4.027-4.394v-4.943h-2.197v-2.197h2.197v-3.478h2.563v3.478h4.393l-.183 2.014zm10.617-2.197l-.548 2.38c-.55-.183-1.282-.366-1.831-.366-1.648 0-2.746 1.098-2.746 3.112v6.224h-2.563v-11.35h2.38v1.282c.732-1.099 1.83-1.648 3.295-1.648.915 0 1.465 0 2.014.366zm12.816 6.408c0 3.661-2.563 5.125-5.31 5.125-2.745 0-5.308-1.464-5.308-5.125v-6.59h2.563v6.407c0 2.196 1.281 2.929 2.746 2.929 1.464 0 2.746-.733 2.746-2.93v-6.407h2.563v6.59zm13.364-4.944l-1.648 1.648c-.732-.732-1.648-1.098-2.746-1.098-1.83 0-3.295 1.465-3.295 3.661 0 2.197 1.464 3.662 3.295 3.662 1.098 0 2.014-.55 2.746-1.282l1.464 1.648c-1.098 1.281-2.563 1.83-4.21 1.83-3.662 0-6.041-2.562-6.041-6.04 0-3.479 2.38-6.042 6.04-6.042 1.831.183 3.296.732 4.394 2.014zm10.617.733h-4.393v4.943c0 1.464.732 2.197 1.83 2.197.733 0 1.648-.366 2.38-.733l.915 2.014c-.915.55-2.013 1.099-3.478 1.099-2.563 0-4.027-1.465-4.027-4.394v-4.943h-2.197v-2.197h2.197v-3.478h2.563v3.478h4.393l-.183 2.014zm13.547 4.211c0 3.661-2.563 5.125-5.309 5.125s-5.309-1.464-5.309-5.125v-6.59h2.563v6.407c0 2.196 1.282 2.929 2.746 2.929 1.465 0 2.746-.733 2.746-2.93v-6.407h2.563v6.59zm11.35-6.408l-.549 2.38c-.55-.183-1.281-.366-1.83-.366-1.648 0-2.747 1.098-2.747 3.112v6.224h-2.563v-11.35h2.38v1.282c.733-1.099 1.831-1.648 3.296-1.648.915 0 1.464 0 2.013.366zm12.266 5.675v.916h-8.421c.366 2.013 1.83 2.929 3.478 2.929 1.098 0 2.38-.366 3.295-1.282l1.282 1.831c-1.465 1.098-2.93 1.648-4.76 1.648-3.478 0-5.858-2.38-5.858-6.042 0-3.661 2.38-6.04 5.675-6.04 3.112 0 5.309 2.379 5.309 6.04zm-8.421-1.098h5.858c-.366-1.83-1.282-2.746-2.93-2.746-1.647 0-2.562 1.098-2.928 2.746zM461.51 272.867c-.732-.549-1.647-.732-2.563-.732-1.281 0-2.013.55-2.013 1.281 0 .733.732 1.099 1.83 1.282h.55c1.464.183 2.929.732 2.929 2.563 0 1.83-1.648 2.929-3.662 2.929-1.281 0-2.746-.366-3.661-1.282l.732-1.098c.55.55 1.83.915 2.93.915 1.28 0 2.196-.549 2.196-1.281 0-.732-.732-1.098-2.014-1.282l-.732-.183c-1.281-.183-2.746-.915-2.746-2.563 0-1.83 1.648-2.929 3.661-2.929 1.282 0 2.38.367 3.296.916l-.733 1.464zm8.055.366c0 .916-.549 1.648-1.464 2.014.915.366 1.647 1.099 1.647 2.197 0 1.83-1.647 2.563-3.295 2.563-1.281 0-2.563-.55-3.112-1.282l.915-.915c.55.55 1.465.915 2.197.915.915 0 1.83-.366 1.83-1.464 0-.915-.915-1.465-2.013-1.465h-1.098v-1.281h1.098c.915 0 1.83-.366 1.83-1.282 0-.915-.732-1.281-1.647-1.281s-1.464.55-1.83.915l-1.099-.915c.55-.732 1.465-1.465 2.93-1.465 1.83.183 3.111 1.099 3.111 2.746zm-44.302 14.28c-.732-.55-1.647-.733-2.563-.733-1.281 0-2.014.55-2.014 1.282s.733 1.098 1.831 1.281h.55c1.464.183 2.928.733 2.928 2.563s-1.647 2.93-3.66 2.93c-1.282 0-2.747-.367-3.662-1.282l.732-1.099c.55.55 1.83.916 2.93.916 1.28 0 2.196-.55 2.196-1.282s-.732-1.098-2.014-1.281l-.732-.183c-1.282-.183-2.746-.916-2.746-2.563 0-1.83 1.647-2.93 3.661-2.93 1.282 0 2.38.367 3.295.916l-.732 1.465zm9.52 7.139h-6.59V285.5h6.59v1.464h-5.126v2.38h4.943v1.465h-4.943v2.563h5.126zm8.787 0h-6.59V285.5h1.464v7.689h5.126zm8.055 0h-6.59V285.5h6.59v1.464h-5.126v2.38h4.943v1.465h-4.943v2.563h5.126zm10.435-7.506l-1.282.916a3.203 3.203 0 0 0-2.563-1.282c-1.83 0-3.295 1.282-3.295 3.296 0 2.013 1.464 3.295 3.295 3.295 1.099 0 2.014-.55 2.563-1.282l1.281.916c-.732 1.098-2.196 1.83-3.66 1.83-2.747 0-4.76-2.013-4.76-4.76 0-2.745 2.013-4.76 4.76-4.76 1.464 0 2.928.733 3.66 1.831zm8.42-.366h-2.929v7.69h-1.464v-7.69h-2.93v-1.464h7.324zm71.58-13.913c-.733-.549-1.648-.732-2.563-.732-1.282 0-2.014.55-2.014 1.281 0 .733.732 1.099 1.83 1.282h.55c1.464.183 2.929.732 2.929 2.563 0 1.83-1.648 2.929-3.662 2.929-1.281 0-2.746-.366-3.66-1.282l.731-1.098c.55.55 1.831.915 2.93.915 1.28 0 2.196-.549 2.196-1.281 0-.732-.732-1.098-2.013-1.282l-.733-.183c-1.281-.183-2.746-.915-2.746-2.563 0-1.83 1.648-2.929 3.662-2.929 1.281 0 2.38.367 3.295.916l-.733 1.464zm8.054.366c0 .916-.549 1.648-1.464 2.014.915.366 1.647 1.099 1.647 2.197 0 1.83-1.647 2.563-3.295 2.563-1.281 0-2.563-.55-3.112-1.282l.915-.915c.55.55 1.465.915 2.197.915.916 0 1.831-.366 1.831-1.464 0-.915-.915-1.465-2.014-1.465h-1.098v-1.281h1.098c.916 0 1.83-.366 1.83-1.282 0-.915-.731-1.281-1.647-1.281-.915 0-1.464.55-1.83.915l-1.099-.915c.55-.732 1.465-1.465 2.93-1.465 1.83.183 3.111 1.099 3.111 2.746zm-44.302 14.28c-.732-.55-1.647-.733-2.563-.733-1.281 0-2.013.55-2.013 1.282s.732 1.098 1.83 1.281h.55c1.464.183 2.929.733 2.929 2.563s-1.648 2.93-3.662 2.93c-1.281 0-2.746-.367-3.661-1.282l.732-1.099c.55.55 1.83.916 2.93.916 1.28 0 2.196-.55 2.196-1.282s-.732-1.098-2.014-1.281l-.732-.183c-1.281-.183-2.746-.916-2.746-2.563 0-1.83 1.648-2.93 3.661-2.93 1.282 0 2.38.367 3.296.916l-.733 1.465zm9.52 7.139h-6.59V285.5h6.59v1.464h-5.126v2.38h4.943v1.465h-4.943v2.563h5.126zm8.787 0h-6.59V285.5h1.464v7.689h5.126zm8.055 0h-6.59V285.5h6.59v1.464h-5.126v2.38h4.943v1.465h-4.943v2.563h5.126zm10.435-7.506l-1.282.916a3.203 3.203 0 0 0-2.563-1.282c-1.83 0-3.295 1.282-3.295 3.296 0 2.013 1.465 3.295 3.295 3.295 1.099 0 2.014-.55 2.563-1.282l1.282.916c-.733 1.098-2.197 1.83-3.662 1.83-2.746 0-4.76-2.013-4.76-4.76 0-2.745 2.014-4.76 4.76-4.76 1.465 0 2.93.733 3.662 1.831zm8.421-.366h-2.93v7.69h-1.464v-7.69h-2.929v-1.464h7.323zm69.748-13.913c-.732-.549-1.648-.732-2.563-.732-1.281 0-2.014.55-2.014 1.281 0 .733.733 1.099 1.831 1.282h.55c1.464.183 2.928.732 2.928 2.563 0 1.83-1.647 2.929-3.661 2.929-1.281 0-2.746-.366-3.661-1.282l.732-1.098c.55.55 1.83.915 2.929.915 1.281 0 2.197-.549 2.197-1.281 0-.732-.732-1.098-2.014-1.282l-.732-.183c-1.282-.183-2.746-.915-2.746-2.563 0-1.83 1.647-2.929 3.661-2.929 1.282 0 2.38.367 3.295.916l-.732 1.464zm8.055.366c0 .916-.55 1.648-1.465 2.014.916.366 1.648 1.099 1.648 2.197 0 1.83-1.648 2.563-3.295 2.563-1.282 0-2.563-.55-3.112-1.282l.915-.915c.55.55 1.465.915 2.197.915.915 0 1.83-.366 1.83-1.464 0-.915-.915-1.465-2.013-1.465h-1.099v-1.281h1.099c.915 0 1.83-.366 1.83-1.282 0-.915-.732-1.281-1.647-1.281-.916 0-1.465.55-1.83.915l-1.1-.915c.55-.732 1.465-1.465 2.93-1.465 1.83.183 3.112 1.099 3.112 2.746zm-44.303 14.28c-.731-.55-1.647-.733-2.562-.733-1.282 0-2.014.55-2.014 1.282s.732 1.098 1.83 1.281h.55c1.465.183 2.93.733 2.93 2.563s-1.648 2.93-3.662 2.93c-1.282 0-2.746-.367-3.661-1.282l.732-1.099c.549.55 1.83.916 2.929.916 1.281 0 2.197-.55 2.197-1.282s-.733-1.098-2.014-1.281l-.732-.183c-1.282-.183-2.746-.916-2.746-2.563 0-1.83 1.647-2.93 3.661-2.93 1.281 0 2.38.367 3.295.916l-.732 1.465zm9.52 7.139h-6.59V285.5h6.59v1.464h-5.126v2.38h4.943v1.465h-4.943v2.563h5.126zm8.788 0h-6.59V285.5h1.464v7.689h5.126zm8.054 0h-6.59V285.5h6.59v1.464h-5.125v2.38h4.942v1.465h-4.942v2.563h5.125zm10.435-7.506l-1.281.916a3.203 3.203 0 0 0-2.563-1.282c-1.83 0-3.295 1.282-3.295 3.296 0 2.013 1.464 3.295 3.295 3.295 1.098 0 2.014-.55 2.563-1.282l1.281.916c-.732 1.098-2.197 1.83-3.661 1.83-2.746 0-4.76-2.013-4.76-4.76 0-2.745 2.014-4.76 4.76-4.76 1.464 0 2.929.733 3.661 1.831zm8.421-.366h-2.929v7.69h-1.464v-7.69h-2.93v-1.464h7.323zm71.579.733c-.732-.55-1.647-.733-2.563-.733-1.281 0-2.013.55-2.013 1.282s.732 1.098 1.83 1.281h.55c1.464.183 2.928.733 2.928 2.563s-1.647 2.93-3.66 2.93c-1.282 0-2.747-.367-3.662-1.282l.732-1.099c.55.55 1.83.916 2.93.916 1.28 0 2.196-.55 2.196-1.282s-.732-1.098-2.014-1.281l-.732-.183c-1.281-.183-2.746-.916-2.746-2.563 0-1.83 1.648-2.93 3.661-2.93 1.282 0 2.38.367 3.295.916l-.732 1.465zm8.055.366c0 .915-.549 1.647-1.464 2.013.915.367 1.647 1.099 1.647 2.197 0 1.83-1.647 2.563-3.295 2.563-1.281 0-2.563-.549-3.112-1.281l.915-.916c.55.55 1.465.916 2.197.916.915 0 1.83-.366 1.83-1.465 0-.915-.915-1.464-2.013-1.464h-1.098v-1.282h1.098c.915 0 1.83-.366 1.83-1.281 0-.916-.732-1.282-1.647-1.282s-1.465.55-1.83.916l-1.099-.916c.55-.732 1.464-1.464 2.929-1.464 1.83.183 3.112 1.098 3.112 2.746zm-99.405-96.11c-.732-.55-1.647-.732-2.563-.732-1.281 0-2.014.549-2.014 1.281 0 .732.733.915 1.831 1.098h.55c1.464.184 2.928.733 2.928 2.38 0 1.831-1.647 2.746-3.66 2.746-1.282 0-2.747-.366-3.662-1.098l.732-1.098c.55.549 1.83.915 2.93.915 1.28 0 2.196-.55 2.196-1.282s-.732-.915-2.014-1.098l-.732-.183c-1.282-.183-2.746-.732-2.746-2.38 0-1.83 1.647-2.746 3.661-2.746a6.32 6.32 0 0 1 3.295.915l-.732 1.282zm11.899 2.38c0 1.098-.366 2.197-1.098 2.929l1.098 1.464h-1.647l-.366-.549c-.733.55-1.648.732-2.746.732-2.746 0-4.76-1.83-4.76-4.576 0-2.746 2.014-4.577 4.76-4.577s4.76 2.014 4.76 4.577zm-8.054 0c0 1.83 1.464 3.112 3.295 3.112.732 0 1.281-.183 1.83-.55l-1.83-2.38h1.83l1.099 1.465c.366-.549.366-1.098.366-1.647 0-1.83-1.282-3.112-3.295-3.112-2.014 0-3.295 1.281-3.295 3.112zm16.658 4.393h-6.59v-8.604h1.465v7.323h5.126zm-20.869-91.35c-.732-.549-1.648-.732-2.563-.732-1.281 0-2.014.55-2.014 1.281 0 .733.733.916 1.831 1.099h.55c1.464.183 2.928.732 2.928 2.38 0 1.83-1.647 2.746-3.661 2.746-1.282 0-2.746-.366-3.661-1.099l.732-1.098c.55.55 1.83.915 2.929.915 1.281 0 2.197-.549 2.197-1.281 0-.733-.733-.916-2.014-1.099l-.732-.183c-1.282-.183-2.746-.732-2.746-2.38 0-1.83 1.647-2.746 3.661-2.746 1.282 0 2.38.367 3.295.916l-.732 1.281zm12.082 2.38c0 1.098-.366 2.197-1.098 2.93l1.098 1.464h-1.647l-.366-.55c-.733.55-1.648.733-2.746.733-2.746 0-4.76-1.83-4.76-4.577 0-2.746 2.014-4.577 4.76-4.577s4.76 2.014 4.76 4.577zm-8.055 0c0 1.83 1.465 3.112 3.296 3.112.732 0 1.281-.183 1.83-.549l-1.83-2.38h1.83l1.099 1.465c.366-.55.366-1.099.366-1.648 0-1.83-1.282-3.112-3.295-3.112-2.014 0-3.296 1.281-3.296 3.112zm16.476 4.394h-6.59v-8.604h1.465v7.322h5.125z" fill="#000"/></g></svg>