<svg width="800" height="186" xmlns="http://www.w3.org/2000/svg"><defs><linearGradient x1="37.395%" y1="50.106%" x2="62.605%" y2="49.894%" id="a"><stop stop-color="#C62D48" offset="2%"/><stop stop-color="#D24F59" offset="86%"/></linearGradient><linearGradient x1="37.311%" y1="50.192%" x2="62.689%" y2="49.808%" id="b"><stop stop-color="#C62D48" offset="2%"/><stop stop-color="#D24F59" offset="86%"/></linearGradient><linearGradient x1="37.373%" y1="50.128%" x2="62.627%" y2="49.872%" id="c"><stop stop-color="#C62D48" offset="2%"/><stop stop-color="#D24F59" offset="86%"/></linearGradient><linearGradient x1="50%" y1="100%" x2="50%" y2="0%" id="d"><stop stop-color="#355461" offset="0%"/><stop stop-color="#385B69" offset="5.704%"/><stop stop-color="#436F82" offset="27.055%"/><stop stop-color="#4A7E94" offset="49.325%"/><stop stop-color="#4F879F" offset="72.905%"/><stop stop-color="#508AA2" offset="100%"/></linearGradient><linearGradient x1="0%" y1="50%" x2="100%" y2="50%" id="e"><stop stop-color="#355461" offset="0%"/><stop stop-color="#385B69" offset="5.704%"/><stop stop-color="#436F82" offset="27.055%"/><stop stop-color="#4A7E94" offset="49.325%"/><stop stop-color="#4F879F" offset="72.905%"/><stop stop-color="#508AA2" offset="100%"/></linearGradient><linearGradient x1="0%" y1="50%" x2="100%" y2="50%" id="f"><stop stop-color="#355461" offset="0%"/><stop stop-color="#385B69" offset="5.704%"/><stop stop-color="#436F82" offset="27.055%"/><stop stop-color="#4A7E94" offset="49.325%"/><stop stop-color="#4F879F" offset="72.905%"/><stop stop-color="#508AA2" offset="100%"/></linearGradient><linearGradient x1="0%" y1="50%" x2="100%" y2="50%" id="g"><stop stop-color="#355461" offset="0%"/><stop stop-color="#385B69" offset="5.704%"/><stop stop-color="#436F82" offset="27.055%"/><stop stop-color="#4A7E94" offset="49.325%"/><stop stop-color="#4F879F" offset="72.905%"/><stop stop-color="#508AA2" offset="100%"/></linearGradient><linearGradient x1="0%" y1="50%" x2="100%" y2="50%" id="h"><stop stop-color="#355461" offset="0%"/><stop stop-color="#385B69" offset="5.704%"/><stop stop-color="#436F82" offset="27.055%"/><stop stop-color="#4A7E94" offset="49.325%"/><stop stop-color="#4F879F" offset="72.905%"/><stop stop-color="#508AA2" offset="100%"/></linearGradient><linearGradient x1="0%" y1="50%" x2="100%" y2="50%" id="i"><stop stop-color="#355461" offset="0%"/><stop stop-color="#385B69" offset="5.704%"/><stop stop-color="#436F82" offset="27.055%"/><stop stop-color="#4A7E94" offset="49.325%"/><stop stop-color="#4F879F" offset="72.905%"/><stop stop-color="#508AA2" offset="100%"/></linearGradient><linearGradient x1="50%" y1="100%" x2="50%" y2="0%" id="j"><stop stop-color="#355461" offset="0%"/><stop stop-color="#385B69" offset="5.704%"/><stop stop-color="#436F82" offset="27.055%"/><stop stop-color="#4A7E94" offset="49.325%"/><stop stop-color="#4F879F" offset="72.905%"/><stop stop-color="#508AA2" offset="100%"/></linearGradient><linearGradient x1="0%" y1="50%" x2="100%" y2="50%" id="k"><stop stop-color="#355461" offset="0%"/><stop stop-color="#385B69" offset="5.704%"/><stop stop-color="#436F82" offset="27.055%"/><stop stop-color="#4A7E94" offset="49.325%"/><stop stop-color="#4F879F" offset="72.905%"/><stop stop-color="#508AA2" offset="100%"/></linearGradient><linearGradient x1="0%" y1="50%" x2="100%" y2="50%" id="l"><stop stop-color="#355461" offset="0%"/><stop stop-color="#385B69" offset="5.704%"/><stop stop-color="#436F82" offset="27.055%"/><stop stop-color="#4A7E94" offset="49.325%"/><stop stop-color="#4F879F" offset="72.905%"/><stop stop-color="#508AA2" offset="100%"/></linearGradient><linearGradient x1="0%" y1="50%" x2="100%" y2="50%" id="m"><stop stop-color="#355461" offset="0%"/><stop stop-color="#385B69" offset="5.704%"/><stop stop-color="#436F82" offset="27.055%"/><stop stop-color="#4A7E94" offset="49.325%"/><stop stop-color="#4F879F" offset="72.905%"/><stop stop-color="#508AA2" offset="100%"/></linearGradient></defs><g fill="none"><path d="M600.441 66.138h-8.403v-1.866h8.403v1.866zm-12.138 0h-8.404v-1.866h8.404v1.866zm-12.137 0h-8.405v-1.866h8.405v1.866zm-12.14 0h-8.402v-1.866h8.403v1.866zm-12.138 0h-8.403v-1.866h8.403v1.866zm-12.139 0h-8.403v-1.866h8.403v1.866zm-12.137 0h-8.405v-1.866h8.405v1.866zm-12.138 0h-8.404v-1.866h8.404v1.866zm-12.139 0h-8.403v-1.866h8.403v1.866zm-12.139 0h-8.403v-1.866h8.403v1.866zm-12.137 0h-8.403v-1.866h8.403v1.866zm-12.138 0h-8.404v-1.866h8.404v1.866zm-12.14 0h-8.403v-1.866h8.404v1.866zm-12.138 0h-8.403v-1.866h8.403v1.866zm-12.137 0h-8.403v-1.866h8.403v1.866zm-12.139 0h-8.403v-1.866h8.403v1.866zm-12.138 0h-8.404v-1.866h8.404v1.866zm-12.138 0h-8.404v-1.866h8.404v1.866zm-12.139 0h-8.403v-1.866h8.403v1.866zm-12.138 0h-8.403v-1.866h8.403v1.866zm-12.139 0h-8.403v-1.866h8.403v1.866zm-12.137 0h-8.404v-1.866h8.404v1.866zm-12.14 0h-8.402v-1.866h8.403v1.866zm-12.137 0h-8.403v-1.866h8.403v1.866zm-12.139 0h-8.403v-1.866h8.403v1.866zm-12.138 0h-8.403v-1.866h8.403v1.866zm-12.137 0h-8.404v-1.866h8.404v1.866zm-12.14 0h-8.402v-1.866h8.403v1.866zm-12.137 0h-8.403v-1.866h8.403v1.866zm-12.139 0h-8.403v-1.866h8.403v1.866zm-12.138 0h-8.403v-1.866h8.403v1.866zm-12.138 0h-8.404v-1.866h8.404v1.866z" fill="url(#a)"/><path fill="url(#b)" d="M240.543 97.01h320.909v2.801H240.543z"/><path d="M561.452 132.55h-8.404v-1.868h8.404v1.869zm-12.139 0h-8.403v-1.868h8.403v1.869zm-12.137 0h-8.405v-1.868h8.405v1.869zm-12.139 0h-8.403v-1.868h8.403v1.869zm-12.138 0h-8.404v-1.868h8.404v1.869zm-12.14 0h-8.402v-1.868h8.403v1.869zm-12.136 0h-8.405v-1.868h8.405v1.869zm-12.139 0h-8.403v-1.868h8.403v1.869zm-12.139 0h-8.403v-1.868h8.403v1.869zm-12.138 0h-8.404v-1.868h8.404v1.869zm-12.137 0h-8.404v-1.868h8.404v1.869zm-12.139 0h-8.403v-1.868h8.403v1.869zm-12.139 0h-8.403v-1.868h8.403v1.869zm-12.138 0h-8.403v-1.868h8.403v1.869zm-12.138 0h-8.404v-1.868h8.404v1.869zm-12.138 0h-8.403v-1.868h8.403v1.869zm-12.139 0h-8.403v-1.868h8.403v1.869zm-12.138 0h-8.403v-1.868h8.403v1.869zm-12.138 0h-8.404v-1.868h8.404v1.869zm-12.138 0h-8.404v-1.868h8.404v1.869zm-12.14 0h-8.402v-1.868h8.403v1.869zm-12.137 0h-8.403v-1.868h8.403v1.869zm-12.139 0h-8.403v-1.868h8.403v1.869zm-12.138 0h-8.403v-1.868h8.403v1.869zm-12.138 0h-8.404v-1.868h8.404v1.869zm-12.138 0h-8.403v-1.868h8.403v1.869zm-12.139 0h-3.01v-1.868h3.01v1.869z" fill="url(#c)"/><path d="M212.167 75.637c.575-3.347.892-6.782.892-10.293 0-33.355-27.04-60.396-60.396-60.396-25.912 0-48.005 16.322-56.579 39.242-5.23-3.994-11.742-6.394-18.83-6.394-17.168 0-31.085 13.917-31.085 31.085 0 .089.012.174.013.263-23.195 2.452-41.27 22.072-41.27 45.917 0 25.505 20.676 46.181 46.181 46.181h150.56c23.994 0 43.446-19.452 43.446-43.447 0-20.368-14.018-37.456-32.932-42.158z" fill="#FFF"/><path d="M201.652 165.443H51.094c-27.782 0-50.383-22.6-50.383-50.382 0-24.618 17.564-45.329 41.419-49.584 1.718-17.866 16.815-31.882 35.124-31.882 5.983 0 11.74 1.487 16.91 4.337C104.71 15.492 127.6.747 152.663.747c35.62 0 64.598 28.978 64.598 64.598 0 2.401-.14 4.838-.42 7.28 19.292 6.453 32.46 24.517 32.46 45.171 0 26.273-21.374 47.647-47.648 47.647zM50.37 68.774c.009.127.013.247.013.37v3.78l-3.759.398C25.24 75.584 9.114 93.528 9.114 115.06c0 23.147 18.832 41.98 41.98 41.98h150.558c21.64 0 39.245-17.607 39.245-39.245 0-18.066-12.231-33.727-29.743-38.08l-3.79-.943.662-3.847c.552-3.21.831-6.434.831-9.581 0-30.986-25.209-56.195-56.195-56.195-23.317 0-44.473 14.674-52.642 36.512l-1.986 5.306-4.5-3.438c-4.739-3.619-10.367-5.532-16.28-5.532-14.789 0-26.826 12-26.884 26.776z" fill="#BBB"/><path d="M766.22 75.637c.575-3.347.891-6.782.891-10.293 0-33.355-27.04-60.396-60.396-60.396-25.912 0-48.005 16.322-56.579 39.242-5.229-3.994-11.742-6.394-18.83-6.394-17.168 0-31.085 13.917-31.085 31.085 0 .089.013.174.014.263-23.196 2.452-41.27 22.072-41.27 45.917 0 25.505 20.676 46.181 46.18 46.181h150.56c23.995 0 39.382-19.452 39.382-43.447 0-20.368-9.954-37.456-28.867-42.158z" fill="#FFF"/><path d="M755.705 165.443h-150.56c-27.78 0-50.381-22.6-50.381-50.382 0-24.618 17.565-45.326 41.417-49.584 1.72-17.865 16.816-31.882 35.124-31.882 5.983 0 11.742 1.487 16.912 4.337C658.763 15.492 681.652.747 706.714.747c35.62 0 64.599 28.978 64.599 64.598 0 2.408-.141 4.85-.422 7.298 17.618 6.095 28.397 23.04 28.397 45.153 0 27.609-18.328 47.647-43.583 47.647zM604.422 68.775a5.7 5.7 0 0 1 .015.284l.076 3.857-3.837.406c-21.384 2.262-37.509 20.206-37.509 41.739 0 23.147 18.832 41.98 41.978 41.98h150.56c20.384 0 35.18-16.505 35.18-39.245 0-19.848-9.6-34.083-25.68-38.08l-3.787-.943.66-3.847c.552-3.21.831-6.434.831-9.581 0-30.986-25.208-56.195-56.195-56.195-23.316 0-44.472 14.674-52.642 36.512l-1.985 5.305-4.5-3.437c-4.74-3.619-10.368-5.532-16.282-5.532-14.788 0-26.826 12.002-26.883 26.777z" fill="#BE3043"/><path d="M85.1 119.422h-3.83l-2.177-5.629h-9.996l-2.174 5.629h-3.706l8.719-22.073h4.447l8.717 22.073zm-14.693-9.003h7.378l-3.69-9.523-3.688 9.523zm40.458 9.003h-4.414l-5.282-17.232-5.281 17.232h-4.414L84.74 97.349h3.737l5.25 17.959 5.456-17.959h4.053l5.44 17.959 5.264-17.959h3.659zm24.765-17.186c-1.876-1.197-3.958-1.891-6.197-1.891-2.947 0-4.965 1.277-4.965 3.295 0 1.828 1.72 2.538 4.588 2.947l1.53.207c3.577.487 7.11 1.97 7.11 6.07 0 4.492-4.068 6.951-8.845 6.951-2.995 0-6.59-.993-8.876-2.963l1.938-2.838c1.514 1.388 4.367 2.429 6.922 2.429 2.885 0 5.156-1.23 5.156-3.264 0-1.735-1.735-2.54-4.967-2.98l-1.72-.237c-3.277-.458-6.541-2.003-6.541-6.101 0-4.431 3.926-6.89 8.702-6.89 3.218 0 5.756.898 7.978 2.38l-1.813 2.885zm29.812 0c-1.876-1.197-3.958-1.891-6.197-1.891-2.947 0-4.965 1.277-4.965 3.295 0 1.828 1.718 2.538 4.588 2.947l1.529.207c3.579.487 7.11 1.97 7.11 6.07 0 4.492-4.069 6.951-8.845 6.951-2.995 0-6.59-.993-8.877-2.963l1.94-2.838c1.512 1.388 4.367 2.429 6.922 2.429 2.883 0 5.154-1.23 5.154-3.264 0-1.735-1.733-2.54-4.965-2.98l-1.72-.237c-3.277-.458-6.54-2.003-6.54-6.101 0-4.431 3.925-6.89 8.701-6.89 3.216 0 5.756.898 7.977 2.38l-1.812 2.885zm19.711 1.041c0 2.35-1.324 4.069-3.36 5.014 2.319.914 3.864 2.712 3.864 5.125 0 4.303-3.8 6.385-7.804 6.385-3.28 0-5.976-1.167-7.599-3.153l2.19-2.287c1.309 1.418 3.327 2.255 5.33 2.255 2.412 0 4.304-1.088 4.304-3.359 0-2.222-2.145-3.39-4.777-3.39h-2.666v-3.137h2.648c2.382 0 4.307-1.072 4.307-3.28 0-2.112-1.877-3.294-4.164-3.294-2.064 0-3.61 1.151-4.462 2.381l-2.46-2.098c1.263-1.97 3.676-3.469 7.143-3.469 4.495 0 7.506 2.508 7.506 6.307z" fill="#000"/><path d="M652.406 102.927h8.476v24.83h-8.476zm-10.196.235l-17.204 10.507a.765.765 0 0 1-.798 0l-17.205-10.507a2.36 2.36 0 0 0-1.23-.346h-.02a2.359 2.359 0 0 0-2.36 2.36v22.58h8.471v-10.715a.847.847 0 0 1 1.29-.723l9.64 5.899a3.02 3.02 0 0 0 3.105.028l10.175-5.967a.847.847 0 0 1 1.276.73v10.748h8.47v-22.58a2.359 2.359 0 0 0-2.359-2.36h-.02c-.435 0-.86.12-1.23.346zm61.016-.24h-8.596v11.393a.847.847 0 0 1-1.245.747l-22.277-11.864a2.36 2.36 0 0 0-1.11-.276h-.014a2.359 2.359 0 0 0-2.36 2.359v22.475h8.528v-11.21a.847.847 0 0 1 1.244-.75l22.365 11.863a2.359 2.359 0 0 0 3.464-2.084v-22.653zm6.879 24.828v-24.828h3.941v24.828h-3.941zm26.639.543c-10.492 0-17.935-4.977-17.935-12.957 0-7.936 7.488-12.958 17.935-12.958s17.98 4.977 17.98 12.958c0 7.98-7.354 12.957-17.98 12.957zm0-22.597c-7.802 0-13.81 3.407-13.81 9.64 0 6.277 6.008 9.64 13.81 9.64 7.801 0 13.854-3.363 13.854-9.64 0-6.233-6.053-9.64-13.854-9.64z" fill="#C62D48"/><path fill="#BE3043" d="M407.626 65.205l-10.954-6.324v12.648zm-10.954 66.412l10.954 6.324v-12.648zM292.463 65.205L281.51 58.88v12.648zm230.325 0l-10.953-6.324v12.648zm-10.953 66.412l10.953 6.324v-12.648zm-230.325 0l10.953 6.324v-12.648z"/><path d="M447.194 27.115h-2.88l-1.633-4.228h-7.51l-1.636 4.228h-2.785l6.553-16.584h3.338l6.553 16.584zm-11.04-6.764h5.543l-2.771-7.154-2.773 7.154zm25.04 1.091c0 3.47-2.5 5.969-5.675 5.969-1.609 0-2.771-.652-3.552-1.646v6.088h-2.477V15.767h2.477v1.35c.781-.994 1.943-1.646 3.552-1.646 3.175 0 5.675 2.499 5.675 5.97zm-9.395 0c0 2.071 1.374 3.636 3.424 3.636 2.132 0 3.424-1.647 3.424-3.636 0-1.992-1.292-3.638-3.424-3.638-2.05 0-3.424 1.565-3.424 3.638zm24.166 0c0 3.47-2.5 5.969-5.675 5.969-1.61 0-2.771-.652-3.552-1.646v6.088h-2.478V15.767h2.478v1.35c.78-.994 1.943-1.646 3.552-1.646 3.174 0 5.675 2.499 5.675 5.97zm-9.395 0c0 2.071 1.374 3.636 3.424 3.636 2.132 0 3.424-1.647 3.424-3.636 0-1.992-1.292-3.638-3.424-3.638-2.05 0-3.424 1.565-3.424 3.638zm20.185-2.832c-.687-.427-2.097-.971-3.506-.971-1.35 0-2.145.544-2.145 1.35 0 .794.83 1.018 1.87 1.173l1.175.178c2.476.354 3.944 1.41 3.944 3.351 0 2.18-1.895 3.709-5.165 3.709-1.172 0-3.21-.226-4.869-1.457l1.15-1.86c.817.628 1.895 1.16 3.744 1.16 1.693 0 2.58-.532 2.58-1.384 0-.641-.615-1.068-1.964-1.257l-1.185-.155c-2.513-.343-3.851-1.503-3.851-3.328 0-2.25 1.8-3.635 4.69-3.635 1.779 0 3.425.438 4.598 1.196l-1.066 1.93z" fill="#000"/><path fill="url(#d)" d="M26.017 26.817l-14.135-7.322 14.135-7.321 14.135 7.321z" transform="translate(433.713 36.446)"/><path fill="url(#e)" d="M40.152 35.898L26.017 43.22l-14.135-7.322V19.495l14.135 7.322V43.22" transform="translate(433.713 36.446)"/><path fill="url(#f)" d="M40.152 35.898L26.017 43.22V26.817l14.135-7.322z" transform="translate(433.713 36.446)"/><path fill="url(#g)" opacity=".5" d="M26.017 26.835L1.177 13.968 26.016 1.1l24.841 12.868z" transform="translate(433.713 36.446)"/><path fill="url(#h)" opacity=".5" d="M26.017 55.662V26.835L1.177 13.968v28.826z" transform="translate(433.713 36.446)"/><path fill="url(#i)" opacity=".5" d="M50.858 42.794l-24.84 12.868V26.835l24.84-12.867z" transform="translate(433.713 36.446)"/><path d="M332.03 180.393h-2.878l-1.635-4.228h-7.51l-1.634 4.228h-2.785l6.55-16.584h3.341l6.55 16.584zm-11.04-6.764h5.544l-2.772-7.154-2.771 7.154zm25.042 1.091c0 3.47-2.5 5.969-5.675 5.969-1.611 0-2.771-.652-3.553-1.646v6.088h-2.477v-16.086h2.477v1.35c.782-.994 1.942-1.646 3.553-1.646 3.174 0 5.675 2.499 5.675 5.97zm-9.395 0c0 2.071 1.374 3.636 3.424 3.636 2.132 0 3.424-1.646 3.424-3.636 0-1.991-1.292-3.638-3.424-3.638-2.05 0-3.424 1.565-3.424 3.638zm24.165 0c0 3.47-2.5 5.969-5.675 5.969-1.61 0-2.77-.652-3.552-1.646v6.088h-2.477v-16.086h2.477v1.35c.781-.994 1.942-1.646 3.552-1.646 3.175 0 5.675 2.499 5.675 5.97zm-9.394 0c0 2.071 1.374 3.636 3.424 3.636 2.132 0 3.424-1.646 3.424-3.636 0-1.991-1.292-3.638-3.424-3.638-2.05 0-3.424 1.565-3.424 3.638zm20.184-2.831c-.687-.428-2.096-.972-3.506-.972-1.35 0-2.144.544-2.144 1.35 0 .794.83 1.019 1.87 1.173l1.173.178c2.477.354 3.946 1.41 3.946 3.351 0 2.18-1.896 3.71-5.165 3.71-1.173 0-3.21-.227-4.869-1.458l1.15-1.86c.817.628 1.895 1.16 3.742 1.16 1.694 0 2.582-.532 2.582-1.384 0-.641-.615-1.068-1.966-1.257l-1.183-.155c-2.513-.343-3.852-1.503-3.852-3.327 0-2.252 1.801-3.636 4.692-3.636 1.777 0 3.424.438 4.596 1.196l-1.066 1.93z" fill="#000"/><path fill="url(#j)" d="M25.66 26.56l-14.134-7.323 14.135-7.322 14.135 7.322z" transform="translate(318.907 103.872)"/><path fill="url(#k)" d="M39.796 35.64L25.66 42.962 11.526 35.64V19.237l14.135 7.322v16.403" transform="translate(318.907 103.872)"/><path fill="url(#f)" d="M39.796 35.64L25.66 42.962V26.559l14.135-7.322z" transform="translate(318.907 103.872)"/><path fill="url(#l)" opacity=".5" d="M25.66 26.577L.82 13.71 25.66.841 50.503 13.71z" transform="translate(318.907 103.872)"/><path fill="url(#m)" opacity=".5" d="M25.66 55.403V26.577L.82 13.71v28.827z" transform="translate(318.907 103.872)"/><path fill="url(#i)" opacity=".5" d="M50.502 42.536L25.661 55.403V26.577L50.502 13.71z" transform="translate(318.907 103.872)"/></g></svg>