<svg width="799" height="429" xmlns="http://www.w3.org/2000/svg"><defs><linearGradient x1="-2.631%" y1="50%" x2="97.369%" y2="50%" id="a"><stop stop-color="#C62D48" offset="2%"/><stop stop-color="#D24F59" offset="86%"/></linearGradient><linearGradient x1="0%" y1="50%" x2="100%" y2="50%" id="b"><stop stop-color="#C62D48" offset="2%"/><stop stop-color="#D24F59" offset="86%"/></linearGradient><linearGradient x1="0%" y1="50%" x2="100%" y2="50%" id="c"><stop stop-color="#C62D48" offset="2%"/><stop stop-color="#D24F59" offset="86%"/></linearGradient><linearGradient x1="0%" y1="50%" x2="100%" y2="50%" id="d"><stop stop-color="#C62D48" offset="2%"/><stop stop-color="#D24F59" offset="86%"/></linearGradient><linearGradient x1="-134.483%" y1="48.222%" x2="113.552%" y2="50.612%" id="e"><stop stop-color="#355461" offset="0%"/><stop stop-color="#365764" offset="27.02%"/><stop stop-color="#3B606F" offset="50.63%"/><stop stop-color="#426F81" offset="72.97%"/><stop stop-color="#4D839A" offset="94.41%"/><stop stop-color="#508AA2" offset="100%"/></linearGradient><linearGradient x1="11.103%" y1="49.564%" x2="299.584%" y2="52.797%" id="f"><stop stop-color="#355461" offset="0%"/><stop stop-color="#375765" offset="26.2%"/><stop stop-color="#3B6070" offset="50.2%"/><stop stop-color="#437082" offset="73.34%"/><stop stop-color="#4E859C" offset="95.83%"/><stop stop-color="#508AA2" offset="100%"/></linearGradient></defs><g fill="none"><path fill="#000" opacity=".05" d="M6.758 6.854h321.279v317.991H6.758zm360 0h196.53v317.991h-196.53zm235.251 0h196.53v317.991h-196.53z"/><path fill="url(#a)" d="M458.447 320.365h2.374v63.562h-2.374z" transform="translate(0 -1)"/><path fill="url(#b)" d="M479.087 383.927h-2.375v-37.443H693.7v-26.119h2.374v28.493H479.087z" transform="translate(0 -1)"/><path fill="url(#c)" d="M442.557 383.927h-2.374v-35.069H160.73v-28.493h2.374v26.119h279.452z" transform="translate(0 -1)"/><path fill="url(#d)" d="M246.575 405.479h114.703v2.374H246.575z" transform="translate(0 -1)"/><path fill="#FFF" d="M1.279 1.374h321.279v317.991H1.279z"/><path d="M323.47 320.279H320v-1.827h1.826v-1.644h1.644zm-8.767 0h-5.297v-1.827h5.297v1.827zm-10.776 0h-5.297v-1.827h5.297v1.827zm-10.776 0h-5.297v-1.827h5.297v1.827zm-10.594 0h-5.297v-1.827h5.297v1.827zm-10.776 0h-5.297v-1.827h5.297v1.827zm-10.776 0h-5.297v-1.827h5.297v1.827zm-10.594 0h-5.297v-1.827h5.297v1.827zm-10.776 0h-5.297v-1.827h5.297v1.827zm-10.777 0h-5.296v-1.827h5.296v1.827zm-10.593 0h-5.297v-1.827h5.297v1.827zm-10.776 0h-5.297v-1.827h5.297v1.827zm-10.777 0h-5.296v-1.827h5.296v1.827zm-10.593 0h-5.297v-1.827h5.297v1.827zm-10.777 0h-5.296v-1.827h5.296v1.827zm-10.776 0h-5.297v-1.827h5.297v1.827zm-10.593 0h-5.297v-1.827h5.297v1.827zm-10.777 0H137.9v-1.827h5.296v1.827zm-10.776 0h-5.297v-1.827h5.297v1.827zm-10.594 0h-5.296v-1.827h5.296v1.827zm-10.776 0h-5.297v-1.827h5.297v1.827zm-10.776 0h-5.297v-1.827h5.297v1.827zm-10.594 0h-5.296v-1.827h5.296v1.827zm-10.776 0h-5.297v-1.827h5.297v1.827zm-10.776 0H62.83v-1.827h5.297v1.827zm-10.594 0h-5.297v-1.827h5.297v1.827zm-10.776 0h-5.297v-1.827h5.297v1.827zm-10.594 0h-5.296v-1.827h5.296v1.827zm-10.776 0h-5.297v-1.827h5.297v1.827zm-10.776 0H9.315v-1.827h5.297v1.827zm-10.594 0H.365v-3.47h1.827v1.643h1.826zm-1.826-8.768H.365v-5.296h1.827v5.296zm0-10.593H.365v-5.297h1.827v5.297zm0-10.594H.365v-5.297h1.827v5.297zm0-10.593H.365v-5.297h1.827v5.297zm0-10.594H.365v-5.297h1.827v5.297zm0-10.776H.365v-5.297h1.827v5.297zm0-10.594H.365v-5.297h1.827v5.297zm0-10.593H.365v-5.297h1.827v5.297zm0-10.594H.365v-5.297h1.827v5.297zm0-10.594H.365v-5.297h1.827v5.297zm0-10.593H.365v-5.297h1.827v5.297zm0-10.594H.365v-5.297h1.827v5.297zm0-10.594H.365v-5.296h1.827v5.296zm0-10.593H.365v-5.297h1.827v5.297zm0-10.594H.365v-5.297h1.827v5.297zm0-10.593H.365v-5.297h1.827v5.297zm0-10.594H.365v-5.297h1.827v5.297zm0-10.594H.365v-5.296h1.827v5.296zm0-10.593H.365v-5.297h1.827v5.297zm0-10.594H.365v-5.297h1.827v5.297zm0-10.593H.365V94.16h1.827v5.297zm0-10.594H.365v-5.297h1.827v5.297zm0-10.594H.365v-5.296h1.827v5.296zm0-10.593H.365v-5.297h1.827v5.297zm0-10.594H.365v-5.297h1.827v5.297zm0-10.593H.365v-5.297h1.827v5.297zm0-10.594H.365v-5.297h1.827v5.297zm0-10.594H.365v-5.296h1.827V25.3zm0-10.593H.365V9.41h1.827v5.297zm0-10.594H.365V.461h3.653v1.827H2.192zm312.511-1.826h-5.297V.46h5.297v1.827zm-10.776 0h-5.297V.46h5.297v1.827zm-10.776 0h-5.297V.46h5.297v1.827zm-10.594 0h-5.297V.46h5.297v1.827zm-10.776 0h-5.297V.46h5.297v1.827zm-10.776 0h-5.297V.46h5.297v1.827zm-10.594 0h-5.297V.46h5.297v1.827zm-10.776 0h-5.297V.46h5.297v1.827zm-10.777 0h-5.296V.46h5.296v1.827zm-10.593 0h-5.297V.46h5.297v1.827zm-10.776 0h-5.297V.46h5.297v1.827zm-10.777 0h-5.296V.46h5.296v1.827zm-10.593 0h-5.297V.46h5.297v1.827zm-10.777 0h-5.296V.46h5.296v1.827zm-10.776 0h-5.297V.46h5.297v1.827zm-10.593 0h-5.297V.46h5.297v1.827zm-10.777 0H137.9V.46h5.296v1.827zm-10.776 0h-5.297V.46h5.297v1.827zm-10.594 0h-5.296V.46h5.296v1.827zm-10.776 0h-5.297V.46h5.297v1.827zm-10.776 0h-5.297V.46h5.297v1.827zm-10.594 0h-5.296V.46h5.296v1.827zm-10.776 0h-5.297V.46h5.297v1.827zm-10.776 0H62.83V.46h5.297v1.827zm-10.594 0h-5.297V.46h5.297v1.827zm-10.776 0h-5.297V.46h5.297v1.827zm-10.594 0h-5.296V.46h5.296v1.827zm-10.776 0h-5.297V.46h5.297v1.827zm-10.776 0H9.315V.46h5.297v1.827zM323.47 4.114h-1.644V2.288H320V.46h3.47zm0 307.397h-1.826v-5.296h1.826v5.296zm0-10.593h-1.826v-5.297h1.826v5.297zm0-10.594h-1.826v-5.297h1.826v5.297zm0-10.593h-1.826v-5.297h1.826v5.297zm0-10.594h-1.826v-5.297h1.826v5.297zm0-10.776h-1.826v-5.297h1.826v5.297zm0-10.594h-1.826v-5.297h1.826v5.297zm0-10.593h-1.826v-5.297h1.826v5.297zm0-10.594h-1.826v-5.297h1.826v5.297zm0-10.594h-1.826v-5.297h1.826v5.297zm0-10.593h-1.826v-5.297h1.826v5.297zm0-10.594h-1.826v-5.297h1.826v5.297zm0-10.594h-1.826v-5.296h1.826v5.296zm0-10.593h-1.826v-5.297h1.826v5.297zm0-10.594h-1.826v-5.297h1.826v5.297zm0-10.593h-1.826v-5.297h1.826v5.297zm0-10.594h-1.826v-5.297h1.826v5.297zm0-10.594h-1.826v-5.296h1.826v5.296zm0-10.593h-1.826v-5.297h1.826v5.297zm0-10.594h-1.826v-5.297h1.826v5.297zm0-10.593h-1.826V94.16h1.826v5.297zm0-10.594h-1.826v-5.297h1.826v5.297zm0-10.594h-1.826v-5.296h1.826v5.296zm0-10.593h-1.826v-5.297h1.826v5.297zm0-10.594h-1.826v-5.297h1.826v5.297zm0-10.593h-1.826v-5.297h1.826v5.297zm0-10.594h-1.826v-5.297h1.826v5.297zm0-10.594h-1.826v-5.296h1.826V25.3zm0-10.593h-1.826V9.41h1.826v5.297z" fill="#B2B2B2"/><path fill="#FFF" d="M361.278 1.374H557.99v317.991H361.278z"/><path d="M363.836 320.279h-3.47v-3.47h1.826v1.643h1.644zm186.301 0h-5.114v-1.827h5.114v1.827zm-10.411 0h-5.114v-1.827h5.114v1.827zm-10.41 0H524.2v-1.827h5.114v1.827zm-10.23 0h-5.113v-1.827h5.114v1.827zm-10.41 0h-5.114v-1.827h5.114v1.827zm-10.229 0h-5.296v-1.827h5.114v1.827h.182zm-10.41 0h-5.115v-1.827h5.115v1.827zm-10.411 0h-5.115v-1.827h5.115v1.827zm-10.229 0H462.1v-1.827h5.115v1.827h.182zm-10.41 0h-5.115v-1.827h5.114v1.827zm-10.412 0h-5.114v-1.827h5.114v1.827zm-10.228 0h-5.297v-1.827h5.114v1.827h.183zm-10.41 0h-5.115v-1.827h5.114v1.827zm-10.412 0h-5.114v-1.827h5.114v1.827zm-10.228 0H400v-1.827h5.114l.183 1.827zm-10.411 0h-5.114v-1.827h5.114v1.827zm-10.228 0h-5.115v-1.827h5.115v1.827zm-10.411 0h-5.115v-1.827h5.115v1.827zm184.474 0h-3.47v-1.827h1.827v-1.644h1.643zm0-8.768h-1.826v-5.296h1.826v5.296zm0-10.593h-1.826v-5.297h1.826v5.297zm0-10.594h-1.826v-5.297h1.826v5.297zm0-10.593h-1.826v-5.297h1.826v5.297zm0-10.594h-1.826v-5.297h1.826v5.297zm0-10.776h-1.826v-5.297h1.826v5.297zm0-10.594h-1.826v-5.297h1.826v5.297zm0-10.593h-1.826v-5.297h1.826v5.297zm0-10.594h-1.826v-5.297h1.826v5.297zm0-10.594h-1.826v-5.297h1.826v5.297zm0-10.593h-1.826v-5.297h1.826v5.297zm0-10.594h-1.826v-5.297h1.826v5.297zm0-10.594h-1.826v-5.296h1.826v5.296zm0-10.593h-1.826v-5.297h1.826v5.297zm0-10.594h-1.826v-5.297h1.826v5.297zm0-10.593h-1.826v-5.297h1.826v5.297zm0-10.594h-1.826v-5.297h1.826v5.297zm0-10.594h-1.826v-5.296h1.826v5.296zm0-10.593h-1.826v-5.297h1.826v5.297zm0-10.594h-1.826v-5.297h1.826v5.297zm0-10.593h-1.826V94.16h1.826v5.297zm0-10.594h-1.826v-5.297h1.826v5.297zm0-10.594h-1.826v-5.296h1.826v5.296zm0-10.593h-1.826v-5.297h1.826v5.297zm0-10.594h-1.826v-5.297h1.826v5.297zm0-10.593h-1.826v-5.297h1.826v5.297zm0-10.594h-1.826v-5.297h1.826v5.297zm0-10.594h-1.826v-5.296h1.826V25.3zm0-10.593h-1.826V9.41h1.826v5.297zm0-10.594h-1.643V2.288h-1.827V.46h3.47zm-8.584-1.826h-5.114V.46h5.114v1.827zm-10.411 0h-5.114V.46h5.114v1.827zm-10.41 0H524.2V.46h5.114v1.827zm-10.23 0h-5.113V.46h5.114v1.827zm-10.41 0h-5.114V.46h5.114v1.827zm-10.229 0h-5.296V.46h5.114v1.827h.182zm-10.41 0h-5.115V.46h5.115v1.827zm-10.411 0h-5.115V.46h5.115v1.827zm-10.229 0H462.1V.46h5.115v1.827h.182zm-10.41 0h-5.115V.46h5.114v1.827zm-10.412 0h-5.114V.46h5.114v1.827zm-10.228 0h-5.297V.46h5.114v1.827h.183zm-10.41 0h-5.115V.46h5.114v1.827zm-10.412 0h-5.114V.46h5.114v1.827zm-10.228 0H400V.46h5.114l.183 1.827zm-10.411 0h-5.114V.46h5.114v1.827zm-10.228 0h-5.115V.46h5.115v1.827zm-10.411 0h-5.115V.46h5.115v1.827zm-12.055 1.826h-1.827V.461h3.47v1.827h-1.643zm0 307.397h-1.827v-5.296h1.827v5.296zm0-10.593h-1.827v-5.297h1.827v5.297zm0-10.594h-1.827v-5.297h1.827v5.297zm0-10.593h-1.827v-5.297h1.827v5.297zm0-10.594h-1.827v-5.297h1.827v5.297zm0-10.776h-1.827v-5.297h1.827v5.297zm0-10.594h-1.827v-5.297h1.827v5.297zm0-10.593h-1.827v-5.297h1.827v5.297zm0-10.594h-1.827v-5.297h1.827v5.297zm0-10.594h-1.827v-5.297h1.827v5.297zm0-10.593h-1.827v-5.297h1.827v5.297zm0-10.594h-1.827v-5.297h1.827v5.297zm0-10.594h-1.827v-5.296h1.827v5.296zm0-10.593h-1.827v-5.297h1.827v5.297zm0-10.594h-1.827v-5.297h1.827v5.297zm0-10.593h-1.827v-5.297h1.827v5.297zm0-10.594h-1.827v-5.297h1.827v5.297zm0-10.594h-1.827v-5.296h1.827v5.296zm0-10.593h-1.827v-5.297h1.827v5.297zm0-10.594h-1.827v-5.297h1.827v5.297zm0-10.593h-1.827V94.16h1.827v5.297zm0-10.594h-1.827v-5.297h1.827v5.297zm0-10.594h-1.827v-5.296h1.827v5.296zm0-10.593h-1.827v-5.297h1.827v5.297zm0-10.594h-1.827v-5.297h1.827v5.297zm0-10.593h-1.827v-5.297h1.827v5.297zm0-10.594h-1.827v-5.297h1.827v5.297zm0-10.594h-1.827v-5.296h1.827V25.3zm0-10.593h-1.827V9.41h1.827v5.297z" fill="#B2B2B2"/><path fill="#FFF" d="M596.53 1.374h196.712v317.991H596.53z"/><path d="M599.087 320.279h-3.47v-3.47h1.826v1.643h1.644zm186.301 0h-5.114v-1.827h5.114v1.827zm-10.41 0h-5.115v-1.827h5.114v1.827zm-10.23 0h-5.113v-1.827h5.114v1.827zm-10.41 0h-5.114v-1.827h5.114v1.827zm-10.228 0h-5.115v-1.827h5.115v1.827zm-10.411 0h-5.115v-1.827h5.115v1.827zm-10.411 0h-5.114v-1.827h5.114v1.827zm-10.229 0h-5.114v-1.827h5.114v1.827zm-10.41 0h-5.115v-1.827h5.114v1.827zm-10.412 0h-5.114v-1.827h5.114v1.827zm-10.228 0h-5.114v-1.827h5.114v1.827zm-10.41 0h-5.115v-1.827h5.114v1.827zm-10.412 0h-5.114v-1.827h5.114v1.827zm-10.228 0h-5.114v-1.827h5.114v1.827zm-10.411 0h-5.114v-1.827h5.114v1.827zm-10.411 0h-5.114v-1.827h5.114v1.827zm-10.228 0h-5.114v-1.827h5.114v1.827zm-10.411 0h-5.114v-1.827h5.114v1.827zm184.657 0h-3.653v-1.827h1.827v-1.644h1.826zm0-8.768h-1.826v-5.296h1.826v5.296zm0-10.593h-1.826v-5.297h1.826v5.297zm0-10.594h-1.826v-5.297h1.826v5.297zm0-10.593h-1.826v-5.297h1.826v5.297zm0-10.594h-1.826v-5.297h1.826v5.297zm0-10.776h-1.826v-5.297h1.826v5.297zm0-10.594h-1.826v-5.297h1.826v5.297zm0-10.593h-1.826v-5.297h1.826v5.297zm0-10.594h-1.826v-5.297h1.826v5.297zm0-10.594h-1.826v-5.297h1.826v5.297zm0-10.593h-1.826v-5.297h1.826v5.297zm0-10.594h-1.826v-5.297h1.826v5.297zm0-10.594h-1.826v-5.296h1.826v5.296zm0-10.593h-1.826v-5.297h1.826v5.297zm0-10.594h-1.826v-5.297h1.826v5.297zm0-10.593h-1.826v-5.297h1.826v5.297zm0-10.594h-1.826v-5.297h1.826v5.297zm0-10.594h-1.826v-5.296h1.826v5.296zm0-10.593h-1.826v-5.297h1.826v5.297zm0-10.594h-1.826v-5.297h1.826v5.297zm0-10.593h-1.826V94.16h1.826v5.297zm0-10.594h-1.826v-5.297h1.826v5.297zm0-10.594h-1.826v-5.296h1.826v5.296zm0-10.593h-1.826v-5.297h1.826v5.297zm0-10.594h-1.826v-5.297h1.826v5.297zm0-10.593h-1.826v-5.297h1.826v5.297zm0-10.594h-1.826v-5.297h1.826v5.297zm0-10.594h-1.826v-5.296h1.826V25.3zm0-10.593h-1.826V9.41h1.826v5.297zm0-10.594h-1.826V2.288h-1.827V.46h3.653zm-8.767-1.826h-5.114V.46h5.114v1.827zm-10.41 0h-5.115V.46h5.114v1.827zm-10.23 0h-5.113V.46h5.114v1.827zm-10.41 0h-5.114V.46h5.114v1.827zm-10.228 0h-5.115V.46h5.115v1.827zm-10.411 0h-5.115V.46h5.115v1.827zm-10.411 0h-5.114V.46h5.114v1.827zm-10.229 0h-5.114V.46h5.114v1.827zm-10.41 0h-5.115V.46h5.114v1.827zm-10.412 0h-5.114V.46h5.114v1.827zm-10.228 0h-5.114V.46h5.114v1.827zm-10.41 0h-5.115V.46h5.114v1.827zm-10.412 0h-5.114V.46h5.114v1.827zm-10.228 0h-5.114V.46h5.114v1.827zm-10.411 0h-5.114V.46h5.114v1.827zm-10.411 0h-5.114V.46h5.114v1.827zm-10.228 0h-5.114V.46h5.114v1.827zm-10.411 0h-5.114V.46h5.114v1.827zm-12.055 1.826h-1.827V.461h3.47v1.827h-1.643zm0 307.397h-1.827v-5.296h1.827v5.296zm0-10.593h-1.827v-5.297h1.827v5.297zm0-10.594h-1.827v-5.297h1.827v5.297zm0-10.593h-1.827v-5.297h1.827v5.297zm0-10.594h-1.827v-5.297h1.827v5.297zm0-10.776h-1.827v-5.297h1.827v5.297zm0-10.594h-1.827v-5.297h1.827v5.297zm0-10.593h-1.827v-5.297h1.827v5.297zm0-10.594h-1.827v-5.297h1.827v5.297zm0-10.594h-1.827v-5.297h1.827v5.297zm0-10.593h-1.827v-5.297h1.827v5.297zm0-10.594h-1.827v-5.297h1.827v5.297zm0-10.594h-1.827v-5.296h1.827v5.296zm0-10.593h-1.827v-5.297h1.827v5.297zm0-10.594h-1.827v-5.297h1.827v5.297zm0-10.593h-1.827v-5.297h1.827v5.297zm0-10.594h-1.827v-5.297h1.827v5.297zm0-10.594h-1.827v-5.296h1.827v5.296zm0-10.593h-1.827v-5.297h1.827v5.297zm0-10.594h-1.827v-5.297h1.827v5.297zm0-10.593h-1.827V94.16h1.827v5.297zm0-10.594h-1.827v-5.297h1.827v5.297zm0-10.594h-1.827v-5.296h1.827v5.296zm0-10.593h-1.827v-5.297h1.827v5.297zm0-10.594h-1.827v-5.297h1.827v5.297zm0-10.593h-1.827v-5.297h1.827v5.297zm0-10.594h-1.827v-5.297h1.827v5.297zm0-10.594h-1.827v-5.296h1.827V25.3zm0-10.593h-1.827V9.41h1.827v5.297z" fill="#B2B2B2"/><path d="M125.845 43.384c0 4.566-3.105 6.94-7.124 6.94-4.018 0-7.123-2.192-7.123-6.94V33.338h2.74V43.2c0 3.105 1.826 4.566 4.383 4.566 2.558 0 4.384-1.278 4.384-4.566v-9.863h2.74v10.046zm15.16-6.394c-1.462-.912-2.923-1.46-4.75-1.46-2.191 0-3.652.913-3.652 2.557 0 1.46 1.278 1.826 3.47 2.192l1.096.182c2.74.365 5.297 1.461 5.297 4.566 0 3.47-3.105 5.297-6.576 5.297-2.191 0-4.931-.73-6.758-2.192l1.462-2.191c1.095 1.096 3.287 1.826 5.296 1.826 2.192 0 3.836-.913 3.836-2.374 0-1.279-1.279-1.827-3.653-2.192l-1.278-.365c-2.558-.366-4.932-1.462-4.932-4.567 0-3.287 2.922-5.114 6.575-5.114 2.375 0 4.384.73 6.028 1.827l-1.461 2.009zm11.324 7.672h-6.94V42.47h6.94zm21.37 5.297h-3.288l-4.018-12.968-4.019 12.968h-3.287l-5.114-16.621h2.74l4.018 13.516 4.018-13.516h3.105l4.018 13.516 4.018-13.516h2.74zm16.621-5.662v.913h-8.402c.365 2.01 1.826 2.922 3.47 2.922 1.096 0 2.375-.365 3.288-1.278l1.278 1.826c-1.46 1.096-2.922 1.644-4.749 1.644-3.47 0-5.844-2.374-5.844-6.027 0-3.47 2.374-6.028 5.662-6.028 3.105 0 5.297 2.375 5.297 6.028zm-8.402-1.096h5.845c-.183-1.827-1.279-2.74-2.923-2.74-1.644 0-2.74 1.096-2.922 2.74zm19.178-1.827c-.73-.365-2.192-.913-3.47-.913-1.279 0-2.192.548-2.192 1.279 0 .73.913 1.096 1.826 1.096l1.096.182c2.557.366 4.018 1.461 4.018 3.288 0 2.192-1.826 3.653-5.114 3.653-1.096 0-3.287-.183-4.931-1.461l1.096-1.827c.73.548 1.826 1.096 3.835 1.096 1.644 0 2.557-.548 2.557-1.461 0-.73-.548-1.096-2.009-1.279l-1.278-.182c-2.557-.366-3.836-1.461-3.836-3.288 0-2.192 1.827-3.653 4.749-3.653 1.826 0 3.47.365 4.566 1.279l-.913 2.191zm12.054-.548h-4.383v4.932c0 1.461.73 2.192 1.827 2.192.73 0 1.643-.366 2.374-.73l.913 2.008c-.913.548-2.009 1.096-3.47 1.096-2.557 0-4.018-1.461-4.018-4.383v-4.932H204.2v-2.192h2.192v-3.47h2.557v3.47h4.383v2.01h-.182zm213.517 2.558c0 4.566-3.105 6.94-7.124 6.94-4.018 0-7.123-2.192-7.123-6.94V33.338h2.74V43.2c0 3.105 1.826 4.566 4.383 4.566s4.384-1.278 4.384-4.566v-9.863h2.74v10.046zm15.343-6.394c-1.462-.912-2.923-1.46-4.75-1.46-2.192 0-3.653.913-3.653 2.557 0 1.46 1.279 1.826 3.47 2.192l1.097.182c2.74.365 5.296 1.461 5.296 4.566 0 3.47-3.105 5.297-6.575 5.297-2.192 0-4.932-.73-6.758-2.192l1.461-2.191c1.096 1.096 3.288 1.826 5.297 1.826 2.192 0 3.836-.913 3.836-2.374 0-1.279-1.279-1.827-3.653-2.192l-1.279-.183c-2.557-.365-4.931-1.46-4.931-4.566 0-3.288 2.922-5.114 6.575-5.114 2.374 0 4.383.73 6.027 1.826l-1.46 1.827zm11.323 7.672h-6.94V42.47h6.94zm15.891 5.297h-12.055V33.338h12.055v2.557h-9.315v4.566h8.95v2.375h-8.95v4.566h9.497v2.557zm14.612 0h-2.557V48.68c-.731 1.096-2.01 1.644-3.653 1.644-3.105 0-5.663-2.557-5.663-6.027s2.558-6.028 5.663-6.028c1.643 0 2.74.731 3.653 1.644v-1.46h2.557v11.506zm-9.133-5.662c0 2.009 1.279 3.653 3.47 3.653 2.01 0 3.47-1.644 3.47-3.653 0-2.01-1.46-3.653-3.47-3.653-2.191 0-3.47 1.644-3.47 3.653zm20.822-2.923c-.73-.365-2.192-.913-3.47-.913-1.279 0-2.192.548-2.192 1.279 0 .73.913 1.096 1.826 1.096l1.096.182c2.557.366 4.019 1.461 4.019 3.288 0 2.192-1.827 3.653-5.115 3.653-1.095 0-3.287-.183-4.931-1.461l1.096-1.827c.73.548 1.826 1.096 3.835 1.096 1.644 0 2.558-.548 2.558-1.461 0-.73-.548-1.096-2.01-1.279l-1.278-.182c-2.557-.366-3.836-1.461-3.836-3.288 0-2.192 1.827-3.653 4.75-3.653 1.826 0 3.47.365 4.565 1.279l-.913 2.191zm11.872-.548h-4.383v4.932c0 1.461.73 2.192 1.826 2.192.73 0 1.644-.366 2.375-.73l.913 2.008c-.913.548-2.01 1.096-3.47 1.096-2.558 0-4.019-1.461-4.019-4.383v-4.932h-2.192v-2.192h2.192v-3.47h2.557v3.47h4.384l-.183 2.01zm160.548 9.133h-12.237V33.338h12.055v2.557h-9.316v4.566h8.95v2.375h-8.95v4.566h9.498zm14.065-4.932c0 3.653-2.558 5.115-5.298 5.115s-5.296-1.462-5.296-5.115v-6.575h2.557v6.393c0 2.192 1.278 2.922 2.74 2.922 1.46 0 2.74-.73 2.74-2.922v-6.393h2.556v6.575zm11.506-6.392l-.548 2.374c-.548-.183-1.279-.365-1.826-.365-1.644 0-2.74 1.096-2.74 3.105v6.21h-2.557V38.635h2.374v1.278c.73-1.096 1.827-1.644 3.288-1.644.913 0 1.461 0 2.009.366zm13.516 5.662c0 3.47-2.557 6.027-6.21 6.027-3.47 0-6.027-2.557-6.027-6.027s2.557-6.028 6.027-6.028 6.21 2.557 6.21 6.028zm-9.68 0c0 2.192 1.46 3.653 3.653 3.653 2.009 0 3.653-1.461 3.653-3.653s-1.462-3.653-3.653-3.653c-2.192 0-3.653 1.461-3.653 3.653zm24.474 0c0 3.47-2.557 6.027-5.662 6.027-1.643 0-2.74-.73-3.653-1.644v6.028h-2.557V38.635h2.557v1.278c.731-.913 2.01-1.644 3.653-1.644 3.105 0 5.662 2.557 5.662 6.028zm-9.497 0c0 2.009 1.461 3.653 3.47 3.653 2.192 0 3.47-1.644 3.47-3.653 0-2.01-1.278-3.653-3.47-3.653-2.009 0-3.47 1.461-3.47 3.653zm22.831 0v.913h-8.402c.365 2.01 1.826 2.922 3.47 2.922 1.096 0 2.375-.365 3.288-1.278l1.279 1.826c-1.462 1.096-2.923 1.644-4.75 1.644-3.47 0-5.844-2.374-5.844-6.027 0-3.47 2.374-6.028 5.662-6.028 3.105 0 5.114 2.375 5.297 6.028zm-8.585-1.096h5.845c-.183-1.827-1.278-2.74-2.922-2.74-1.644 0-2.557 1.096-2.923 2.74z" fill="#000"/><path fill="url(#e)" d="M361.279 383.927H557.99v45.662H361.279z" transform="translate(0 -1)"/><path fill="url(#f)" d="M77.443 383.927h169.132v45.662H77.443z" transform="translate(0 -1)"/><path d="M443.47 413.064h-10.593v-14.247h10.593v2.557h-7.67v3.105h7.305v2.558h-7.306v3.287h7.854zm13.334-11.69h-4.384v11.69h-2.922v-11.69h-4.384v-2.74h11.69zm14.429.366l-2.375 1.46c-.73-1.278-2.191-2.008-3.653-2.008-2.557 0-4.566 1.826-4.566 4.749 0 2.922 2.01 4.748 4.566 4.748 1.644 0 2.923-.73 3.653-2.009l2.375 1.644a7.344 7.344 0 0 1-6.028 3.105c-4.383 0-7.488-3.105-7.488-7.488 0-4.384 3.105-7.489 7.488-7.489 2.558 0 4.932 1.279 6.028 3.288zm8.402-2.923c4.383 0 7.488 2.923 7.488 7.124 0 4.383-2.922 7.123-7.488 7.123h-5.845v-14.247h5.845zm-3.105 2.557v8.95h2.922c2.922 0 4.384-1.826 4.384-4.566 0-2.557-1.462-4.566-4.384-4.566h-2.922v.182zm-329.863-2.557c4.383 0 7.488 2.923 7.488 7.124 0 4.383-2.922 7.123-7.488 7.123h-5.845v-14.247h5.845zm-3.105 2.557v8.95h2.922c2.922 0 4.384-1.826 4.384-4.566 0-2.557-1.462-4.566-4.384-4.566h-2.922v.182zm25.753 11.69h-2.74l-7.306-9.498v9.498h-2.922v-14.247h2.74l7.306 9.498v-9.498h2.922zm12.968-10.776c-1.096-.73-2.557-1.279-4.018-1.279-1.644 0-2.74.548-2.74 1.644 0 1.096 1.279 1.279 2.922 1.644l.731.182c2.557.366 4.566 1.462 4.566 4.019 0 3.105-2.74 4.566-5.844 4.566-2.192 0-4.567-.548-6.028-1.827l1.461-2.374c1.096.913 2.74 1.461 4.567 1.461 1.643 0 2.74-.548 2.74-1.644 0-.913-1.097-1.278-3.106-1.643l-.913-.183c-2.557-.365-4.384-1.461-4.384-4.018 0-2.923 2.74-4.567 5.663-4.567 2.009 0 3.653.366 5.479 1.462l-1.096 2.557z" fill="#FFF"/><path d="M41.279 118.452v10.411h54.246v-10.41H41.28zm9.68 7.489c-1.096 0-2.192-.914-2.192-2.192 0-1.096.913-2.192 2.192-2.192 1.096 0 2.192.913 2.192 2.192-.183 1.096-1.096 2.192-2.192 2.192zm22.283-1.096H58.447v-2.01h14.795v2.01zm18.082 0H76.53v-2.01h14.794v2.01zm-50.045-20.457V114.8h54.246v-10.41H41.28zm9.68 7.306c-1.096 0-2.192-.913-2.192-2.192 0-1.278.913-2.191 2.192-2.191 1.096 0 2.192.913 2.192 2.191 0 1.279-1.096 2.192-2.192 2.192zm22.283-.913H58.447v-2.192h14.795v2.192zm18.082 0H76.53v-2.192h14.794v2.192zM41.279 90.324v10.411h54.246v-10.41H41.28zm9.68 7.306c-1.096 0-2.192-.913-2.192-2.192 0-1.096.913-2.191 2.192-2.191 1.096 0 2.192.913 2.192 2.191-.183 1.279-1.096 2.192-2.192 2.192zm22.283-1.096H58.447v-2.009h14.795v2.01zm18.082 0H76.53v-2.009h14.794v2.01zm-50.045 64.292v10.411h54.246v-10.41H41.28zm9.68 7.306c-1.096 0-2.192-.913-2.192-2.191 0-1.096.913-2.192 2.192-2.192 1.096 0 2.192.913 2.192 2.192-.183 1.278-1.096 2.191-2.192 2.191zm22.283-1.095H58.447v-2.01h14.795v2.01zm18.082 0H76.53v-2.01h14.794v2.01zm-50.045-20.274v10.41h54.246v-10.41H41.28zm9.68 7.305c-1.096 0-2.192-.913-2.192-2.191 0-1.096.913-2.192 2.192-2.192 1.096 0 2.192.913 2.192 2.192-.183 1.278-1.096 2.191-2.192 2.191zm22.283-1.095H58.447v-2.01h14.795v2.01zm18.082 0H76.53v-2.01h14.794v2.01zm-50.045-20.274v10.41h54.246V132.7H41.28zm9.68 7.306c-1.096 0-2.192-.914-2.192-2.192 0-1.096.913-2.192 2.192-2.192 1.096 0 2.192.913 2.192 2.192-.183 1.278-1.096 2.192-2.192 2.192zm22.283-1.096H58.447v-2.01h14.795v2.01zm18.082 0H76.53v-2.01h14.794v2.01zm-50.045 64.109v10.411h54.246v-10.41H41.28zm9.68 7.306c-1.096 0-2.192-.913-2.192-2.192 0-1.095.913-2.191 2.192-2.191 1.096 0 2.192.913 2.192 2.191-.183 1.279-1.096 2.192-2.192 2.192zm22.283-.913H58.447v-2.192h14.795v2.192zm18.082 0H76.53v-2.192h14.794v2.192zm-50.045-20.457v10.411h54.246v-10.41H41.28zm9.68 7.306c-1.096 0-2.192-.913-2.192-2.192 0-1.278.913-2.191 2.192-2.191 1.096 0 2.192.913 2.192 2.191 0 1.279-1.096 2.192-2.192 2.192zm22.283-.913H58.447v-2.01h14.795v2.01zm18.082 0H76.53v-2.01h14.794v2.01zM41.279 174.89v10.411h54.246v-10.41H41.28zm9.68 7.306c-1.096 0-2.192-.913-2.192-2.191 0-1.096.913-2.192 2.192-2.192 1.096 0 2.192.913 2.192 2.192-.183 1.278-1.096 2.191-2.192 2.191zm22.283-1.096H58.447v-2.009h14.795v2.01zm18.082 0H76.53v-2.009h14.794v2.01zm-50.045 64.293v10.41h54.246v-10.41H41.28zm9.68 7.306c-1.096 0-2.192-.914-2.192-2.192 0-1.096.913-2.192 2.192-2.192 1.096 0 2.192.913 2.192 2.192-.183 1.278-1.096 2.192-2.192 2.192zm22.283-1.096H58.447v-2.01h14.795v2.01zm18.082 0H76.53v-2.01h14.794v2.01zm-50.045-20.274v10.41h54.246v-10.41H41.28zm9.68 7.306c-1.096 0-2.192-.914-2.192-2.192 0-1.279.913-2.192 2.192-2.192 1.096 0 2.192.913 2.192 2.192 0 1.278-1.096 2.192-2.192 2.192zm22.283-1.096H58.447v-2.01h14.795v2.01zm18.082 0H76.53v-2.01h14.794v2.01zm-50.045-20.457v10.411h54.246v-10.41H41.28zm9.68 7.489c-1.096 0-2.192-.913-2.192-2.192 0-1.096.913-2.192 2.192-2.192 1.096 0 2.192.913 2.192 2.192-.183 1.096-1.096 2.192-2.192 2.192zm22.283-1.096H58.447v-2.01h14.795v2.01zm18.082 0H76.53v-2.01h14.794v2.01zM41.279 273.52v10.412h54.246V273.52H41.28zm9.68 7.306c-1.096 0-2.192-.913-2.192-2.191 0-1.279.913-2.192 2.192-2.192 1.096 0 2.192.913 2.192 2.192 0 1.278-1.096 2.191-2.192 2.191zm22.283-1.095H58.447v-2.01h14.795v2.01zm18.082 0H76.53v-2.01h14.794v2.01zm-50.045-20.274v10.41h54.246v-10.41H41.28zm9.68 7.306c-1.096 0-2.192-.914-2.192-2.192 0-1.096.913-2.192 2.192-2.192 1.096 0 2.192.913 2.192 2.192-.183 1.278-1.096 2.192-2.192 2.192zm22.283-1.096H58.447v-2.01h14.795v2.01zm18.082 0H76.53v-2.01h14.794v2.01zm12.42-147.215v10.411h54.247v-10.41h-54.247zm9.498 7.489c-1.096 0-2.192-.914-2.192-2.192 0-1.096.913-2.192 2.192-2.192 1.096 0 2.192.913 2.192 2.192 0 1.096-.913 2.192-2.192 2.192zm22.466-1.096h-14.795v-2.01h14.795v2.01zm17.9 0h-14.795v-2.01h14.794v2.01zm-49.864-20.457V114.8h54.247v-10.41h-54.247zm9.498 7.306c-1.096 0-2.192-.913-2.192-2.192 0-1.278.913-2.191 2.192-2.191 1.096 0 2.192.913 2.192 2.191 0 1.279-.913 2.192-2.192 2.192zm22.466-.913h-14.795v-2.192h14.795v2.192zm17.9 0h-14.795v-2.192h14.794v2.192zm-49.864-20.457v10.411h54.247v-10.41h-54.247zm9.498 7.306c-1.096 0-2.192-.913-2.192-2.192 0-1.096.913-2.191 2.192-2.191 1.096 0 2.192.913 2.192 2.191 0 1.279-.913 2.192-2.192 2.192zm22.466-1.096h-14.795v-2.009h14.795v2.01zm17.9 0h-14.795v-2.009h14.794v2.01zm-49.864 64.292v10.411h54.247v-10.41h-54.247zm9.498 7.306c-1.096 0-2.192-.913-2.192-2.191 0-1.096.913-2.192 2.192-2.192 1.096 0 2.192.913 2.192 2.192 0 1.278-.913 2.191-2.192 2.191zm22.466-1.095h-14.795v-2.01h14.795v2.01zm17.9 0h-14.795v-2.01h14.794v2.01zm-49.864-20.274v10.41h54.247v-10.41h-54.247zm9.498 7.305c-1.096 0-2.192-.913-2.192-2.191 0-1.096.913-2.192 2.192-2.192 1.096 0 2.192.913 2.192 2.192 0 1.278-.913 2.191-2.192 2.191zm22.466-1.095h-14.795v-2.01h14.795v2.01zm17.9 0h-14.795v-2.01h14.794v2.01zm12.419-34.521v10.411h54.247v-10.41h-54.247zm9.498 7.489c-1.096 0-2.192-.914-2.192-2.192 0-1.096.914-2.192 2.192-2.192 1.096 0 2.192.913 2.192 2.192 0 1.096-.913 2.192-2.192 2.192zm22.466-1.096h-14.795v-2.01h14.795v2.01zm17.9 0h-14.795v-2.01h14.794v2.01zm-49.864-20.457V114.8h54.247v-10.41h-54.247zm9.498 7.306c-1.096 0-2.192-.913-2.192-2.192 0-1.278.914-2.191 2.192-2.191 1.096 0 2.192.913 2.192 2.191 0 1.279-.913 2.192-2.192 2.192zm22.466-.913h-14.795v-2.192h14.795v2.192zm17.9 0h-14.795v-2.192h14.794v2.192zm-49.864-20.457v10.411h54.247v-10.41h-54.247zm9.498 7.306c-1.096 0-2.192-.913-2.192-2.192 0-1.096.914-2.191 2.192-2.191 1.096 0 2.192.913 2.192 2.191 0 1.279-.913 2.192-2.192 2.192zm22.466-1.096h-14.795v-2.009h14.795v2.01zm17.9 0h-14.795v-2.009h14.794v2.01zm-49.864 64.292v10.411h54.247v-10.41h-54.247zm9.498 7.306c-1.096 0-2.192-.913-2.192-2.191 0-1.096.914-2.192 2.192-2.192 1.096 0 2.192.913 2.192 2.192 0 1.278-.913 2.191-2.192 2.191zm22.466-1.095h-14.795v-2.01h14.795v2.01zm17.9 0h-14.795v-2.01h14.794v2.01zm-49.864-20.274v10.41h54.247v-10.41h-54.247zm9.498 7.305c-1.096 0-2.192-.913-2.192-2.191 0-1.096.914-2.192 2.192-2.192 1.096 0 2.192.913 2.192 2.192 0 1.278-.913 2.191-2.192 2.191zm22.466-1.095h-14.795v-2.01h14.795v2.01zm17.9 0h-14.795v-2.01h14.794v2.01zm-49.864-20.274v10.41h54.247V132.7h-54.247zm9.498 7.306c-1.096 0-2.192-.914-2.192-2.192 0-1.096.914-2.192 2.192-2.192 1.096 0 2.192.913 2.192 2.192 0 1.278-.913 2.192-2.192 2.192zm22.466-1.096h-14.795v-2.01h14.795v2.01zm17.9 0h-14.795v-2.01h14.794v2.01zm-49.864 64.109v10.411h54.247v-10.41h-54.247zm9.498 7.306c-1.096 0-2.192-.913-2.192-2.192 0-1.095.914-2.191 2.192-2.191 1.096 0 2.192.913 2.192 2.191 0 1.279-.913 2.192-2.192 2.192zm22.466-.913h-14.795v-2.192h14.795v2.192zm17.9 0h-14.795v-2.192h14.794v2.192zm-49.864-20.457v10.411h54.247v-10.41h-54.247zm9.498 7.306c-1.096 0-2.192-.913-2.192-2.192 0-1.278.914-2.191 2.192-2.191 1.096 0 2.192.913 2.192 2.191 0 1.279-.913 2.192-2.192 2.192zm22.466-.913h-14.795v-2.01h14.795v2.01zm17.9 0h-14.795v-2.01h14.794v2.01zm-49.864-20.457v10.411h54.247v-10.41h-54.247zm9.498 7.306c-1.096 0-2.192-.913-2.192-2.191 0-1.096.914-2.192 2.192-2.192 1.096 0 2.192.913 2.192 2.192 0 1.278-.913 2.191-2.192 2.191zm22.466-1.096h-14.795v-2.009h14.795v2.01zm17.9 0h-14.795v-2.009h14.794v2.01zm-49.864 64.293v10.41h54.247v-10.41h-54.247zm9.498 7.306c-1.096 0-2.192-.914-2.192-2.192 0-1.096.914-2.192 2.192-2.192 1.096 0 2.192.913 2.192 2.192 0 1.278-.913 2.192-2.192 2.192zm22.466-1.096h-14.795v-2.01h14.795v2.01zm17.9 0h-14.795v-2.01h14.794v2.01zm-49.864-20.274v10.41h54.247v-10.41h-54.247zm9.498 7.306c-1.096 0-2.192-.914-2.192-2.192 0-1.279.914-2.192 2.192-2.192 1.096 0 2.192.913 2.192 2.192 0 1.278-.913 2.192-2.192 2.192zm22.466-1.096h-14.795v-2.01h14.795v2.01zm17.9 0h-14.795v-2.01h14.794v2.01zm-49.864-20.457v10.411h54.247v-10.41h-54.247zm9.498 7.489c-1.096 0-2.192-.913-2.192-2.192 0-1.096.914-2.192 2.192-2.192 1.096 0 2.192.913 2.192 2.192 0 1.096-.913 2.192-2.192 2.192zm22.466-1.096h-14.795v-2.01h14.795v2.01zm17.9 0h-14.795v-2.01h14.794v2.01zm-49.864 50.045v10.412h54.247V273.52h-54.247zm9.498 7.306c-1.096 0-2.192-.913-2.192-2.191 0-1.279.914-2.192 2.192-2.192 1.096 0 2.192.913 2.192 2.192 0 1.278-.913 2.191-2.192 2.191zm22.466-1.095h-14.795v-2.01h14.795v2.01zm17.9 0h-14.795v-2.01h14.794v2.01zm-49.864-20.274v10.41h54.247v-10.41h-54.247zm9.498 7.306c-1.096 0-2.192-.914-2.192-2.192 0-1.096.914-2.192 2.192-2.192 1.096 0 2.192.913 2.192 2.192 0 1.278-.913 2.192-2.192 2.192zm22.466-1.096h-14.795v-2.01h14.795v2.01zm17.9 0h-14.795v-2.01h14.794v2.01zm12.419-147.215v10.411h54.247v-10.41h-54.246zm9.68 7.489c-1.095 0-2.19-.914-2.19-2.192 0-1.096.912-2.192 2.19-2.192 1.097 0 2.193.913 2.193 2.192-.183 1.096-1.096 2.192-2.192 2.192zm22.284-1.096h-14.795v-2.01h14.795v2.01zm18.082 0h-14.794v-2.01h14.794v2.01zm-50.046-20.457V114.8h54.247v-10.41h-54.246zm9.68 7.306c-1.095 0-2.19-.913-2.19-2.192 0-1.278.912-2.191 2.19-2.191 1.097 0 2.193.913 2.193 2.191 0 1.279-1.096 2.192-2.192 2.192zm22.284-.913h-14.795v-2.192h14.795v2.192zm18.082 0h-14.794v-2.192h14.794v2.192zM228.31 90.324v10.411h54.247v-10.41h-54.246zm9.68 7.306c-1.095 0-2.19-.913-2.19-2.192 0-1.096.912-2.191 2.19-2.191 1.097 0 2.193.913 2.193 2.191-.183 1.279-1.096 2.192-2.192 2.192zm22.284-1.096h-14.795v-2.009h14.795v2.01zm18.082 0h-14.794v-2.009h14.794v2.01zm-50.046 64.292v10.411h54.247v-10.41h-54.246zm9.68 7.306c-1.095 0-2.19-.913-2.19-2.191 0-1.096.912-2.192 2.19-2.192 1.097 0 2.193.913 2.193 2.192-.183 1.278-1.096 2.191-2.192 2.191zm22.284-1.095h-14.795v-2.01h14.795v2.01zm18.082 0h-14.794v-2.01h14.794v2.01zm-50.046-20.274v10.41h54.247v-10.41h-54.246zm9.68 7.305c-1.095 0-2.19-.913-2.19-2.191 0-1.096.912-2.192 2.19-2.192 1.097 0 2.193.913 2.193 2.192-.183 1.278-1.096 2.191-2.192 2.191zm22.284-1.095h-14.795v-2.01h14.795v2.01zm18.082 0h-14.794v-2.01h14.794v2.01zm-50.046-20.274v10.41h54.247V132.7h-54.246zm9.68 7.306c-1.095 0-2.19-.914-2.19-2.192 0-1.096.912-2.192 2.19-2.192 1.097 0 2.193.913 2.193 2.192-.183 1.278-1.096 2.192-2.192 2.192zm22.284-1.096h-14.795v-2.01h14.795v2.01zm18.082 0h-14.794v-2.01h14.794v2.01zm-50.046 64.109v10.411h54.247v-10.41h-54.246zm9.68 7.306c-1.095 0-2.19-.913-2.19-2.192 0-1.095.912-2.191 2.19-2.191 1.097 0 2.193.913 2.193 2.191-.183 1.279-1.096 2.192-2.192 2.192zm22.284-.913h-14.795v-2.192h14.795v2.192zm18.082 0h-14.794v-2.192h14.794v2.192zm-50.046-20.457v10.411h54.247v-10.41h-54.246zm9.68 7.306c-1.095 0-2.19-.913-2.19-2.192 0-1.278.912-2.191 2.19-2.191 1.097 0 2.193.913 2.193 2.191 0 1.279-1.096 2.192-2.192 2.192zm22.284-.913h-14.795v-2.01h14.795v2.01zm18.082 0h-14.794v-2.01h14.794v2.01zM228.31 174.89v10.411h54.247v-10.41h-54.246zm9.68 7.306c-1.095 0-2.19-.913-2.19-2.191 0-1.096.912-2.192 2.19-2.192 1.097 0 2.193.913 2.193 2.192-.183 1.278-1.096 2.191-2.192 2.191zm22.284-1.096h-14.795v-2.009h14.795v2.01zm18.082 0h-14.794v-2.009h14.794v2.01zm-50.046 64.293v10.41h54.247v-10.41h-54.246zm9.68 7.306c-1.095 0-2.19-.914-2.19-2.192 0-1.096.912-2.192 2.19-2.192 1.097 0 2.193.913 2.193 2.192-.183 1.278-1.096 2.192-2.192 2.192zm22.284-1.096h-14.795v-2.01h14.795v2.01zm18.082 0h-14.794v-2.01h14.794v2.01zm-50.046-20.274v10.41h54.247v-10.41h-54.246zm9.68 7.306c-1.095 0-2.19-.914-2.19-2.192 0-1.279.912-2.192 2.19-2.192 1.097 0 2.193.913 2.193 2.192 0 1.278-1.096 2.192-2.192 2.192zm22.284-1.096h-14.795v-2.01h14.795v2.01zm18.082 0h-14.794v-2.01h14.794v2.01zm-50.046-20.457v10.411h54.247v-10.41h-54.246zm9.68 7.489c-1.095 0-2.19-.913-2.19-2.192 0-1.096.912-2.192 2.19-2.192 1.097 0 2.193.913 2.193 2.192-.183 1.096-1.096 2.192-2.192 2.192zm22.284-1.096h-14.795v-2.01h14.795v2.01zm18.082 0h-14.794v-2.01h14.794v2.01zM228.31 273.52v10.412h54.247V273.52h-54.246zm9.68 7.306c-1.095 0-2.19-.913-2.19-2.191 0-1.279.912-2.192 2.19-2.192 1.097 0 2.193.913 2.193 2.192 0 1.278-1.096 2.191-2.192 2.191zm22.284-1.095h-14.795v-2.01h14.795v2.01zm18.082 0h-14.794v-2.01h14.794v2.01zm-50.046-20.274v10.41h54.247v-10.41h-54.246zm9.68 7.306c-1.095 0-2.19-.914-2.19-2.192 0-1.096.912-2.192 2.19-2.192 1.097 0 2.193.913 2.193 2.192-.183 1.278-1.096 2.192-2.192 2.192zm22.284-1.096h-14.795v-2.01h14.795v2.01zm18.082 0h-14.794v-2.01h14.794v2.01zM103.744 132.699v10.41h54.247V132.7h-54.247zm9.498 7.306c-1.096 0-2.192-.914-2.192-2.192 0-1.096.913-2.192 2.192-2.192 1.096 0 2.192.913 2.192 2.192 0 1.278-.913 2.192-2.192 2.192zm22.466-1.096h-14.795v-2.01h14.795v2.01zm17.9 0h-14.795v-2.01h14.794v2.01zm-49.864 64.109v10.411h54.247v-10.41h-54.247zm9.498 7.306c-1.096 0-2.192-.913-2.192-2.192 0-1.095.913-2.191 2.192-2.191 1.096 0 2.192.913 2.192 2.191 0 1.279-.913 2.192-2.192 2.192zm22.466-.913h-14.795v-2.192h14.795v2.192zm17.9 0h-14.795v-2.192h14.794v2.192zm-49.864-20.457v10.411h54.247v-10.41h-54.247zm9.498 7.306c-1.096 0-2.192-.913-2.192-2.192 0-1.278.913-2.191 2.192-2.191 1.096 0 2.192.913 2.192 2.191 0 1.279-.913 2.192-2.192 2.192zm22.466-.913h-14.795v-2.01h14.795v2.01zm17.9 0h-14.795v-2.01h14.794v2.01zm-49.864-20.457v10.411h54.247v-10.41h-54.247zm9.498 7.306c-1.096 0-2.192-.913-2.192-2.191 0-1.096.913-2.192 2.192-2.192 1.096 0 2.192.913 2.192 2.192 0 1.278-.913 2.191-2.192 2.191zm22.466-1.096h-14.795v-2.009h14.795v2.01zm17.9 0h-14.795v-2.009h14.794v2.01zm-49.864 64.293v10.41h54.247v-10.41h-54.247zm9.498 7.306c-1.096 0-2.192-.914-2.192-2.192 0-1.096.913-2.192 2.192-2.192 1.096 0 2.192.913 2.192 2.192 0 1.278-.913 2.192-2.192 2.192zm22.466-1.096h-14.795v-2.01h14.795v2.01zm17.9 0h-14.795v-2.01h14.794v2.01zm-49.864-20.274v10.41h54.247v-10.41h-54.247zm9.498 7.306c-1.096 0-2.192-.914-2.192-2.192 0-1.279.913-2.192 2.192-2.192 1.096 0 2.192.913 2.192 2.192 0 1.278-.913 2.192-2.192 2.192zm22.466-1.096h-14.795v-2.01h14.795v2.01zm17.9 0h-14.795v-2.01h14.794v2.01zm-49.864-20.457v10.411h54.247v-10.41h-54.247zm9.498 7.489c-1.096 0-2.192-.913-2.192-2.192 0-1.096.913-2.192 2.192-2.192 1.096 0 2.192.913 2.192 2.192 0 1.096-.913 2.192-2.192 2.192zm22.466-1.096h-14.795v-2.01h14.795v2.01zm17.9 0h-14.795v-2.01h14.794v2.01zm-49.864 50.045v10.412h54.247V273.52h-54.247zm9.498 7.306c-1.096 0-2.192-.913-2.192-2.191 0-1.279.913-2.192 2.192-2.192 1.096 0 2.192.913 2.192 2.192 0 1.278-.913 2.191-2.192 2.191zm22.466-1.095h-14.795v-2.01h14.795v2.01zm17.9 0h-14.795v-2.01h14.794v2.01zm-49.864-20.274v10.41h54.247v-10.41h-54.247zm9.498 7.306c-1.096 0-2.192-.914-2.192-2.192 0-1.096.913-2.192 2.192-2.192 1.096 0 2.192.913 2.192 2.192 0 1.278-.913 2.192-2.192 2.192zm22.466-1.096h-14.795v-2.01h14.795v2.01zm17.9 0h-14.795v-2.01h14.794v2.01zm247.671-147.215v10.411h54.246v-10.41H401.28zm9.68 7.489c-1.096 0-2.192-.914-2.192-2.192 0-1.096.913-2.192 2.192-2.192 1.096 0 2.192.913 2.192 2.192-.183 1.096-1.096 2.192-2.192 2.192zm22.283-1.096h-14.795v-2.01h14.795v2.01zm18.082 0H436.53v-2.01h14.794v2.01zm-50.045-20.457V114.8h54.246v-10.41H401.28zm9.68 7.306c-1.096 0-2.192-.913-2.192-2.192 0-1.278.913-2.191 2.192-2.191 1.096 0 2.192.913 2.192 2.191 0 1.279-1.096 2.192-2.192 2.192zm22.283-.913h-14.795v-2.192h14.795v2.192zm18.082 0H436.53v-2.192h14.794v2.192zm-50.045-20.457v10.411h54.246v-10.41H401.28zm9.68 7.306c-1.096 0-2.192-.913-2.192-2.192 0-1.096.913-2.191 2.192-2.191 1.096 0 2.192.913 2.192 2.191-.183 1.279-1.096 2.192-2.192 2.192zm22.283-1.096h-14.795v-2.009h14.795v2.01zm18.082 0H436.53v-2.009h14.794v2.01zm-50.045 64.292v10.411h54.246v-10.41H401.28zm9.68 7.306c-1.096 0-2.192-.913-2.192-2.191 0-1.096.913-2.192 2.192-2.192 1.096 0 2.192.913 2.192 2.192-.183 1.278-1.096 2.191-2.192 2.191zm22.283-1.095h-14.795v-2.01h14.795v2.01zm18.082 0H436.53v-2.01h14.794v2.01zm-50.045-20.274v10.41h54.246v-10.41H401.28zm9.68 7.305c-1.096 0-2.192-.913-2.192-2.191 0-1.096.913-2.192 2.192-2.192 1.096 0 2.192.913 2.192 2.192-.183 1.278-1.096 2.191-2.192 2.191zm22.283-1.095h-14.795v-2.01h14.795v2.01zm18.082 0H436.53v-2.01h14.794v2.01zm-50.045-20.274v10.41h54.246V132.7H401.28zm9.68 7.306c-1.096 0-2.192-.914-2.192-2.192 0-1.096.913-2.192 2.192-2.192 1.096 0 2.192.913 2.192 2.192-.183 1.278-1.096 2.192-2.192 2.192zm22.283-1.096h-14.795v-2.01h14.795v2.01zm18.082 0H436.53v-2.01h14.794v2.01zm-50.045 64.109v10.411h54.246v-10.41H401.28zm9.68 7.306c-1.096 0-2.192-.913-2.192-2.192 0-1.095.913-2.191 2.192-2.191 1.096 0 2.192.913 2.192 2.191-.183 1.279-1.096 2.192-2.192 2.192zm22.283-.913h-14.795v-2.192h14.795v2.192zm18.082 0H436.53v-2.192h14.794v2.192zm-50.045-20.457v10.411h54.246v-10.41H401.28zm9.68 7.306c-1.096 0-2.192-.913-2.192-2.192 0-1.278.913-2.191 2.192-2.191 1.096 0 2.192.913 2.192 2.191 0 1.279-1.096 2.192-2.192 2.192zm22.283-.913h-14.795v-2.01h14.795v2.01zm18.082 0H436.53v-2.01h14.794v2.01zm-50.045-20.457v10.411h54.246v-10.41H401.28zm9.68 7.306c-1.096 0-2.192-.913-2.192-2.191 0-1.096.913-2.192 2.192-2.192 1.096 0 2.192.913 2.192 2.192-.183 1.278-1.096 2.191-2.192 2.191zm22.283-1.096h-14.795v-2.009h14.795v2.01zm18.082 0H436.53v-2.009h14.794v2.01zm-50.045 64.293v10.41h54.246v-10.41H401.28zm9.68 7.306c-1.096 0-2.192-.914-2.192-2.192 0-1.096.913-2.192 2.192-2.192 1.096 0 2.192.913 2.192 2.192-.183 1.278-1.096 2.192-2.192 2.192zm22.283-1.096h-14.795v-2.01h14.795v2.01zm18.082 0H436.53v-2.01h14.794v2.01zm-50.045-20.274v10.41h54.246v-10.41H401.28zm9.68 7.306c-1.096 0-2.192-.914-2.192-2.192 0-1.279.913-2.192 2.192-2.192 1.096 0 2.192.913 2.192 2.192 0 1.278-1.096 2.192-2.192 2.192zm22.283-1.096h-14.795v-2.01h14.795v2.01zm18.082 0H436.53v-2.01h14.794v2.01zm-50.045-20.457v10.411h54.246v-10.41H401.28zm9.68 7.489c-1.096 0-2.192-.913-2.192-2.192 0-1.096.913-2.192 2.192-2.192 1.096 0 2.192.913 2.192 2.192-.183 1.096-1.096 2.192-2.192 2.192zm22.283-1.096h-14.795v-2.01h14.795v2.01zm18.082 0H436.53v-2.01h14.794v2.01zm-50.045 50.045v10.412h54.246V273.52H401.28zm9.68 7.306c-1.096 0-2.192-.913-2.192-2.191 0-1.279.913-2.192 2.192-2.192 1.096 0 2.192.913 2.192 2.192 0 1.278-1.096 2.191-2.192 2.191zm22.283-1.095h-14.795v-2.01h14.795v2.01zm18.082 0H436.53v-2.01h14.794v2.01zm-50.045-20.274v10.41h54.246v-10.41H401.28zm9.68 7.306c-1.096 0-2.192-.914-2.192-2.192 0-1.096.913-2.192 2.192-2.192 1.096 0 2.192.913 2.192 2.192-.183 1.278-1.096 2.192-2.192 2.192zm22.283-1.096h-14.795v-2.01h14.795v2.01zm18.082 0H436.53v-2.01h14.794v2.01zm12.238-147.215v10.411h54.246v-10.41h-54.246zm9.68 7.489c-1.096 0-2.192-.914-2.192-2.192 0-1.096.913-2.192 2.192-2.192 1.096 0 2.192.913 2.192 2.192-.183 1.096-1.096 2.192-2.192 2.192zm22.283-1.096h-14.794v-2.01h14.794v2.01zm18.082 0h-14.794v-2.01h14.794v2.01zm-50.045-20.457V114.8h54.246v-10.41h-54.246zm9.68 7.306c-1.096 0-2.192-.913-2.192-2.192 0-1.278.913-2.191 2.192-2.191 1.096 0 2.192.913 2.192 2.191 0 1.279-1.096 2.192-2.192 2.192zm22.283-.913h-14.794v-2.192h14.794v2.192zm18.082 0h-14.794v-2.192h14.794v2.192zm-50.045-20.457v10.411h54.246v-10.41h-54.246zm9.68 7.306c-1.096 0-2.192-.913-2.192-2.192 0-1.096.913-2.191 2.192-2.191 1.096 0 2.192.913 2.192 2.191-.183 1.279-1.096 2.192-2.192 2.192zm22.283-1.096h-14.794v-2.009h14.794v2.01zm18.082 0h-14.794v-2.009h14.794v2.01zm-50.045 64.292v10.411h54.246v-10.41h-54.246zm9.68 7.306c-1.096 0-2.192-.913-2.192-2.191 0-1.096.913-2.192 2.192-2.192 1.096 0 2.192.913 2.192 2.192-.183 1.278-1.096 2.191-2.192 2.191zm22.283-1.095h-14.794v-2.01h14.794v2.01zm18.082 0h-14.794v-2.01h14.794v2.01zm-50.045-20.274v10.41h54.246v-10.41h-54.246zm9.68 7.305c-1.096 0-2.192-.913-2.192-2.191 0-1.096.913-2.192 2.192-2.192 1.096 0 2.192.913 2.192 2.192-.183 1.278-1.096 2.191-2.192 2.191zm22.283-1.095h-14.794v-2.01h14.794v2.01zm18.082 0h-14.794v-2.01h14.794v2.01zm-50.045-20.274v10.41h54.246V132.7h-54.246zm9.68 7.306c-1.096 0-2.192-.914-2.192-2.192 0-1.096.913-2.192 2.192-2.192 1.096 0 2.192.913 2.192 2.192-.183 1.278-1.096 2.192-2.192 2.192zm22.283-1.096h-14.794v-2.01h14.794v2.01zm18.082 0h-14.794v-2.01h14.794v2.01zm-50.045 64.109v10.411h54.246v-10.41h-54.246zm9.68 7.306c-1.096 0-2.192-.913-2.192-2.192 0-1.095.913-2.191 2.192-2.191 1.096 0 2.192.913 2.192 2.191-.183 1.279-1.096 2.192-2.192 2.192zm22.283-.913h-14.794v-2.192h14.794v2.192zm18.082 0h-14.794v-2.192h14.794v2.192zm-50.045-20.457v10.411h54.246v-10.41h-54.246zm9.68 7.306c-1.096 0-2.192-.913-2.192-2.192 0-1.278.913-2.191 2.192-2.191 1.096 0 2.192.913 2.192 2.191 0 1.279-1.096 2.192-2.192 2.192zm22.283-.913h-14.794v-2.01h14.794v2.01zm18.082 0h-14.794v-2.01h14.794v2.01zm-50.045-20.457v10.411h54.246v-10.41h-54.246zm9.68 7.306c-1.096 0-2.192-.913-2.192-2.191 0-1.096.913-2.192 2.192-2.192 1.096 0 2.192.913 2.192 2.192-.183 1.278-1.096 2.191-2.192 2.191zm22.283-1.096h-14.794v-2.009h14.794v2.01zm18.082 0h-14.794v-2.009h14.794v2.01zm-50.045 64.293v10.41h54.246v-10.41h-54.246zm9.68 7.306c-1.096 0-2.192-.914-2.192-2.192 0-1.096.913-2.192 2.192-2.192 1.096 0 2.192.913 2.192 2.192-.183 1.278-1.096 2.192-2.192 2.192zm22.283-1.096h-14.794v-2.01h14.794v2.01zm18.082 0h-14.794v-2.01h14.794v2.01zm-50.045-20.274v10.41h54.246v-10.41h-54.246zm9.68 7.306c-1.096 0-2.192-.914-2.192-2.192 0-1.279.913-2.192 2.192-2.192 1.096 0 2.192.913 2.192 2.192 0 1.278-1.096 2.192-2.192 2.192zm22.283-1.096h-14.794v-2.01h14.794v2.01zm18.082 0h-14.794v-2.01h14.794v2.01zm-50.045-20.457v10.411h54.246v-10.41h-54.246zm9.68 7.489c-1.096 0-2.192-.913-2.192-2.192 0-1.096.913-2.192 2.192-2.192 1.096 0 2.192.913 2.192 2.192-.183 1.096-1.096 2.192-2.192 2.192zm22.283-1.096h-14.794v-2.01h14.794v2.01zm18.082 0h-14.794v-2.01h14.794v2.01zm-50.045 50.045v10.412h54.246V273.52h-54.246zm9.68 7.306c-1.096 0-2.192-.913-2.192-2.191 0-1.279.913-2.192 2.192-2.192 1.096 0 2.192.913 2.192 2.192 0 1.278-1.096 2.191-2.192 2.191zm22.283-1.095h-14.794v-2.01h14.794v2.01zm18.082 0h-14.794v-2.01h14.794v2.01zm-50.045-20.274v10.41h54.246v-10.41h-54.246zm9.68 7.306c-1.096 0-2.192-.914-2.192-2.192 0-1.096.913-2.192 2.192-2.192 1.096 0 2.192.913 2.192 2.192-.183 1.278-1.096 2.192-2.192 2.192zm22.283-1.096h-14.794v-2.01h14.794v2.01zm18.082 0h-14.794v-2.01h14.794v2.01zM636.53 118.452v10.411h54.246v-10.41H636.53zm9.68 7.489c-1.096 0-2.192-.914-2.192-2.192 0-1.096.914-2.192 2.192-2.192 1.096 0 2.192.913 2.192 2.192-.183 1.096-1.096 2.192-2.192 2.192zm22.283-1.096H653.7v-2.01h14.794v2.01zm18.082 0h-14.794v-2.01h14.794v2.01zm-50.045-20.457V114.8h54.246v-10.41H636.53zm9.68 7.306c-1.096 0-2.192-.913-2.192-2.192 0-1.278.914-2.191 2.192-2.191 1.096 0 2.192.913 2.192 2.191 0 1.279-1.096 2.192-2.192 2.192zm22.283-.913H653.7v-2.192h14.794v2.192zm18.082 0h-14.794v-2.192h14.794v2.192zM636.53 90.324v10.411h54.246v-10.41H636.53zm9.68 7.306c-1.096 0-2.192-.913-2.192-2.192 0-1.096.914-2.191 2.192-2.191 1.096 0 2.192.913 2.192 2.191-.183 1.279-1.096 2.192-2.192 2.192zm22.283-1.096H653.7v-2.009h14.794v2.01zm18.082 0h-14.794v-2.009h14.794v2.01zm-50.045 64.292v10.411h54.246v-10.41H636.53zm9.68 7.306c-1.096 0-2.192-.913-2.192-2.191 0-1.096.914-2.192 2.192-2.192 1.096 0 2.192.913 2.192 2.192-.183 1.278-1.096 2.191-2.192 2.191zm22.283-1.095H653.7v-2.01h14.794v2.01zm18.082 0h-14.794v-2.01h14.794v2.01zm-50.045-20.274v10.41h54.246v-10.41H636.53zm9.68 7.305c-1.096 0-2.192-.913-2.192-2.191 0-1.096.914-2.192 2.192-2.192 1.096 0 2.192.913 2.192 2.192-.183 1.278-1.096 2.191-2.192 2.191zm22.283-1.095H653.7v-2.01h14.794v2.01zm18.082 0h-14.794v-2.01h14.794v2.01zm-50.045-20.274v10.41h54.246V132.7H636.53zm9.68 7.306c-1.096 0-2.192-.914-2.192-2.192 0-1.096.914-2.192 2.192-2.192 1.096 0 2.192.913 2.192 2.192-.183 1.278-1.096 2.192-2.192 2.192zm22.283-1.096H653.7v-2.01h14.794v2.01zm18.082 0h-14.794v-2.01h14.794v2.01zm-50.045 64.109v10.411h54.246v-10.41H636.53zm9.68 7.306c-1.096 0-2.192-.913-2.192-2.192 0-1.095.914-2.191 2.192-2.191 1.096 0 2.192.913 2.192 2.191-.183 1.279-1.096 2.192-2.192 2.192zm22.283-.913H653.7v-2.192h14.794v2.192zm18.082 0h-14.794v-2.192h14.794v2.192zm-50.045-20.457v10.411h54.246v-10.41H636.53zm9.68 7.306c-1.096 0-2.192-.913-2.192-2.192 0-1.278.914-2.191 2.192-2.191 1.096 0 2.192.913 2.192 2.191 0 1.279-1.096 2.192-2.192 2.192zm22.283-.913H653.7v-2.01h14.794v2.01zm18.082 0h-14.794v-2.01h14.794v2.01zM636.53 174.89v10.411h54.246v-10.41H636.53zm9.68 7.306c-1.096 0-2.192-.913-2.192-2.191 0-1.096.914-2.192 2.192-2.192 1.096 0 2.192.913 2.192 2.192-.183 1.278-1.096 2.191-2.192 2.191zm22.283-1.096H653.7v-2.009h14.794v2.01zm18.082 0h-14.794v-2.009h14.794v2.01zm-50.045 64.293v10.41h54.246v-10.41H636.53zm9.68 7.306c-1.096 0-2.192-.914-2.192-2.192 0-1.096.914-2.192 2.192-2.192 1.096 0 2.192.913 2.192 2.192-.183 1.278-1.096 2.192-2.192 2.192zm22.283-1.096H653.7v-2.01h14.794v2.01zm18.082 0h-14.794v-2.01h14.794v2.01zm-50.045-20.274v10.41h54.246v-10.41H636.53zm9.68 7.306c-1.096 0-2.192-.914-2.192-2.192 0-1.279.914-2.192 2.192-2.192 1.096 0 2.192.913 2.192 2.192 0 1.278-1.096 2.192-2.192 2.192zm22.283-1.096H653.7v-2.01h14.794v2.01zm18.082 0h-14.794v-2.01h14.794v2.01zm-50.045-20.457v10.411h54.246v-10.41H636.53zm9.68 7.489c-1.096 0-2.192-.913-2.192-2.192 0-1.096.914-2.192 2.192-2.192 1.096 0 2.192.913 2.192 2.192-.183 1.096-1.096 2.192-2.192 2.192zm22.283-1.096H653.7v-2.01h14.794v2.01zm18.082 0h-14.794v-2.01h14.794v2.01zM636.53 273.52v10.412h54.246V273.52H636.53zm9.68 7.306c-1.096 0-2.192-.913-2.192-2.191 0-1.279.914-2.192 2.192-2.192 1.096 0 2.192.913 2.192 2.192 0 1.278-1.096 2.191-2.192 2.191zm22.283-1.095H653.7v-2.01h14.794v2.01zm18.082 0h-14.794v-2.01h14.794v2.01zm-50.045-20.274v10.41h54.246v-10.41H636.53zm9.68 7.306c-1.096 0-2.192-.914-2.192-2.192 0-1.096.914-2.192 2.192-2.192 1.096 0 2.192.913 2.192 2.192-.183 1.278-1.096 2.192-2.192 2.192zm22.283-1.096H653.7v-2.01h14.794v2.01zm18.082 0h-14.794v-2.01h14.794v2.01zm12.42-147.215v10.411h54.247v-10.41h-54.247zm9.498 7.489c-1.096 0-2.192-.914-2.192-2.192 0-1.096.914-2.192 2.192-2.192 1.096 0 2.192.913 2.192 2.192 0 1.096-1.096 2.192-2.192 2.192zm22.283-1.096h-14.794v-2.01h14.794v2.01zm18.082 0h-14.794v-2.01h14.794v2.01zm-49.863-20.457V114.8h54.247v-10.41h-54.247zm9.498 7.306c-1.096 0-2.192-.913-2.192-2.192 0-1.278.914-2.191 2.192-2.191 1.096 0 2.192.913 2.192 2.191 0 1.279-1.096 2.192-2.192 2.192zm22.283-.913h-14.794v-2.192h14.794v2.192zm18.082 0h-14.794v-2.192h14.794v2.192zm-49.863-20.457v10.411h54.247v-10.41h-54.247zm9.498 7.306c-1.096 0-2.192-.913-2.192-2.192 0-1.096.914-2.191 2.192-2.191 1.096 0 2.192.913 2.192 2.191 0 1.279-1.096 2.192-2.192 2.192zm22.283-1.096h-14.794v-2.009h14.794v2.01zm18.082 0h-14.794v-2.009h14.794v2.01zm-49.863 64.292v10.411h54.247v-10.41h-54.247zm9.498 7.306c-1.096 0-2.192-.913-2.192-2.191 0-1.096.914-2.192 2.192-2.192 1.096 0 2.192.913 2.192 2.192 0 1.278-1.096 2.191-2.192 2.191zm22.283-1.095h-14.794v-2.01h14.794v2.01zm18.082 0h-14.794v-2.01h14.794v2.01zm-49.863-20.274v10.41h54.247v-10.41h-54.247zm9.498 7.305c-1.096 0-2.192-.913-2.192-2.191 0-1.096.914-2.192 2.192-2.192 1.096 0 2.192.913 2.192 2.192 0 1.278-1.096 2.191-2.192 2.191zm22.283-1.095h-14.794v-2.01h14.794v2.01zm18.082 0h-14.794v-2.01h14.794v2.01zm-49.863-20.274v10.41h54.247V132.7h-54.247zm9.498 7.306c-1.096 0-2.192-.914-2.192-2.192 0-1.096.914-2.192 2.192-2.192 1.096 0 2.192.913 2.192 2.192 0 1.278-1.096 2.192-2.192 2.192zm22.283-1.096h-14.794v-2.01h14.794v2.01zm18.082 0h-14.794v-2.01h14.794v2.01zm-49.863 64.109v10.411h54.247v-10.41h-54.247zm9.498 7.306c-1.096 0-2.192-.913-2.192-2.192 0-1.095.914-2.191 2.192-2.191 1.096 0 2.192.913 2.192 2.191 0 1.279-1.096 2.192-2.192 2.192zm22.283-.913h-14.794v-2.192h14.794v2.192zm18.082 0h-14.794v-2.192h14.794v2.192zm-49.863-20.457v10.411h54.247v-10.41h-54.247zm9.498 7.306c-1.096 0-2.192-.913-2.192-2.192 0-1.278.914-2.191 2.192-2.191 1.096 0 2.192.913 2.192 2.191 0 1.279-1.096 2.192-2.192 2.192zm22.283-.913h-14.794v-2.01h14.794v2.01zm18.082 0h-14.794v-2.01h14.794v2.01zm-49.863-20.457v10.411h54.247v-10.41h-54.247zm9.498 7.306c-1.096 0-2.192-.913-2.192-2.191 0-1.096.914-2.192 2.192-2.192 1.096 0 2.192.913 2.192 2.192 0 1.278-1.096 2.191-2.192 2.191zm22.283-1.096h-14.794v-2.009h14.794v2.01zm18.082 0h-14.794v-2.009h14.794v2.01zm-49.863 64.293v10.41h54.247v-10.41h-54.247zm9.498 7.306c-1.096 0-2.192-.914-2.192-2.192 0-1.096.914-2.192 2.192-2.192 1.096 0 2.192.913 2.192 2.192 0 1.278-1.096 2.192-2.192 2.192zm22.283-1.096h-14.794v-2.01h14.794v2.01zm18.082 0h-14.794v-2.01h14.794v2.01zm-49.863-20.274v10.41h54.247v-10.41h-54.247zm9.498 7.306c-1.096 0-2.192-.914-2.192-2.192 0-1.279.914-2.192 2.192-2.192 1.096 0 2.192.913 2.192 2.192 0 1.278-1.096 2.192-2.192 2.192zm22.283-1.096h-14.794v-2.01h14.794v2.01zm18.082 0h-14.794v-2.01h14.794v2.01zm-49.863-20.457v10.411h54.247v-10.41h-54.247zm9.498 7.489c-1.096 0-2.192-.913-2.192-2.192 0-1.096.914-2.192 2.192-2.192 1.096 0 2.192.913 2.192 2.192 0 1.096-1.096 2.192-2.192 2.192zm22.283-1.096h-14.794v-2.01h14.794v2.01zm18.082 0h-14.794v-2.01h14.794v2.01zm-49.863 50.045v10.412h54.247V273.52h-54.247zm9.498 7.306c-1.096 0-2.192-.913-2.192-2.191 0-1.279.914-2.192 2.192-2.192 1.096 0 2.192.913 2.192 2.192 0 1.278-1.096 2.191-2.192 2.191zm22.283-1.095h-14.794v-2.01h14.794v2.01zm18.082 0h-14.794v-2.01h14.794v2.01zm-49.863-20.274v10.41h54.247v-10.41h-54.247zm9.498 7.306c-1.096 0-2.192-.914-2.192-2.192 0-1.096.914-2.192 2.192-2.192 1.096 0 2.192.913 2.192 2.192 0 1.278-1.096 2.192-2.192 2.192zm22.283-1.096h-14.794v-2.01h14.794v2.01zm18.082 0h-14.794v-2.01h14.794v2.01z" fill="#B2B2B2"/></g></svg>