<svg enable-background="new 0 0 945.2 1042" viewBox="0 0 945.2 1042" xmlns="http://www.w3.org/2000/svg"><path d="m472.6 883.4c-48.9 0-96.4-9.6-141.1-28.5-43.2-18.3-81.9-44.4-115.2-77.7s-59.4-72-77.7-115.2c-18.9-44.7-28.5-92.1-28.5-141.1s9.6-96.4 28.5-141.1c18.3-43.2 44.4-81.9 77.7-115.2s72-59.4 115.2-77.7c44.7-18.9 92.1-28.5 141.1-28.5 48.9 0 96.4 9.6 141.1 28.5 43.2 18.3 81.9 44.4 115.2 77.7s59.4 72 77.7 115.2c18.8 44.8 28.4 92.3 28.4 141.2s-9.6 96.4-28.5 141.1c-18.3 43.2-44.4 81.9-77.7 115.2s-72 59.4-115.2 77.7c-44.6 18.8-92.1 28.4-141 28.4zm0-722c-48.5 0-95.6 9.5-140 28.3-42.8 18.1-81.3 44-114.3 77.1-33 33-59 71.5-77.1 114.3-18.8 44.3-28.3 91.4-28.3 140s9.5 95.6 28.3 140c18.1 42.8 44 81.3 77.1 114.3 33 33 71.5 59 114.3 77.1 44.3 18.8 91.4 28.3 140 28.3s95.6-9.5 140-28.3c42.8-18.1 81.3-44 114.3-77.1 33-33 59-71.5 77.1-114.3 18.8-44.3 28.3-91.4 28.3-140s-9.5-95.6-28.3-140c-18.1-42.8-44-81.3-77.1-114.3-33-33-71.5-59-114.3-77.1-44.4-18.8-91.4-28.3-140-28.3z" fill="#d0d4d7" opacity=".75"/><circle cx="472.6" cy="882" fill="#ecf0f1" r="125"/><path d="m565.6 460-2-12.1c-.7-3.9-2.1-7.1-3.4-7.1s-2.2 3.3-2.2 7.2v3.2c0 3.9-3.2 7.1-7.2 7.2h-3.8v8.8h12.6c3.3.2 6-2.4 6.2-5.6 0-.6-.1-1.1-.2-1.6" fill="#0075a8"/><path d="m537 449.7h-39.7c-.2 0-.4 0-.7.1v-1.8c0-3.9-1-7.2-2.2-7.2s-2.7 3.2-3.4 7.1l-2 12.1c-.7 3.2 1.4 6.3 4.5 7 .5.1.9.1 1.4.1h12c1.1 0 2.3-.2 3.4-.6-.4 2.1-2.2 3.6-4.3 3.5h-16.8c-2.4 0-4.4-1.9-4.4-4.3 0-.3 0-.5.1-.8l1.7-10.1c.4-2.4-1.1-4.6-3.5-5.1-.3 0-.5-.1-.8-.1h-83.2c-1.7 0-3.3 1-4 2.6l-15.6 23.9c-.3.4-.3 1 .1 1.3l3.1 3.6c.4.5 1 .6 1.5.2l10.6-8.4v51c0 2.4 2 4.4 4.4 4.4h23.8c2.4 0 4.4-2 4.4-4.4v-17.7c0-2.4 2-4.4 4.4-4.4h58.9c2.4 0 4.4 2 4.4 4.4v17.9c0 2.4 2 4.4 4.4 4.4h23.7c2.4 0 4.4-2 4.4-4.4v-19.3h-12.6c-3.9 0-7.1-3.2-7.2-7.2v-12.2c0-2.2 1.1-4.4 2.9-5.7v14.6c0 3.9 3.2 7.1 7.2 7.2h19.4c3.9 0 7.1-3.2 7.2-7.2v-37.2c-.3-4-3.5-7.2-7.5-7.3" fill="#0075a8"/><path d="m320 547.9h21.5c10.2 0 17.1 5 17.1 14.5 0 6.5-4.3 12.3-10.5 14.2 1.6 1.4 2.8 3.1 3.6 5 2.2 4.4 3.6 9.3 8.2 9.3.7 0 1.4-.1 2.1-.4l-1 9.3c-1.7.4-3.4.6-5.2.7-6.2 0-9.7-2.4-13.4-10.7-1.6-3.7-3.7-10.2-6.5-10.2h-2.9v20.6h-13zm12.9 9.4v12.8h4.7c3.7 0 8.1-1.1 8.1-6.7 0-4.6-2.9-6.1-6.5-6.1z" fill="#0075a8"/><path d="m376.1 547.9h13.1l17.6 52.2h-13.1l-3.2-9.9h-17.5l-3.2 9.9h-11.3zm0 32.8h11.2l-3.5-11c-.8-2.9-1.5-5.9-1.8-9h-.3c-.4 3-1.1 6-2 8.9z" fill="#0075a8"/><path d="m407.3 547.9h13.9l13.7 25.9c1.1 2.3 2.7 6.2 3.9 9.3h.3c-.2-2.9-.5-7.1-.5-10.2v-25h10.6v52.2h-13.6l-14.2-25.8c-1.4-2.8-2.7-5.6-3.8-8.5h-.3c.2 2.9.6 6.4.6 9.3v25.1h-10.6z" fill="#0075a8"/><path d="m451.9 573.7c0-18.9 9.3-26.7 23.8-26.7 15.2 0 21.3 8.4 19.6 19.6l-12 1.1c1.3-8.3-2-11.6-7.8-11.6-5.6 0-10.2 4.1-10.2 17.6 0 14.2 5 17.8 10.6 17.8 5.3 0 9.6-3.3 8.7-10.2l11.3 1.1c.8 10.6-6.8 18.4-20.7 18.4-14.1.3-23.3-8.1-23.3-27.1" fill="#0075a8"/><path d="m498.6 547.9h12.9v19.7h15.8v-19.7h12.9v52.3h-12.9v-22.2h-15.8v22.2h-12.9z" fill="#0075a8"/><path d="m545.4 547.9h34.6v9.7h-21.7v11.2h18.2v9.5h-18.2v12.2h22.4v9.7h-35.3z" fill="#0075a8"/><path d="m583.2 547.9h21.5c10.2 0 17.1 5 17.1 14.5 0 6.5-4.3 12.3-10.5 14.2 1.6 1.4 2.8 3.1 3.6 5 2.2 4.4 3.6 9.3 8.2 9.3.7 0 1.4-.1 2.1-.4l-1.1 9.3c-1.7.4-3.4.6-5.2.7-6.2 0-9.7-2.4-13.4-10.7-1.6-3.7-3.7-10.2-6.5-10.2h-2.9v20.6h-12.9zm12.9 9.4v12.8h4.7c3.7 0 8.1-1.1 8.1-6.7 0-4.6-2.9-6.1-6.5-6.1z" fill="#0075a8"/><circle cx="785.2" cy="340.5" fill="#ecf0f1" r="125"/><circle cx="785.2" cy="340.5" fill="#0075a8" r="66.4"/><circle cx="785.2" cy="701.5" fill="#ecf0f1" r="125"/><path d="m717.6 632.2c.7.7 1.2 1.6 1.4 2.7.1.6 0 1.3-.3 2-.3.8-.8 1.5-1.5 2.3l-1.5 1.7 4.3 3.9-2.4 2.7-11-9.9 3.9-4.3c1.1-1.3 2.4-2 3.7-2.1 1.4-.2 2.5.2 3.4 1zm-3.8 6.9 1.5-1.7c.4-.4.5-.8.5-1.3s-.2-.9-.6-1.2c-.4-.4-.8-.5-1.3-.5s-.9.2-1.2.6l-1.5 1.7z" fill="#0075a8"/><path d="m723.1 633-5.5-6.9 2.8-2.2 5.5 6.9c.5.7 1.1 1.1 1.8 1.2.6.1 1.3-.1 2-.6s1-1.1 1.1-1.8-.2-1.3-.7-2l-5.5-6.9 2.8-2.2 5.5 6.9c.8 1 1.3 2.1 1.4 3.2s-.1 2.1-.5 3.1c-.5.9-1.1 1.7-2 2.4-1.3 1.1-2.8 1.5-4.4 1.4-1.7-.2-3.1-1-4.3-2.5z" fill="#0075a8"/><path d="m732 615.4 5.7-3.1c1.3-.7 2.5-1 3.7-.8 1.1.2 2 .8 2.5 1.8.8 1.5.5 2.9-1 4.4.9-.4 1.8-.4 2.7 0 .8.3 1.5.9 1.9 1.7.6 1 .6 2.1.2 3.1s-1.3 1.9-2.7 2.6l-6 3.2zm4.5.6 1.5 2.8 2.1-1.1c.5-.2.8-.6.9-1 .2-.4.1-.8-.2-1.3s-.6-.7-1-.8-.8 0-1.3.2zm4.4 8.2 2.4-1.3c.4-.2.7-.6.9-1 .1-.4.1-.8-.2-1.3-.2-.5-.6-.7-1-.9-.4-.1-.8-.1-1.3.2l-2.4 1.3z" fill="#0075a8"/><path d="m746.8 607.9 3.4-1.3 4.2 11.3 4.2-1.6 1 2.6-7.6 2.8z" fill="#0075a8"/><path d="m762.2 618.3-3.7-14.4 3.5-.9 3.7 14.4z" fill="#0075a8"/><path d="m770.2 614.3c-1.6-1.3-2.6-3-2.8-5.1-.2-2.2.3-4.1 1.6-5.6 1.3-1.6 3-2.5 5.1-2.7 1.6-.2 3.1.1 4.5.8s2.4 1.8 3.1 3.3l-4.3.5c-.7-1-1.6-1.4-2.9-1.3-1.2.1-2.2.6-2.8 1.5s-.9 1.9-.7 3.2c.1 1.3.6 2.3 1.4 3s1.8 1 3 .8c1.2-.1 2.1-.8 2.5-1.9l4.3-.5c-.3 1.6-1.1 2.9-2.2 3.9-1.2 1-2.6 1.6-4.2 1.8-2.1.1-4-.4-5.6-1.7z" fill="#0075a8"/><path d="m793.9 613.4c-1.2-1.6-1.7-3.5-1.3-5.7.3-2.2 1.3-3.8 3-5s3.6-1.6 5.7-1.3c1.6.3 3 .9 4.1 2s1.8 2.4 2.1 4l-4.3-.7c-.4-1.2-1.2-1.8-2.4-2s-2.2 0-3.1.7c-.8.7-1.3 1.6-1.5 2.9s0 2.4.6 3.2c.6.9 1.5 1.4 2.7 1.6s2.2-.2 2.9-1.2l4.3.7c-.7 1.5-1.8 2.5-3.2 3.2s-2.9.9-4.5.6c-2.2-.4-3.9-1.3-5.1-3z" fill="#0075a8"/><path d="m812.7 604.1 3.4 1.1-3.7 11.5 4.3 1.4-.8 2.6-7.7-2.5z" fill="#0075a8"/><path d="m820 620.1c-.7-1.9-.5-3.9.5-5.9s2.5-3.2 4.4-3.9c2-.6 3.9-.4 5.8.5 1.9 1 3.2 2.4 3.8 4.3.7 1.9.5 3.9-.5 5.8-1 2-2.5 3.3-4.4 3.9-2 .6-3.9.5-5.8-.5-1.8-.8-3.1-2.2-3.8-4.2zm8.4 1.6c1-.4 1.8-1.1 2.3-2.3.6-1.2.7-2.2.4-3.2s-1-1.8-2-2.3c-1.1-.5-2.1-.6-3.1-.2s-1.8 1.1-2.3 2.3c-.6 1.2-.7 2.2-.4 3.2s1 1.8 2 2.3c1.1.5 2.1.6 3.1.2z" fill="#0075a8"/><path d="m836 624.2 5.3-7.1 2.9 2.2-5.3 7.1c-.5.7-.8 1.4-.7 2s.4 1.2 1.1 1.7 1.3.7 2 .6c.6-.1 1.2-.5 1.8-1.2l5.3-7.1 2.9 2.2-5.3 7.1c-.8 1-1.7 1.8-2.8 2.1-1.1.4-2.1.5-3.1.3s-2-.7-2.8-1.3c-1.4-1-2.2-2.3-2.5-3.9-.4-1.6 0-3.2 1.2-4.7z" fill="#0075a8"/><path d="m858.9 632.1c1.6 1.7 2.4 3.6 2.4 5.7 0 2-.8 3.8-2.4 5.3s-3.4 2.1-5.5 2c-2-.2-3.9-1.1-5.5-2.9l-3.5-3.8 10.9-10zm-10 7 1.1 1.2c.9 1 2 1.5 3.1 1.5 1.2 0 2.3-.5 3.3-1.4 1-1 1.6-2 1.7-3.2s-.3-2.2-1.3-3.2l-1.1-1.2z" fill="#0075a8"/><circle cx="785.2" cy="701.5" fill="#0075a8" r="66.4"/><path d="m717.6 270.8c.7.7 1.2 1.6 1.4 2.7.1.6 0 1.3-.3 2-.3.8-.8 1.5-1.5 2.3l-1.5 1.7 4.3 3.9-2.4 2.7-11-9.9 3.9-4.3c1.1-1.3 2.4-2 3.7-2.1s2.5.1 3.4 1zm-3.8 6.8 1.5-1.7c.4-.4.5-.8.5-1.3s-.2-.9-.6-1.2c-.4-.4-.8-.5-1.3-.5s-.9.2-1.2.6l-1.5 1.7z" fill="#0075a8"/><path d="m723.1 271.5-5.5-6.9 2.8-2.2 5.5 6.9c.5.7 1.1 1.1 1.8 1.2.6.1 1.3-.1 2-.6s1-1.1 1.1-1.8-.2-1.3-.7-2l-5.5-6.9 2.8-2.2 5.5 6.9c.8 1 1.3 2.1 1.4 3.2s-.1 2.1-.5 3.1c-.5.9-1.1 1.7-2 2.4-1.3 1.1-2.8 1.5-4.4 1.4-1.7-.1-3.1-.9-4.3-2.5z" fill="#0075a8"/><path d="m732 253.9 5.7-3.1c1.3-.7 2.5-1 3.7-.8 1.1.2 2 .8 2.5 1.8.8 1.5.5 2.9-1 4.4.9-.4 1.8-.4 2.7 0 .8.3 1.5.9 1.9 1.7.6 1 .6 2.1.2 3.1s-1.3 1.9-2.7 2.6l-6 3.2zm4.5.7 1.5 2.8 2.1-1.1c.5-.2.8-.6.9-1 .2-.4.1-.8-.2-1.3s-.6-.7-1-.8-.8 0-1.3.2zm4.4 8.2 2.4-1.3c.4-.2.7-.6.9-1 .1-.4.1-.8-.2-1.3-.2-.5-.6-.7-1-.9-.4-.1-.8-.1-1.3.2l-2.4 1.3z" fill="#0075a8"/><path d="m746.8 246.5 3.4-1.3 4.2 11.3 4.2-1.6 1 2.6-7.6 2.8z" fill="#0075a8"/><path d="m762.2 256.9-3.7-14.4 3.5-.9 3.7 14.4z" fill="#0075a8"/><path d="m770.2 252.9c-1.6-1.3-2.6-3-2.8-5.1-.2-2.2.3-4.1 1.6-5.6 1.3-1.6 3-2.5 5.1-2.7 1.6-.2 3.1.1 4.5.8s2.4 1.8 3.1 3.3l-4.3.5c-.7-1-1.6-1.4-2.9-1.3-1.2.1-2.2.6-2.8 1.5s-.9 1.9-.7 3.2c.1 1.3.6 2.3 1.4 3s1.8 1 3 .8c1.2-.1 2.1-.8 2.5-1.9l4.3-.5c-.3 1.6-1.1 2.9-2.2 3.9-1.2 1-2.6 1.6-4.2 1.8-2.1 0-4-.5-5.6-1.7z" fill="#0075a8"/><path d="m793.9 252c-1.2-1.6-1.7-3.5-1.3-5.7.3-2.2 1.3-3.8 3-5s3.6-1.6 5.7-1.3c1.6.3 3 .9 4.1 2s1.8 2.4 2.1 4l-4.3-.7c-.4-1.2-1.2-1.8-2.4-2s-2.2 0-3.1.7c-.8.7-1.3 1.6-1.5 2.9s0 2.4.6 3.2c.6.9 1.5 1.4 2.7 1.6s2.2-.2 2.9-1.2l4.3.7c-.7 1.5-1.8 2.5-3.2 3.2s-2.9.9-4.5.6c-2.2-.4-3.9-1.4-5.1-3z" fill="#0075a8"/><path d="m812.7 242.7 3.4 1.1-3.7 11.5 4.3 1.4-.8 2.6-7.7-2.5z" fill="#0075a8"/><path d="m820 258.7c-.7-1.9-.5-3.9.5-5.9s2.5-3.2 4.4-3.9c2-.6 3.9-.4 5.8.5 1.9 1 3.2 2.4 3.8 4.3.7 1.9.5 3.9-.5 5.8-1 2-2.5 3.3-4.4 3.9-2 .6-3.9.5-5.8-.5-1.8-.8-3.1-2.3-3.8-4.2zm8.4 1.6c1-.4 1.8-1.1 2.3-2.3.6-1.2.7-2.2.4-3.2s-1-1.8-2-2.3c-1.1-.5-2.1-.6-3.1-.2s-1.8 1.1-2.3 2.3c-.6 1.2-.7 2.2-.4 3.2s1 1.8 2 2.3c1.1.5 2.1.6 3.1.2z" fill="#0075a8"/><path d="m836 262.7 5.3-7.1 2.9 2.2-5.3 7.1c-.5.7-.8 1.4-.7 2s.4 1.2 1.1 1.7 1.3.7 2 .6c.6-.1 1.2-.5 1.8-1.2l5.3-7.1 2.9 2.2-5.3 7.1c-.8 1-1.7 1.8-2.8 2.1-1.1.4-2.1.5-3.1.3s-2-.7-2.8-1.3c-1.4-1-2.2-2.3-2.5-3.9-.4-1.6 0-3.1 1.2-4.7z" fill="#0075a8"/><path d="m858.9 270.7c1.6 1.7 2.4 3.6 2.4 5.7 0 2-.8 3.8-2.4 5.3s-3.4 2.1-5.5 2c-2-.2-3.9-1.1-5.5-2.9l-3.5-3.8 10.9-10zm-10 7 1.1 1.2c.9 1 2 1.5 3.1 1.5 1.2 0 2.3-.5 3.3-1.4 1-1 1.6-2 1.7-3.2s-.3-2.2-1.3-3.2l-1.1-1.2z" fill="#0075a8"/><circle cx="472.6" cy="882" fill="#0075a8" r="66.4"/><circle cx="160" cy="701.5" fill="#ecf0f1" r="125"/><path d="m87.2 637.7c.8.6 1.3 1.5 1.6 2.6.1.6.1 1.3-.1 2.1s-.6 1.6-1.3 2.4l-1.4 1.8 4.6 3.5-2.2 2.9-11.7-9 3.6-4.6c1-1.4 2.2-2.1 3.5-2.4 1.2-.4 2.4-.1 3.4.7zm-3.3 7.1 1.4-1.8c.3-.4.5-.9.4-1.3s-.3-.8-.7-1.2c-.4-.3-.9-.5-1.3-.4-.5.1-.9.3-1.2.7l-1.4 1.8z" fill="#0075a8"/><path d="m95.5 635.7 3.9 4.2-2.6 2.5-10.1-10.8 4.3-4c1.3-1.2 2.5-1.8 3.8-1.8s2.4.4 3.2 1.4c.6.6 1 1.4 1.1 2.4s0 2-.7 3l6.8 1.9-3.1 2.9-6.4-1.9zm-4.3-4.6 2.4 2.6 1.6-1.5c.4-.4.6-.8.6-1.2 0-.5-.2-.9-.5-1.3s-.8-.6-1.2-.6c-.5 0-.9.1-1.3.5z" fill="#0075a8"/><path d="m107.8 632.7-8.7-12 2.9-2.1 8.7 12z" fill="#0075a8"/><path d="m116.9 626.6-11.7-10.5 3.4-1.8 8.6 8.2-2.1-11.7 3.4-1.8 2.4 15.5z" fill="#0075a8"/><path d="m136 618.5-1.6-2.1-5 1.7v2.6l-3.6 1.2.2-15.7 4.2-1.4 9.6 12.5zm-6.6-3.3 3.3-1.1-3.3-4.4z" fill="#0075a8"/><path d="m138.5 605.3-.4-2.7 11.5-1.9.4 2.7-4 .6 2 12-3.6.6-1.9-11.9z" fill="#0075a8"/><path d="m163.1 600.3v2.7l-5.4.1v3.2l4.7-.1v2.7l-4.7.1v3.4l5.4-.1v2.7l-9 .1-.2-14.8z" fill="#0075a8"/><path d="m175.5 614.4c-1.1-1.7-1.4-3.7-.9-5.8s1.6-3.7 3.4-4.8c1.8-1 3.7-1.3 5.7-.8 1.6.4 2.9 1.1 4 2.3 1 1.1 1.6 2.5 1.8 4.2l-4.2-1c-.3-1.2-1-1.9-2.2-2.2s-2.2-.1-3.1.4c-.9.6-1.5 1.5-1.8 2.8s-.2 2.3.3 3.3c.5.9 1.4 1.5 2.6 1.8s2.2 0 3-1l4.2 1c-.9 1.4-2 2.4-3.4 2.9s-3 .6-4.6.3c-2.1-.5-3.7-1.7-4.8-3.4z" fill="#0075a8"/><path d="m195 606.6 3.3 1.4-4.6 11.2 4.2 1.7-1 2.5-7.5-3.1z" fill="#0075a8"/><path d="m201.1 623.1c-.5-2-.2-3.9.9-5.8s2.7-3.1 4.7-3.5c2-.5 3.9-.1 5.7 1s3 2.6 3.5 4.6.2 3.9-.9 5.8-2.7 3.1-4.7 3.5c-2 .5-3.9.2-5.7-.9-1.9-1.1-3-2.7-3.5-4.7zm8.2 2.3c1-.3 1.8-1 2.5-2.1s.9-2.2.7-3.2-.8-1.9-1.8-2.5-2-.8-3-.5-1.8 1-2.5 2.1-.9 2.2-.7 3.2.8 1.9 1.8 2.5 2 .8 3 .5z" fill="#0075a8"/><path d="m216.6 628.4 5.9-6.6 2.7 2.4-5.9 6.6c-.6.7-.9 1.3-.9 2s.3 1.3 1 1.8c.6.6 1.3.8 1.9.8.7-.1 1.3-.4 1.9-1.1l5.9-6.6 2.7 2.4-5.9 6.6c-.9 1-1.8 1.6-2.9 1.9s-2.1.3-3.1 0-1.9-.8-2.7-1.5c-1.3-1.1-2-2.5-2.2-4.1-.2-1.7.4-3.2 1.6-4.6z" fill="#0075a8"/><path d="m238.8 638.1c1.5 1.9 2.1 3.8 2 5.8s-1.1 3.7-2.8 5.1-3.6 1.9-5.6 1.5c-2-.3-3.8-1.4-5.2-3.3l-3.2-4.1 11.6-9.2zm-10.5 6.2 1 1.3c.9 1.1 1.9 1.7 3 1.8s2.3-.3 3.4-1.2 1.8-1.9 1.9-3c.2-1.1-.2-2.3-1-3.3l-1-1.3z" fill="#0075a8"/><circle cx="160" cy="701.5" fill="#0075a8" r="66.4"/><circle cx="160" cy="340.5" fill="#ecf0f1" r="125"/><path d="m87.2 276.7c.8.6 1.3 1.5 1.6 2.6.1.6.1 1.3-.1 2.1s-.6 1.6-1.3 2.4l-1.4 1.8 4.6 3.5-2.2 2.9-11.7-9 3.6-4.6c1-1.4 2.2-2.1 3.5-2.4s2.4-.1 3.4.7zm-3.3 7.2 1.4-1.8c.3-.4.5-.9.4-1.3s-.3-.8-.7-1.2c-.4-.3-.9-.5-1.3-.4-.5.1-.9.3-1.2.7l-1.4 1.8z" fill="#0075a8"/><path d="m95.5 274.7 3.9 4.2-2.6 2.5-10.1-10.8 4.3-4c1.2-1.2 2.5-1.8 3.8-1.8s2.4.4 3.2 1.4c.6.6 1 1.4 1.2 2.4s0 2-.7 3l6.8 1.9-3.1 2.9-6.4-1.9zm-4.3-4.6 2.4 2.6 1.6-1.5c.4-.4.6-.8.6-1.2 0-.5-.2-.9-.5-1.3-.4-.4-.8-.6-1.2-.6-.5 0-.9.1-1.3.5z" fill="#0075a8"/><path d="m107.7 271.7-8.7-12 2.9-2.1 8.7 12z" fill="#0075a8"/><path d="m116.9 265.7-11.7-10.5 3.4-1.8 8.6 8.2-2.1-11.7 3.4-1.8 2.4 15.5z" fill="#0075a8"/><path d="m135.9 257.5-1.6-2.1-5 1.7v2.6l-3.6 1.2.2-15.7 4.2-1.4 9.6 12.5zm-6.6-3.3 3.3-1.1-3.3-4.4z" fill="#0075a8"/><path d="m138.5 244.3-.4-2.7 11.5-1.9.4 2.7-4 .7 2 11.9-3.6.6-1.9-11.9z" fill="#0075a8"/><path d="m163.1 239.3v2.7l-5.4.1v3.2l4.7-.1v2.7l-4.7.1.1 3.4 5.4-.1v2.7l-9 .1-.2-14.8z" fill="#0075a8"/><path d="m175.5 253.4c-1.1-1.7-1.4-3.7-.9-5.8s1.6-3.7 3.4-4.8c1.8-1 3.7-1.3 5.7-.8 1.6.4 2.9 1.1 4 2.3s1.6 2.5 1.8 4.2l-4.2-1c-.3-1.2-1-1.9-2.2-2.2s-2.2-.1-3.1.5-1.5 1.5-1.8 2.8-.2 2.3.3 3.3c.5.9 1.4 1.5 2.6 1.8s2.2 0 3-1l4.2 1c-.9 1.4-2 2.4-3.4 2.9-1.4.6-3 .6-4.6.3-2.1-.7-3.7-1.8-4.8-3.5z" fill="#0075a8"/><path d="m195 245.5 3.3 1.4-4.6 11.2 4.2 1.7-1 2.5-7.5-3.1z" fill="#0075a8"/><path d="m201 262.1c-.5-2-.2-3.9.9-5.8s2.7-3 4.7-3.5 3.9-.1 5.7 1 3 2.6 3.5 4.6.2 3.9-.9 5.8-2.7 3.1-4.7 3.5c-2 .5-3.9.2-5.7-.9-1.8-1.2-3-2.7-3.5-4.7zm8.3 2.3c1-.3 1.8-1 2.5-2.1s.9-2.2.7-3.2-.8-1.9-1.8-2.5-2-.8-3-.5-1.8 1-2.5 2.1-.9 2.2-.7 3.2.8 1.8 1.8 2.5c1 .6 2 .7 3 .5z" fill="#0075a8"/><path d="m216.6 267.4 5.9-6.6 2.7 2.4-5.9 6.6c-.6.7-.9 1.3-.9 2 0 .6.3 1.3 1 1.8.6.6 1.3.8 1.9.8s1.3-.4 1.9-1.1l5.9-6.6 2.7 2.4-5.9 6.6c-.9 1-1.8 1.6-2.9 1.9s-2.1.3-3.1 0-1.9-.8-2.7-1.5c-1.3-1.1-2-2.5-2.2-4.1-.2-1.7.3-3.2 1.6-4.6z" fill="#0075a8"/><path d="m238.8 277.1c1.5 1.9 2.1 3.8 2 5.8s-1.1 3.7-2.8 5.1-3.6 1.9-5.6 1.5c-2-.3-3.8-1.4-5.2-3.3l-3.2-4.1 11.6-9.2zm-10.5 6.2 1 1.3c.9 1.1 1.9 1.7 3 1.8 1.2.1 2.3-.3 3.4-1.2s1.8-1.9 1.9-3c.2-1.1-.2-2.3-1-3.3l-1-1.3z" fill="#0075a8"/><circle cx="160" cy="340.5" fill="#0075a8" r="66.4"/><circle cx="472.6" cy="160" fill="#ecf0f1" r="125"/><path d="m405.1 90.7c.7.7 1.2 1.6 1.4 2.7.1.6 0 1.3-.3 2-.3.8-.8 1.5-1.5 2.3l-1.5 1.7 4.3 3.9-2.4 2.7-11-9.9 3.9-4.3c1.2-1.3 2.4-2 3.7-2.1 1.3-.2 2.4.2 3.4 1zm-3.9 6.9 1.5-1.7c.4-.4.5-.8.5-1.3s-.2-.9-.6-1.2c-.4-.4-.8-.5-1.3-.5s-.9.2-1.2.6l-1.5 1.7z" fill="#0075a8"/><path d="m410.5 91.5-5.5-6.9 2.8-2.2 5.5 6.9c.6.7 1.1 1.1 1.8 1.2.6.1 1.3-.1 2-.6s1-1.1 1.1-1.8-.2-1.3-.7-2l-5.5-6.9 2.8-2.2 5.5 6.9c.8 1 1.3 2.1 1.4 3.2s-.1 2.1-.5 3.1-1.1 1.7-2 2.4c-1.3 1.1-2.8 1.5-4.4 1.4-1.7-.2-3.1-1-4.3-2.5z" fill="#0075a8"/><path d="m419.4 73.8 5.6-3.1c1.3-.7 2.5-1 3.7-.8 1.1.2 2 .8 2.5 1.8.8 1.5.5 2.9-.9 4.4.9-.4 1.8-.4 2.7-.1.8.3 1.5.9 1.9 1.7.6 1 .6 2.1.2 3.1s-1.3 1.9-2.7 2.7l-6 3.3zm4.5.7 1.5 2.8 2.1-1.1c.5-.2.8-.6.9-1s.1-.8-.2-1.3-.6-.7-1-.8-.8 0-1.3.2zm4.4 8.2 2.4-1.3c.4-.2.7-.6.9-1 .1-.4.1-.8-.2-1.3-.2-.5-.6-.7-1-.9-.4-.1-.8-.1-1.3.2l-2.4 1.3z" fill="#0075a8"/><path d="m434.2 66.4 3.4-1.3 4.2 11.3 4.2-1.6 1 2.6-7.6 2.8z" fill="#0075a8"/><path d="m449.6 76.8-3.6-14.4 3.5-.9 3.6 14.4z" fill="#0075a8"/><path d="m457.6 72.8c-1.6-1.3-2.6-3-2.8-5.2s.3-4.1 1.6-5.6c1.3-1.6 3-2.5 5.1-2.7 1.6-.2 3.1.1 4.5.8s2.4 1.8 3.1 3.3l-4.3.5c-.7-1-1.6-1.5-2.9-1.3-1.2.1-2.2.6-2.8 1.5-.6.8-.9 1.9-.7 3.2.1 1.3.6 2.3 1.4 3s1.8 1 3 .8 2.1-.8 2.5-1.9l4.3-.5c-.3 1.6-1.1 2.9-2.3 3.9s-2.6 1.6-4.2 1.8c-2 .1-3.9-.4-5.5-1.6z" fill="#0075a8"/><path d="m481.3 71.9c-1.2-1.6-1.7-3.5-1.3-5.7s1.3-3.8 3-5 3.6-1.6 5.7-1.3c1.6.3 3 .9 4.1 2s1.8 2.4 2.1 4l-4.3-.7c-.4-1.2-1.2-1.8-2.4-2s-2.2 0-3.1.7c-.8.7-1.3 1.6-1.5 2.9s0 2.4.6 3.2c.6.9 1.5 1.4 2.7 1.6s2.2-.2 2.9-1.2l4.3.7c-.7 1.4-1.8 2.5-3.2 3.2s-2.9.9-4.5.6c-2.2-.4-3.9-1.3-5.1-3z" fill="#0075a8"/><path d="m500.1 62.6 3.4 1.1-3.7 11.5 4.3 1.4-.8 2.6-7.7-2.5z" fill="#0075a8"/><path d="m507.4 78.6c-.7-1.9-.5-3.9.5-5.9s2.5-3.2 4.4-3.9c2-.6 3.9-.4 5.8.5 1.9 1 3.2 2.4 3.8 4.3.7 1.9.5 3.9-.5 5.8-1 2-2.5 3.3-4.4 3.9-2 .6-3.9.5-5.8-.5-1.8-.8-3.1-2.2-3.8-4.2zm8.4 1.6c1-.4 1.8-1.1 2.3-2.3s.7-2.2.4-3.2-1-1.8-2-2.3c-1.1-.5-2.1-.6-3.1-.2s-1.8 1.1-2.3 2.3c-.6 1.2-.7 2.2-.4 3.2s1 1.8 2 2.3c1.1.5 2.1.6 3.1.2z" fill="#0075a8"/><path d="m523.3 82.7 5.3-7 2.9 2.2-5.3 7c-.5.7-.8 1.4-.7 2s.4 1.2 1.1 1.7 1.3.7 2 .6c.6-.1 1.2-.5 1.8-1.2l5.3-7 2.9 2.2-5.3 7c-.8 1-1.7 1.8-2.8 2.1-1.1.4-2.1.5-3.1.3s-2-.7-2.8-1.3c-1.4-1-2.2-2.3-2.5-3.9-.4-1.6.1-3.2 1.2-4.7z" fill="#0075a8"/><path d="m546.2 90.7c1.6 1.7 2.4 3.6 2.4 5.7s-.8 3.8-2.4 5.3-3.4 2.1-5.5 2c-2-.2-3.9-1.1-5.5-2.9l-3.5-3.8 10.9-10zm-9.9 7 1.1 1.2c.9 1 2 1.5 3.1 1.5 1.2 0 2.3-.5 3.3-1.4 1-1 1.6-2 1.7-3.2s-.3-2.2-1.3-3.2l-1.1-1.2z" fill="#0075a8"/><circle cx="472.6" cy="160" fill="#0075a8" r="66.4"/><path d="m459.3 150.9 13.9-8 12.9 7.4 16.6 16.5 3.3-5.7c.8-1.6.8-3.5 0-5.1l-14.2-24.6c-1-1.5-2.6-2.4-4.4-2.5h-28.4c-1.8.1-3.4 1-4.4 2.5l-14.2 24.6c-.8 1.6-.8 3.5 0 5.1l14.2 24.6c1 1.5 2.6 2.4 4.4 2.5h22l-21.7-21.6z" fill="#fff"/><path d="m491.7 185.6 10.8-18.8-16.6-16.4-12.8-7.4-13.8 8v15.6l21.7 21.6h6.3c1.8-.2 3.4-1.1 4.4-2.6z" fill="#fff"/><path d="m485.9 150-11.3-6.5c-.8-.5-1.8-.5-2.6 0l-11.3 6.5c-.8.5-1.3 1.3-1.3 2.3v13c0 .9.5 1.8 1.3 2.3l11.3 6.5c.8.5 1.8.5 2.6 0l11.3-6.5c.8-.5 1.3-1.3 1.3-2.3v-13c0-1-.5-1.8-1.3-2.3zm-12.5 21.8-10.8-6.2 4.1-2.5 6.5 3.2v-6.9l-7-3.6v6.1l-4.4 2.7v-12.2l10.5-6v5.2l-5.7 3.3 6.7 3.7 6.7-3.7-6-3.3v-5.2l10.5 6v12.1l-3.5-2.5v-6.1l-7 3.6v6.9l5.9-3.2 4.1 2.5z" fill="#0075a8"/><path d="m769.1 358.3-5.7 1.3v-36.7l5.7 1.3z" fill="#fff"/><path d="m776.2 360.5-7.1 2v-42.5l7.1 2zm9 2.2-9.1 3.3v-49.5l9.1 3.3zm24.3-4.3-24.3 12.1v-58.5l24.3 12.1z" fill="#fff"/><path d="m780.4 314.4 4.8-2.4v58.6l-4.8-2.4zm-8 4 3.7-1.9v49.5l-3.7-1.9zm-6.3 3.1 3-1.5v42.4l-3-1.5zm-2.7 1.4-2.4 1.2v34.3l2.4 1.2z" fill="#dee1e3"/><path d="m197.7 329.5-.8-4.9c-.3-1.6-.9-2.9-1.4-2.9s-.9 1.3-.9 2.9v1.3c0 1.6-1.3 2.9-2.9 2.9h-1.3c-.1 0-.2 0-.3 0v3.5h.3 4.8c1.7.1 2.8-1.2 2.5-2.8" fill="#fff"/><path d="m186.1 325.3h-7.9c-.1 0-.1 0-.2 0h-8c-.1 0-.2 0-.3 0v-.8c0-1.6-.4-2.9-.9-2.9s-1.1 1.3-1.4 2.9l-.8 4.9c-.3 1.6.8 2.9 2.4 2.9h4.9c.5 0 1-.1 1.4-.2-.2.8-.9 1.4-1.7 1.4h-6.8c-1.1 0-1.9-1-1.7-2.1l.7-4.1c.2-1.1-.6-2.1-1.7-2.1h-33.7c-.7 0-1.3.4-1.6 1.1l-6.3 9.7c-.1.2-.1.4 0 .5l1.2 1.5c.2.2.4.2.6.1l4.3-3.4v20.7c0 1 .8 1.8 1.8 1.8h9.6c1 0 1.8-.8 1.8-1.8v-7.2c0-1 .8-1.8 1.8-1.8h23.9c1 0 1.8.8 1.8 1.8v7.2c0 1 .8 1.8 1.8 1.8h9.6c1 0 1.8-.8 1.8-1.8v-7.8h-5.1c-1.6 0-2.9-1.3-2.9-2.9v-4.9c0-.9.5-1.8 1.2-2.3v5.9c0 1.6 1.3 2.9 2.9 2.9h7.9c1.6 0 2.9-1.3 2.9-2.9v-15.1c-.4-1.6-1.7-3-3.3-3" fill="#fff"/><path d="m785.1 729.5v-10.9c11.6 0 20.5-11.4 16-23.5-1.6-4.5-5.2-8.1-9.7-9.7-8.9-3.4-18.8 1.2-22.2 10.1-.7 1.9-1.1 3.9-1.1 6h-10.9c0-18.2 17.7-32.6 37-26.6 8.4 2.6 15 9.3 17.7 17.7 6 19.3-8.4 36.9-26.8 36.9z" fill="#fff"/><path d="m785.3 718.6h-10.9v-10.7h10.9" fill="#fff"/><path d="m774.4 727.1h-8.3v-8.5h8.3z" fill="#fff"/><path d="m766.1 718.6h-6.9v-6.9h6.9" fill="#fff"/><g fill="#313131"><path d="m710.7 411.4 1.3-2.3-3.5-4-2.4 1-2.5-2.9 14.5-6 2.9 3.3-7.7 13.7zm.5-7.4 2.3 2.6 2.8-4.8z"/><path d="m741.1 417-8.6 12.1-2.9-2.1 4.8-6.8-7.6 4.8-2.2-1.5 2-8.8-4.8 6.8-2.9-2.1 8.6-12.1 3.4 2.4-2.4 10.8 9.4-5.9z"/><path d="m749.3 436.8.2-2.6-4.9-2-1.7 2-3.6-1.5 10.4-11.8 4.1 1.7-.9 15.7zm-2.9-6.9 3.2 1.3.4-5.5z"/><path d="m772.3 427.6-.6 2.7-8.1 7.8 6.2 1.3-.6 2.7-10.2-2.2.6-2.7 8.1-7.8-6.2-1.3.6-2.7z"/><path d="m778.4 441.1c-1.4-1.5-2.2-3.3-2.1-5.5 0-2.2.8-4 2.3-5.4s3.3-2.1 5.4-2.1 3.9.8 5.3 2.2 2.1 3.3 2.1 5.5-.8 4-2.3 5.4-3.3 2.1-5.4 2.1-3.9-.7-5.3-2.2zm8.2-2.2c.7-.8 1.1-1.8 1.1-3.1s-.3-2.3-1-3.1-1.6-1.2-2.8-1.2-2.1.4-2.9 1.1c-.7.8-1.1 1.8-1.1 3.1s.3 2.3 1 3.1 1.6 1.2 2.8 1.2c1.3 0 2.2-.3 2.9-1.1z"/><path d="m805.7 426 3.5-.7 3 14.6-3.5.7-7.8-8 1.9 9.2-3.5.7-3-14.6 3.5-.7 7.8 8z"/><path d="m830.4 416 1.3 2.4-4.7 2.5 1.5 2.8 4.2-2.2 1.3 2.4-4.2 2.2 1.6 3 4.7-2.5 1.3 2.4-7.9 4.2-7-13.1z"/><path d="m844.1 422.4c-2-.2-3.7-1.2-5.1-2.9s-1.9-3.6-1.7-5.6c.3-2 1.2-3.7 2.9-5 1.3-1 2.7-1.6 4.2-1.7s3 .3 4.4 1.2l-3.4 2.7c-1.1-.5-2.2-.4-3.1.4-1 .8-1.5 1.7-1.6 2.7s.3 2.1 1.1 3.1 1.7 1.6 2.8 1.8 2-.1 3-.9 1.3-1.8 1.1-3l3.4-2.7c.6 1.5.6 3 .2 4.5-.5 1.5-1.3 2.7-2.6 3.8-1.7 1.2-3.6 1.8-5.6 1.6z"/><path d="m859.7 411.2-2-1.7c0-.5 0-1.2 0-2.1s0-1.6 0-2.1 0-1.1-.1-1.8c0-.7-.1-1.3-.2-1.7-.3-1.1-.7-1.9-1.2-2.3-.9-.8-1.7-.8-2.4 0-.3.4-.5.8-.4 1.3s.4.9.9 1.3l-2.3 2.6c-1.3-1.1-1.9-2.3-2-3.6 0-1.3.5-2.6 1.5-3.8s2.2-1.9 3.5-1.9c1.3-.1 2.4.3 3.4 1.1.7.6 1.2 1.3 1.5 2.1.2.5.3.9.4 1.2s.2.8.2 1.4c.1.6.1 1 .1 1.3s0 .8.1 1.5c0 .7 0 1.2.1 1.4l3.6-4.2 2.2 1.9z"/><path d="m710.1 747.2c1.2 2 1.7 4 1.3 6s-1.5 3.6-3.3 4.8-3.8 1.5-5.7.9c-2-.6-3.6-1.8-4.8-3.9l-2.8-4.4 12.6-7.8zm-11.1 5 .8 1.4c.7 1.2 1.7 1.9 2.8 2.1s2.3 0 3.5-.8c1.2-.7 2-1.7 2.3-2.8s.1-2.3-.6-3.4l-.8-1.4z"/><path d="m706.2 767.2 11.2-9.7 2.4 2.7-11.2 9.7z"/><path d="m716.2 775.1c-.2-2 .4-3.9 1.8-5.6s3.1-2.6 5.2-2.7c2-.1 3.9.5 5.5 1.8 1.3 1.1 2.1 2.3 2.5 3.8s.3 3-.3 4.5l-3.3-2.8c.3-1.2-.1-2.2-1-3s-1.9-1.1-3-1c-1 .1-2 .7-2.8 1.7s-1.2 2-1.2 3.1c0 1 .5 2 1.4 2.7.7.6 1.3.8 2 .9.7 0 1.3-.2 1.9-.6l-3.2-2.7 1.8-2.1 6.2 5.2-1.8 2.1c-1.1.9-2.5 1.3-4.1 1.5-.8.1-1.6-.1-2.5-.3-.9-.3-1.7-.7-2.4-1.3-1.6-1.5-2.5-3.2-2.7-5.2z"/><path d="m730.3 788.4 7.7-12.7 3.1 1.9-7.7 12.7z"/><path d="m743.8 782.4 1.1-2.5 10.7 4.7-1.1 2.5-3.7-1.6-4.8 11.1-3.3-1.4 4.8-11.1z"/><path d="m765.8 802.5-.3-2.6-5.2-1.2-1.4 2.2-3.7-.9 8.3-13.3 4.3 1 1.7 15.6zm-3.9-6.3 3.4.8-.5-5.5z"/><path d="m777 789.1 3.6.2-.6 12 4.5.2-.1 2.7-8.1-.4z"/><path d="m802.2 800.9c-1.8-1.1-2.9-2.7-3.4-4.8s-.2-4.1 1-5.8c1.1-1.7 2.7-2.8 4.8-3.3s4-.2 5.7.9 2.8 2.7 3.3 4.8.2 4.1-.9 5.8-2.7 2.8-4.8 3.3-4 .2-5.7-.9zm7.5-4.1c.5-.9.6-2 .4-3.3s-.9-2.2-1.7-2.8c-.9-.6-1.9-.8-3-.5-1.2.3-2 .8-2.5 1.8-.5.9-.6 2-.4 3.3s.9 2.2 1.7 2.8c.9.6 1.9.8 3 .5s2-.9 2.5-1.8z"/><path d="m823.1 795c-1.9-.7-3.4-2-4.3-4s-1-3.9-.3-5.9c.7-1.9 2.1-3.3 4-4.2 1.5-.7 3-.9 4.5-.7 1.5.3 2.8 1 4 2.2l-3.9 1.8c-1-.7-2-.9-3.1-.3-1.1.5-1.8 1.3-2.2 2.3-.3 1-.2 2.1.3 3.3s1.3 2 2.3 2.4 2 .3 3.1-.2 1.7-1.4 1.8-2.6l3.9-1.8c.2 1.6-.1 3.1-.9 4.4s-1.9 2.3-3.4 3c-2 .8-3.9.9-5.8.3z"/><path d="m840.2 770.3 1.6 2.2-4.4 3.1 1.9 2.6 3.8-2.8 1.6 2.2-3.8 2.8 2 2.8 4.4-3.1 1.6 2.2-7.3 5.2-8.6-12.1z"/><path d="m861.6 770.3-2.4-1.1-3.7 3.8 1.2 2.3-2.7 2.8-7.1-14 3-3.2 14.3 6.6zm-7.4.1 2.4-2.5-5-2.4z"/><path d="m861.3 745.7 1.9-3.1 12.6 7.9-1.9 3.1-11.1.1 7.9 5-1.9 3.1-12.6-7.9 1.9-3.1 11.1-.1z"/><path d="m416.6 968.2 3.3-15.4 3.3 2-2.8 11.5 9.1-7.7 3.3 2-12.3 9.8z"/><path d="m440.3 966.6c-.4-.2-.8-.2-1.2-.1s-.6.4-.8.8-.2.8 0 1.2.4.7.8 1c.3.3.7.6 1.2.9.4.3.9.6 1.3 1s.8.8 1.1 1.2.5.9.6 1.5 0 1.2-.3 1.9c-.4 1.2-1.3 2-2.6 2.5s-2.7.4-4.2-.2c-1.6-.6-2.7-1.4-3.3-2.6-.7-1.1-.7-2.4-.2-3.7l3.6 1.4c-.3 1.1 0 1.9 1.1 2.3.5.2.9.2 1.3 0s.6-.4.8-.8c.1-.4.1-.8 0-1.1-.2-.3-.4-.7-.8-1-.3-.3-.7-.6-1.2-.9s-.9-.7-1.3-1c-.4-.4-.8-.8-1.1-1.2s-.5-.9-.6-1.5 0-1.2.3-1.8c.5-1.3 1.4-2.1 2.6-2.5 1.3-.4 2.6-.3 4.1.2 1.5.6 2.6 1.4 3.2 2.4.7 1 .7 2.3.2 3.8l-3.7-1.4c.1-.5.1-1 0-1.3-.2-.6-.5-.8-.9-1z"/><path d="m462 974.1c-.2 1-.7 1.9-1.6 2.6-.5.4-1.1.7-1.9.8-.8.2-1.7.2-2.7 0l-2.2-.4-1 5.7-3.5-.6 2.7-14.6 5.7 1c1.7.3 2.9 1 3.7 2 .7 1.1 1 2.2.8 3.5zm-7.9.3 2.2.4c.5.1 1 0 1.4-.2.4-.3.6-.7.7-1.2s0-1-.2-1.4c-.3-.4-.6-.6-1.2-.7l-2.2-.4z"/><path d="m476.7 969.9 3.6-.1.2 14.8-3.6.1-.1-6.1-5.7.1.1 6.1-3.6.1-.2-14.8 3.6-.1.1 5.9 5.7-.1z"/><path d="m494.6 967.2.5 2.7-5.3 1.1.6 3.1 4.6-.9.5 2.7-4.6.9.7 3.4 5.3-1.1.5 2.7-8.8 1.8-3-14.6z"/><path d="m506.5 972.9 2.1 5.4-3.4 1.3-5.5-13.8 5.4-2.2c1.6-.6 3-.7 4.2-.2s2.1 1.3 2.5 2.5c.3.8.4 1.7.2 2.6s-.8 1.8-1.7 2.5l5.6 4.3-3.9 1.6-5.2-4.1zm-2.3-5.9 1.3 3.3 2.1-.8c.5-.2.9-.5 1-.9.2-.4.2-.9 0-1.4s-.5-.8-.9-1-.9-.2-1.4 0z"/><path d="m522.5 954.5 1.4 2.3-4.6 2.8 1.7 2.7 4-2.5 1.4 2.3-4 2.5 1.8 2.9 4.6-2.8 1.4 2.3-7.6 4.7-7.8-12.6z"/><path d="m69.5 746c.5-2 1.8-3.5 3.7-4.6s3.9-1.3 5.8-.7c2 .6 3.5 1.8 4.5 3.7.8 1.4 1.1 2.9 1 4.5-.1 1.5-.8 2.9-1.9 4.1l-2.1-3.8c.7-1 .7-2.1.1-3.1-.6-1.1-1.4-1.7-2.4-2-1-.2-2.1-.1-3.2.6-1.1.6-1.9 1.4-2.2 2.4s-.2 2 .4 3.1 1.5 1.6 2.7 1.6l2.1 3.8c-1.6.3-3.1.1-4.5-.6s-2.5-1.8-3.3-3.2c-1-1.9-1.3-3.8-.7-5.8z"/><path d="m89.6 754.3 2.3 2.8-9.4 7.6 2.8 3.5-2.1 1.7-5.1-6.3z"/><path d="m91.8 770.4 5.8-6.7 2.7 2.4-5.8 6.7c-.6.7-.9 1.3-.8 2 0 .6.3 1.2 1 1.8s1.3.8 1.9.7c.7-.1 1.3-.4 1.9-1.1l5.8-6.7 2.7 2.4-5.8 6.7c-.9 1-1.8 1.6-2.9 2-1.1.3-2.1.3-3.1 0s-1.9-.8-2.7-1.5c-1.3-1.1-2-2.5-2.2-4.1-.4-1.6.2-3.1 1.5-4.6z"/><path d="m114.5 779.8c-.4-.2-.8-.3-1.1-.2-.4.1-.7.3-.9.7s-.3.8-.2 1.1.3.7.6 1.1c.3.3.6.7 1 1.1s.8.8 1.1 1.2c.4.4.6.9.9 1.3.2.5.3 1 .3 1.6s-.2 1.2-.6 1.8c-.6 1.1-1.6 1.8-2.9 2-1.3.3-2.7 0-4.2-.8-1.4-.8-2.4-1.8-2.9-3.1-.5-1.2-.4-2.4.4-3.7l3.3 1.9c-.5 1.1-.3 1.9.7 2.4.5.3.9.3 1.3.3.4-.1.7-.3.9-.7s.3-.7.2-1.1-.3-.7-.6-1.1c-.3-.3-.6-.7-1-1.1s-.8-.8-1.1-1.2c-.4-.4-.6-.9-.9-1.3-.2-.5-.3-1-.3-1.5 0-.6.2-1.2.6-1.8.7-1.2 1.7-1.9 3-2.1s2.6.1 4 .9 2.3 1.8 2.8 2.9.4 2.4-.4 3.7l-3.4-2c.2-.5.3-.9.2-1.3-.2-.5-.4-.8-.8-1z"/><path d="m123.7 784.8.9-2.6 11 4-.9 2.6-3.8-1.4-4.1 11.4-3.4-1.2 4.1-11.4z"/><path d="m148.8 788.8-.5 2.7-5.3-1-.6 3.1 4.6.8-.5 2.7-4.6-.8-.6 3.4 5.3 1-.5 2.7-8.8-1.6 2.6-14.6z"/><path d="m157.8 798.5v5.8h-3.6l.1-14.8h5.8c1.7 0 3 .5 4 1.3 1 .9 1.4 2 1.4 3.2 0 .9-.3 1.7-.8 2.5s-1.4 1.4-2.6 1.7l3.6 6h-4.2l-3.3-5.8zm0-6.3v3.6h2.2c.5 0 1-.2 1.3-.5s.5-.7.5-1.3c0-.5-.2-1-.5-1.3s-.7-.5-1.3-.5z"/><path d="m188.4 784.7 3.5-1 4.3 14.2-3.5 1.1-8.5-7.2 2.7 8.9-3.5 1.1-4.3-14.2 3.5-1 8.5 7.2z"/><path d="m204.4 792.1c-2-.5-3.5-1.8-4.6-3.7s-1.3-3.9-.7-5.8c.6-2 1.8-3.5 3.7-4.5s3.8-1.3 5.7-.7c2 .5 3.5 1.8 4.5 3.7s1.3 3.9.7 5.8c-.6 2-1.8 3.5-3.7 4.5-1.7.9-3.6 1.2-5.6.7zm6-6.1c.2-1 .1-2.1-.6-3.2-.6-1.1-1.4-1.9-2.4-2.2s-2-.2-3.1.4c-1 .6-1.7 1.4-1.9 2.4s-.1 2.1.6 3.2c.6 1.1 1.4 1.9 2.4 2.2s2 .2 3.1-.4 1.7-1.4 1.9-2.4z"/><path d="m217.2 768.2c1.8-1.6 3.7-2.3 5.7-2.3s3.8.9 5.2 2.5 2 3.5 1.8 5.5-1.2 3.8-3 5.4l-3.9 3.4-9.8-11.1zm6.8 10.2 1.2-1.1c1-.9 1.6-1.9 1.6-3.1s-.4-2.3-1.4-3.3c-.9-1.1-2-1.7-3.1-1.8s-2.2.3-3.3 1.2l-1.2 1.1z"/><path d="m231.9 752.3 2.2 1.7-3.3 4.2 2.5 2 2.9-3.7 2.2 1.7-2.9 3.7 2.7 2.1 3.3-4.2 2.2 1.7-5.5 7.1-11.7-9.2z"/><path d="m239.6 744.6c-.2.4-.3.8-.2 1.1.1.4.3.7.7.9s.8.3 1.1.2c.4-.1.7-.3 1.1-.6.3-.3.7-.7 1-1.1.4-.4.8-.8 1.2-1.2s.8-.7 1.3-.9 1-.4 1.5-.4c.6 0 1.2.2 1.8.5 1.1.6 1.8 1.5 2.1 2.9.3 1.3.1 2.7-.7 4.2s-1.8 2.5-3 3-2.4.4-3.7-.3l1.8-3.4c1.1.5 1.9.2 2.4-.8.2-.5.3-.9.2-1.3s-.3-.7-.7-.9-.7-.2-1.1-.1-.7.3-1.1.6c-.3.3-.7.7-1.1 1.1s-.8.8-1.2 1.2-.9.7-1.3.9-1 .4-1.5.4c-.6 0-1.2-.2-1.8-.5-1.2-.7-1.9-1.6-2.2-2.9-.2-1.3 0-2.6.8-4.1s1.7-2.4 2.8-2.9 2.4-.4 3.7.3l-1.9 3.5c-.5-.2-.9-.2-1.3-.1-.2 0-.5.3-.7.7z"/><path d="m140.6 435.6-1 5.7-3.5-.7 2.7-14.6 5.7 1.1c1.7.3 2.9 1 3.7 2s1.1 2.2.8 3.4c-.2.8-.6 1.6-1.2 2.3-.7.7-1.6 1.1-2.8 1.2l2.5 6.6-4.1-.8-2.2-6.3zm1.1-6.3-.6 3.5 2.2.4c.5.1 1 0 1.4-.2s.6-.7.7-1.2 0-1-.2-1.4c-.3-.4-.6-.6-1.2-.7z"/><path d="m158.8 443.3h-3.6l-.2-14.8h3.6l.1 6.5 4.8-6.6 4.7-.1-6 7.5 6.2 7.3-4.6.1-5.1-6.5z"/><path d="m181.3 425.9.5 2.7-5.3 1 .6 3.1 4.6-.9.5 2.7-4.6.9.7 3.4 5.3-1 .5 2.7-8.8 1.7-2.9-14.6z"/><path d="m449.4 258.2c-1.2-1.7-1.6-3.6-1.2-5.7s1.4-3.8 3.1-4.9 3.6-1.5 5.7-1.1c1.6.3 3 1 4.1 2.1s1.8 2.4 2 4.1l-4.2-.8c-.4-1.2-1.1-1.9-2.4-2.1-1.2-.2-2.2 0-3.1.6-.8.6-1.4 1.6-1.6 2.9s-.1 2.4.5 3.2c.6.9 1.4 1.4 2.6 1.7.8.2 1.6.1 2.2-.3.6-.3 1.1-.8 1.4-1.5l-4.1-.8.5-2.7 7.9 1.4-.5 2.7c-.5 1.3-1.5 2.4-2.9 3.3-.7.4-1.5.8-2.4 1s-1.8.2-2.8 0c-2-.5-3.6-1.5-4.8-3.1z"/><path d="m472.6 262.8-3.6.1-.3-14.8 3.6-.1.1 6.5 4.7-6.6 4.7-.1-5.9 7.5 6.3 7.3-4.6.1-5.1-6.4z"/><path d="m494.9 245.1.6 2.7-5.2 1.1.6 3.1 4.6-1 .6 2.7-4.6 1 .7 3.4 5.2-1.1.6 2.7-8.8 1.8-3-14.5z"/></g><path d="m438.1 867.7c-1.1 0-2.1.5-2.7 1.5-.6.9-.6 2.1-.1 3.1l12.6 25.2c.8 1.6 2.7 2.2 4.2 1.4.6-.3 1-.7 1.3-1.3l11.8-20.8s1.5-2.7 4.3-2.7h.1s.9 0 1.7.4 1.4.6 1.4 2.7v18.9c0 1.1.6 2.2 1.6 2.8s2.2.6 3.2 0 1.6-1.6 1.6-2.8v-17.3c0-2.6 2.1-4.7 4.7-4.7s4.7 2.1 4.7 4.7v17.3c0 1.6 1.2 3 2.9 3.2h.3c1.7 0 3.1-1.5 3.1-3.2v-17.3c0-2.6 2.1-4.7 4.7-4.7s4.7 2.1 4.7 4.7v17.3c0 1.1.6 2.2 1.6 2.8s2.2.6 3.2 0 1.6-1.6 1.6-2.8v-17.3c0-5.6-4.4-10.2-9.9-10.8-.4-.1-.7-.2-1.1-.2-3 0-5.8 1.2-7.9 3.3-2.1-2.1-4.9-3.3-7.9-3.3-.4 0-.8.1-1.1.2-2.3.3-4.4 1.2-6.1 2.7-.7-.8-1.5-1.4-2.4-1.8-2.3-1.2-4.5-1.1-4.6-1.1-6.6 0-9.8 6-9.8 6l-8.9 15.7-9.9-19.9c-.7-1.1-1.8-1.8-2.9-1.9z" fill="#fff"/><circle cx="155.5" cy="688.1" fill="#fff" r="4.5"/><circle cx="146.6" cy="697" fill="#fff" r="4.5"/><ellipse cx="164.4" cy="679.2" fill="#fff" rx="4.5" ry="4.5" transform="matrix(.3827 -.9239 .9239 .3827 -525.9835 571.1894)"/><ellipse cx="182.3" cy="697" fill="#fff" rx="4.5" ry="4.5" transform="matrix(.9871 -.1602 .1602 .9871 -109.2996 38.1985)"/><circle cx="173.4" cy="688.1" fill="#fff" r="4.5"/><ellipse cx="164.4" cy="697" fill="#fff" rx="4.5" ry="4.5" transform="matrix(.9871 -.1602 .1602 .9871 -109.5301 35.3395)"/><circle cx="155.5" cy="723.8" fill="#fff" r="4.5"/><circle cx="146.6" cy="714.9" fill="#fff" r="4.5"/><circle cx="155.5" cy="706" fill="#fff" r="4.5"/><ellipse cx="137.7" cy="706" fill="#fff" rx="4.5" ry="4.5" transform="matrix(.9871 -.1602 .1602 .9871 -111.3053 31.1662)"/><ellipse cx="164.4" cy="714.9" fill="#fff" rx="4.5" ry="4.5"/><circle cx="173.4" cy="706" fill="#fff" r="4.5"/><path d="m160 670.3c-17.2 0-31.2 14-31.2 31.2s14 31.2 31.2 31.2 31.2-14 31.2-31.2-14-31.2-31.2-31.2zm17.5 52c-.6-1.7-2.3-2.9-4.2-2.9-2.5 0-4.5 2-4.5 4.5 0 1.1.4 2.2 1.1 3-3.1 1.2-6.5 1.9-10.1 1.9-15 0-27.2-12.2-27.2-27.2 0-3.6.7-7 1.9-10.1.8.7 1.8 1.1 3 1.1 2.5 0 4.5-2 4.5-4.5 0-1.9-1.2-3.6-2.9-4.2 1-1.2 2.1-2.2 3.2-3.2.6 1.7 2.3 2.9 4.2 2.9 2.5 0 4.5-2 4.5-4.5 0-1.1-.4-2.2-1.1-3 3.1-1.2 6.5-1.9 10.1-1.9 15 0 27.2 12.2 27.2 27.2 0 3.6-.7 7-1.9 10.1-.8-.7-1.8-1.1-3-1.1-2.5 0-4.5 2-4.5 4.5 0 1.9 1.2 3.6 2.9 4.2-.9 1.1-2 2.2-3.2 3.2z" fill="#fff"/><path d="m424.9 807.4c-2-.5-3.5-1.8-4.6-3.7s-1.3-3.9-.7-5.8c.6-2 1.8-3.5 3.7-4.5s3.8-1.3 5.7-.7 3.5 1.8 4.5 3.7c1.1 1.9 1.3 3.9.7 5.8-.6 2-1.8 3.5-3.7 4.5-1.7 1-3.6 1.3-5.6.7zm6.1-6c.2-1 .1-2.1-.6-3.2s-1.4-1.9-2.4-2.2-2-.2-3.1.4c-1 .6-1.7 1.4-1.9 2.4s-.1 2.1.6 3.2c.6 1.1 1.4 1.9 2.4 2.2s2 .2 3.1-.4 1.6-1.4 1.9-2.4z" fill="#0075a8"/><path d="m443.6 785 3.4-1.1 4.7 14.1-3.4 1.1-8.7-7 2.9 8.9-3.4 1.1-4.7-14.1 3.4-1.1 8.7 7z" fill="#0075a8"/><path d="m453.8 791.6-.5-3 9.2-1.4.5 3z" fill="#0075a8"/><path d="m478.4 785.4c0 1-.4 2-1.1 2.9-.4.5-.9.9-1.7 1.2s-1.6.5-2.7.5h-2.2v5.8h-3.6v-14.8h5.8c1.7 0 3.1.4 4 1.3s1.5 1.8 1.5 3.1zm-7.7 1.8h2.2c.5 0 1-.2 1.3-.5s.5-.8.5-1.3-.2-1-.5-1.3-.8-.5-1.3-.5h-2.2z" fill="#0075a8"/><path d="m485.1 790.8-.9 5.7-3.6-.6 2.3-14.6 5.8.9c1.7.3 2.9.9 3.8 1.9.8 1 1.1 2.2.9 3.4-.1.8-.5 1.6-1.2 2.4-.6.7-1.6 1.2-2.8 1.3l2.6 6.5-4.2-.7-2.4-6.2zm1-6.3-.6 3.5 2.2.3c.5.1 1 0 1.4-.3s.6-.7.7-1.2 0-1-.3-1.4-.7-.6-1.2-.7z" fill="#0075a8"/><path d="m507.7 787-.8 2.6-5.1-1.6-1 3 4.5 1.4-.8 2.6-4.5-1.4-1 3.3 5.1 1.6-.8 2.6-8.5-2.7 4.5-14.1z" fill="#0075a8"/><path d="m527.7 796.8-7 13.1-3.2-1.7 3.9-7.4-7 5.8-2.4-1.3.9-9-3.9 7.4-3.2-1.7 7-13.1 3.6 1.9-1 11 8.5-7z" fill="#0075a8"/></svg>